<svg id="Layer_1" xmlns="http://www.w3.org/2000/svg" viewBox="0 0 1920 730"><style>.st0,.st1{fill:none;stroke:#3495d1;stroke-miterlimit:10}.st1{stroke:#000}.st2{fill:#353535}</style><path class="st0" d="M1102.6 246.4c-12 34.8-18.6 72.1-18.6 110.9 0 29 3.7 57.2 10.5 84.1m510.8-370c-52.6-33.6-115.2-53.1-182.3-53.1-78.4 0-150.5 26.6-208 71.3m529.8 374.6c11.2-33.6 17.2-69.5 17.2-106.9m-519.9 286.8c34.6 21.8 73.3 37.6 114.8 45.8"/><path class="st1" d="M0 18.3h1920"/><path class="st2" d="M1122.7 236.4l-22.1-16.2 4.1-9.4 26.9 5.2-2.2 5-4.8-1-3.7 8.6 4 2.9-2.2 4.9zm-16.3-18.2l10.5 7.6 2.9-6.7-12.7-2.6-.7 1.7zm26.6-5l-23.6-12.6 4.3-8.1 22.5 4.6.1-.3-19.5-10.3 2.6-4.8 23.6 12.6-4.2 7.9-22.6-4.4-.2.4 19.5 10.3-2.5 4.7zm11.6-21.6l-19.4-19.5 5.5-8.6 25.8 9.2-2.9 4.6-4.6-1.7-5 7.9 3.5 3.5-2.9 4.6zm-13.2-20.5l9.2 9.1 3.9-6.2-12.2-4.5-.9 1.6zm36-13.1l-8.9 12.3-21.6-15.7 3.2-4.4 17.7 13 5.8-7.9 3.8 2.7zm6.7-8.1l-3.4 4.2-8.4-6.8-17.6-3.6 3.8-4.7 11.4 2.9-5.2-10.5 3.8-4.7 7.2 16.4 8.4 6.8zm-10.2-22.2l-3.4-3.2 12-13 3.4 3.2 4.6 19.5.5.5 7.6-8.2 3.4 3.2-12 12.9-3.3-3.2-4.6-19.5-.5-.5-7.7 8.3zm31.1-.9l-18.4-19.4 12.5-11.9 3.2 3.4-8.6 8.2 4.3 4.5 6.9-6.6 3.2 3.3-6.9 6.6 4.4 4.6 8.6-8.2 3.2 3.4-12.4 12.1zm430.2-24.3c-3.2-2.6-4.7-5.2-4.7-8 .1-2.8 1.6-6 4.5-9.6 2.9-3.6 5.8-5.9 8.6-6.7 2.8-.8 5.7.1 8.8 2.7 3.1 2.6 4.7 5.2 4.6 8.1s-1.7 6.1-4.6 9.8c-3.6 4.5-7.2 6.8-10.5 6.6l-.7 6.2-5.3-1.3.8-6.7c-.3-.2-.8-.5-1.5-1.1zm.9-8c-.2 1.6.5 2.9 2.2 4.3 1.7 1.3 3.2 1.7 4.7 1.1s3.1-2.2 5.2-4.7 3.1-4.6 3.4-6.3c.3-1.7-.4-3.1-2.1-4.4-1.7-1.3-3.2-1.7-4.7-1-1.6.7-3.3 2.3-5.3 4.8-2.1 2.6-3.2 4.6-3.4 6.2zm21.1 14.3c-2.2 2.3-2.1 4.5.3 6.7s4.5 2.1 6.7-.2l12.1-13.1 3.9 3.7-12.1 13c-2.3 2.4-4.5 3.5-6.8 3.5s-4.7-1.2-7.2-3.5c-2.5-2.4-3.8-4.6-4-6.9-.2-2.3.8-4.6 3-7l12.2-13.1 3.9 3.7-12 13.2zm23 31.9c-2.8.3-5.5-1.1-8.3-4-2.8-2.9-3.8-5.8-3.3-8.6s2.5-5.7 6-8.8c3.5-3.1 6.6-4.9 9.4-5.3 2.9-.3 5.6 1 8.4 4 2.8 2.9 3.8 5.9 3.2 8.6-.6 2.8-2.6 5.8-6 8.9-3.5 3.2-6.6 4.9-9.4 5.2zm-6.2-11.8c-.5 1.5 0 3 1.5 4.6 1.5 1.6 2.9 2.2 4.4 1.8 1.6-.4 3.5-1.7 5.9-3.8 2.4-2.2 3.8-4 4.4-5.6s.1-3.1-1.3-4.7c-1.4-1.6-2.9-2.1-4.5-1.7-1.6.4-3.6 1.8-6 3.9-2.4 2.1-3.9 3.9-4.4 5.5zm23.9 3.1l3.7-3 12.3 15.3-3.7 3-4.4-5.5-17.1 13.8-3.4-4.2 17.1-13.8-4.5-5.6zm-3 31.4l21.9-15.3 9.9 14.2-3.8 2.8-6.8-9.7-5.1 3.6 5.5 7.8-3.9 2.7-5.5-7.8-5.2 3.6 6.8 9.7-3.8 2.8-10-14.4zm27.1 25.1l-7.8 4.4-2.7-4.7 23.3-13.2 5.1 9c3.1 5.5 2.1 9.6-3 12.6-3 1.7-5.9 1.9-8.6.4l-7 8.4-2.9-5.2 6.3-7.1-2.7-4.6zm8.9 4c1 .2 2.1-.1 3.1-.7 1.1-.6 1.9-1.5 2.2-2.4.3-1 .2-2-.4-3l-2.5-4.3-7.4 4.2 2.5 4.4c.7 1 1.5 1.6 2.5 1.8zm-7.8 16.6l24.1-11.5 7.5 15.6-4.2 2.1-5.1-10.7-5.6 2.7 4.1 8.6-4.2 2-4.1-8.6-5.8 2.8 5.1 10.7-4.2 2.1-7.6-15.8zm12.1 28.4c-1.5-3.8-1.5-6.9-.1-9.2 1.5-2.4 4.3-4.4 8.7-6.1 4.4-1.8 8-2.3 10.7-1.6 2.8.7 4.8 2.9 6.4 6.8 1.5 3.7 1.5 6.9-.1 9.2-1.6 2.4-4.5 4.4-8.9 6.2-5.4 2.2-9.5 2.3-12.5.5l-3.7 4.9-3.9-3.7 4.1-5.4c-.1-.2-.4-.7-.7-1.6zm4.8-6.5c-1 1.2-1.1 2.9-.3 4.8.8 2 2 3 3.5 3.3 1.6.2 3.8-.3 6.9-1.5 3-1.2 5.1-2.5 6.2-3.7 1.1-1.3 1.3-2.9.5-4.8-.8-2-2-3-3.6-3.2-1.7-.2-4 .3-7 1.5-3.3 1.2-5.3 2.5-6.2 3.6zm11.1 22.9c-2.9.9-4 2.9-3 5.9.9 3 2.9 4.1 5.9 3.1l17-5.2 1.6 5.2-16.9 5.2c-3.1 1-5.7.9-7.7-.3s-3.4-3.3-4.4-6.7c-1-3.2-1-5.9 0-8s3-3.5 6.2-4.5l16.9-5.2 1.6 5.2-17.2 5.3zm-3 22l26-5.9 3.8 16.9-4.6 1.1-2.7-11.6-6.1 1.4 2.1 9.2-4.5 1-2.1-9.2-6.3 1.4 2.7 11.6-4.6 1.1-3.7-17zm28.1 25.3c-.5-2.9-1.6-4.1-3.4-3.8-.8.1-1.4.6-1.8 1.4-.3.8-.7 2.6-1.1 5.2-.4 2.7-1.1 4.6-2 5.9-.9 1.2-2.5 2-4.6 2.4-2.8.4-5-.1-6.7-1.5-1.7-1.5-2.8-3.5-3.1-6.3-.3-2.1-.4-4.5-.3-7.6v-1.5l4.2-.1c.1 3.5.3 6.2.6 8.1.4 2.8 1.8 3.9 4 3.5.8-.1 1.4-.6 1.8-1.3.4-.7.7-2.1.9-4 .4-3.1 1.1-5.4 2.1-6.9 1-1.4 2.6-2.3 4.6-2.7 2.7-.4 4.7.1 6.3 1.5 1.6 1.4 2.6 3.5 2.9 6.3.3 1.9.4 4.4.4 7.5v1.5l-4.3.3c-.1-3.7-.3-6.4-.5-7.9zm1.2 11.7l4.8-.5 1.9 19.6-4.8.5-.7-7.1-21.8 2.2-.5-5.4 21.8-2.1-.7-7.2zm-46.8 173.4l24.2 11.4-7.3 15.4-4.2-2 4.9-10.5-7.1-3.3-4 8.6-4.2-2 4-8.6-8.6-4 2.3-5zm-15.2 36c-1.1-2.6-.7-5.6 1.3-9.1s4.3-5.5 7.1-5.9 6.2.6 10.3 2.9c4.1 2.3 6.8 4.7 8 7.3 1.2 2.6.8 5.6-1.2 9.1s-4.4 5.5-7.2 5.8c-2.8.3-6.3-.7-10.4-2.9-4.2-2.2-6.8-4.7-7.9-7.2zm9.3-9.6c-1.6 0-2.9.9-3.9 2.8-1.1 1.9-1.2 3.4-.3 4.8.9 1.4 2.7 2.9 5.5 4.4 2.9 1.6 5.1 2.4 6.8 2.5 1.7 0 3-.9 4-2.8s1.1-3.4.2-4.8c-.9-1.4-2.8-2.9-5.6-4.4-2.9-1.7-5.1-2.5-6.7-2.5zm-10.8 23.3l-7.5-4.9 2.9-4.5 22.3 14.7-5.7 8.6c-3.4 5.2-7.7 6.3-12.6 3-2.9-2-4.3-4.4-4.2-7.6l-10.6-2.5 3.2-4.9 9.1 2.4 3.1-4.3zm.5 9.9c.3 1 1 1.8 2.1 2.5s2.1 1 3.1.9c1-.1 1.9-.7 2.6-1.8l2.8-4.1-7.1-4.7-2.8 4.2c-.8 1-1 2-.7 3zm4.1 15.6l-3.5 4.4-19.3-11.3-.4.5 14.3 17.6-3.9 4.9-20.2-10.1-.4.5 15.1 16.4-3.5 4.4-17.6-20.7 5.1-6.4 18.5 9.4-13.2-16 5.1-6.4 23.9 12.8zm-43 10.5l15.1 22.9-7.2 7.5-23.5-14.2 3.7-3.9 4.2 2.6 6.5-6.8-2.8-4.1 4-4zm8.9 22.8l-7.3-10.7-5.1 5.3 11 6.9 1.4-1.5zm-24.7 5.7l-6-6.7 4-3.6 17.9 19.9-7.7 7c-4.7 4.2-8.9 4.1-12.9-.2-2.4-2.6-3-5.4-2.3-8.4l-9.6-5 4.4-3.9 8.4 4.6 3.8-3.7zm-2 9.7c.1 1 .5 2 1.4 2.9s1.8 1.5 2.8 1.6 2-.3 2.9-1.1l3.6-3.3-5.7-6.3-3.7 3.3c-.9.9-1.3 1.9-1.3 2.9zm-25 1.4l7.1-5.5 16.4 21.1-7.1 5.5c-1.9 1.4-3.4 2.4-4.9 2.9-1.5.5-2.9.6-4.2.2-1.4-.4-2.6-1.1-3.7-2.1s-2.5-2.5-3.9-4.3c-1.5-1.9-2.6-3.5-3.3-5-.8-1.5-1.2-2.9-1.3-4.3s.2-2.9 1.1-4.2c.8-1.3 2-2.9 3.8-4.3zm2 11.9c.5.7 1.2 1.7 2.1 2.8.9 1.2 1.7 2.1 2.3 2.8s1.3 1.1 2.1 1.5c.8.4 1.6.4 2.4.1.8-.3 1.7-.8 2.8-1.6l2.9-2.2-10.6-13.7-2.9 2.2c-1.6 1.2-2.4 2.5-2.5 3.8-.3 1.1.3 2.5 1.4 4.3zm-14.5-2.5l14.8 22.2-14.4 9.6-2.7-3.9 9.8-6.6-3.4-5.2-8 5.3-2.6-3.8 8-5.3-3.5-5.3-9.8 6.6-2.7-3.9 14.5-9.7zm-18 22.2l-4.4-7.8 4.7-2.7 13.3 23.2-9 5.1c-5.5 3.1-9.6 2.2-12.6-2.9-1.8-3-1.9-5.9-.4-8.6l-8.4-7 5.1-2.9 7.2 6.3 4.5-2.7zm-4 8.9c-.2 1 .1 2.1.7 3.1.6 1.1 1.5 1.9 2.4 2.2.9.3 2 .2 3-.4l4.3-2.5-4.2-7.4-4.3 2.5c-1.1.7-1.8 1.5-1.9 2.5zm-25.5 6.4l-3.6-8.2 4.9-2.2 10.8 24.5-9.4 4.2c-5.7 2.6-9.8 1.2-12.2-4.2-1.4-3.1-1.3-6.1.5-8.6l-7.7-7.8 5.4-2.5 6.5 6.9 4.8-2.1zm-4.8 8.5c-.3 1-.1 2.1.4 3.2s1.3 2 2.2 2.4 2 .4 3.1-.1l4.5-2-3.4-7.8-4.6 2.1c-1.3.5-2 1.2-2.2 2.2zm-15.9-9.4l9.1 25.2-16.2 5.9-1.6-4.4 11.2-4-2.2-5.9-8.9 3.2-1.6-4.3 8.9-3.2-2.2-6-11.2 4-1.6-4.4 16.3-6.1zm-21.7 31c2.8-.8 3.8-2.1 3.3-3.9-.2-.8-.8-1.3-1.6-1.6-.8-.2-2.6-.4-5.3-.5-2.8-.1-4.7-.5-6.1-1.2-1.4-.7-2.3-2.2-2.9-4.2-.8-2.7-.6-5 .7-6.8 1.3-1.9 3.1-3.1 5.8-3.9 2-.6 4.4-1 7.5-1.2l1.5-.1.7 4.2c-3.5.5-6.2 1.1-8 1.6-2.7.8-3.6 2.3-3 4.5.2.8.7 1.4 1.5 1.6.8.2 2.2.4 4.1.4 3.1 0 5.5.4 7.1 1.2 1.6.8 2.6 2.3 3.1 4.2.8 2.6.5 4.7-.7 6.4-1.2 1.7-3.1 2.9-5.9 3.7-1.9.5-4.3 1-7.3 1.3l-1.5.1-.8-4.2c3.8-.6 6.3-1.2 7.8-1.6zm-26.4-8.6l4.3-1-1.7-7.6 5.3-1.2 5.7 26.1-9.6 2.1c-6.2 1.4-9.9-1-11.3-7.1-.7-3-.4-5.6.9-7.6 1.2-1.7 3.3-3 6.4-3.7zm5.3 3.7l-4.2.9c-2.7.6-3.6 2.5-2.9 5.8.4 1.6.9 2.7 1.7 3.2.8.6 1.9.7 3.2.4l4.2-.9-2-9.4zm-37.5-3.3c1.4-2.5 4-3.9 8.1-4.5 4-.6 7 .1 8.9 2.1s3.2 5.3 3.9 9.9c.7 4.7.3 8.3-1 10.8-1.4 2.5-4 4-8.1 4.6-4 .6-7-.2-8.9-2.2-2-2.1-3.2-5.4-3.9-10-.7-4.7-.3-8.2 1-10.7zm13.3 1.7c-1-1.3-2.5-1.8-4.6-1.5s-3.4 1.2-4 2.7c-.6 1.5-.6 3.8-.2 7 .5 3.2 1.2 5.5 2.2 6.8 1 1.3 2.6 1.9 4.6 1.6 2.1-.3 3.4-1.2 3.9-2.8.6-1.6.6-3.9.2-7.2-.4-3.2-1.1-5.4-2.1-6.6zm-20.3-3.7l1.6 26.6-9.1.6-7.8-21.6h-.4l1.4 22-5.4.3-1.6-26.7 8.9-.5 8 21.5h.4l-1.4-22 5.4-.2zm-35.2 23.7c2.9 0 4.3-.9 4.3-2.8 0-.9-.3-1.5-1-2s-2.4-1.1-4.9-2c-2.6-.9-4.4-1.9-5.4-2.9s-1.6-2.8-1.5-4.9c0-2.9.9-4.9 2.7-6.3 1.8-1.4 3.9-2.1 6.7-2.1 2.1 0 4.5.4 7.5 1.1l1.4.3-.6 4.2c-3.5-.5-6.2-.8-8.1-.9-2.8 0-4.2 1.1-4.2 3.4 0 .9.3 1.5.9 2 .6.5 1.9 1 3.8 1.6 3 .9 5.1 2 6.4 3.1 1.2 1.2 1.9 2.9 1.8 5 0 2.7-.9 4.6-2.6 5.9-1.7 1.3-3.9 1.9-6.7 1.9-2 0-4.4-.3-7.4-.9l-1.4-.3.5-4.3c3.6.7 6.2.9 7.8.9zm-12.4-22.8l-2.1 26.6-17.2-1.3.4-4.7 11.8.9.5-6.2-9.5-.7.4-4.6 9.5.7.5-6.4-11.8-.9.4-4.7 17.1 1.3zm-176.9-63.9l-16.7 20.8-7.2-5.7 8.7-21.2-.3-.3-13.8 17.2-4.2-3.4 16.7-20.8 7 5.6-8.6 21.3.3.3 13.8-17.2 4.3 3.4zm-20.8-16.9l-18.2 19.6-12.7-11.8 3.2-3.4 8.6 8.1 4.2-4.6-7-6.5 3.1-3.4 7 6.5 4.3-4.7-8.6-8.1 3.2-3.4 12.9 11.7zm-29.9-16.1l-3.4 3.2-5.3-5.7 10.1-9.5c3 2.4 5.3 4.3 6.9 6 2.9 3 4 5.9 3.4 8.6-.6 2.7-2.6 5.7-6.1 8.9-3.5 3.3-6.7 5.1-9.3 5.4-2.7.3-5.3-1-8.1-3.8-1.7-1.8-3.2-3.9-4.8-6.3l-.8-1.2 3.1-2.8c1.9 2.6 3.5 4.5 4.9 6 1.4 1.5 2.6 2.4 3.4 2.6.9.3 2 .1 3.1-.5 1.2-.6 2.9-2 5.1-4 2.3-2.1 3.5-3.8 3.9-5.2s-.3-2.9-1.9-4.7l-2.4-2.3-3.8 3.5 2 1.8zm-15.2-28.4c2.8-.1 5.4 1.5 8 4.6 2.6 3.1 3.4 6.1 2.9 8.7-.7 2.7-2.9 5.5-6.5 8.5-3.6 2.9-6.9 4.5-9.7 4.6-2.9.1-5.5-1.4-8.1-4.5-2.6-3.1-3.4-6.1-2.8-8.8.8-2.8 2.9-5.6 6.6-8.6 3.6-2.8 6.8-4.4 9.6-4.5zm5.4 12.3c.6-1.5.2-3-1.1-4.7-1.4-1.7-2.8-2.4-4.3-2.1-1.6.3-3.6 1.4-6.1 3.4-2.6 2.1-4.1 3.8-4.7 5.3-.7 1.6-.3 3.1 1 4.7 1.3 1.7 2.8 2.3 4.4 2 1.7-.3 3.7-1.5 6.2-3.5 2.4-1.8 4-3.6 4.6-5.1zm-23.6-4.6l-3.9 2.8-11.3-16.1 3.9-2.8 4 5.8 18-12.6 3.1 4.4-18 12.6 4.2 5.9zm5.1-31.4l-22.6 14.3-2.9-4.6 22.6-14.3 2.9 4.6zm-4.7-7.2l-26.2 7.8-5-9 20.3-18.3 2.7 4.7-3.7 3.2 4.5 8.2 4.7-1.5 2.7 4.9zm-24.4 1.8l12.4-3.8-3.5-6.4-9.7 8.6.8 1.6zm-5.9-11.3l-4.3 2.1-8.5-17.7 4.3-2.1 3 6.4 19.8-9.4 2.4 4.9-19.8 9.4 3.1 6.4zm10.2-29.9l-24.8 9.9-6.5-16 4.4-1.8 4.4 11 5.8-2.4-3.5-8.8 4.3-1.8 3.5 8.8 6-2.4-4.4-11 4.4-1.8 6.4 16.3z"/></svg>