<svg id="Layer_1" xmlns="http://www.w3.org/2000/svg" viewBox="0 0 1920 730"><style>.st0{fill:#3495d1}</style><path class="st0" d="M0 .3h1920v36H0z"/><path class="st0" d="M1414 36c44.4 0 87.5 8.7 128.1 25.8 39.2 16.6 74.4 40.3 104.6 70.5 30.2 30.2 54 65.4 70.5 104.6 17.1 40.5 25.8 83.6 25.8 128.1s-8.7 87.5-25.8 128.1c-16.6 39.2-40.3 74.4-70.5 104.6s-65.4 54-104.6 70.5c-40.5 17.1-83.6 25.8-128.1 25.8s-87.5-8.7-128.1-25.8c-39.2-16.6-74.4-40.3-104.6-70.5s-54-65.4-70.5-104.6c-17.1-40.5-25.8-83.6-25.8-128.1s8.7-87.5 25.8-128.1c16.6-39.2 40.3-74.4 70.5-104.6 30.2-30.2 65.4-54 104.6-70.5C1326.5 44.7 1369.6 36 1414 36m0-36c-201.6 0-365 163.4-365 365s163.4 365 365 365 365-163.4 365-365S1615.6 0 1414 0z"/></svg>