<svg xmlns="http://www.w3.org/2000/svg" viewBox="0 0 1280 800"><path fill="#FDFDFD" d="M633.2 742.5c-204.8 0-409.6 0-614.5.1-2.4 0-2.9-.5-2.9-2.9.1-196.7.1-393.4 0-590.1 0-2.4.5-2.9 2.9-2.9 409.9.1 819.7.1 1229.6 0 2.4 0 2.9.5 2.9 2.9-.1 196.7-.1 393.4 0 590.1 0 2.4-.5 2.9-2.9 2.9-205-.1-410.1-.1-615.1-.1z"/><path fill="#CCF1F9" d="M152.6 492.1h-36.2c-12.5 0-26.2-11.3-28.5-23.6-.9-4.7-1.4-9.4-1.4-14.3.1-28.5-.1-57.1.1-85.6.1-10 2.8-19.2 10.6-26.1 5.7-5.1 12.3-8.3 20.1-8.4h96.2c1.4 1.4 1.1 3.2 1.1 4.8v27.3c0 5.2.1 5.4 5.4 5.4h161.4c2.1 0 4.3-.6 6.1 1.2-3.6 1.2-7.4.4-11.1.5-2.4 0-3.1.6-3.1 3.1.1 25.8.1 51.5 0 77.3 0 2.6.8 3.2 3.3 3.2 27.6-.1 55.2-.1 82.7-.1 1.6 1.7 1.1 3.8 1.1 5.8v103.8c0 2.7.4 5.3.1 8-1.9 1-4 .8-6 .8-6.8 0-13.6.1-20.4 0-1.2 0-2.3 0-3.4.5-1.7-.4-1.5-1.9-1.7-3.1-2.4-13.5-5-26.9-6.9-40.5-1.3-9.2-7.9-12.3-15.7-10.3-2 .5-3.4 1.5-4.3 3.4-1.7 3.5-3 3.6-5.2.2-.6-.9-1.2-1.9-2.1-2.4-2.9-1.5-3.1-4-2.7-6.9 1.4-10.9 2.5-21.9 3.8-32.8.3-2.6.1-5-2.4-6.5-2.5-1.6-5.3-1.7-8-.6-2.5 1-2.9 3.6-3.2 5.9-.8 6.1-1.4 12.3-2.1 18.5-1.8 15.2-3.4 30.4-5.2 45.6 0 .4-.1.9-.2 1.3-.3 1-.7 1.9-1.9 1.9-1.3 0-1.4-1.2-1.5-2.1-.5-4.1-1-8.3-1.4-12.4-1.5-13.9-2.7-27.9-4.2-41.8-.8-7.2-1.5-14.5-2.2-21.7-.3-3.4-1.2-4.1-4.5-3.7-1.6.2-3.2.3-4.8.5-3.5.5-4.5 1.6-4.2 5.1.5 4.7.9 9.4 1.4 14 1.6 15.9 3.2 31.9 4.9 47.8.4 3.4.6 6.8 1 10.2.2 1.6.8 3.8-1.5 4.3-2.6.6-3.1-1.7-3.6-3.6-1.9-8.4-3.7-16.9-5.5-25.4-1-4.8-2.1-9.6-3.1-14.4-.4-1.8-.6-3.6.6-5.2.8-1.1.9-2.3-.4-3.1-2.5-1.5-2.9-4.1-3.4-6.6-.5-2.4-1-4.7-4.2-4.7-1.5 0-2-1.4-2.4-2.7-.4-1.7-.7-3.4-1.3-5-.3-.8-.8-1.6-1.8-1.5-1.1.2-1.5 1.1-1.5 2.2 0 1.4.4 2.7.8 4.1.5 2 .4 3.8-1.8 4.9-1.6.8-1.6 2.4-1.4 3.9.3 1.7.7 3.3.9 5.1.1 1.2.1 2.5-1.2 3.1-1.2.5-2.3.5-3.1-.7-.4-.8-.5-1.6-.5-2.5-.4-4.5-.4-4.5-5-4.5h-6.7c-2 0-3 .9-2.9 2.9v115.4c0 1.9.3 3.9-.7 5.6-.3.4-.7.4-1.1.1-1.3-1.9-.8-4.1-.8-6.2V424.7c0-10.7 1.4-10.1-10.3-10.1-4.8 0-9.6.1-14.4 0-3.9-.1-4.7-.9-4.8-4.7-.1-5.1 0-10.3-.1-15.4-.1-3.5-.7-4.1-4.2-4.2-3.3-.1-6.6 0-9.9 0-2.3 0-3.5 1-3.7 3.4-.4 4.4-.9 4.8-5.3 4.9-8 .1-16 .1-24.1 0-4.4 0-4.9-.4-5.4-4.8-.3-2.4-1.3-3.5-3.6-3.5h-24.7c-2.6 0-3.6 1.4-3.6 3.8v14.4c0 5.5-.6 6.1-6 6.1H161c-6.9 0-7.2.3-7.2 7.3v64.5c-.2 2.1.3 4.1-1.2 5.7z"/><path fill="#45A9E1" d="M306.9 617.4c.2 0 .3-.1.5-.1.7-.6 1.5-.9 2.4-.9 7.9 0 15.7-.4 23.6.2.4.1.8.3 1.1.5 1.2 1.7.8 3.7.9 5.6.1 2.6 0 5.1 0 7.7.2 6 3.8 9.6 10 9.7 11.4.1 22.9 0 34.3 0 4.1 0 8.1.1 12.2 0 5.9-.2 9.4-3.8 9.7-9.7.2-4.3-.5-8.5.5-12.8.2-.3.5-.6.8-.8 1.4-.5 2.9-.5 4.3 0l4.5 6.3c.6.8.8 1.7 1.2 2.6 1.4 3 4 4.1 6.8 2.4 4.6-2.8 9.6-5.2 13-9.7.8-1.1 1.7-1.9 3.1-2 2-.3 4.1-.2 6.1-.2 46.6 0 93.2.1 139.8 0 .7 0 1.5 0 2.2.2 1.5 3.4-.2 7.4-3.6 8.2-4 1-5.2 2.3-5.3 6.4 0 1.4-.1 2.8.1 4.2.4 2.8 2 4.4 4.8 4.8 1.2.2 2.3.1 3.5.1H663c1.1 0 2.1 0 3.2-.1.9-.1 1.7-.2 2.4-.7 3.4-2.6 2.6-6.3 2.5-9.7-.1-2.7-1.8-4.3-4.7-4.9-4-.8-5.6-3.9-4-7.8 1.7-.8 3.6-.6 5.4-.6 17.5 0 35.1 0 52.6.1 29.9.2 59.9-.2 89.8-.1 1.8 0 3.6-.1 5.4.2.4.1.8.3 1.1.5 1.1 1.2.9 2.8 1 4.3.1 3.4-.1 6.8.1 10.3.2 5 3.6 8.5 8.6 8.5 17.9.1 35.7.1 53.6 0 5.6 0 8.8-3.5 9.1-9.2.1-2 0-4.1.1-6.1.1-1.8.9-3.2 2.8-3.4 5.2-.7 10-2.3 14.6-4.6.4-.2.8-.1 1.3 0 1 .9 2.2.5 3.4.5H948c1 1.2.8 2.6.9 4 0 4.4.1 8.8 0 13.1-.1 2.8.6 5 3.1 6.5.8 1.8 2.4 1 3.7 1h154.6c1.1 0 2.1-.3 2.6 0h-2.7c-51.4 0-102.9 0-154.3-.1-1.1 0-2.8 1.1-3.5-.9 1.9-1.5 4.1-1 6.2-1h150c9.5 0 8.4.8 8.5-8.4v-9.9c0-1.4-.1-2.8 1.2-3.8.3.1.6.2.7.6.2 6.2 0 12.4.1 18.7 0-6.3.1-12.5-.1-18.8-.3-.3-.4-.6-.4-1 32.9 0 65.9.3 98.8-.2 11.7-.2 20.3 7.3 18.6 21.3-1.1 8.6-7.5 14.6-16.2 14.6-16.5.1-32.9 0-49.4 0-1.2 0-2.3-.3-3.5-.5-3.1-.8-6.3-.9-9.5-.9H111.3c-3.4 0-6.8-.1-10.1 1-1.6.1-3.2.4-4.8.4-14 0-28-.4-42 .1-11.2.4-20.7-5.5-19.7-20 .6-7.8 4.8-13.6 12.3-15.6 1.6-.4 3.2-.3 4.8-.3h101.3c1.1 1.1 1 2.5 1 3.9 0 4.5.1 9 0 13.5 0 2.3.3 4.4 1.8 6.3.8 1.9 2.4 1 3.6 1 46.6 0 93.2 0 139.9.1 1.1 0 2.1-.3 2.6 0h-2.1c-46.8 0-93.7 0-140.5-.1-1 0-2.6 1-3.2-.9 1.8-1.5 3.9-1 5.9-1H298c8.8 0 8.1.3 8.2-8.3v-10.6c-.5-1.3-.6-2.7.7-3.7z"/><path fill="#060707" d="M1148.4 360.5c-.1 8.1-.2 16.2-.2 24.4 0 14.2.2 28.4 0 42.7 0 3.2 1.1 3.4 3.7 3.3 3.6-.2 7.3-.2 10.9-.1 4.6.1 7 2.6 7.1 7.3v7.7c-.1 4.8-2.6 7.2-7.4 7.3-4.3 0-8.6-.1-12.8-.1H956.2c-6.9 0-9-2.1-9-8.9 0-2-.1-4.1 0-6.1.2-4.3 2.6-6.8 6.8-6.9 4.2-.1 8.3-.1 12.5 0 1.5 0 2.3-.3 2.3-2.1-.1-21.1-.1-42.1-.1-63.2-.8-1.4-.9-3-.9-4.7v-60.9c0-5.4 1.3-6.6 6.6-6.7 3.2-.1 6.4 0 9.6 0 3.3-.1 3.6-.4 3.7-3.8.1-7.5 0-15 0-22.4 0-1.2 0-2.4.1-3.5.3-3.4 1.4-4.5 4.9-4.5h22.4c.1-4.2.2-8.3.2-12.5.1-3.7.6-4.2 4.3-4.2h11.2c1.6 0 3 .3 3.6 2 .3 3.1.2 6.2.1 9.3-.2 3.6 1 7 .8 10.5-.1 1.6 1 2.3 2.5 2.3 3.8.1 7.7 0 11.5 0 2 0 2.5-1.2 2.5-2.9.1-4.3 1-8.5.8-12.7.8-1.2 2-1.3 3.4-1.3 2.8.1 5.5.1 8.3 0 2.7-.1 4 1.1 3.8 3.8-.2 1.9.4 2.6 2.5 2.5 6.6-.1 13.2-.1 19.8 0 2.1 0 2.6-.7 2.4-2.6-.3-2.7 1-3.8 3.7-3.8 5.9.1 11.7 0 17.6-.1 5 0 5.1 0 5.4 5.1-.9 3.4.6 6.7.7 10.1.1 1.9 1.9 1.8 3.2 1.8 5.2.1 10.5 0 15.7 0h2.9c5.9.1 7.5 1.6 7.5 7.5v82.1c0 1.3.1 3-1.1 4.3z"/><path d="M155.1 641.2c-1.9-.7-2.4-2.1-2.4-4 0-6.6 0-13.3-.1-19.9.1-.7.1-1.5.1-2.2V494.3c0-.7-.1-1.5-.1-2.2 0-12.9.1-25.9.1-38.8V419c0-4.5.6-5.1 5.2-5.1 10 0 19.9-.1 29.8.1 2.2 0 2.9-.5 2.8-2.8-.2-6 0-12-.1-18-.1-3 1.2-4 4-3.9 8.6.1 17.1 0 25.7 0 3.6 0 4.5.7 4.2 4.3-.2 3.3.6 4.3 4.1 4.2 8.8-.3 17.5-.2 26.3 0 2 0 2.8-.4 2.5-2.5-.1-.8 0-1.7 0-2.6 0-2.4 1.1-3.5 3.6-3.5 4.2.1 8.3.1 12.5 0 2.8-.1 3.8 1.3 3.8 3.9 0 6.1.1 12.2-.1 18.3 0 2 .5 2.5 2.5 2.5 7.6-.1 15.2-.1 22.8 0 3.8 0 4.4.6 4.4 4.5v196.4c0 .9.1 1.7.1 2.6 0 6.3-.1 12.6-.1 18.9 0 4.4-.4 4.8-4.7 4.8H159.6c-1.2 0-2.3.1-3.5.2-.3.1-.7.1-1-.1z"/><path fill="#CCF1F9" d="M1014.9 259c-.7 1.4-1.9.6-2.8.6-6.5.1-13 .1-19.6 0-2.9 0-4 1-4 4 .1 9.3-.1 18.6.1 27.9 0 2.5-.7 3.1-3.1 3-4.3-.2-8.6 0-12.8-.1-3-.1-4.2 1.1-4.1 4.2.1 21.2 0 42.3 0 63.5 0 1.2-.1 2.3-.1 3.5-1.1-.8-2.5-.6-3.7-.6h-33.7c-18.8 0-35.8-15.7-37.7-34.3-1.2-11.5-1-23.1-.4-34.6 1.1-20 15.1-34.8 35-37.7.8-.1 1.7 0 2.6 0h80.2c1.5 0 2.9-.2 4.1.6zm-228.6 95.7H878c14.2 0 26.1 11.5 25.8 25.8-.1 5.6-.1 11.1 0 16.7.4 17-15.3 29-31.3 25.8-1.1-.2-2.3-.2-3.5-.2h-82.8c-1.1-1.2-1-2.8-1-4.2V359c.1-1.5 0-3.1 1.1-4.3z"/><path d="M786.3 354.7c-.1 8.8-.2 17.7-.2 26.5 0 13.8.1 27.7.1 41.5v34c1.1 1.2 1.1 2.7 1.1 4.2v107.5c0 1.7-.2 3.4-.7 5.1-1.7 9.2-8.6 15.2-18.1 15.6-2.8.1-5.8 1-8.3-1-.7-2-.9-3.9.4-5.8 1.8-1.1 3.7-.7 5.6-.8 8.8-.2 13.2-4.6 13.2-13.4v-9c0-2.3-1-3.3-3.3-3.2H472.7c-7.2 0-6.5-.3-6.5 6.7 0 2.4-.1 4.7 0 7.1.3 6.6 4.3 11 10.9 11.7 3.2.3 6.4.1 9.6.1h26.6c1.5 0 3-.1 4.4.7 1.4 1.9 1.2 3.9.3 5.9-1.2 1.2-2.7 1-4.2 1-11.9 0-23.7.2-35.6 0-7.9-.1-14.3-3.4-17.9-10.8-.5-1.1-1.3-2.3-.5-3.6-.5-2.8-.5-5.7-.5-8.6v-106c0-1.2-.1-2.3-.1-3.5v-34c-1-1.3-.9-2.8-.9-4.3v-59.5c0-1.5-.1-3 1-4.3 2-13.9 9.8-20.6 23.9-20.6H762c14.5.1 22.1 6.6 24.3 20.8z"/><path fill="#CCF1F9" d="M785.8 574.3c.1-2 .3-4 .3-6.1V460.3c0-1.2.1-2.3.1-3.5h33.4c16.6 0 32.3 12.5 35.9 28.8.5 2.4.8 4.8.8 7.3.1 15.2 0 30.4 0 45.5-4.7 1.8-9.4 1.1-14.1.4-1.5-.2-2.9-.5-4.4 0-1.5.5-3.2.5-4.8.5-3.6 0-7.3-.1-10.9 0-3.7.1-4.4.8-4.6 4.6-.1 1.2 0 2.4 0 3.5v64.4c0 1.9.5 3.9-1.1 5.4-.2 0-.4-.1-.5-.1-1.3-1.4-1-3.2-1-4.9v-32.4c0-4.7 0-4.7-4.8-4.7h-18.3c-2.1.2-4.1.1-6-.8z"/><path d="M951.2 641.3c-2.8-.3-3.6-1.8-3.6-4.5.1-6.5 0-12.9-.1-19.4.1-.9.2-1.9.2-2.8v-93.4c0-4.1.5-4.5 4.7-4.5 5.2 0 5.1 0 5.2-5.2 0-2.8-.1-5.6.2-8.3.5-5.2 4.2-9.4 9.4-9.8 10.3-.7 20.7-.7 31.1 0 5.8.4 9.6 5 9.7 10.8.1 3.4.1 6.8 0 10.3-.1 2 .7 2.2 2.4 2.3 1.8 0 2.1-.6 2.1-2.2-.1-5.7 0-11.3 0-17 0-3.6.8-4.4 4.2-4.4h96.9c3.7 0 4.2.7 4.2 4.7V614c0 1.2-.3 2.4.3 3.5 0 .2.1.4.1.6-.8.9-.5 2-.5 3.1v17c0 2.1-.9 3.2-3 3.1H956c-1.3 0-2.6.1-3.8.1-.3 0-.6 0-1-.1zm-850.5 11.4c1-1.8 2.5-2.5 4.5-2.3 1.9.1 3.8 0 5.8 0h1050.2c2.1 0 4.1-.2 5.2 2.1-.1 2.5-1.4 3.7-3.9 3.4-1.1-.1-2.1 0-3.2 0H105.9c-2.4.1-5.2.6-5.2-3.2z"/><path fill="#010101" d="M387.6 372.8h-169c-4.9 0-4.9 0-4.9-5 0-11.2-.1-22.4-.1-33.7 0-1.2.1-2.3.1-3.5 0-30.5 0-61-.1-91.5 0-3.1.8-4.1 4-4.1 55.8.1 111.7.1 167.5 0 3.2 0 4 1.1 4 4.1-.1 43.2-.1 86.4 0 129.6-.1 1.7.1 3.2-1.5 4.1z"/><path d="M816.4 617.4c.1-24.6.1-49.2.2-73.8 0-4.7.3-5 5.2-5h11.6c1.9 0 3.8.4 5.4-1.3.3-.4 1.4-.5 1.8-.3 5.1 3 10.6 1.1 15.9 1.4 9.6 0 19.2.1 28.8.1 3.8 0 4.5.7 4.5 4.4 0 3 .1 6 0 9 0 1.3.3 1.9 1.7 2 15.3 1.5 25.7 9.5 29.3 24.4 3.7 15.1.4 28.6-12.9 38.4-.1.1-.2.1-.2.2-4.8 3-9.9 5-15.5 5.3-1.8.1-2.4.7-2.3 2.5.2 2.4.1 4.9 0 7.4-.4 5.5-4.5 9.2-9.9 9.2h-53.2c-5.8 0-10-4.1-10.1-10-.3-4.7-.3-9.3-.3-13.9z"/><path fill="#CCF1F9" d="M459.4 354.7v68.1h-21.8c-10.7-.1-21.8-10.1-23.1-20.8-1-8.8-1.3-17.7.1-26.4 1.8-12 12.6-20.9 24.6-20.9h20.2zm689 5.8c-.1-1.2-.2-2.3-.2-3.5v-84.6c0-4.5-.3-4.7-4.7-4.7-7.3 0-14.5-.1-21.8 0-1.9 0-2.8-.4-2.6-2.5.3-3.6-.4-7.2.4-10.8-.4 3.3.8 4.4 4.3 4.1 9.3-.7 18.4 0 26.6 5.1 10.4 6.4 17.5 15.3 19.2 27.7 1.7 12.4 1.2 25 .5 37.5-.8 13.3-7.4 23.8-19 30.9-.9.4-1.7.8-2.7.8z"/><path fill="#CCEFF7" d="M1052.6 250.7c0 4.9-.1 9.8-.1 14.7 0 1.6-.4 2.3-2.2 2.2-4.7-.1-9.4-.1-14.1 0-1.8 0-2.1-.7-2.1-2.3.1-7 .1-14.1.1-21.1 1.1 3.8.4 7.6.4 11.4 0 2.1.7 2.8 2.8 2.7 3.9-.1 7.9-.1 11.8 0 2.1.1 2.8-.6 2.7-2.7.2-1.6-.3-3.3.7-4.9z"/><path d="M402.6 617.3c0 4.3-.1 8.6-.1 12.8 0 6.5-4.3 10.9-10.7 10.9h-47.2c-5.9 0-10.3-4.3-10.4-10.2-.1-4.5-.1-9-.1-13.5-.8-1.1-.6-2.5-.6-3.7 0-19.6 0-39.2-.1-58.7 0-2.4.1-4.7 2.3-6.3 1.1-.8 1-2.1.7-3.3-2.9-12.1-5.2-24.3-8-36.4-.1-.3-.2-.6-.8-1-.4 1.9-.2 3.6 0 5.4 1.2 9.5 3.7 18.7 7.1 27.6.4 1 .8 2 1.1 3 .5 2-.1 3.6-2 4.6-2 1-3.5-.1-4.6-1.7-1-1.4-1.5-3.1-2-4.7-1.2-3.3-2.2-6.7-3.4-10-2.6-8.7-4.2-17.6-4.1-26.7.1-3.5 1-4.4 4.1-4.7 2.8.2 3.9-.9 2.8-3.8-.5-1.4-.6-2.9-1-4.4-.7-2.5-.2-4.3 2.6-4.7 1.5-.2 1.3-1 1.1-2.1-.5-2-.9-4-1.3-6-.4-1.8.4-3 2-3.5 1.8-.5 2.9.6 3.3 2.2.4 1.3.6 2.7.9 4.1.4 2 .4 4.3 3.8 3.3 1.2-.4 2.2.9 2.5 2.4.3 1.7.7 3.3 1.1 5 .4 1.7.4 3.3 2.8 3.9 2.1.6 2.4 2.9.6 4.3-1.4 1-1.2 1.9-.9 3.2l9 42c.3 1.4.4 2.9 2.4 2.5 1.9-.4.8-1.9.7-2.9-2.4-24.5-4.9-48.9-7.4-73.4-.5-4.7-.2-5.1 4.6-5.6 2.2-.3 4.5-.5 6.7-.7 2.6-.3 3.7.9 4 3.4 1.5 15.6 3.1 31.3 4.6 46.9 1 10.4 2.1 20.8 3.2 31.3 0 .4.1.9.7 1 1.3-.6.9-1.9 1.1-3 2.4-21.2 4.8-42.5 7.3-63.7.8-7 4.7-9.3 11.4-7.1 3 1 4.6 3.6 4.2 7.1-1.3 11.7-2.7 23.4-4.1 35-.2 2-.7 3.9 2.1 4.7 1.8.5 2.7 2.3 3.3 4.1.2.7.6 1.1 1.4 1 .6-.1 1.1-.3 1.1-.9.5-2.8 2-4.8 4.8-5.3 4.1-.8 8.3-1.4 12.1 1.3 2.7 1.9 4.2 4.4 4.8 7.7 2.5 14.7 5 29.3 7.5 43.9.1.6 0 1.3.6 1.8 1.1.9 1.2 2.2 1.5 3.5 1.5 8.6 2.8 17.3 4.4 25.8.5 2.6.4 5.3.1 8-.2 1.7-.6 3.4-2.2 4.4-3.5 5.9-9.5 8.8-15 12-3.2 1.8-6.7-.4-7.7-4.3-.2-1 0-2.3-1.8-1.9-1.7.3-3-.5-3.6-2-.7-1.5.3-2.6 1.4-3.6.9-1.1 2.1-1.9 1.8-3.8-1.8-13.3-2.9-26.7-4.6-40.1-.3-4.1-.6-8.2-1.3-12.2-.2-2.8-.7-5.6-.6-8.5.1-1.8-.5-3.3-1.8-4.7 2.9 3.1 1.9 7.1 1.9 10.6.2 18.2.1 36.5.1 54.7.5 1.3.6 2.6-.2 3.7z"/><path fill="#FEFEFE" d="M434.3 617.3c1.9-4.4 1.9-8.8 1-13.4-1.8-9.4-3.2-18.8-4.7-28.3.2-.8-.1-1.5 1.4-1.5 8.9.2 17.9.4 26.8-.1.4 0 .8.5 1.3.8 3.1 9 9.1 13.3 18.5 13.3H518c1.1 1.2.9 2.8 1 4.3v16.3c0 3.3.3 3.6 3.7 3.6h35.9c3.6 0 3.9-.3 3.9-4.1v-15.7c0-1.6-.2-3.2 1.2-4.5 1.1-.6 2.2-.7 3.4-.7 6.8 0 13.6-.1 20.5 0 4 .1 4.8 1.1 3.8 4.9-1.8 6.9-3.4 13.9-5.4 20.7-.4 1.4-.6 3-2 3.8-.9.5-1.9.4-2.8.4H435c-.2.2-.5.2-.7.2zM324.1 500.6c-2.4.6-3.2 2.2-3.3 4.7-.2 9.1 1.9 17.8 4 26.5.3 6.7.1 13.5 3.1 19.7 1.1 2.3 2 4.8 3.9 6.6 1.8 1.7 2.2 3.6 2.2 6-.1 16.6 0 33.1-.1 49.7 0 1.1.3 2.3-.3 3.4-8.8 0-17.5 0-26.3.1 0-40.4 0-80.8-.1-121.2 0-3.3.9-4.3 4.1-4 3.4.3 6.8.1 10.3 0 1.8 0 2.5.6 2.4 2.4 0 2 .1 4 .1 6.1zm461.7 73.7c1.2-1.5 2.4.1 3.6.1 8-.2 16 0 24-.2 2.1 0 2.4.4 2.4 2.3-.1 13.6 0 27.1 0 40.7-5.2 0-10.5.1-15.7.1H661.9c-1.4-.8-1.6-2.2-1.9-3.5-2-7.5-4.1-14.9-5.8-22.5-.3-1.4-1.1-3 1.1-3.7 2.2-.3 4.5-.2 6.7-.1 3 .1 3.8.8 3.9 3.8.2 5.2 0 10.5.1 15.7 0 3.8.3 4 4 4.1h35.2c3.9 0 4.2-.4 4.3-4.2.1-5-.1-10 .1-15.1.1-4.1 1.5-5 5.6-3.7 1.1 1.4.9 3 .9 4.6v17.9c0 4 .2 4.2 4.1 4.3 12.1 0 24.1-.1 36.2.1 2.4 0 3.3-.8 3.3-3.1v-19.2c0-1.6-.3-3.2 1-4.5h6.7c9.4 0 15.7-4.7 18.4-13.9z"/><path d="M655.4 588.2c-1.8.3-.8 1.5-.6 2.2 2.3 9 4.7 18 7.1 27 .3 1.1.7 2.3.9 3.4.2 2.3 1.3 2.9 3.6 2.9 4 0 5.6 2.8 5.4 8.8-.2 6.6-1.6 8.7-5.9 8.7h-86.6c-3.3-.2-5.3-2.5-5.5-6.3-.3-7.6.9-11.1 4.6-11 3.6.1 4.3-1.7 4.8-4.4.2-.8.4-1.6.6-2.5 2.3-8.8 4.6-17.5 7-26.2.6-2 .2-2.6-1.9-2.5-8.3.1-16.6.1-25 .1-2-2.5-1.9-4.2.5-6.3 1.6-.5 3.2-.3 4.8-.3h90.1c1.6 0 3.2-.1 4.8.4 2.1 1.1 1.9 2.9 1.5 4.7-.5 1.9-2.2 1.3-3.5 1.4-2.2-.1-4.4-.4-6.7-.1z"/><path fill="#D0F3F9" d="M333.6 617.2v-52.6c0-1.9-.3-3.3-1.9-5.1-4.9-5.4-7.3-12.2-7.6-19.5-.1-2.7-.7-5.6.7-8.2 1.6 4.5 3.3 9 4.9 13.5.7 1.9 1.6 3.8 4.1 2.8 2.5-1 1.8-3 1.1-4.9-4.3-10.7-7.5-21.6-8.2-33.1-.1-1.4-1.3-4 1.2-4.2 2.1-.2 1.5 2.5 1.8 3.8 2.8 12.3 5.3 24.6 8 37 .3 1.3 1.1 2.6-1.4 2.8-2 .2-1.9 2.2-1.9 3.8v56.8c0 2.5-.1 4.9-.1 7.4-.4-.2-.5-.3-.7-.3z"/><path fill="#F9FAFB" d="M405.7 573.6c1.2 10.4 2.4 20.9 3.7 31.3.4 3.1.5 6.2 1.1 9.2.5 2.5-.1 3.8-2.9 3.4-1.5-.1-3.1-.2-4.6-.3-.6-.8-.3-1.6-.3-2.5v-46c0-.9-.4-1.9.6-2.8 1.4 1.2 1.2 2.8 1.3 4.3.1 1.2-.4 2.6 1.1 3.4z"/><path fill="#C8F6FE" d="M951.2 641.3c.3 0 .7 0 1-.1 1.1.7 2.3.3 3.4.3h159.3v.8h-2.8c-52.8 0-105.7 0-158.5-.1-.6.1-2.3 1.3-2.4-.9zm-796.1-.1h1c1.1.7 2.3.3 3.4.3h145.3c-1.3 1.1-2.3.7-3.1.7h-144c-.9.1-2.6 1.3-2.6-1z"/><path fill="#D5F2F4" d="M405.7 573.6c-1.1.5-2.1.8-2.1-1 0-2 0-4-.6-5.9v50.5c-.2 0-.3.1-.4.2 0-14.6 0-29.3-.1-43.9v-20.8c0-1.7-.4-3.1-2.2-3.4-1.2-.2-2.1-.2-1.9-1.8.1-1.1.9-1.1 1.6-1 1.1.2 2.8-.8 3 1.3.2 1.8.4 3.6.5 5.4-.2 2.8-.4 5.6.8 8.2.9 4 1.3 8.1 1.4 12.2z"/><path fill="#C8F6FE" d="M665.2 642.1h-85v-.3h85v.3zm214.2.1H828v-.4h51.3c0 .2 0 .3.1.4zm-486.6 0h-48.2v-.3h48.1c0 .1 0 .2.1.3z"/><path fill="#FDFDFD" d="M1118.3 617.9c1 1.1.6 2.4.6 3.7 0 5.6 0 11.3-.6 16.9v-20.6z"/><path fill="#A68574" d="M1058.6 448H956.2c-4.3 0-4.3 0-4.3-4.3 0-8.1 0-8.1 8.1-8.1h188c4.6 0 9.2 0 13.8-.2 2.4-.1 3.1.9 3.2 3.2.1 9.3.2 9.3-8.9 9.3-32.5.1-65 .1-97.5.1z"/><path fill="#50AB25" d="M1143.3 372.8c0 18.3-.1 36.6.1 54.9 0 2.7-.8 3.4-3.4 3.3-6-.2-12-.1-18 0-2.1 0-2.7-.7-2.7-2.8.1-37 .1-74 0-111 0-2.3.8-2.9 2.9-2.8 6.1.1 12.2.1 18.3 0 2.3-.1 2.8.8 2.8 2.9v55.5z"/><path fill="#B27943" d="M1020 338.8v-88.6c0-2.4.3-3.3 3.1-3.1 6.5.4 6.5.3 6.5 6.8 0 57.8 0 115.5.1 173.3 0 2.9-.6 3.9-3.7 3.8-6-.2-6-.1-6-6.1v-86.1z"/><path fill="#A1E1FA" d="M988.6 365.1c0 20.9 0 41.7.1 62.6 0 2.5-.5 3.4-3.1 3.2-3.4-.2-6.8-.1-10.3 0-1.4 0-2-.4-1.8-1.8.1-.4 0-.9 0-1.3 0-41.7 0-83.4-.1-125.2 0-2.6.6-3.5 3.3-3.3 3 .2 6 .2 9 0 2.4-.2 3 .6 3 3-.2 20.9-.1 41.8-.1 62.8z"/><path fill="#F0F1F2" d="M1057.3 342.5c0-28.4 0-56.9-.1-85.3 0-2.3.4-3.2 2.9-3.1 2.1.1 3.1.2 3.1 2.9-.1 57-.1 114-.1 171 0 .9.8 2.4-.8 2.7-1.5.3-3.3.3-4.8-.1-.9-.2-.4-1.7-.4-2.7.2-28.5.2-56.9.2-85.4z"/><path fill="#21A498" d="M1052.3 334c0 10.6-.1 21.2 0 31.8 0 2.2-.5 3-2.8 2.9-4.3-.2-8.6-.1-12.8 0-1.8 0-2.4-.5-2.4-2.4.1-21.6 0-43.2 0-64.8 0-1.6.4-2.3 2.2-2.2 4.5.1 9 .1 13.5 0 2.1-.1 2.4.9 2.4 2.7-.1 10.6-.1 21.3-.1 32z"/><path fill="#FB9B02" d="M1068.2 345.4c0-27.3 0-54.6-.1-81.9 0-2.6.7-3.2 3.2-3.2 6.2.2 12.4.1 18.6 0 2 0 2.8.3 2.8 2.6-.1 55.1-.1 110.2 0 165.3 0 2-.6 2.5-2.5 2.5-6.4-.1-12.8-.2-19.3 0-2.4.1-2.8-.8-2.8-2.9.1-27.4.1-54.9.1-82.4z"/><path fill="#E94F0B" d="M1034.4 402.2c0-8.6.1-17.1 0-25.7 0-2.3.5-3.3 3-3.1 4.3.2 8.6.1 12.8 0 1.6 0 2.2.5 2.2 2.2 0 17.7-.1 35.3 0 53 0 1.9-.8 2.3-2.5 2.3-4.3-.1-8.6-.1-12.8 0-2.1.1-2.8-.5-2.8-2.7.1-8.7.1-17.3.1-26z"/><path fill="#45AAE1" d="M1097.6 275.1c0-6.2.1-12.4 0-18.6 0-1.8.6-2.4 2.4-2.4 4.1.1 8.1.1 12.2 0 1.8 0 2.4.5 2.3 2.4-.1 12.5-.1 25 0 37.5 0 2-.6 2.5-2.5 2.5-4-.1-7.9-.1-11.9 0-2 .1-2.6-.5-2.5-2.5.1-6.3 0-12.6 0-18.9z"/><path fill="#FAFAFB" d="M1097.6 345.4c0-13.7.1-27.4-.1-41 0-2.4.5-3.1 3-3 3.8.2 7.7.1 11.5 0 1.7 0 2.4.3 2.4 2.2-.1 28-.1 56 0 84 0 1.8-.4 2.4-2.3 2.3-4.1-.1-8.1-.2-12.2 0-2.2.1-2.4-.8-2.4-2.6.1-13.9.1-27.9.1-41.9z"/><path fill="#45AAE1" d="M1097.6 412.5c0-5.1.1-10.3 0-15.4 0-1.8.5-2.4 2.4-2.4 4.2.1 8.3.1 12.5 0 1.5 0 2 .4 2 2-.1 10.7-.1 21.4 0 32.1 0 1.6-.5 2-2 2-4.3-.1-8.6-.1-12.8 0-1.9 0-2-.9-2-2.3-.1-5.3-.1-10.7-.1-16z"/><path d="M1006 352.8v-58.7c0-1.3.8-2 2-2.1 1.3-.2 2 .7 2.3 1.8.2.9.1 1.9.1 2.9v113.6c-.1 1.6.1 3.5-2.3 3.5-2.5 0-2.1-1.9-2.1-3.5v-57.5zm-7.7.3v-58.3c0-1.6.6-2.9 2.3-2.8 1.5.1 2.1 1.3 2 2.8v115.5c-.1 1.6.1 3.5-2.3 3.5-2.5 0-2.1-1.9-2.1-3.5.1-19.1.1-38.1.1-57.2z"/><path fill="#F8B02D" d="M1131.3 309.6c-3.3 0-6.6-.1-9.9 0-1.5 0-2-.5-2-2 .1-5.8.1-11.5 0-17.3 0-1.6.6-2 2.1-1.9 6.7.1 13.4.1 20.2 0 1.4 0 1.9.4 1.8 1.8-.1 5.9-.1 11.7 0 17.6 0 1.4-.5 1.8-1.9 1.8-3.5-.1-6.9 0-10.3 0z"/><path fill="#E84E0B" d="M1052.3 283.3c0 2.6-.2 5.1 0 7.7.2 2.6-.4 3.6-3.3 3.4-4-.3-8.1-.1-12.2 0-1.8.1-2.7-.3-2.7-2.4.1-5.8.1-11.5 0-17.3 0-1.6.3-2.3 2.1-2.3 4.6.1 9.2.1 13.8 0 1.7 0 2.2.6 2.1 2.2.2 2.9.2 5.8.2 8.7z"/><path fill="#50AC25" d="M1131.5 272.5c3.2 0 6.4.1 9.6 0 1.9-.1 2.3.6 2.3 2.4.2 8.6.3 8.6-8.2 8.6-4.4 0-8.8-.1-13.1 0-2.1.1-2.7-.7-2.7-2.7-.1-8.3-.1-8.3 8.3-8.3h3.8z"/><path fill="#97BE01" d="M1004 275.7c2.7 0 5.4.2 8-.1 2.7-.3 3.2.8 3.1 3.2-.1 5.7 0 5.7-5.7 5.7-4.5 0-9-.1-13.4 0-1.8 0-2.6-.2-2.6-2.4.1-6.6 0-6.6 6.4-6.6 1.4.2 2.8.2 4.2.2z"/><path fill="#F0F1F3" d="M1004.3 264.5c3 0 6 .1 9 0 2.4-.1 2 1.6 1.8 2.7-.2 1.2 1.4 3.5-1.6 3.5h-18.2c-3 0-1.4-2.3-1.6-3.5-.2-1.2-.5-2.8 1.8-2.7 2.8.2 5.8 0 8.8 0z"/><path fill="#F7AE2C" d="M158.4 556c0-25.4 0-50.7-.1-76.1 0-2.6.6-3.4 3.3-3.4 8.8.2 17.5.1 26.3 0 1.9 0 2.5.4 2.5 2.5-.1 51.4-.1 102.7 0 154.1 0 1.8-.4 2.4-2.3 2.4-9.1-.1-18.2-.2-27.3 0-2.7.1-2.5-1.3-2.5-3.1.1-25.5.1-51 .1-76.4z"/><path fill="#21A295" d="M257.2 519.7c0 37.3 0 74.7.1 112 0 3.2-.9 3.9-3.9 3.8-8.6-.2-17.1-.2-25.7 0-2.4 0-3.3-.5-3.2-3.1.1-12.8.1-25.7.1-38.5 0-62.3 0-124.5-.1-186.8 0-3.2.8-3.9 3.9-3.8 8.3.2 16.7.2 25 0 3-.1 3.9.6 3.9 3.8-.2 37.5-.1 75.1-.1 112.6z"/><path fill="#EA4F0B" d="M262.9 515.2c0-38.8 0-77.7-.1-116.5 0-3.1.8-4.3 3.9-3.8.9.2 1.9.1 2.9 0 1.3-.1 2 .4 1.9 1.8-.1.6 0 1.3 0 1.9v233c0 1.2 1 3.2-.9 3.6-2.3.4-4.9.7-7.2-.2-.9-.4-.4-2-.4-3-.1-38.9-.1-77.8-.1-116.8z"/><path fill="#22A498" d="M301 503.7c0 14.7-.1 29.5.1 44.2 0 2.6-.7 3.3-3.2 3.2-6-.2-12-.1-18 0-2 0-2.8-.3-2.8-2.6.1-29.9.1-59.9 0-89.8 0-2.1.6-2.7 2.7-2.7 6.2.1 12.4.1 18.6 0 2.2-.1 2.6.7 2.6 2.7v45z"/><path fill="#F6F6F8" d="M277.2 595.9c0-12.2.1-24.4 0-36.5 0-2.1.5-2.7 2.6-2.7 6.3.1 12.6.1 18.9 0 2.1 0 2.4.6 2.4 2.5-.1 24.6-.1 49.2 0 73.7 0 1.9-.4 2.6-2.4 2.5-6.3-.1-12.6-.2-18.9 0-2.2.1-2.6-.6-2.6-2.7.1-12.2 0-24.5 0-36.8z"/><path fill="#EEEFF1" d="M218.8 519.7v57.1c0 2.4-.3 3.4-3 3.2-5.7-.2-11.3-.1-17 0-1.9 0-2.8-.2-2.8-2.5.1-38.7.1-77.4 0-116.1 0-2.3.8-2.6 2.8-2.6 5.8.1 11.6.2 17.3 0 2.3-.1 2.8.7 2.8 2.9-.1 19.3-.1 38.7-.1 58z"/><path fill="#97BE00" d="M218.8 424.4c0 8.6-.1 17.1 0 25.7 0 2.2-.3 3.2-2.9 3.1-5.9-.2-11.8-.1-17.6 0-1.6 0-2.2-.4-2.2-2.2.1-18 .1-35.9 0-53.9 0-1.8.7-2.1 2.3-2.1 6.1.1 12.2.1 18.3 0 2 0 2.2.8 2.2 2.5-.1 8.9-.1 17.9-.1 26.9zm-22.7 186.2c0-7.4.1-14.8 0-22.1 0-2 .4-2.8 2.6-2.8 6 .2 12 .1 18 0 1.6 0 2.2.4 2.2 2.1-.1 15.2-.1 30.4 0 45.5 0 1.8-.7 2.1-2.3 2.1-6.1-.1-12.2-.1-18.3 0-2 0-2.2-.8-2.2-2.5v-22.3z"/><path fill="#E84E0B" d="M174.4 441.2c4.5 0 9 .1 13.5 0 1.8 0 2.6.3 2.6 2.4-.1 8.3-.1 16.7 0 25 0 1.9-.7 2.3-2.4 2.3-9.1-.1-18.2-.1-27.2 0-2.1 0-2.5-.7-2.4-2.6.1-8.2.1-16.5 0-24.7 0-2.1.7-2.5 2.6-2.5 4.4.2 8.8.1 13.3.1z"/><path fill="#F6F6F8" d="M277.2 435c0-4.5.1-9 0-13.5 0-1.6.4-2 2-2 6.6.1 13.3.1 19.9 0 1.8 0 2 .7 2 2.2-.1 8.8-.1 17.5 0 26.3 0 1.8-.4 2.4-2.3 2.3-6.4-.1-12.8-.1-19.2 0-2.1.1-2.4-.8-2.4-2.6.1-4.2 0-8.5 0-12.7z"/><path fill="#F7AE2C" d="M174.4 435.5c-4.6 0-9.2-.1-13.8 0-1.6 0-2.3-.4-2.2-2.2.1-3.9.1-7.9 0-11.9 0-1.6.5-2 2-2 9.3.1 18.6.1 27.9 0 1.6 0 2.3.4 2.2 2.1-.1 3.8-.1 7.7 0 11.5.1 1.9-.5 2.4-2.3 2.3-4.6.1-9.2.2-13.8.2z"/><path fill="#504F54" d="M622.7 549.3c-51.2 0-102.5 0-153.7.1-2.8 0-3.8-.6-3.8-3.6.1-62.9.1-125.8.1-188.7 0-10.9 6.2-17.2 17-17.2 93.7 0 187.5.1 281.2-.1 10.7 0 17.2 8.7 17.2 17.3-.3 62.6-.1 125.2-.1 187.8 0 5.1.6 4.5-4.4 4.5-51.2-.1-102.3-.1-153.5-.1z"/><path fill="#D8D9DB" d="M664.5 582.5H564c-2.1-1.6-1.4-3.9-1.4-5.9-.1-5.8-.1-5.8-5.8-5.8h-33c-4.7 0-4.7.1-4.8 4.9-.1 2.3.6 4.7-.9 6.8H479c-8.6 0-13.6-4.9-13.6-13.5 0-4 .1-7.9 0-11.9-.1-1.7.4-2.4 2.1-2.1.8.1 1.7 0 2.6 0 102.4 0 204.7 0 307.1-.1 2.9 0 3.8.7 3.6 3.6-.3 3.7 0 7.5-.1 11.2 0 7.4-5.1 12.5-12.4 12.7-2.5.1-4.9 0-7.4 0-1.5-1.6-1-3.6-1-5.5.1-2.5-.8-3.7-3.5-3.7-12.3.1-24.5 0-36.8 0-2.5 0-3.4 1.1-3.4 3.5 0 2 .4 4.1-.8 5.9-1.6 1-3.1 1-4.7.1-1.7-2.9-.8-6.1-.9-9.1-.2-4.8-.1-4.9-4.8-4.9h-34.6c-4 0-4.1.2-4.2 4.2 0 2 .1 4.1-.1 6.1-.2 1.4-.2 2.7-1.6 3.5z"/><path fill="#F8D35F" d="M715 582.5c0-2.7.1-5.3.1-8-.1-1.7.6-2.2 2.3-2.2 13.7 0 27.4.1 41.1 0 1.9 0 2.3.8 2.3 2.5-.1 2.6 0 5.1 0 7.7v5.7c0 8.4-.1 16.9 0 25.3 0 2.2-.4 2.8-2.9 2.8-13.2-.2-26.3-.2-39.5-.1-2.4 0-3.3-.5-3.3-3.2.1-8.2 0-16.5 0-24.7-.2-.3-.4-.6-.6-1-.4-1.6-.6-3.2.5-4.8z"/><path fill="#CEE929" d="M518 582.5c0-3.5.2-7 .1-10.5 0-1.8.6-2.4 2.4-2.4 13.6.1 27.3.1 40.9 0 1.8 0 2.4.6 2.4 2.4 0 3.5-.4 7 .3 10.5-.3 1.9-.3 3.8 0 5.7-.6 7.5-.2 14.9-.2 22.4 0 2.4-.6 3.1-3 3-13.2-.1-26.5-.1-39.7 0-2.4 0-3.1-.5-3.1-3 .1-7.5 0-14.9 0-22.4-.1-1.9-.1-3.8-.1-5.7z"/><path fill="#515055" d="M1018.1 566.8c0-21.6.1-43.2-.1-64.8 0-2.9.8-3.5 3.6-3.5 29 .1 58 .1 87 0 3.2 0 3.9 1 3.9 4-.1 43.1-.1 86.2 0 129.3 0 2.7-.6 3.6-3.5 3.6-29.1-.1-58.2-.1-87.3 0-3.1 0-3.6-1-3.6-3.8.1-21.5 0-43.2 0-64.8z"/><path fill="#504F54" d="M963.4 609.9V506.8c0-6.6 1.7-8.3 8.3-8.3h23.4c5.2 0 7.4 2.2 7.4 7.4v101c0 2.2.1 2.6-2.8 2.3-11.4-.9-22.8-.7-34.2-.1-.5.2-1.1.5-2.1.8z"/><path fill="#3A383B" d="M1012.4 579.1c0 17.5-.1 35.1.1 52.6 0 2.7-.5 3.7-3.5 3.7-17.4-.1-34.9-.1-52.3 0-2.4 0-3.4-.4-3.4-3.1.1-35.6.1-71.3.1-106.9 0-1.6-.3-3.3 2.3-3.1 1.5.1 2.2.5 2.1 2-.1.7 0 1.5 0 2.2v97.6c0 4.8 0 4.8 4.8 4.8h40.8c4.6 0 5.1-.5 5.1-5.1V525c-.1-1.5 0-2.7 2.1-2.7 2 .1 1.8 1.3 1.8 2.6v54.2z"/><path fill="#39373A" d="M982.8 623.7c-5.3 0-10.7-.2-16 .1-3.1.1-3.6-1.1-3.4-3.7.3-3.4 2.1-5.3 5.6-5.3h27.8c3.7 0 6.4 3.6 5.8 7.2-.3 1.8-1.6 1.7-2.9 1.7h-16.9z"/><path fill="#F6F6F8" d="M301.5 258.1c26.6 0 53.3 0 79.9-.1 2.3 0 3 .4 3 2.9-.1 34.8-.1 69.5 0 104.3 0 2.4-.6 3-3 3-53.4-.1-106.8-.1-160.1 0-2.4 0-3.2-.4-3.2-3.1.1-34.7.1-69.3 0-104 0-2.6.7-3.1 3.2-3.1 26.7.1 53.5.1 80.2.1z"/><path fill="#46ACE4" d="M301.2 239.8c26.6 0 53.3 0 79.9-.1 2.7 0 3.5.8 3.3 3.4-.2 2.7-.2 5.4 0 8 .1 1.9-.6 2.5-2.4 2.3-.4-.1-.9 0-1.3 0-53 0-105.9 0-158.9.1-3.2 0-4.1-.8-3.8-3.9.3-2.3.2-4.7 0-7.1-.2-2.4.7-2.8 2.9-2.8 26.8.1 53.6.1 80.3.1z"/><path fill="#E50003" d="M884 588.8v41.1c0 4.3-1.1 5.5-5.5 5.5h-50.7c-4.4 0-5.6-1.1-5.6-5.5 0-27.6 0-55.2-.1-82.8 0-2.4.6-3.2 3-3 3.1.2 6.2.1 9.3 0 1.8-.1 2.6.3 2.6 2.4-.1 10.2-.1 20.3 0 30.5 0 1.3 0 2.2-1.8 2.3-3.7.2-8.3 5.5-8.4 9.4-.1 5.6 0 11.1 0 16.7 0 2.6 1.2 3.9 3.9 3.9 6 0 12-.1 18 0 2.9 0 4-1.3 3.9-4.1-.1-5.2 0-10.5 0-15.7 0-4.7-3.9-9.4-8.5-10.2-1.4-.2-1.5-.9-1.5-2v-31.1c0-1.8.8-2.1 2.3-2.1 12.2 0 24.4.1 36.6 0 2.5 0 2.4 1.3 2.4 3 .1 13.9.1 27.8.1 41.7z"/><path fill="#FEFEFE" d="M889.6 588.1c0-6 .1-12-.1-18-.1-2.4.9-2.6 2.8-2.3 5.7 1 10.1 3.9 13 8.9 6.6 11 1.9 26.1-9.6 30.5l-.6.3c-5.3 1.8-5.6 1.6-5.6-4 .1-5.2.1-10.3.1-15.4z"/><path fill="#FAE903" d="M832.7 595.4c.5-2.5-1-5.6 1.3-8.4 1.1-1.4 2.2-1.8 4-2 8.3-.7 9.5 1.9 9.2 9.2-.1 2.3-.1 4.7 0 7 .2 2.1-.7 2.6-2.6 2.5-3.2-.1-6.4-.1-9.6 0-1.8.1-2.5-.5-2.3-2.3.1-1.9 0-3.7 0-6z"/><path fill="#F20004" d="M913.7 588c0-14.7-7.9-24.1-22-26-1-.1-2-.1-1.9-1.5.2-1.6 1.4-.9 2.2-.9 11.6.5 22.5 10.9 23.9 23.1 1.3 11.9-1.3 22.4-11.9 29.5-3.6 2.4-7.7 3.7-12 4.2-.9.1-2.1.6-2.3-.9-.2-1.4.9-1.4 1.9-1.5 14.3-2.2 22.1-11.4 22.1-26z"/><path fill="#F28D00" d="M396.8 593.8v35.3c0 4.8-1.5 6.3-6.3 6.3h-44.3c-4.8 0-6.3-1.5-6.3-6.3 0-23.7 0-47.5-.1-71.2 0-2.5.6-3.2 3.2-3.2 16.9.1 33.8.1 50.7 0 2.5 0 3.2.6 3.2 3.2-.2 12-.1 24-.1 35.9z"/><path fill="#45A9E1" d="M417.2 624c-2.6-23.4-5.2-46.5-7.8-69.6-.9-8.4-1.7-16.8-2.9-25.1-.4-2.6.5-3.1 2.7-3.2 5.1-.3 7 1.1 7.8 6.1 3.5 20.2 7 40.3 10.5 60.5.9 4.9 1.6 9.9 2.4 14.9.8 5.1-1.1 8.9-5.5 11.6-2.2 1.5-4.6 3.1-7.2 4.8z"/><path fill="#F7B22D" d="M366.5 547.4c.1.7.3 1.7-1.5 1.7-1.5 0-2.6 0-2.8-2-.9-9.4-1.9-18.7-2.8-28.1-1-9.9-2-19.8-3-29.6-.2-1.7-.3-2.8 2-2.9 2.3-.2 2.1 1.1 2.2 2.5 1.8 18.3 3.7 36.6 5.6 54.8.1 1 .2 2.1.3 3.6z"/><path fill="#EB500B" d="M345.9 549c-1.6.3-2.2-.4-2.5-1.8-2.9-13.7-5.7-27.4-8.8-41-.4-1.8.4-2 1.6-2.3 1.3-.3 2.2-.4 2.5 1.3 2.9 13.9 5.9 27.8 8.9 41.6.5 1.7.1 2.6-1.7 2.2z"/><path fill="#F6B12D" d="M381.6 549c-1.7.3-2.2-.3-2-2.1 1.6-13.8 3.2-27.6 4.7-41.4.2-1.6.8-1.9 2.2-1.7 1.5.2 2.2.5 2 2.3-1.6 13.5-3.1 27-4.6 40.5-.2 1.5-.2 2.9-2.3 2.4z"/><path fill="#47ACE2" d="M392.8 526.5v21.1c0 1.3-.6 1.6-1.8 1.6-1.4 0-1.6-.6-1.4-1.8.7-6.5 1.4-12.9 2.2-19.4 0-.3.3-.5 1-1.5z"/><path fill="#E93425" d="M359.4 477.1c-.1 1.5 1.4 3.7-1.9 3.8-1.6.1-2.1-.2-2.1-1.8 0-1-.3-2.1-.3-3.1-.1-1.4-1-3.1 1.8-3.4 2.8-.3 2.3 1.4 2.4 2.9 0 .5.1 1 .1 1.6z"/><path fill="#F9F9F9" d="M391.1 483.8c-.8 1.1 1.1 4.1-2.7 3.4-3.9-.8-.8-3.2-1.2-4.7-.5-1.8.7-2.2 2.5-2 2.6.1 1.4 1.8 1.4 3.3z"/><path fill="#C3C4C8" d="M398.3 536.6c.9-1.2-1.2-3.7 1.5-3.8 2.8-.1 1.8 2.5 1.8 3.9s2.4 4.5-1.8 4c-2.8-.3-.5-2.8-1.5-4.1z"/><path fill="#E64F0B" d="M337 496.5c0 2.1-1.9 2.1-2.8 1.9-2.6-.5-1.7-3.1-2.1-4.7-.4-1.8 1.9-1.7 2.8-1.5 2.4.5 1.1 3.1 2.1 4.3z"/><path fill="#CBCCD0" d="M389.2 496c-.2.2 1.5 2.8-1.5 2.2-1.4-.3-3-.1-2.2-2.3.4-1.2-.8-3.5 2.2-3.1 1.7.2 2.8.5 1.5 3.2z"/><path fill="#F9FAFB" d="M404.3 561.3c-.2.6.1 1.3-1.1 2 0-3.6-.6-6.9.4-10.2.2 2.8.5 5.5.7 8.2z"/><path fill="#FA8150" d="M715 588v.4c-4.5 0-4.5 0-4.5 4.6 0 5.4-.1 10.9 0 16.3.1 2.2-.7 2.7-2.8 2.7-13.5-.1-26.9-.1-40.4 0-2 0-2.5-.6-2.5-2.6.1-6.2 0-12.4.1-18.6 0-2-.6-2.6-2.5-2.5-2.3.1-4.7-.1-7-.2 2-.1 4-.3 6-.1 2.7.3 4-.6 3.4-3.4-.1-.7-.2-1.4-.3-2.2.8-4 .3-8.1.3-12.1 0-1.9.5-2.6 2.5-2.6 13.5.1 27.1.1 40.6 0 2 0 2.6.6 2.5 2.5-.1 4 0 8.1 0 12.2.9 2.6 2 4.6 4.6 5.6z"/><path fill="#D8D9DB" d="M622.6 623.6c-10.6 0-21.2-.1-31.8.1-2.4 0-2.6-.6-2.1-2.7 2.7-10 5.4-20 7.9-30 .5-2 1.2-2.7 3.4-2.7 15.2.1 30.4.1 45.6 0 2.1 0 2.9.5 3.4 2.6 2.5 10.1 5.1 20.1 7.9 30.1.7 2.6-.1 2.8-2.3 2.7-10.6-.2-21.3-.1-32-.1z"/><path fill="#DADBDD" d="M622.6 635.5c-13.3 0-26.5-.1-39.8 0-2.3 0-3.4-.3-3.3-3.1.1-2.3.3-3.3 3.1-3.3 26.7.1 53.5 0 80.2-.1 1.1 0 2.7-.8 3.1.7.4 1.6.3 3.4 0 5.1-.2 1.1-1.7.6-2.6.6-13.5.1-27.1.1-40.7.1z"/><path fill="#010101" d="M1129 373v-47.2c.1-1.4 1-2.2 2.3-2.2 1.3 0 2.2.7 2.3 2.1.1.9 0 1.7 0 2.6v90.1c0 .9 0 1.7-.1 2.6-.2 1.4-1.2 2.1-2.4 2.1s-2-.8-2.1-2c-.1-.9-.1-1.9-.1-2.9.1-15.1.1-30.1.1-45.2z"/><path fill="#020303" d="M983.4 365.3v57.1c0 1.9.1 4-2.4 4-2.4 0-2.5-2.1-2.5-4V307.6c0-2 .3-4 2.7-3.9 2.2.1 2.3 2 2.3 3.9-.1 19.2-.1 38.4-.1 57.7z"/><path fill="#000100" d="M1045.8 332.5v22.1c0 1.8 0 3.7-2.3 3.8-2.7.1-2.5-2.1-2.5-3.9v-44.2c0-1.7-.2-3.8 2.3-3.8 2.7-.1 2.5 2 2.5 3.9v22.1z"/><path fill="#020202" d="M1090.6 353.5v61.9c0 6.6-3.8 10.6-10.2 10.6-6.1 0-10.1-4-10.1-10.4V290.2c0-2.9 1.1-4 4-4 4 .1 7.9 0 11.9 0s4.4.4 4.4 4.4v62.9z"/><path fill="#020101" d="M1080.6 284h-7.1c-2 0-3.1-.9-3.1-2.8-.1-2.2-.2-4.5.1-6.7.6-5.4 5.1-8.9 10.9-8.5 5.5.3 9.3 4.1 9.3 9.5 0 9.7 1.2 8.5-8.5 8.6-.6-.1-1.1-.1-1.6-.1z"/><path fill="#040201" d="M1045.8 403.8V425c0 1.9-.2 3.7-2.5 3.6-2.1-.1-2.4-1.8-2.4-3.5v-42.4c0-1.8.4-3.4 2.5-3.5 2.1 0 2.5 1.6 2.5 3.4-.1 7.1-.1 14.1-.1 21.2z"/><path fill="#030303" d="M1104.7 346v36.9c0 1.9 0 4-2.6 3.9-2.3-.1-2.4-1.9-2.4-3.8v-74.4c0-2 .1-4 2.6-3.9 2.5.1 2.4 2.2 2.4 4.1V346zm7.6-.2V384c0 1.6-.7 2.8-2.3 2.8-1.8 0-2.6-1.2-2.6-2.9v-74.5c0-.9-.1-1.7.1-2.6.2-1.4 1.2-2.3 2.6-2.2 1.3.1 2.1 1 2.2 2.3.1.7 0 1.5 0 2.2v36.7z"/><path fill="#020100" d="M177.2 557.3v62.2c0 1.2.3 2.6-.7 3.7-1.6 1.7-4.1 1.1-4.8-1.2-.3-1-.2-2.1-.2-3.2V493.7c0-2.1.6-3.7 3-3.8 2.4 0 2.8 1.8 2.8 3.8v45.9c-.1 5.9-.1 11.8-.1 17.7z"/><path d="M253.5 529.6v84.1c0 3.6-.5 7-2.9 9.9-3.7 4.3-8.8 5.3-15 3.4-4.9-1.5-7.9-6.3-7.9-12V444.3c0-4.5.4-4.9 5-4.9h15.4c5 0 5.3.3 5.3 5.2.1 28.3.1 56.7.1 85zm-13.1-94.5h-9c-2.5 0-3.8-1.1-3.7-3.7.1-2.6 0-5.1 0-7.7.2-6.8 5.3-12 12-12.1 8-.1 13.2 4.3 13.7 11.6.2 2.8.1 5.5.1 8.3 0 2.4-1.1 3.5-3.5 3.5-3.2.1-6.4.1-9.6.1zm51.6 66.5v30.2c0 2.2.2 4.7-2.9 4.6-2.8-.1-2.9-2.4-2.9-4.5v-62c.1-1.9.9-3.5 3-3.4 2.1.1 2.8 1.6 2.7 3.6 0 10.5 0 21 .1 31.5z"/><path fill="#010101" d="M291.9 598.6v28.8c0 2.1-.1 4.1-2.7 4.2-2.8.1-3.1-2.1-3.1-4.3v-57.7c0-2.1.4-4.1 2.8-4.2 2.8-.1 3 2.1 2.9 4.3.1 9.6.1 19.2.1 28.9zm-92.3-79.4v-50.1c0-.7-.1-1.5 0-2.2.2-1.7 1.3-2.7 3-2.6 1.6.1 2.5 1 2.7 2.7.1.7 0 1.5 0 2.2v103c-.1 1.6-1.1 2.5-2.7 2.6-1.6.1-2.6-.8-3-2.4-.2-.8-.1-1.7-.1-2.6.1-16.8.1-33.7.1-50.6z"/><path fill="#020202" d="M215.3 519.6v50.7c0 .7.1 1.5-.1 2.2-.4 1.5-1.4 2.4-3 2.4-1.4-.1-2.4-.9-2.6-2.4-.1-.9-.1-1.9-.1-2.9V469.5c0-1-.1-1.9.1-2.9.3-1.6 1.3-2.4 2.9-2.4 1.5 0 2.4.9 2.6 2.4.1.8.1 1.7.1 2.6.1 16.8.1 33.6.1 50.4z"/><path d="M622.6 539.6H480.1c-5 0-5.3-.3-5.3-5.3V354.2c0-4.9.3-5.2 5.3-5.2h285.1c5.6 0 5.7.2 5.7 5.8v179.1c0 5.6-.1 5.7-5.8 5.7H622.6z"/><path fill="#020201" d="M715 588c-4.8.1-4.8.1-4.4-5.5h4.4v5.5z"/><path fill="#4FAC25" d="M541.8 602.5h-14.1c-1.2 0-2.6 0-2.5-1.7.1-1.3 1.3-1.4 2.5-1.4h28.2c1.2 0 2.6.1 2.5 1.7-.1 1.4-1.4 1.4-2.5 1.4h-14.1z"/><path fill="#4BAA25" d="M541 576.9h12.8c1.2 0 2.6-.1 2.5 1.6-.1 1.4-1.3 1.5-2.4 1.5h-26.2c-1.2 0-2.6-.1-2.5-1.7 0-1.4 1.3-1.4 2.4-1.4H541z"/><path fill="#4EAC25" d="M536.2 588.4h8.9c1.1 0 2.3.1 2.3 1.6 0 1.4-1.2 1.5-2.4 1.5h-17.2c-1.2 0-2.6-.2-2.6-1.7 0-1.6 1.6-1.4 2.7-1.4h8.3z"/><path d="M1064.7 511.2h35.3c4.4 0 4.8.4 4.8 4.7 0 8.9-.1 17.7 0 26.6 0 3-1.1 4.2-4.1 4.2-24-.1-48.1-.1-72.1 0-2.8 0-4.1-1-4.1-3.9.1-9.1 0-18.2 0-27.3 0-3.7.5-4.3 4.3-4.3h35.9zm40.1 89.6c-.1 8.8 1.3 8.8-8.6 8.7-9-.1-9.4 1.3-9.3-9.2.1-8.5 0-8.5 8.4-8.5h.3c9.7-.2 9.3-.3 9.2 9z"/><path fill="#000001" d="M1057.9 609.5c-9.6.1-8.9.5-8.9-9.1 0-7.9-1.1-8.8 8.5-8.7 9.3.1 9.2 0 9.3 9.2.1 9.2.1 8.7-8.9 8.6z"/><path fill="#010101" d="M1068.1 600.5c.1-8.6-1.3-8.8 8.6-8.8 10.2 0 8.8 0 8.9 8.8 0 9.8 1.1 8.9-8.9 9-10 .1-8.5.1-8.6-9zm28 27.8c-9.4.1-9.2.7-9.2-9.3 0-9.5.4-8.1 8.2-8.1h6.4c2.1 0 3.2 1 3.2 3.1v11.2c0 2.1-1.2 3.1-3.2 3.1h-5.4zm-38.5 0c-9.3 0-8.7.7-8.7-8.6 0-9.7-.7-8.8 8.8-8.8 1.7 0 3.4.1 5.1 0 3-.2 4 1.3 4 4.1v9.3c0 2.8-1.2 4.2-4 4.1-1.8-.2-3.5-.1-5.2-.1z"/><path d="M1033.3 609.5c-9.1.1-8.2.5-8.2-8.3 0-1.9.1-3.8 0-5.8-.1-2.4 1.1-3.6 3.4-3.6 3.5-.1 7-.1 10.5 0 2.3 0 3.5 1.3 3.5 3.6 0 3.5-.1 7 0 10.5 0 2.5-1.2 3.5-3.5 3.5-1.8.1-3.8.1-5.7.1zm62.3-19.1c-8.6-.1-8.6 1.4-8.7-8.7 0-9.8.6-8.7 8.8-8.8 9.6 0 9.1-.5 9 9 0 9.1.7 8.4-8.5 8.4-.1.1-.3.1-.6.1z"/><path fill="#010101" d="M1096.2 554.3c9.4 0 8.6-.8 8.6 8.6 0 9.3.5 8.8-9 8.8-8.5 0-8.9.9-8.9-9 0-9.8.3-8.4 8.3-8.4h1z"/><path d="M1058.2 554.3h4.2c3.6 0 4.4.7 4.4 4.2 0 3.1.1 6.2 0 9.3-.1 2.5-1.2 4-4 3.9-3.3-.1-6.6 0-9.9 0-2.7 0-3.9-1.3-3.9-3.9 0-3.2.1-6.4 0-9.6-.1-2.7 1-4 3.8-3.9h5.4zm-.5 36.1c-9.7 0-8.8.8-8.8-8.8 0-9.1-.4-8.8 8.8-8.7h4.5c3.4 0 4.5 1 4.5 4.3.1 3.1 0 6.2 0 9.3 0 2.6-1.1 4-3.9 3.8-1.6.1-3.3.1-5.1.1zm-23.8 37.9c-9.6 0-8.8.9-8.8-8.7 0-9.7-.8-8.7 8.8-8.7 9.5 0 8.7-.9 8.7 8.8 0 9.3.6 8.6-8.7 8.6zm34.2-9.2c0-9-.7-8.3 8.3-8.3h5.8c2.4-.1 3.5 1.1 3.4 3.5v10.6c0 2.3-1.1 3.3-3.3 3.3h-10.6c-2.6 0-3.7-1.2-3.6-3.7.1-1.8 0-3.6 0-5.4zm8.6-28.7c-9.7-.1-8.4 1.1-8.5-8.5v-5.4c0-2.4 1.2-3.5 3.5-3.5h10.2c2.5 0 3.8 1 3.7 3.6-.1 3.5-.1 7 0 10.5.1 2.3-.9 3.4-3.2 3.3h-5.7zm.4-36.1c9.8.1 8.5-1 8.5 8.6 0 9.5.9 8.8-8.7 8.9-10 .1-8.7-.1-8.7-8.7 0-9.9-1.3-8.7 8.6-8.8h.3zm-52 8.5c.1-9.6-1.2-8.5 8.5-8.5 9.9 0 8.9-.9 8.9 8.9 0 8.3 1.2 8.6-8.5 8.5-9.9-.1-8.9.7-8.9-8.9zm8.5 27.6c-9.7-.1-8.4 1.1-8.5-8.6 0-9.5-1-8.8 8.7-8.9 9.9-.1 8.7 0 8.7 8.6v3.5c0 5.2-.2 5.3-5.5 5.3-1.1.1-2.3.1-3.4.1z"/><path fill="#040404" d="M304.1 263.7h71.3c.9 0 1.7-.1 2.6 0 1.5.2 2.4 1.1 2.3 2.5-.1 1.3-.9 2.1-2.3 2.3-.7.1-1.5 0-2.2 0H232.3c-.9 0-1.7.1-2.6-.1-1.1-.3-1.9-1.1-1.9-2.3 0-1.2.7-2 1.9-2.3.9-.2 1.9-.1 2.9-.1h71.5z"/><path fill="#010101" d="M329.9 280.6c0 4.2-3.7 7.8-7.8 7.7-4.3-.1-7.6-3.6-7.5-7.9.1-4.1 3.5-7.5 7.6-7.5 4.1-.1 7.7 3.5 7.7 7.7zm20.5-.2c.1 4.2-3.5 7.8-7.7 7.8-4.1 0-7.6-3.4-7.7-7.5-.1-4.3 3.2-7.9 7.5-8 4.3 0 7.9 3.5 7.9 7.7zm-48.9-7.6c4.2 0 7.8 3.6 7.8 7.8 0 4.1-3.5 7.6-7.6 7.7-4.2.1-7.8-3.4-7.9-7.6 0-4.3 3.4-7.9 7.7-7.9zm-28.3 7.6c.1-4.3 3.6-7.7 7.9-7.6 4.1.1 7.5 3.6 7.6 7.7 0 4.2-3.6 7.8-7.8 7.8-4.2 0-7.8-3.6-7.7-7.9z"/><path fill="#020202" d="M260.3 362.8c-4.3 0-7.8-3.4-7.8-7.7 0-4.3 3.5-7.8 7.8-7.7 4.1.1 7.5 3.5 7.6 7.6.2 4.3-3.3 7.8-7.6 7.8z"/><path fill="#010101" d="M293.8 299.3c0-4.3 3.4-7.8 7.7-7.8 4.2 0 7.8 3.6 7.7 7.8-.1 4.1-3.5 7.5-7.6 7.6-4.2.1-7.8-3.4-7.8-7.6zm49.4 29.5c4.3.2 7.5 3.9 7.3 8.2-.3 4.1-3.8 7.4-7.9 7.2-4.3-.2-7.6-3.8-7.4-8.1.1-4.2 3.7-7.5 8-7.3zm-13.3-29.7c.1 4.2-3.5 7.8-7.7 7.8-4.1 0-7.6-3.3-7.7-7.5-.1-4.3 3.2-7.9 7.5-8 4.2 0 7.8 3.5 7.9 7.7z"/><path fill="#020202" d="M314.5 336.5c0-4.3 3.4-7.8 7.7-7.7 4.2 0 7.8 3.6 7.7 7.8-.1 4.1-3.5 7.5-7.6 7.6-4.3.1-7.8-3.4-7.8-7.7z"/><path fill="#010101" d="M322.1 310.1c4.2 0 7.8 3.5 7.7 7.8 0 4.2-3.7 7.7-7.9 7.7-4.1-.1-7.5-3.5-7.5-7.6 0-4.4 3.4-7.9 7.7-7.9zm33.6-29.7c.1-4.3 3.6-7.8 7.9-7.7 4.2.1 7.6 3.7 7.5 8-.1 4.1-3.6 7.5-7.7 7.5-4.3.1-7.8-3.5-7.7-7.8zM335.1 318c-.1-4.3 3.3-7.8 7.6-7.8s7.8 3.5 7.7 7.7c0 4.1-3.3 7.5-7.5 7.7-4.2.1-7.8-3.4-7.8-7.6zm36 18.6c0 4.2-3.7 7.8-7.9 7.7-4.1-.1-7.5-3.5-7.5-7.6 0-4.3 3.4-7.8 7.7-7.8 4.2-.1 7.7 3.4 7.7 7.7zm-28.5-45.1c4.3-.1 7.8 3.4 7.9 7.6 0 4.3-3.5 7.8-7.7 7.8-4.1 0-7.6-3.4-7.7-7.5-.1-4.3 3.2-7.8 7.5-7.9zm-48.8 26.2c.1-4.3 3.7-7.7 7.9-7.6 4.2.1 7.7 3.8 7.5 8-.2 4.1-3.7 7.5-7.8 7.4-4.2 0-7.7-3.6-7.6-7.8zm-20.6 18.8c0-4.3 3.5-7.7 7.8-7.7 4.1 0 7.5 3.4 7.7 7.5.1 4.2-3.4 7.8-7.6 7.9-4.4 0-7.9-3.4-7.9-7.7zm7.7-45c4.2 0 7.8 3.6 7.7 7.8-.1 4.1-3.5 7.6-7.6 7.6-4.2.1-7.8-3.4-7.8-7.7 0-4.2 3.4-7.7 7.7-7.7z"/><path fill="#020202" d="M293.8 336.7c-.1-4.3 3.3-7.8 7.6-7.9 4.2-.1 7.8 3.5 7.8 7.7 0 4.1-3.4 7.6-7.5 7.7-4.1.2-7.8-3.3-7.9-7.5z"/><path fill="#010101" d="M273.2 317.7c.1-4.3 3.6-7.7 7.9-7.5 4.1.1 7.5 3.6 7.5 7.7 0 4.2-3.6 7.8-7.8 7.7-4.2-.1-7.7-3.6-7.6-7.9zm7.8 45.1c-4.3 0-7.8-3.3-7.8-7.6s3.5-7.8 7.7-7.7c4.1 0 7.6 3.4 7.7 7.5.2 4.1-3.3 7.8-7.6 7.8zm90.1-63.6c0 4.3-3.6 7.8-7.8 7.7-4.2 0-7.7-3.7-7.6-7.9.1-4.1 3.5-7.5 7.6-7.5 4.3-.1 7.8 3.5 7.8 7.7zm0 18.7c0 4.3-3.6 7.7-7.9 7.6-4.1-.1-7.5-3.5-7.5-7.6 0-4.3 3.4-7.8 7.7-7.8 4.2 0 7.7 3.5 7.7 7.8zm-118.5.1c-.1-4.3 3.4-7.8 7.6-7.9 4.2 0 7.8 3.5 7.8 7.7 0 4.1-3.3 7.6-7.5 7.7-4.2.2-7.8-3.3-7.9-7.5zm0-18.9c.1-4.3 3.6-7.7 7.9-7.6 4.1.1 7.5 3.5 7.5 7.7s-3.5 7.8-7.7 7.8c-4.3-.1-7.8-3.7-7.7-7.9zm0 37.3c0-4.3 3.5-7.7 7.8-7.7 4.1.1 7.5 3.5 7.6 7.6.1 4.2-3.4 7.8-7.7 7.9-4.2.1-7.7-3.5-7.7-7.8zm15.4-55.9c0 4.2-3.5 7.8-7.7 7.8-4.1 0-7.5-3.4-7.6-7.6-.1-4.3 3.3-7.9 7.5-8 4.1 0 7.7 3.6 7.8 7.8zm-20.7 74.7c0 4.3-3.5 7.7-7.8 7.6-4.2-.1-7.5-3.5-7.5-7.6 0-4.2 3.5-7.8 7.8-7.8 4.1 0 7.5 3.5 7.5 7.8zm0-18.8c0 4.3-3.4 7.8-7.7 7.8-4.1 0-7.5-3.4-7.7-7.5-.1-4.2 3.3-7.8 7.6-7.9 4.3-.1 7.8 3.3 7.8 7.6zm-15.4-18.6c0-4.2 3.7-7.7 7.9-7.7 4.3.1 7.6 3.6 7.5 7.9-.1 4.2-3.5 7.5-7.6 7.5-4.2.1-7.8-3.5-7.8-7.7zm0-18.6c0-4.2 3.6-7.8 7.8-7.7 4.2 0 7.5 3.4 7.6 7.6.1 4.3-3.3 7.9-7.6 7.9-4.1 0-7.8-3.6-7.8-7.8z"/><path fill="#040506" d="M303.8 249.5H230c-1.2 0-2.1-.6-2.1-1.9 0-1.2.4-2.2 1.7-2.4 1-.2 2.1-.2 3.2-.2H375c1.2 0 2.4.1 3.5.2 1.2.2 1.9 1 1.9 2.2-.1 1.1-.8 2-2 2.1-.9.1-1.7 0-2.6 0h-72z"/><path fill="#C3F6FE" d="M378.5 250.6H229.7v-.3h148.8v.3z"/><path fill="#020405" d="M416 536.3c0 2.3-1.1 3.7-3.4 3.8-2.2 0-3.6-1.2-3.7-3.5 0-2.1 1.1-3.6 3.2-3.6 2.2-.1 3.9.8 3.9 3.3z"/><path fill="#F6F6F8" d="M1075.3 354.3c0-20 0-40-.1-60 0-2.5.5-3.3 3.1-3.2 7.3.2 7.3 0 7.3 7.3v116.5c0 4.4-1.7 6.3-5.4 6.2-3.3-.1-4.9-2-4.9-5.7v-61.1z"/><path fill="#F5F5F7" d="M1080.2 279c-.3 0-.7.1-1 0-1.3-.4-3.4 1.1-3.8-.9-.5-2.3-.5-5 2.1-6.5 2.1-1.3 4.2-1.2 6.3.2 2.4 1.6 1.9 4.1 1.9 6.4 0 1.2-1 .9-1.6.9-1.3-.1-2.6-.1-3.9-.1z"/><path fill="#DEDC00" d="M247.9 531.2V614c0 5.7-2.6 8.4-7.8 8.2-3.4-.2-6.1-2.5-6.5-5.9-.1-.9-.1-1.9-.1-2.9 0-55 0-109.9-.1-164.9 0-3 .8-3.6 3.6-3.4 2.5.2 5.2.3 7.7 0 2.8-.3 3.2.8 3.2 3.4-.1 25.7-.1 51.3-.1 77 .1 1.9.1 3.8.1 5.7zm-7.3-101.7c-.4 0-.9.1-1.3 0-1.9-.9-5.1 2-5.7-1.6-.9-5.7 1.2-9.6 5-10.4 4.4-.8 7.9 1 8.9 4.7 0 .1 0 .2.1.3 1.5 6.4.8 7-7 7z"/><path fill="#EDBA3E" d="M480.5 533.1c-.1-.8-.2-1.7-.2-2.5v-173c0-.7.1-1.5.2-2.2.4.2.6.4.8.8.7 4 .2 8 .3 12 .1 1.2-.3 2.6.6 3.7 1.8.7 3.6.4 5.4.4h175.8c8.2 0 8.5.4 5.4 8-.7 1.7-1.1 3.5-2.5 4.8-1.7 1-3.5.7-5.3.7H560.6c-10.6 0-18.5 7.9-18.5 18.6v72.2c0 9.3 3.5 14.2 12.2 17.5 4.4 1.7 9.1 2.5 13.8 2.8 3.8.3 4.5 1.4 2.6 4.9-1.4 2.7-3.7 4.7-6 6.6-2.5 2.1-5 4-7.5 6-1.4 1.1-2.5 2.5-1.9 4.4.6 2 2.5 2.3 4.2 2.3 9.5 0 18.6-2.2 27.3-6.1 8.2-3.7 15-9.3 21.3-15.8 3.3-3.5 8.5-4.2 12.9-2.1.7 1.3.1 2.5-.4 3.7-3.9 9.8-7.8 19.6-11.8 29.5-.6 1.5-1.1 3.1-3.2 3.1H484c-1.2.1-2.4.4-3.5-.3z"/><path fill="#8EECF4" d="M765.4 373.2c2.2.4 1.1 2.1 1.1 3.1.1 19.8.1 39.6.1 59.4 0 31.7 0 63.3.1 95 0 2.6-.8 3.3-3.3 3.3H617.7c-.4 0-.8-.1-1.3-.1-.6-1.3.1-2.5.6-3.6 3.9-9.9 7.7-19.8 11.7-29.6.6-1.6 1.1-3.3 3-3.9 1.7-.4 3.4-.3 5.1-.3 20.2 0 40.4-.1 60.6 0 8 .1 12.7-4.8 17-10.4 1-1.3 1-3 1-4.6 0-26.9.1-53.9 0-80.8 0-7.1-7.7-14.1-15.8-14.5-5.3-.2-10.7 0-16-.1h-4.5c-1.2-.1-2.4 0-3.3-1-.3-4.3 1.8-7.8 3.9-11.2 1-1.6 3-1.3 4.7-1.4h75.3c1.9-.2 3.9-.4 5.7.7z"/><path fill="#F6F6F8" d="M631 497.3c-4.5 11.2-9 22.3-13.5 33.5l-1.2 3h-9.8c-.2-.1-.3-.2-.2-.3l.2-.2c4.7-11.8 9.4-23.5 14.2-35.3-.1-3.2 1.8-5.8 2.5-8.7 11.4-27.5 22.1-55.4 33.2-83 1.7-4.4 3.5-8.7 5.2-13.1 1.4-2.7 1.8-5.9 4-8.2 1.4-3.2 2.7-6.5 4.1-9.7.8-1.7 0-2.1-1.5-2H484.3c-1.2 0-2.5.6-3.6-.6 1.2-1.9.1-3.9.1-5.9.1-3.8.3-7.5-.1-11.3l-.2-.1h-.2c.8-1.1 2-.6 3-.6h279.1c.8 0 1.9-.6 2.6.5-.5.5-.7 1-.6 1.7.2 4.4 0 8.9.1 13.3 0 .8-.1 1.7.6 2.3.2.1.2.3.2.5-16.5 0-32.9.1-49.4.1-10.8 0-21.6.1-32.4-.1-2.6 0-3.9.8-4.6 3.3-.8 2.9-2.4 5.4-3.1 8.4 0 3.1-2 5.6-2.8 8.5-12 30.2-24 60.3-36.1 90.5-.5 1.3-1.1 2.6-1.6 3.8-1.4 3.3-1.8 7-4.3 9.7z"/><path fill="#D9C184" d="M606.6 533.2v.5c-1.3.1-2.6.2-3.8.2H483.6c-1 0-2.4.8-3.1-.7 36.5 0 73 0 109.4.1 5.6-.1 11.1-.1 16.7-.1z"/><path fill="#FCFCFD" d="M765.1 372.7c-.9 0-1.4 0-1.4-1.4-.1-5.1.9-10.1-.5-15.2-.3-1.3 1.2-.6 1.8-.8.5 5.8.3 11.6.1 17.4z"/><path fill="#C6DEEA" d="M1064.6 541c-10.6 0-21.2-.1-31.8.1-2.2 0-2.6-.6-2.6-2.7.1-6.4.1-12.8 0-19.3 0-1.8.4-2.4 2.3-2.4 21.4.1 42.8.1 64.2 0 2.1 0 2.5.7 2.4 2.6-.1 6.4-.1 12.8 0 19.3 0 2-.4 2.5-2.5 2.5-10.6-.2-21.3-.1-32-.1z"/><path fill="#A9AAAD" d="M1099 600.6c.6 2.5-.4 3.2-2.9 3.2s-3.4-.6-3.4-3.3c0-2.7 1-3 3.3-3.1 2.4.1 3.7.6 3 3.2z"/><path fill="#A9AAAE" d="M1058 603.7c-2.3.4-3.5.1-3.4-2.8.1-2.5.5-3.5 3.3-3.4 2.4.1 3.3.5 3.2 3.1-.1 2.4-.4 3.8-3.1 3.1z"/><path fill="#B2B3B7" d="M1076.9 603.7c-2.7.7-3.1-.6-3.1-3-.1-2.6.8-3.1 3.2-3.1 2.6 0 3.1.8 3.1 3.2 0 2.5-.7 3.5-3.2 2.9z"/><path fill="#B3B4B8" d="M1096.1 616.6c2.7-.7 2.9.7 3.1 3 .2 2.8-1.1 2.9-3.3 3-2.6.1-3.1-.8-3.1-3.2-.1-2.7.9-3.3 3.3-2.8zm-41.3 2.6c-.8-3.3 1.5-2.5 3.3-2.8 3-.5 2.7 1.3 3 3.3.4 3.2-1.6 2.5-3.5 2.8-3 .5-3.3-1.1-2.8-3.3z"/><path fill="#A8A8AC" d="M1036.8 600.8c.8 3.2-1.2 2.8-3.2 3.1-3 .3-2.8-1.3-3-3.4-.3-3 1.2-2.9 3.4-3 2.8-.2 3.4.9 2.8 3.3z"/><path fill="#A9AAAE" d="M1095.8 584.9c-2.7.7-3.1-.6-3.1-3-.1-2.6.7-3.1 3.2-3.2 2.7 0 3.2.8 3.3 3.3.1 2.8-1 3.4-3.4 2.9z"/><path fill="#A8A9AD" d="M1096.2 565.8c-2.7.6-3.5-.3-3.5-2.9 0-2.5.7-3.3 3.2-3.2 2.4.1 3.4.5 3.3 3.1-.1 2.4-.3 3.9-3 3z"/><path fill="#A9AAAD" d="M1057.8 565.8c-2.8.8-3.1-.7-3.3-3.1-.2-2.9 1.2-2.9 3.3-3 2.6-.1 3.2.7 3.2 3.2.1 2.5-.6 3.5-3.2 2.9z"/><path fill="#A9AAAE" d="M1057.9 584.8c-2.7.6-3.3-.4-3.4-2.9-.1-2.8.9-3.2 3.4-3.2 2.7-.1 3 .9 3.1 3.3.1 2.5-.6 3.6-3.1 2.8z"/><path fill="#B3B4B8" d="M1033.9 622.4c-2.9.8-3.1-.7-3.3-3-.2-2.9 1.2-2.9 3.4-3 2.5-.1 3 .7 3 3-.1 2.5-.5 3.9-3.1 3z"/><path fill="#B4B5B9" d="M1073.9 619.5c-.7-2.7.7-3 3-3.1 2.4 0 3.2.6 3.2 3.1 0 2.6-.8 3.1-3.2 3.1-2.4 0-3.7-.4-3-3.1z"/><path fill="#AFAFB3" d="M1077.1 584.8c-2.8.7-3.3-.5-3.4-3 0-2.6.7-3.1 3.2-3.1s3.3.6 3.2 3.1c-.1 2.4-.3 4-3 3z"/><path fill="#AEAFB3" d="M1077.1 559.9c2.9-.7 2.8 1 3 3.2.3 2.9-1.2 2.8-3.3 3-2.8.2-2.9-1.1-3-3.3-.3-2.9.9-3.4 3.3-2.9z"/><path fill="#ADAEB2" d="M1033.8 559.8c2.5-.6 3.2.4 3.2 3 0 2.5-.6 3.1-3.1 3.2-2.8.1-3.2-1-3.2-3.4-.1-2.6.8-3.2 3.1-2.8z"/><path fill="#B2B3B7" d="M1030.8 582c-.5-2.4.2-3.3 2.9-3.3 2.7 0 3.2.8 3.3 3.4.2 3-1.4 2.8-3.4 2.9-2.4.1-3.5-.6-2.8-3z"/><path fill="#DDDEE0" d="M325.1 280.6c-.4 1.7-1.3 2.9-3 2.8-1.9-.1-3-1.3-2.8-3.2.2-1.7 1.3-2.7 3.1-2.6 1.7.2 2.5 1.4 2.7 3z"/><path fill="#9C9BA1" d="M345.8 280.6c-.4 1.6-1.2 2.8-3 2.8-1.9 0-3-1.2-2.8-3.1.1-1.7 1.2-2.8 2.9-2.7 1.7.1 2.5 1.4 2.9 3z"/><path fill="#DDDEE0" d="M304.5 280.5c-.3 1.6-1.1 2.8-2.8 2.9-1.9.1-3.1-1.1-3.1-2.9 0-1.8 1.2-3 3-2.9 1.8.1 2.6 1.3 2.9 2.9z"/><path fill="#DBDCDE" d="M280.9 283.5c-1.8-.3-3-1.3-2.9-3.2.1-1.6 1.2-2.8 2.9-2.7 1.9.1 2.9 1.2 2.8 3.1 0 1.7-1.2 2.6-2.8 2.8z"/><path fill="#DDDEE0" d="M263.2 355.1c-.1 1.7-1 2.8-2.8 2.9-1.8.1-2.9-1-3-2.7-.1-1.9 1.1-3.1 2.9-3.1 1.7 0 2.7 1.1 2.9 2.9zm38.2-58.9c1.8.1 3 1.2 3 3 0 1.6-1.1 2.8-2.8 2.8-1.9 0-3-1.2-3-2.9 0-1.6 1.1-2.6 2.8-2.9z"/><path fill="#9B9A9F" d="M345.7 336.4c-.2 1.6-1 2.8-2.7 3-1.8.1-2.9-.8-3-2.5-.2-1.9.9-3.1 2.8-3.2 1.6-.2 2.6 1 2.9 2.7z"/><path fill="#DDDEE0" d="M325.1 299.3c-.4 1.6-1.3 2.9-3.1 2.8-1.9-.1-3-1.3-2.8-3.2.2-1.7 1.3-2.7 3.1-2.6 1.8.1 2.6 1.4 2.8 3z"/><path fill="#DFE0E2" d="M325.1 336.5c-.4 1.6-1.2 2.8-2.9 2.8s-2.8-1-2.9-2.8c-.1-1.9 1.1-3.1 3-3 1.7.1 2.6 1.4 2.8 3z"/><path fill="#E0E1E2" d="M322 314.9c1.8.2 3 1.2 3 2.8.1 1.8-1.1 3-3 3-1.7-.1-2.8-1.2-2.7-2.9 0-1.8 1.1-2.6 2.7-2.9z"/><path fill="#9B9A9F" d="M366.4 280.5c-.2 1.7-1.1 2.8-2.8 3-1.8.1-2.9-.9-3-2.6-.2-1.9.9-3.1 2.8-3.1 1.7-.2 2.6 1 3 2.7zm-20.7 37.2c-.2 1.6-1 2.8-2.7 3-1.8.2-2.9-.8-3-2.6-.2-1.9.9-3.1 2.7-3.2 1.8 0 2.6 1.2 3 2.8zm17.7 15.8c1.7.3 2.9 1.3 2.9 3-.1 1.8-1.2 3-3.1 2.8-1.7-.1-2.7-1.3-2.6-3 0-1.7 1.2-2.6 2.8-2.8zm-17.7-34.3c-.3 1.6-1.2 2.8-3 2.8-1.9 0-3-1.2-2.8-3.1.1-1.7 1.2-2.8 3-2.7 1.7.2 2.6 1.4 2.8 3z"/><path fill="#E0E1E2" d="M304.5 317.8c-.3 1.6-1.1 2.9-2.9 2.9-1.9 0-3-1.2-3-3 .1-1.7 1.2-2.8 3-2.7 1.8 0 2.6 1.2 2.9 2.8z"/><path fill="#DDDEE0" d="M281 333.5c1.7.3 2.8 1.2 2.8 3 0 1.7-1 2.9-2.8 2.9-1.9 0-3-1.2-3-3.1.1-1.7 1.3-2.6 3-2.8z"/><path fill="#DCDDDF" d="M280.9 296.2c1.7.2 2.8 1.1 2.9 2.8.1 1.8-1 3-2.9 3-1.7 0-2.8-1.1-2.9-2.7-.1-1.8 1.1-2.8 2.9-3.1z"/><path fill="#DEDFE1" d="M304.5 336.5c-.5 1.8-1.4 3-3.2 2.8-1.9-.2-2.9-1.4-2.7-3.3.2-1.6 1.4-2.7 3.2-2.5 1.8.3 2.5 1.6 2.7 3z"/><path fill="#DCDDDF" d="M283.8 317.9c-.3 1.6-1.1 2.8-2.9 2.8-1.8 0-2.9-1.1-2.9-2.8 0-1.8 1.1-3 3-3 1.8.1 2.7 1.3 2.8 3z"/><path fill="#DBDBDD" d="M281 358c-1.9-.1-3-1.2-3-3 0-1.7 1.2-2.8 2.8-2.8 1.8 0 3 1.1 3 3 0 1.7-1.1 2.6-2.8 2.8z"/><path fill="#9B9A9F" d="M363.4 302.1c-1.6-.2-2.8-1.1-2.9-2.8-.1-1.7.9-2.9 2.6-3 1.9-.1 3.1 1.1 3.1 2.9.1 1.7-1 2.7-2.8 2.9z"/><path fill="#9A999E" d="M366.4 317.8c-.3 1.6-1.2 2.9-2.9 2.9-1.9 0-3-1.1-2.9-3 .1-1.7 1.2-2.8 3-2.7 1.6 0 2.5 1.2 2.8 2.8z"/><path fill="#DBDCDD" d="M260.4 320.8c-2-.3-3.2-1.3-3.1-3.1.1-1.6 1.2-2.8 2.9-2.7 1.8 0 2.9 1.1 2.9 3 0 1.7-1.2 2.5-2.7 2.8z"/><path fill="#DBDCDE" d="M260.2 296.2c1.7.2 2.8 1 2.9 2.8.1 1.8-.9 2.9-2.6 3.1-1.9.2-3.1-1-3.2-2.9 0-1.7 1.2-2.7 2.9-3z"/><path fill="#DDDEE0" d="M260.3 333.5c1.7.4 2.9 1.2 2.9 3-.1 1.9-1.2 3-3.1 2.9-1.7-.1-2.7-1.3-2.6-3 0-1.8 1.2-2.7 2.8-2.9z"/><path fill="#DBDCDE" d="M263.2 280.6c-.2 1.7-1.1 2.8-2.8 2.9-1.9.1-3-1.1-3-2.9 0-1.8 1.2-3 3.1-2.9 1.6 0 2.5 1.2 2.7 2.9zm-20.6 74.7c-.3 1.6-1.1 2.7-2.9 2.7-1.9 0-3-1.1-2.9-3 0-1.7 1.2-2.8 2.8-2.8 1.8 0 2.8 1.2 3 3.1z"/><path fill="#DADBDD" d="M242.6 336.6c-.2 1.7-1.1 2.8-2.8 2.8-1.9 0-3-1.2-3-3 0-1.7 1.2-2.8 2.8-2.8 1.8-.1 2.8 1.1 3 3z"/><path fill="#D9DADC" d="M242.6 318.2c-.4 1.6-1.3 2.7-3 2.6-1.8-.1-2.9-1.3-2.8-3.2.2-1.6 1.3-2.7 3-2.6 1.8.1 2.7 1.3 2.8 3.2z"/><path fill="#DADADC" d="M242.6 299c-.1 1.7-1 2.9-2.7 3-1.9.1-3.1-1-3.2-2.8-.1-1.8 1.1-3 2.9-3 1.8.1 2.7 1.2 3 2.8z"/><path fill="#F6DE89" d="M665.7 384.9c-.8 2.9-1.9 5.7-3.3 8.4-1.6 1.3-3.5.9-5.3.9h-95c-3.3 0-6.1.7-8.2 3.4-1.5 1.8-2.2 3.9-2.2 6.2 0 24.5-.1 49 0 73.5 0 6.4 4.6 10.6 11 10.7 4.1 0 8.1-.1 12.2 0 5 .1 6.6 2.3 6.5 7.3-.2 4.6-1 8.9-3.4 13.3 2.8 0 4.8-1.3 6.9-2.2 6-2.4 11-6.2 14.4-11.8.7-1.1 1.5-2.1 2.2-3.1 1.7-2.5 4-3.6 7.1-3.5 3.7.1 7.5 0 11.2.1 1.5 0 3.1-.2 4 1.5-.4 3.1-1.9 5.7-3 8.5-4.6-1-8.9-1.7-12.7 2.6-10.2 11.5-23.2 18.3-38.3 20.9-3.4.6-6.9 1.2-10.5.9-2-.2-4.3-.3-5.1-2.5-.9-2.6.4-4.5 2.4-6 3.7-2.8 7.5-5.6 10.8-9 .4-.5 1-.9 1.3-1.4 1-1.5 2.7-3.2 2.1-4.8-.6-1.5-2.9-.5-4.4-.7-7.5-1-14.7-2.4-20.6-7.8-3.4-3.1-4.7-7-4.7-11.5v-76.4c0-8.6 9.1-17.4 17.7-17.4 35.6-.1 71.2-.1 106.9-.1z"/><path fill="#FCFCFD" d="M480.8 355.4c1.1-.2 1.5.1 1.2 1.3-1.1 4.8-1.1 9.7 0 14.5.3 1.3-.2 1.5-1.2 1.4-.2-5.7-.3-11.4 0-17.2z"/><path fill="#C8FEFE" d="M631 497.3c1.3-3.2 2.5-6.5 3.8-9.7 14.8.7 29.5.2 44.3.3 5.9.1 11.8.1 17.7 0 5.7-.1 8.7-3.3 9.1-8.9.7-9.7 1-19.5.5-29.2-.8-15.7-.4-31.4-.6-47.1-.1-4.8-3.3-8.2-8.2-8.3-6.7-.2-13.5 0-20.2-.1-1.6 0-3.2.3-4.6-1 .5-3 1.8-5.7 3.2-8.3 7.6 0 15.2.1 22.8 0 8.4-.1 13.1 5 17.2 11.4.7 1.2.5 2.5.5 3.8 0 26.3-.2 52.6.2 78.9.1 6.8-3.1 10.7-7.7 14.4-3.6 2.9-7.6 4.1-12.4 4-22-.4-43.8-.2-65.6-.2z"/><path fill="#EDBA3E" d="M623.8 489.4c-6-1.1-12.1-.3-18.2-.4-1.4 0-2.1 1.3-2.8 2.4-3.9 5.5-7.4 11.3-13.9 14.2-4 1.8-7.9 3.7-12.5 4.7.8-1.9 1.2-3.6 2.1-4.9 2.5-4 1.7-8.5 2.2-12.8.2-2.2-2-3.8-4.6-3.8h-13.8c-6.5 0-11.5-5.1-11.5-11.7v-74.4c.1-4.9 4.6-9.5 9.3-9.5h102.3c-4.8 12.1-9.5 24.2-14.3 36.3-7.5 18.8-15 37.7-22.5 56.5-.5 1.2-1.2 2.3-1.8 3.4z"/><path fill="#8EECF4" d="M672.7 393.2H698c4.5 0 8.7 4.2 8.7 8.6 0 3.8.1 7.7 0 11.5-.4 16.6.6 33.1.7 49.6 0 6.1-.8 12.1-.7 18.2 0 3.3-4.5 7.6-7.9 7.6h-61.6c-1 0-2.2.2-2.5-1.3 10.1-25.4 20.2-50.7 30.4-76.1 2.5-5.9 4.5-12.3 7.6-18.1z"/><path fill="#FCFCFD" d="M623.2 367.5H489.7c-3.7 0-4.3-.8-3.8-4.4.2-1.6 1.1-2.5 2.7-2.7.6-.1 1.3 0 1.9 0h265.2c4.3 0 5.3 1 5.1 4.6-.1 1.8-.9 2.5-2.6 2.4h-2.6c-44.2.1-88.3.1-132.4.1z"/><path fill="#504F54" d="M1021.2 548.4h85.6v79.5h-85.6z"/><path d="M1025.7 553.7h16.1v16.1h-16.1z"/><path fill="#AEAFB3" d="M1030.1 558h7.4v7.4h-7.4z"/><path d="M1025.7 572.3h16.1v16.1h-16.1z"/><path fill="#AEAFB3" d="M1030.1 576.6h7.4v7.4h-7.4z"/><path d="M1025.7 590.9h16.1V607h-16.1z"/><path fill="#AEAFB3" d="M1030.1 595.2h7.4v7.4h-7.4z"/><path d="M1025.7 609.5h16.1v16.1h-16.1z"/><path fill="#AEAFB3" d="M1030.1 613.8h7.4v7.4h-7.4z"/><path d="M1051.3 553.7h16.1v16.1h-16.1z"/><path fill="#AEAFB3" d="M1055.6 558h7.4v7.4h-7.4z"/><path d="M1051.3 572.3h16.1v16.1h-16.1z"/><path fill="#AEAFB3" d="M1055.6 576.6h7.4v7.4h-7.4z"/><path d="M1051.3 590.9h16.1V607h-16.1z"/><path fill="#AEAFB3" d="M1055.6 595.2h7.4v7.4h-7.4z"/><path d="M1051.3 609.5h16.1v16.1h-16.1z"/><path fill="#AEAFB3" d="M1055.6 613.8h7.4v7.4h-7.4z"/><path d="M1069.7 553.7h16.1v16.1h-16.1z"/><path fill="#AEAFB3" d="M1074 558h7.4v7.4h-7.4z"/><path d="M1069.7 572.3h16.1v16.1h-16.1z"/><path fill="#AEAFB3" d="M1074 576.6h7.4v7.4h-7.4z"/><path d="M1069.7 590.9h16.1V607h-16.1z"/><path fill="#AEAFB3" d="M1074 595.2h7.4v7.4h-7.4z"/><path d="M1069.7 609.5h16.1v16.1h-16.1z"/><path fill="#AEAFB3" d="M1074 613.8h7.4v7.4h-7.4z"/><path d="M1088.5 553.7h16.1v16.1h-16.1z"/><path fill="#AEAFB3" d="M1092.8 558h7.4v7.4h-7.4z"/><path d="M1088.5 572.3h16.1v16.1h-16.1z"/><path fill="#AEAFB3" d="M1092.8 576.6h7.4v7.4h-7.4z"/><path d="M1088.5 590.9h16.1V607h-16.1z"/><path fill="#AEAFB3" d="M1092.8 595.2h7.4v7.4h-7.4z"/><path d="M1088.5 609.5h16.1v16.1h-16.1z"/><path fill="#AEAFB3" d="M1092.8 613.8h7.4v7.4h-7.4z"/><path fill="#45A9E1" d="M946.3 641h179.2v3.8H946.3z"/><path fill="#45A9E1" d="M809 641h179.2v3.8H809zm308.8-23.7h4.8V646h-4.8z"/><path fill="#FDFDFD" d="M1117.8 590.9h4.8v26.4h-4.8z"/><path d="M765 354.2h3.3v183.3H765zm-287.5.1h3.3v183.3h-3.3z"/><path d="M478.8 351.6h287.5v3.3H478.8zm0 181.7h287.5v3.3H478.8z"/><path fill="#F9F9F9" d="M386.5 480.063l6.161.687-.787 7.056-6.162-.687zm-1.347 11.933l5.466.61-.688 6.161-5.466-.61z"/></svg>