<svg id="Layer_1" xmlns="http://www.w3.org/2000/svg" viewBox="0 0 690.8 639.8"><style>.st0{fill:#353535}</style><path class="st0" d="M28.1 161.3L5.6 144.8l4.2-9.6 27.4 5.3-2.2 5.1-4.9-1-3.8 8.7 4.1 3-2.3 5zm-16.6-18.6l10.7 7.7 3-6.8-12.9-2.6-.8 1.7zm27.1-5.1l-24-12.8 4.4-8.2 22.9 4.7.1-.3-19.8-10.5 2.6-4.9 24 12.8-4.3 8-23-4.5-.2.4 19.8 10.5-2.5 4.8zm11.8-21.9L30.7 95.9l5.6-8.8 26.2 9.4-3 4.7-4.7-1.7-5.1 8 3.6 3.6-2.9 4.6zM36.9 94.8l9.4 9.3 4-6.3-12.4-4.6-1 1.6zm36.7-13.3L64.5 94l-22-16 3.3-4.5 18 13.2 5.9-8 3.9 2.8zm6.8-8.3l-3.5 4.3-8.5-6.9-17.9-3.7 3.9-4.8L66 65l-5.3-10.7 3.9-4.8 7.3 16.7 8.5 7zM70 50.7l-3.5-3.3 12.2-13.2 3.5 3.3 4.7 19.8.5.5 7.7-8.3 3.5 3.3-12.2 13.1-3.4-3.3-4.7-19.8-.5-.5-7.8 8.4zm31.6-1L82.9 30l12.7-12.1 3.3 3.5-8.7 8.3 4.4 4.6 7-6.7 3.3 3.4-7 6.7 4.5 4.7 8.7-8.3 3.3 3.5-12.8 12.1zM539.3 25c-3.3-2.6-4.8-5.3-4.8-8.1.1-2.8 1.6-6.1 4.6-9.8s5.9-6 8.7-6.8c2.8-.8 5.8.1 9 2.7s4.8 5.3 4.7 8.2c-.1 2.9-1.7 6.2-4.7 10-3.7 4.6-7.3 6.9-10.7 6.7l-.7 6.3-5.4-1.3.8-6.8c-.3-.2-.8-.5-1.5-1.1zm.9-8.1c-.2 1.6.5 3 2.2 4.4 1.7 1.3 3.3 1.7 4.8 1.1 1.5-.6 3.2-2.2 5.3-4.8 2.1-2.6 3.2-4.7 3.5-6.4.3-1.7-.4-3.2-2.1-4.5-1.7-1.3-3.3-1.7-4.8-1-1.6.7-3.4 2.3-5.4 4.9-2.1 2.6-3.3 4.7-3.5 6.3zm21.5 14.5c-2.2 2.3-2.1 4.6.3 6.8s4.6 2.1 6.8-.2l12.3-13.3 4 3.8-12.3 13.2c-2.3 2.4-4.6 3.6-6.9 3.6-2.3 0-4.8-1.2-7.3-3.6-2.5-2.4-3.9-4.7-4.1-7-.2-2.3.8-4.7 3.1-7.1L570 14.3l4 3.8-12.3 13.3zm23.4 32.5c-2.8.3-5.6-1.1-8.4-4.1-2.8-3-3.9-5.9-3.4-8.7.5-2.8 2.5-5.8 6.1-9s6.7-5 9.6-5.4c2.9-.3 5.7 1 8.5 4.1 2.8 3 3.9 6 3.3 8.8-.6 2.8-2.6 5.9-6.1 9.1-3.6 3.2-6.8 4.9-9.6 5.2zm-6.3-12c-.5 1.5 0 3.1 1.5 4.7s3 2.2 4.5 1.8c1.6-.4 3.6-1.7 6-3.9s3.9-4.1 4.5-5.7c.6-1.6.1-3.2-1.3-4.8-1.4-1.6-3-2.1-4.6-1.7-1.6.4-3.7 1.8-6.1 4-2.5 2.1-4 4-4.5 5.6zm24.3 3.1l3.8-3.1 12.5 15.6-3.8 3.1-4.5-5.6-17.4 14-3.5-4.3 17.4-14-4.5-5.7zM600 87l22.3-15.6 10.1 14.4-3.9 2.8-6.9-9.9-5.2 3.7 5.6 7.9-4 2.7-5.6-7.9-5.3 3.7 6.9 9.9-3.9 2.8L600 87zm27.6 25.5l-7.9 4.5-2.7-4.8 23.7-13.4 5.2 9.2c3.2 5.6 2.1 9.8-3.1 12.8-3.1 1.7-6 1.9-8.8.4l-7.1 8.5-3-5.3 6.4-7.2-2.7-4.7zm9.1 4.1c1 .2 2.1-.1 3.2-.7s1.9-1.5 2.2-2.4c.3-1 .2-2-.4-3.1l-2.5-4.4-7.5 4.3 2.5 4.5c.6 1 1.5 1.6 2.5 1.8zm-8 16.9l24.5-11.7 7.6 15.9-4.3 2.1-5.2-10.9-5.7 2.7 4.2 8.7-4.3 2-4.2-8.7-5.9 2.8 5.2 10.9-4.3 2.1-7.6-15.9zm12.4 28.9c-1.5-3.9-1.5-7-.1-9.4 1.5-2.4 4.4-4.5 8.9-6.2 4.5-1.8 8.1-2.3 10.9-1.6 2.8.7 4.9 3 6.5 6.9 1.5 3.8 1.5 7-.1 9.4-1.6 2.4-4.6 4.5-9.1 6.3-5.5 2.2-9.7 2.3-12.7.5l-3.8 5-4-3.8 4.2-5.5c-.1-.2-.4-.7-.7-1.6zm4.8-6.6c-1 1.2-1.1 2.9-.3 4.9.8 2 2 3.1 3.6 3.4 1.6.2 3.9-.3 7-1.5s5.2-2.5 6.3-3.8c1.1-1.3 1.3-2.9.5-4.9-.8-2-2-3.1-3.7-3.3-1.7-.2-4.1.3-7.1 1.5-3.3 1.2-5.3 2.5-6.3 3.7zm11.3 23.3c-3 .9-4.1 2.9-3.1 6 .9 3.1 2.9 4.2 6 3.2l17.3-5.3 1.6 5.3-17.2 5.3c-3.2 1-5.8.9-7.8-.3s-3.5-3.4-4.5-6.8c-1-3.3-1-6 0-8.1 1-2.1 3.1-3.6 6.3-4.6l17.2-5.3 1.6 5.3-17.4 5.3zm-3 22.3l26.5-6 3.9 17.2-4.7 1.1-2.7-11.8-6.2 1.4 2.1 9.4-4.6 1-2.1-9.4-6.4 1.4 2.7 11.8-4.7 1.1-3.8-17.2zm28.6 25.8c-.5-2.9-1.6-4.2-3.5-3.9-.8.1-1.4.6-1.8 1.4-.3.8-.7 2.6-1.1 5.3s-1.1 4.7-2 6c-.9 1.2-2.5 2-4.7 2.4-2.8.4-5.1-.1-6.8-1.5-1.7-1.5-2.8-3.6-3.2-6.4-.3-2.1-.4-4.6-.3-7.7v-1.5l4.3-.1c.1 3.6.3 6.3.6 8.2.4 2.8 1.8 4 4.1 3.6.8-.1 1.4-.6 1.8-1.3.4-.7.7-2.1.9-4.1.4-3.2 1.1-5.5 2.1-7 1-1.4 2.6-2.3 4.7-2.7 2.7-.4 4.8.1 6.4 1.5 1.6 1.4 2.6 3.6 3 6.4.3 1.9.4 4.5.4 7.6v1.5l-4.4.3c-.1-3.8-.3-6.5-.5-8zm1.2 11.9l4.9-.5 1.9 19.9-4.9.5-.7-7.2L663 254l-.5-5.5 22.2-2.1-.7-7.3zm-47.6 176.4l24.6 11.6-7.4 15.7-4.3-2 5-10.7-7.2-3.4-4.1 8.8-4.3-2 4.1-8.8-8.7-4.1 2.3-5.1zm-15.5 36.6c-1.1-2.6-.7-5.7 1.3-9.3 2-3.6 4.4-5.6 7.2-6 2.8-.4 6.3.6 10.5 2.9s6.9 4.8 8.1 7.4c1.2 2.6.8 5.7-1.2 9.3-2 3.6-4.5 5.6-7.3 5.9s-6.4-.7-10.6-3c-4.2-2.1-6.9-4.6-8-7.2zm9.5-9.7c-1.6 0-2.9.9-4 2.8s-1.2 3.5-.3 4.9 2.7 2.9 5.6 4.5c2.9 1.6 5.2 2.4 6.9 2.5 1.7 0 3.1-.9 4.1-2.8 1-1.9 1.1-3.5.2-4.9-.9-1.4-2.8-2.9-5.7-4.5-3-1.7-5.2-2.5-6.8-2.5zm-11 23.7l-7.6-5 3-4.6 22.7 15-5.8 8.8c-3.5 5.3-7.8 6.4-12.8 3.1-3-2-4.4-4.5-4.3-7.7l-10.8-2.5 3.3-5 9.3 2.4 3-4.5zm.5 10c.3 1 1 1.8 2.1 2.5s2.1 1 3.2.9c1-.1 1.9-.7 2.6-1.8l2.8-4.2-7.2-4.8-2.8 4.3c-.8 1.1-1 2.1-.7 3.1zm4.2 15.9l-3.6 4.5-19.6-11.5-.4.5 14.5 17.9-4 5-20.6-10.3-.4.5 15.4 16.7-3.6 4.5-17.9-21.1 5.2-6.5 18.8 9.6-13.4-16.3 5.2-6.5 24.4 13zm-43.8 10.7l15.4 23.3-7.3 7.6-23.9-14.4 3.8-4 4.3 2.6 6.6-6.9-2.8-4.2 3.9-4zm9.1 23.2L582 515l-5.2 5.4 11.2 7 1.4-1.5zm-25.2 5.8l-6.1-6.8 4.1-3.7 18.2 20.2-7.8 7.1c-4.8 4.3-9.1 4.2-13.1-.2-2.4-2.6-3.1-5.5-2.3-8.5l-9.8-5.1 4.5-4 8.5 4.7 3.8-3.7zm-2 9.8c.1 1 .5 2 1.4 3 .9 1 1.8 1.5 2.8 1.6 1 .1 2-.3 3-1.1l3.7-3.4-5.8-6.4-3.8 3.4c-.9.9-1.3 1.9-1.3 2.9zm-25.4 1.5l7.2-5.6 16.7 21.5-7.2 5.6c-1.9 1.4-3.5 2.4-5 3-1.5.5-2.9.6-4.3.2-1.4-.4-2.6-1.1-3.8-2.1-1.2-1-2.5-2.5-4-4.4-1.5-1.9-2.6-3.6-3.4-5.1s-1.2-2.9-1.3-4.4c-.1-1.5.2-2.9 1.1-4.3s2.1-3 4-4.4zm2 12.1c.5.7 1.2 1.7 2.1 2.8.9 1.2 1.7 2.1 2.3 2.8.6.7 1.3 1.1 2.1 1.5s1.6.4 2.4.1c.8-.3 1.7-.8 2.8-1.6l2.9-2.2-10.8-13.9-2.9 2.2c-1.6 1.2-2.4 2.5-2.5 3.9-.1 1.1.5 2.5 1.6 4.4zm-14.7-2.6l15.1 22.6-14.6 9.8-2.7-4 10-6.7-3.5-5.3-8.1 5.4-2.6-3.9 8.1-5.4-3.6-5.4-10 6.7-2.7-4 14.6-9.8zm-18.4 22.6l-4.5-7.9 4.8-2.7 13.5 23.6-9.2 5.2c-5.6 3.2-9.8 2.2-12.8-3-1.8-3.1-1.9-6-.4-8.8l-8.5-7.1 5.2-3 7.3 6.4 4.6-2.7zm-4 9.1c-.2 1 .1 2.1.7 3.2s1.5 1.9 2.4 2.2 2 .2 3.1-.4l4.4-2.5-4.3-7.5-4.4 2.5c-1.1.6-1.8 1.5-1.9 2.5zm-26 6.5l-3.7-8.3 5-2.2 11 24.9-9.6 4.3c-5.8 2.6-10 1.2-12.4-4.3-1.4-3.2-1.3-6.2.5-8.8l-7.8-7.9 5.5-2.5 6.6 7 4.9-2.2zm-4.9 8.6c-.3 1-.1 2.1.4 3.3.5 1.2 1.3 2 2.2 2.4.9.4 2 .4 3.2-.1l4.6-2-3.5-7.9-4.7 2.1c-1.2.5-2 1.2-2.2 2.2zm-16.1-9.5l9.3 25.6-16.5 6-1.6-4.5 11.4-4.1-2.2-6-9.1 3.3-1.6-4.4 9.1-3.3-2.2-6.1-11.4 4.1-1.6-4.5 16.4-6.1zm-22.1 31.5c2.8-.8 3.9-2.1 3.4-4-.2-.8-.8-1.3-1.6-1.6-.8-.2-2.6-.4-5.4-.5-2.8-.1-4.8-.5-6.2-1.2s-2.3-2.2-2.9-4.3c-.8-2.7-.6-5.1.7-6.9 1.3-1.9 3.2-3.2 5.9-4 2-.6 4.5-1 7.6-1.2l1.5-.1.7 4.3c-3.6.5-6.3 1.1-8.1 1.6-2.7.8-3.7 2.3-3.1 4.6.2.8.7 1.4 1.5 1.6s2.2.4 4.2.4c3.2 0 5.6.4 7.2 1.2 1.6.8 2.6 2.3 3.2 4.3.8 2.6.5 4.8-.7 6.5-1.2 1.7-3.2 3-6 3.8-1.9.5-4.4 1-7.4 1.3l-1.5.1-.8-4.3c3.7-.6 6.3-1.2 7.8-1.6zm-26.9-8.7l4.4-1-1.7-7.7 5.4-1.2 5.8 26.6-9.8 2.1c-6.3 1.4-10.1-1-11.5-7.2-.7-3.1-.4-5.7.9-7.7 1.2-1.9 3.4-3.2 6.5-3.9zm5.4 3.7l-4.3.9c-2.7.6-3.7 2.5-2.9 5.9.4 1.6.9 2.7 1.7 3.3.8.6 1.9.7 3.3.4l4.3-.9-2.1-9.6zM373 613c1.4-2.5 4.1-4 8.2-4.6 4.1-.6 7.1.1 9.1 2.1s3.3 5.4 4 10.1c.7 4.8.3 8.4-1 11-1.4 2.5-4.1 4.1-8.2 4.7-4.1.6-7.1-.2-9.1-2.2-2-2.1-3.3-5.5-4-10.2-.8-4.8-.4-8.4 1-10.9zm13.5 1.7c-1-1.3-2.5-1.8-4.7-1.5s-3.5 1.2-4.1 2.7c-.6 1.5-.6 3.9-.2 7.1.5 3.3 1.2 5.6 2.2 6.9s2.6 1.9 4.7 1.6c2.1-.3 3.5-1.2 4-2.8.6-1.6.6-4 .2-7.3-.4-3.2-1.1-5.5-2.1-6.7zm-20.6-3.8l1.6 27.1-9.3.6-7.9-22h-.4l1.4 22.4-5.5.3-1.6-27.2 9.1-.5 8.1 21.9h.4l-1.4-22.4 5.5-.2zM330 635c2.9 0 4.4-.9 4.4-2.8 0-.9-.3-1.5-1-2s-2.4-1.1-5-2c-2.6-.9-4.5-1.9-5.5-3s-1.6-2.8-1.5-5c0-2.9.9-5 2.7-6.4 1.8-1.4 4-2.1 6.8-2.1 2.1 0 4.6.4 7.6 1.1l1.4.3-.6 4.3c-3.6-.5-6.3-.8-8.2-.9-2.8 0-4.3 1.1-4.3 3.5 0 .9.3 1.5.9 2 .6.5 1.9 1 3.9 1.6 3.1.9 5.2 2 6.5 3.2 1.2 1.2 1.9 2.9 1.8 5.1 0 2.7-.9 4.7-2.6 6-1.7 1.3-4 1.9-6.8 1.9-2 0-4.5-.3-7.5-.9l-1.4-.3.5-4.4c3.7.6 6.3.8 7.9.8zm-12.6-23.2l-2.1 27.1-17.5-1.3.4-4.8 12 .9.5-6.3-9.7-.7.4-4.7 9.7.7.5-6.5-12-.9.4-4.8 17.4 1.3zm-180-65l-17 21.2-7.3-5.8 8.9-21.6-.3-.3-14 17.5-4.3-3.5 17-21.2 7.1 5.7-8.7 21.7.3.3 14-17.5 4.3 3.5zm-21.1-17.2l-18.5 19.9-12.9-12 3.3-3.5 8.8 8.2 4.3-4.7-7.1-6.6 3.2-3.5 7.1 6.6 4.4-4.8-8.8-8.2 3.3-3.5 12.9 12.1zm-30.4-16.3l-3.5 3.3-5.4-5.8 10.3-9.7c3.1 2.4 5.4 4.4 7 6.1 2.9 3.1 4.1 6 3.5 8.7-.6 2.7-2.6 5.8-6.2 9.1-3.6 3.4-6.8 5.2-9.5 5.5-2.7.3-5.4-1-8.2-3.9-1.7-1.8-3.3-4-4.9-6.4l-.8-1.2 3.2-2.8c1.9 2.6 3.6 4.6 5 6.1s2.6 2.4 3.5 2.6c.9.3 2 .1 3.2-.5 1.2-.6 3-2 5.2-4.1 2.3-2.1 3.6-3.9 4-5.3.4-1.4-.3-3-1.9-4.8l-2.4-2.3-3.9 3.6 1.8 1.8zm-15.5-28.9c2.8-.1 5.5 1.5 8.1 4.7 2.6 3.2 3.5 6.2 2.9 8.9-.7 2.7-2.9 5.6-6.6 8.6-3.7 3-7 4.6-9.9 4.7-2.9.1-5.6-1.4-8.2-4.6-2.6-3.2-3.5-6.2-2.8-9 .8-2.8 3-5.7 6.7-8.7 3.7-2.9 7-4.5 9.8-4.6zm5.5 12.5c.6-1.5.2-3.1-1.1-4.8-1.4-1.7-2.8-2.4-4.4-2.1-1.6.3-3.7 1.4-6.2 3.5-2.6 2.1-4.2 3.9-4.8 5.4-.7 1.6-.3 3.2 1 4.8 1.3 1.7 2.8 2.3 4.5 2 1.7-.3 3.8-1.5 6.3-3.6 2.5-1.9 4.1-3.7 4.7-5.2zm-24-4.7l-4 2.8-11.5-16.4 4-2.8 4.1 5.9 18.3-12.8 3.2 4.5-18.3 12.8 4.2 6zm5.2-31.9l-23 14.5-2.9-4.7 23-14.5 2.9 4.7zm-4.8-7.4l-26.7 7.9-5.1-9.2L41.2 433l2.7 4.8-3.8 3.3 4.6 8.3 4.8-1.5 2.8 5zm-24.8 1.9l12.6-3.9-3.6-6.5-9.9 8.7.9 1.7zm-6-11.5l-4.4 2.1-8.6-18 4.4-2.1 3.1 6.5 20.1-9.6 2.4 5-20.1 9.6 3.1 6.5zm10.3-30.5L6.6 422.9 0 406.6l4.5-1.8L9 416l5.9-2.4-3.6-9 4.4-1.8 3.6 9 6.1-2.4-4.5-11.2 4.5-1.8 6.4 16.4z"/></svg>