<svg class="anim06" xmlns="http://www.w3.org/2000/svg" viewBox="0 0 892 412"><g data-bottom="opacity: 0" data-center="opacity: 1" class="skrollable skrollable-after"><path class="st0" d="M370.7 241.6c-4.1-2.6-10.6-6.2-19.4-8.1-4.7-1-18-3.7-31.5 2.1-16.1 6.9-28 23.7-29.3 42.6-.1 1.2-1.4 29 21.5 44.9 17.3 12 38.8 10.5 53.7 2.3 9.8-5.4 15.5-13 18.4-17.5"/><path class="st0" d="M372.5 231c-4.9-3-14.6-8-27.7-9.2-4.1-.4-16.8-1.3-30.2 4.7-17.8 8.1-32.7 26.9-34.3 49.9-2.2 31.7 22.2 50.8 23.9 52.1 23.3 17.6 49.8 10.7 53.2 9.7 19.1-5.3 29.8-18.4 33.3-23"/><path class="st0" d="M291.7 331c3.8 3.6 10 8.6 18.5 12.6 2.8 1.3 12.9 5.9 27 6.8 12.9.8 23.3-1.8 29.8-4"/><path class="st1" d="M324.3 196.3h31.2v19h-31.2z"/><path class="st2" d="M331.8 215.3v4.9"/><circle class="st3" cx="135.5" cy="195.2" r="5.3"/><circle class="st4" cx="339.8" cy="281.8" r="8.5"/><path class="st0" d="M176.2 158.8c-1.3-1-4.9-3.2-9.7-3.1-2.2 0-3.9.6-5.2 1m-.1 3.3c-.1-2.3-.6-6.2-2.8-10.4-3.4-6.6-8.9-9.8-11.1-10.9-.5 1-1.2 2.5-2.1 4.3-2 4-3.4 6-4.2 7.5-1.3 2.5-2.6 6.4-1.9 12.6-2.3.9-5.5 2.5-8.5 5.4-7.4 7.1-7.9 16.6-8 19.1 0 .7-.1 1.7-.5 2.9-.3.8-.6 1.5-1.3 2.2-1.2 1.1-2.9 1-3.5 1V190c-.2-.4-.7-.9-1.3-1.3-1.2-.8-3.2-1.2-4.8-.3-1 .6-1.5 1.4-1.7 1.9v31.3c.1.3.5 1.8 2 2.7.2.1 2.1 1.2 4 .2 1.5-.8 1.9-2.3 2-2.6.3-.4.7-1 1.4-1.2 1.1-.2 2.2 1.1 2.8 1.8 3 3.7 4.5 5.5 5.6 8 1.4 3.2 5.3 7 16.2 9.9m2.8-4.7c-.7 3.3-1.5 5.9-2.2 7.7-1 2.6-1.6 3.7-1.4 5.5.4 2.5 2.5 4.1 3.1 4.6 3.7 2.8 8.4 1.9 9.3 1.7 6.7-1.4 9.7-7.8 10.1-8.6"/><path class="st5" d="M202.4 336.9c1.9-1.5 4.9-3.6 8.8-5.2 1.7-.7 7.9-3.1 16.5-2.6 5.8.3 6.2 1.6 14.6 3.4 6.8 1.5 14.1 3 22.4 1.7 3.8-.6 9.9-2.2 16.8-6.8.3 1.9.6 4.8.4 8.2-.2 2.5-1.1 15-11.4 23.5-6.4 5.3-13.4 6.5-16.9 6.9h-30.9c-3.1-2.3-5.6-4.4-7.4-6.1-5.5-5.1-9.6-9-11.6-15.1-1.2-3.1-1.4-5.9-1.3-7.9z"/><path class="st0" d="M251.1 264.1h-21.7c-2.9 0-5.2-2.4-5.2-5.2 0-2.9 2.4-5.2 5.2-5.2h21.7c2.9 0 5.2 2.4 5.2 5.2 0 2.8-2.3 5.2-5.2 5.2zm-44.7 19.3h-21.7c-2.9 0-5.2-2.4-5.2-5.2 0-2.9 2.4-5.2 5.2-5.2h21.7c2.9 0 5.2 2.4 5.2 5.2.1 2.8-2.3 5.2-5.2 5.2zm-182 70.8l14.1-6.8 13.1 8.6 17.3-17.1 20.4 19.5L116 332l21.3 26.4 18.9-29.9"/><path class="st6" d="M199.5 334.6c-10.6.1-21.3.1-31.9.2-2.5 2.7-4.5 5.4-6.2 7.8-3.4 4.9-5.1 7.4-5.2 10.7 0 .9-.1 5 2.9 8.1 2.5 2.5 5.6 3 6.6 3.1h52.8c-3.5-2.5-9.4-7.4-13.9-15.4-3-5.5-4.4-10.8-5.1-14.5z"/><path class="st0" d="M229.8 265.7v33.1c-3.4.7-11.9 3-19.1 10.5-1.7 1.8-10.9 11.7-10.1 26.4 1.1 20 19.9 29.9 20.7 30.3h37.1c3-.9 8.2-3 13.2-7.7 2.9-2.7 7.3-7.7 9.6-15.2 4-13.2-1.6-24.3-2.5-25.9-8.1-15.4-24.9-18-26.6-18.2v-35"/><path class="st0" d="M200.9 326.9c2.5-1.7 6.6-4.1 12-5.6 8.6-2.4 15.8-1.2 21.2-.3 9.3 1.6 10.7 3.8 16.8 4.9 6.3 1.2 15.7.9 28.7-6.5"/><circle class="st7" cx="229" cy="346.1" r="5"/><circle class="st7" cx="255.3" cy="347.4" r="6.6"/><path class="st0" d="M186.9 285.8v21.1c-8.8 12.2-17.7 24.5-26.5 36.7-.8 1.3-1.9 3.3-2.8 5.9-1 3.1-2 5.9-1.2 8.8 1.3 4.9 6.5 7.2 7.6 7.6h57.2m-17.8-80.8v21.3c1.3 1 2.7 2.1 4 3.1m-27.9 19h14"/><circle class="st7" cx="193.5" cy="351.1" r="5"/><circle class="st7" cx="176.5" cy="348.1" r="4.3"/><circle class="st3" cx="38.5" cy="347.4" r="4.3"/><circle class="st1" cx="68.9" cy="338.9" r="4.3"/><circle class="st3" cx="116" cy="331.2" r="4.3"/><circle class="st1" cx="156.2" cy="328.5" r="4.3"/><circle class="st1" cx="78.9" cy="276.7" r="4.3"/><path class="st0" d="M140 175.4c1.8.2 5.1.8 8.2 3.3 6.8 5.5 5.7 14.9 5.7 15.7m-5.1-45.5c1.1 1 2.3 2.3 3.5 4.2 1.7 2.8 2.4 5.5 2.7 7.2m-21.4 107c-.7-.5-2.8-2-5.7-1.9-.8 0-3.3.1-5.3 1.9-.5.5-2.6 2.4-2.2 4.7.4 2.3 3 3.4 4.2 3.9 2.2.9 2.8.3 5.3 1.2 1.7.6 4.1 1.4 5.1 3.5 1 2.2.2 5.2-1.6 6.9-3.2 3-8.4 1-9.2.6-1.7-.7-2.9-1.6-3.6-2.3m7.2-25.5V293m-92.4-25.3v-70.2c-.1-.4-1-4.8-4.6-6.4-3.7-1.6-8.9.5-11.2 5.3.2-.9 1-5.1 4.8-7.9 2.5-1.8 5.1-2.2 6.3-2.3h40.7c1.6-.1 6.8-.2 11.8 3.4 4.2 3 6 6.9 6.6 8.5v48.2m-70.3-49.8h15.2m7.4-3.2h29.3m-29.3 6.9h36.8m-36.8 6.7h36.8m-36.8 6.9h24.1m-24.1 6.8h15.8M42.1 227h36.8m-36.8 7.3h36.8"/><path class="st0" d="M20.7 213.9v90.5c.2 2.5.9 7.7 4.5 12.8 6 8.5 15.4 10.1 17.3 10.4h43M35.3 314v-32.6"/><path class="st0" d="M51.6 267.6v45.8h111.9"/><path class="st0" d="M170.4 304.3H59.9V249h65.5"/><path class="st0" d="M125.6 255.3H78.8c0 .9-.1 3.7-2.1 6.2-3.1 3.9-7.9 3.8-8.5 3.8v23.4c.8-.2 3.5-.7 6.1.9 2.9 1.7 4.5 5.3 4 9H171"/><path class="st0" d="M120.3 259.3c-1.3-.1-7.4-.3-12.5 4.3-4.1 3.7-5 8.4-5.3 9.9-.2 1.3-1.2 7.7 3 13.7 5 7 13 7.5 14 7.5m14.7-35.4c1.3-.1 7.4-.3 12.5 4.3 4.1 3.7 5 8.4 5.3 9.9.2 1.3 1.2 7.7-3 13.7-5 7-13 7.5-14 7.5m-35.3-26.6c-.8-.1-3.4-.5-6 1-1.6 1-2.5 2.2-2.9 2.9v10.2c.5.7 1.3 1.7 2.5 2.6 2.5 1.7 5.1 1.7 6 1.7m54.7-18.4c.8-.1 3.4-.5 6 1 1.6 1 2.5 2.2 2.9 2.9v10.2c-.5.7-1.3 1.7-2.5 2.6-2.5 1.7-5.1 1.7-6 1.7"/><path class="st5" d="M63.6 130.4h58.9c.1-1.9.1-6.9-3.1-11.6-4.7-6.9-12.4-8-14.4-8.3-10.4-1.5-18.1 5.2-19.2 6.2-1.4-1.1-5-3.6-9.5-3.1-6.5.7-12.3 7.6-12.7 16.8z"/><path class="st0" d="M35.6 149.9l9.2-9.2 8.9 8.9m7.7 22.6l9.2-9.2 8.9 8.9m-8.9-9v22m-25.7-44.2v45.6m294.4 77.8v-21.5m-17.4 5.2c-2.4 1.2-5.4 3.1-8.3 5.9-6 5.6-8.6 12-9.7 15.6m-1.8 12.1v5.2c.6 1.3 1.2 2.5 1.7 3.8m43.8-75.1v6.3m2.7 71.4l11.4 11.3"/></g><g class="fade-bshow"><path class="st4" d="M350.3 141.4c2.6-1.8 6.3-4.7 9.7-9 7.6-9.8 8.2-20.1 9.4-26.7 3.2-18.6 16-40.1 32.6-48.2 4.1-2 18.8-8.2 42.6 1.4 4.8-2.9 12.3-6.3 21.5-6.2 20.7.1 36.9 18.5 43.7 32.2 3.4 6.8 7 17.9 9.4 26.3 2.2 8 3.3 14.2 8.3 20.8 3.7 4.9 8 7.9 11.1 9.7-3.6 4.4-8.9 10.3-16.3 16.3-25.8 21.1-54.6 25.9-70 27-10.7.8-36.3 2.2-64.1-12.1-19.4-9.9-31.5-23.2-37.9-31.5z"/><path class="st8" d="M415.3 109l.3 24.1c.6 2.4 1.7 5.6 4 9 .6.8 9.3 13.5 23.9 13.3 11.7-.1 22.6-8.5 26.7-20.8v-32.9L442.5 74c-9.1 11.7-18.1 23.4-27.2 35zm16.3 58.1c-3.8 3.5-7.2 6-9.5 7.6-9.7 6.6-19.8 10.3-24.8 12.1-5.1 1.8-5.5 1.6-7.3 2.8-6.6 4.2-9.4 11.7-10.7 17.5l-.3 62.2c.1 1.7.6 4.2 2.1 6.6 3.6 5.7 10.7 7.3 13.5 7.5 13.8.7 30-28.4 37.1-52.2 4.6-15.3 5.6-29.1 17.3-47.3 2.4-3.7 4.6-6.6 6.1-8.5"/><path class="st8" d="M460.8 166.4c1.3 2.7 3.6 6.5 7.5 9.9 5.7 5 10.9 5.6 15.9 8 5.3 2.5 11.9 7.7 17.3 19.6-.2 12.7-.3 25.4-.5 38.1-.6 11.4-2 20.7-3.3 27.4 0 0-1.8 9.5-6.8 18.2-.6 1.1-1.6 2.7-3.3 4.2 0 0-2.2 2-5.2 3.1-17.2 6.6-46.3 5.9-46.3 5.9-14.7-.4-25.9-.7-31.5-.9-1.7 1-4.6 2.2-8.3 2.4-8.1.4-13.7-4.6-14.9-5.7.5-5.9 1-11.8 1.6-17.7"/><path class="st0" d="M420.8 176.4c1.5 5.2 4.5 13 10.4 21.1 5.4 7.4 11.3 12.4 15.6 15.4 3.3-3.1 7-7.1 10.6-12 6.3-8.7 10-17.1 12.1-23.6"/><path class="st6" d="M487.3 106.4c-1.4 3.3-21.4-1.9-31-7.8-4.5-2.7-8-6.2-8-6.2-2.6-2.6-4.5-5.2-5.7-7.1-.5-.3-1-.7-1.6-1-1.6 3.3-4.7 8.3-10 12.6-7.7 6.2-19.6 10.3-22.2 7.1-3.6-4.5 11.9-21.8 15.9-26.3 8-9 16.8-18.8 23.6-16.6 4.7 1.5 4.4 7.5 8.7 16.1 10.4 20.8 31.8 25.8 30.3 29.2z"/><path class="st8" d="M431 177.1c1.5-1.6 3.1-4 3.3-6.9.2-3.3-1.7-4-2.8-8.3-1.4-5.8 1.5-6.6.2-13.3-.6-3-1.5-5-.3-6.6.8-1.1 2.4-1.6 3.6-1.4 2.8.5 5.1 4.8 5.4 10.9.9-2 1.7-4 2.6-6.1.1-.1 1.2-1.8 3.1-1.7 1.6 0 3 1.2 3.5 2.9.1-.1 1.7-1.9 4.2-1.4 2.4.5 3.2 2.6 3.3 2.8.7-.2 2.3-.6 3.8.2 2 1 2.6 3.3 2.9 4.7.2.9 1.2 5.4-1.9 11.4-2.5 4.8-4.9 5.4-11.1 13.3-1.3 1.7-2.3 3.1-2.9 4-5.6 17.2-10.8 31.3-14.9 41.8-1.1 2.7-4.8 12.3-10.6 24.4-.9 1.9-6.6 13.6-16.8 26.5-4.6 5.8-7.3 8.3-11.1 8.7-5.1.5-10.9-2.8-13.2-7.6-1-2.2-1.1-4.3-1-5 .2-14.8 13.3-34.8 13.3-34.8s2.7-4.1 22.7-34.8c6.4-9.9 11.4-18.2 14.7-23.7z"/><path class="st0" d="M476.4 206.8c-1.7 7.7-3.2 16.8-3.8 26.9-.9 14.3.1 26.8 1.6 36.9-10.5.7-21.9 1.9-34 3.8-12.6 2-24.1 4.4-34.7 7.1-.1-.5-.4-1.6-1.4-2.6-.5-.5-1-.7-1.4-.9"/><path class="st0" d="M468.3 250.3c-4.4 2.9-7.8 3.2-9.9 3.1-2.7-.2-5.1-1.2-10-3.3s-5.4-2.8-7.5-2.8c-1.1 0-3.4 1-7.8 2.9-3.5 1.5-4.4 2-6.1 2.3-2.3.4-4.4 0-5.7-.3m-1.7-21c-3 5.8-6.4 11.9-10 18-4.7 8-9.5 15.4-14.2 22.2m27-44.9c.5-.9 1-1.7 1.6-2.6M405 199c.7 9.1 1.1 13.7 1.2 13.7s.1-1.7 0-5m85-3.7c.9 5.9 1.6 12.6 1.7 19.8.4 14.9-1.5 27.8-3.8 38.1m-2 5.9c-.3 1-.6 2-.9 2.9M426.8 60.5c-4.3.5-11.2 1.9-18.5 6-11.1 6.3-16.7 15.3-19 19.5m85.6-15.9c9.6 5.1 15 11.5 17.7 15.3 5.5 7.8 7.9 16.3 8.6 19 1.9 7 1.4 9.9 3.9 15.6s6.1 9.6 8.6 12m-2.7 21.1c-3.4 2.9-7.6 6.1-12.7 9.1-7.8 4.5-15.1 7.1-20.8 8.6m-115.4-29.2c3.8 3.6 8.4 7.4 14 11.2 9.3 6.2 18.2 9.9 25.2 12.2m8.6 1.8c1.6.3 3.3.5 4.9.8m32.8-100.8c-3.2 16.2-9.9 24.5-15.3 29.1-8.5 7.1-17.3 8-23.7 17.7-3.9 6-4.9 12.2-5.2 16.4"/><path class="st0" d="M484.7 107.6c-5.3-.1-17.6-1-29.6-9.4-6.6-4.6-10.9-9.9-13.5-13.8"/><path class="st4" d="M432.3 176.4c1.9 1.3 4.3 2.7 7.2 4 2.7 1.2 5.1 2 7.3 2.6m-22.4 7c2.4 1.6 5.3 3.3 8.8 4.9 3.2 1.5 6.3 2.5 8.9 3.2"/><path class="st8" d="M386.2 369.3c-.3-5.2-.1-12.8 2.3-21.3 2.1-7.3 4.7-11.4 7.5-17.2 3.3-6.8 7.2-16.8 9.4-30.4m90.4 66.4c.3-5.2.1-12.8-2.3-21.3-2.1-7.3-4.7-11.4-7.5-17.2-3.3-6.8-7.2-16.8-9.4-30.4m-73.5 20.3c9 2.6 20.6 5.1 34.1 5.9 17.8 1.1 32.9-1.1 43.8-3.6"/><path class="st0" d="M394.5 341.2c10.3 3.7 19.1 5.6 25.3 6.8 13.3 2.4 32.9 5.7 54.9-1.2 6-1.9 10.7-4 13.7-5.5m-80.9-15l-2.5 11.3m13.3-10.3l-1.4 14.1m11.9-12.4l-.3 13.5m13.6-13.5v15.7m11.1-15.7l2.5 15.7m10.1-15.7l3 11.8m7.8-13.5l4.1 11.6"/></g><g data-bottom="opacity: 0" data-center="opacity: 1" class="skrollable skrollable-after"><path class="st0" d="M511 71.4c2.1-4.6 6.8-7.5 11.7-7.3 5.4.3 10.1 4.4 11.2 9.9 2.5-1.8 7.1-4.7 13.5-6 4.2-.8 11.5-2.2 18.2 2.1 7.3 4.6 9 12.7 9.4 14.6m6.7 2.6c.4-.5 4.8-5.4 11.4-4.7 5.4.6 9.9 4.6 11.4 10.1 1.9.1 4.8.4 8.1 1.3 3.9 1.1 7.6 2.1 10.1 4.9 4.6 5.1 2.7 13.2 2.3 14.6m5.3 4.7c1.3.2 5.9 1.1 9.1 5.2 3.4 4.2 3.9 10.3 1.6 15.6 2.2.9 5 2.4 7.5 5.2 6.2 6.9 5.1 15.7 4.9 16.9-.3 2.3-1 4.2-1.6 5.5 1.2.8 2.9 2.2 4.2 4.4 2.6 4.7 2.1 11.2-1.6 15.3-1.7 1.9-3.7 2.9-4.9 3.4"/><circle class="st0" cx="523" cy="188.9" r="9.4"/><circle class="st0" cx="618.1" cy="175.9" r="16.1"/><circle class="st0" cx="645.8" cy="94.2" r="9.5"/><circle class="st0" cx="547.1" cy="94.2" r="9.5"/><circle class="st0" cx="659.6" cy="114.8" r="4.4"/><path class="st0" d="M590.1 104.5c1.6-.3 13.4-1.9 23 6.6 11.1 9.8 9.2 24.2 9 25.3m-41.7 52.5h-24.1c-.7 0-1.3-.6-1.3-1.3v-2.9c0-.7.6-1.3 1.3-1.3h24.1c.7 0 1.3.6 1.3 1.3v2.9c0 .7-.6 1.3-1.3 1.3zm-1.9 5.6h-20.4c-.7 0-1.3-.6-1.3-1.3v-2.9c0-.7.6-1.3 1.3-1.3h20.4c.7 0 1.3.6 1.3 1.3v2.9c0 .7-.6 1.3-1.3 1.3z"/><path class="st4" d="M558.3 183.7v-6.8c-.3-1.1-.8-2.8-1.9-4.5-1.4-2.5-2.9-3.6-4.2-5.2 0 0-2.8-3.3-4.4-8.4-1.9-6.3-.1-15.6 6.5-21.2 5.5-4.6 11.9-4.6 13.8-4.6 2.5 0 9.3.5 14.8 5.8 7 6.8 7.5 17.1 5.3 22.2-1.5 3.6-3.6 6.2-3.6 6.2-1.2 1.4-2 2.1-3.1 3.7-1.4 2-2.2 3.8-2.6 5v7.5l-20.6.3z"/><path class="st9" d="M565.5 182.3v-20c.1-.3.7-3.8-1.5-5.5-.2-.1-1.8-1.4-3-.7-1.2.6-1.1 2.4-1.1 2.7.1 2.3 2.2 3.7 2.6 4 1.9 1.3 3.8 1.3 6.2 1.2 2.7 0 4.9-.1 6.5-1.7.1-.1 2-2 1.6-4.3 0-.3-.3-1.7-1.3-2.2-1.1-.5-2.3.3-2.5.5-2.3 1.6-1.9 5.5-1.9 5.8v20m-1.4-54.2v-9.7m12.9 13.4l5.2-7.8m-32.4 8.1l-5.2-8.1m-4.5 18.7l-7.8-5.6m55.9 4.5l7.7-4.5m-5.7 18.8h10.4m-63.5 0h-9.4m84.8 20.2l-7.1 13m7.1-13l7.2 13.8m-7.2-13.8l15.9-2.3m-15.9 2.3l-7.8-13.3"/><path class="st0" d="M553.7 80.5c1.6-.2 5.5-.3 9.4 2.1 4.7 2.9 7.3 8.5 6.9 14.6"/><circle class="st10" cx="815.7" cy="187.9" r="59.4"/><path class="st0" d="M580.9 228.2c1.7 1.3 6.5 4.5 13.3 4.4 10.6-.1 16.9-8.3 17.7-9.4 1.6.4 3.8.7 6.2.3 8-1.6 11.4-10.1 11.7-10.9M571 240.1c-.1 1.7-.6 6.7-4.4 10.1-5.1 4.7-14.1 4.9-21.6-.3-1 1.8-2.7 4.4-5.7 6.8-5.8 4.5-12.1 4.7-14.6 4.7-10.2.1-17.1-5.9-19-7.5"/><path class="st0" d="M511.8 244.5c.3.4 4.9 7.1 13 6.8 6.4-.2 10.3-4.7 10.9-5.5m-23.9-16.1c4.9-6 9.7-12 14.6-17.9 3 6.8 6.1 13.5 9.1 20.3l19.5-17.7m24.4 1.5c.8.7 6.6 5.6 14.6 4.4 6.4-.9 11.9-5.4 14.3-11.7"/><circle class="st0" cx="869.6" cy="132.8" r="4.4"/><circle class="st0" cx="736.3" cy="98.5" r="6.8"/><circle class="st0" cx="844.8" cy="113.5" r="11"/><path class="st0" d="M831.5 132.4c.2.3.4.9.4 1.6 0 .6.1 1.4-.3 1.8-.7.7-2.2-.6-4.5-.5-.2 0-3.3.1-4.3 2-1 1.8.8 3.5-.2 5.1-1 1.8-4.2 1.6-4.6 1.6-4.6-.3-7.2-5.4-7.5-5.9-2.5 1-4.6 1.9-6.2 2.6-4.8 2.1-6 2.8-6.8 4.3-.1.2-.9 1.9-.4 3.8.8 3.2 4.3 4.5 5.1 4.8 2.7 1 5.2.3 6.2 0-.1.9-.3 2.3-1 3.7-1.2 2.5-3.8 5.4-7.1 5.9-2.5.4-3.5-.8-5 .2-1.7 1.1-2.2 3.8-2.3 4.3-.2 1.4 0 2.1-.6 3.5-.5 1-1.1 1.5-1.3 1.8-.9 1.1-.2 4.2 6.2 12.7.8-1.1 5.4-7.1 12.7-7.4 3.3-.1 5.9 1 7.5 1.6 1.6.7 7.1 3.1 9.8 9.2 2.2 4.9 1.4 9.4 1 11.1.9 1.1 2.5 2.6 4.7 3.5 3 1.2 5.4.7 5.7 1.7.5 1.4-3.6 2.7-3.6 5.4 0 2 2.3 2.1 3.6 4.9.8 1.9 0 2.5 0 8.8 0 3.8.3 4.8.7 5.5 1.1 2 3 3.1 4.2 3.6-1.2.3-3.6.8-6.2-.1-3.6-1.2-5.6-4.1-6.1-4.9-2.1-3.3-1.3-5.5-3.3-6.6-1.8-1-4.3-.1-4.7 0-1.6.6-2.1 1.5-3.8 2-1.3.3-2.4.2-3.2.1 0-.6 0-2.1-1-3.6-.3-.4-1.5-2-3.3-2.1-1.1 0-1.9.5-2.9 1.2-2.5 1.8-2.5 3.3-4.2 3.8-1.3.4-2.9-.1-3.9-1-2.1-1.9-.4-4.7-2.7-6.9-.7-.6-1.8-1.3-3-1.6-1-.2-1.6 0-3.1-.2-1.1-.1-2-.3-2.6-.5m67.5-66.1c-1.2-.1-4.8-.4-8.2 1.9-1.1.8-3.8 2.6-4 5.3-.3 3.6 3.9 7.4 7.9 8.6 4.4 1.3 7-.9 9.6 1.3 1.6 1.3 2.3 3.5 2.6 4.5.8 2.5.6 3.6 1 5.1.6 1.9 2.3 4.3 7.9 6.2M545 214.6c3.7-.7 7.5-1.4 11.2-2.1l-1.8 11.4m22.1-23.9h-16.3c-.7 0-1.3-.6-1.3-1.3v-2.9c0-.7.6-1.3 1.3-1.3h16.3c.7 0 1.3.6 1.3 1.3v2.9c0 .7-.6 1.3-1.3 1.3z"/></g><g data-bottom="opacity: 0" data-center="opacity: 1" class="skrollable skrollable-after"><path class="st0" d="M520.1 364.6v-76.2c0-1.2-.1-6 3.5-10.4 3.7-4.5 8.6-5.4 9.7-5.5h114.4c1.6.2 4.8.8 8 3.1 4.5 3.3 5.9 7.9 6.2 9.4v80.8"/><path class="st0" d="M534.8 367v-60.1c0-1.1.1-4.2 2.4-7.3 2.1-2.7 4.7-3.8 5.7-4.2h95c1.2.2 3.5.7 5.7 2.4 3.6 2.7 4.6 6.5 4.9 7.6v60.7"/><path class="st0" d="M541.2 309.9c2.6 2.5 5.2 5.1 7.8 7.6 4.3-4.6 8.5-9.2 12.8-13.9m-20.6 28.9c2.6 2.5 5.2 5.1 7.8 7.6 4.3-4.6 8.5-9.2 12.8-13.9m-20.6 29c2.6 2.5 5.2 5.1 7.8 7.6 4.3-4.6 8.5-9.2 12.8-13.9m12.5-39.2h52m-52 5.9h52m-52 15.7h52m-52 5.9h52m-52 16.8h52m-113.7-68.4v46.8m0 5.2v3.8"/><path class="st11" d="M661.5 156.4H780c1 .2 3.8 1 6 3.6 2.8 3.3 2.7 7.2 2.6 8.1v117H664.4"/><path class="st0" d="M636.3 199.6h12.2v55.1h-12.2z"/><path class="st1" d="M661.8 175.4h12.6v79.3h-12.6zM609 234.3h12.2v20.3H609z"/><path class="st0" d="M585.3 241.4h11.2v13.3h-11.2z"/><circle class="st9" cx="752.9" cy="278.5" r="2.5"/><circle class="st9" cx="764.9" cy="278.5" r="2.5"/><circle class="st9" cx="777" cy="278.5" r="2.5"/><path class="st0" d="M662.5 272.1h117v-99.8c-.1-.8-.5-2.5-1.8-4.1s-2.9-2.3-3.6-2.6h-112m17.1 11.4h83.3m-83.3 8.9h53.9m-53.9 9.1h53.9m-53.9 8.7l83.3.6m-78.8 33.3H701m-17.3 7.5H701m-17.3 8.1H701m14.8-15.6h17.3m-17.3 7.5h17.3m-17.3 8.1h17.3m12-15.6h17.4m-17.4 7.5h17.4m-17.4 8.1h17.4"/><path class="st12" d="M700.2 231.7h-15.8c-.4 0-.8-.3-.8-.8v-16c0-.4.3-.8.8-.8h15.8c.4 0 .8.3.8.8v16c0 .5-.3.8-.8.8z"/><path class="st6" d="M732.3 231.7h-15.8c-.4 0-.8-.3-.8-.8v-16c0-.4.3-.8.8-.8h15.8c.4 0 .8.3.8.8v16c0 .5-.3.8-.8.8z"/><path class="st13" d="M761.7 231.7h-15.8c-.4 0-.8-.3-.8-.8v-16c0-.4.3-.8.8-.8h15.8c.4 0 .8.3.8.8v16c0 .5-.4.8-.8.8z"/><path class="st6" d="M754.4 297.6h62.9v11h-62.9z"/><path class="st0" d="M661.5 308.6h156.6v6.9H661.5zm10.2 15.3h82.7m47 22.8H664.8m133.6-31.1V367m10.5-51.4V367M671 307.3V300m0 0h59.1m0 0v7.3m-36.7-21c.1 1.3.1 3.6-.9 6.2-1.3 3.4-3.4 5.4-4.5 6.2m20.5-12.4c-.1 1.3-.1 3.6.9 6.2 1.3 3.4 3.4 5.4 4.5 6.2"/><path class="st4" d="M558.6 273.4v8.2c-.1.5-.4 3.1 1.4 5.5 1.3 1.6 3 2.2 3.6 2.3h54.5c.7-.1 2.8-.5 4.4-2.3 2.3-2.6 1.9-5.8 1.8-6.2v-7.7"/><path class="st5" d="M761.1 116.1H820c.1-1.9.1-6.9-3.1-11.6-4.7-6.9-12.4-8-14.4-8.3-10.4-1.5-18.1 5.2-19.2 6.2-1.4-1.1-5-3.6-9.5-3.1-6.5.8-12.2 7.6-12.7 16.8z"/><path class="st3" d="M881.5 268.5h-60v18h11c.9 1 3-.1 4.6 1.8 2.4 2.7 2.3 6.8 1.1 9.6-1.2 2.7-3.3 4.6-4.3 4.6h-12.4v19h26v9.8c0 .8 1.9 2.4 3.4 3.8.5.5 2.5 2.7 5.5 2.4 2.9-.3 5.1-2.8 6.1-6.4v-9.6h19v-53z"/><circle class="st14" cx="874.8" cy="346" r="5.2"/><path class="st15" d="M817.5 304.1h45v36.8h-45z"/><path class="st16" d="M837.1 331.3h4.5v6.8h-4.5zm0-12.2h4.5v6.8h-4.5zm0-12.2h4.5v6.8h-4.5z"/><path class="st15" d="M817.5 340.8h45v36.8h-45z"/><path class="st16" d="M837.1 368.1h4.5v6.8h-4.5zm0-12.3h4.5v6.8h-4.5zm0-12.2h4.5v6.8h-4.5z"/><path class="st0" d="M690.8 154.6v-12.1h-17.2c-.4-.2-.9-.7-1.1-1.4 0 0-.3-1 .5-2.4 1.6-2.7 32.2-32.3 35.2-35.2.7-.5 2-1.3 3.4-1.2.4 0 1.3.2 2.3 1.1 2 1.7 16.1 16.2 35.2 36 .6 1 .7 2.1.2 2.8-.3.4-.7.6-.8.7-.6.3-1.1.3-1.4.3h-16.5v12.2M704.1 116c-6 6.2-12 12.4-17.9 18.5"/></g><g data-bottom="opacity: 0" data-center="opacity: 1" class="skrollable skrollable-after"><circle class="st6" cx="196.7" cy="145.5" r="20.5"/><path class="st0" d="M343.5 139.9h-23v49.6h39.8v-23.6m-34.1-17.7H346m-19.8 10.5h26.2m-26.2 10.5h26.2m-26.2 10.5h26.2m18.5-105.9c-.6-.9-5.6-8.4-14.8-9.1-7.6-.6-14.9 3.6-18.7 10.7m-13.5.2c-1.2-1.2-8.1-7.6-18.5-7-13.4.7-20.1 12.5-20.5 13.3-2-.9-7.6-3.1-14.3-1.6-6.7 1.6-14.1 6.8-15.9 15.3-1.6 8 2.7 14.3 3.6 15.6"/><path class="st17" d="M239.1 111.2c-1 .1-6.8.9-10.1 5.7-3.5 5.1-2.9 12.6 1.8 18.2-1.9-.1-7.6-.3-13 3.4-6.5 4.5-8 11.5-8.3 13.3-2 9.7 3.4 20.4 13.3 27.6"/><path class="st0" d="M245.4 158.3c.3 3 1.3 10 6.5 16.6 7 9 16.6 11.2 19.2 11.7m23.9 8.6c0 1.5.3 5.7 3.4 9.6 4.4 5.7 11.1 6.2 12.2 6.2m-73.8-25.2c-.7 1.6-2.6 6.9-.3 12 3.1 6.7 12.6 10.5 22.6 7.5-.6 1.7-2 6.6 0 11.7 2.6 6.6 10 10.9 18.5 10.7M229 149.4c-.9.8-3.8 3.3-4.7 7.5-1.3 6.4 2.9 11.2 3.4 11.7m65.5-104.2c2.4-1.2 7.8-3.5 14.8-3.1 5.8.3 10.2 2.4 12.5 3.6"/><path class="st3" d="M343.1 89.9h4.5v33.8h-4.5z"/><path class="st0" d="M331.5 98.3h4.5v25.3h-4.5z"/><path class="st3" d="M319.9 105.7h4.5v17.9h-4.5z"/><path class="st0" d="M308.3 111h4.5v12.7h-4.5zm-22.1-7.9l-11.3 11.3 5.4 5.4 10.4-10.4 4.6 4.6c1.7-6.4 3.5-12.8 5.2-19.2L281.3 99c1.6 1.4 3.2 2.8 4.9 4.1z"/><circle class="st0" cx="210.9" cy="106.9" r="9.7"/><circle class="st0" cx="240.4" cy="91" r="5"/><circle class="st0" cx="154.3" cy="113.9" r="9.7"/><circle class="st0" cx="191.6" cy="201.7" r="10.1"/><circle class="st0" cx="114.1" cy="152.5" r="8.8"/><circle class="st0" cx="87.7" cy="150.6" r="5.3"/><circle class="st18" cx="283.9" cy="153.4" r="21.5"/><circle class="st0" cx="283.9" cy="153.4" r="8.5"/><path class="st0" d="M190.9 217.2c-.1.8-.2 3.3 1.5 5.8 1.2 1.7 2.6 2.5 3.4 2.9h15.9c2.3.1 4.2 1.6 4.8 3.6.8 2.5-.5 5.4-3.1 6.6h-37.3c-3.4-.1-6 2.8-5.8 5.7.2 2.5 2.3 4.8 5.2 5h29.6c2.5.5 4.3 2.6 4.5 5 .2 2.3-1.1 4.5-3.2 5.5h-20.1c-2.8 1-4.4 3.9-3.9 6.5.4 2.1 2.1 3.8 4.3 4.3h17.9m32.3-61.8v19.4c0 .1-.4 1.2.3 2.2.5.8 1.6 1.2 2.6 1h12.5c1.1.2 2.1 1 2.4 2.1.4 1.4-.3 2.9-1.7 3.6h-21.7c-2.1 1.1-3.3 3.2-3.3 5.5.1 2.5 1.7 4.7 4.1 5.5h23m-83.7-79.5c1.6 2.2 4.4 5.2 8.5 7.7 7.6 4.6 15.2 4.5 18.3 4.2m6.1-.4c.8-.1 1.5-.1 2.3-.2m-4.1-41.2c-.7-.5-2.8-2-5.7-1.9-.8 0-3.3.1-5.3 1.9-.5.5-2.6 2.4-2.2 4.7.4 2.3 3 3.4 4.2 3.9 2.2.9 2.8.3 5.3 1.2 1.7.6 4.1 1.4 5.1 3.5 1 2.2.2 5.2-1.6 6.9-3.2 3-8.4 1-9.2.6-1.7-.7-2.9-1.6-3.6-2.3m7.2-25.6v32.8"/></g></svg>