<?xml version="1.0" encoding="utf-8"?>
<!-- Generator: Adobe Illustrator 21.1.0, SVG Export Plug-In . SVG Version: 6.00 Build 0)  -->
<svg version="1.1" id="Layer_1" xmlns="http://www.w3.org/2000/svg" xmlns:xlink="http://www.w3.org/1999/xlink" x="0px" y="0px"
	 viewBox="0 0 1920 730" style="enable-background:new 0 0 1920 730;" xml:space="preserve">
<style type="text/css">
	.st0{fill:#3495D1;}
</style>
<rect y="0.3" class="st0" width="1920" height="36"/>
<g>
	<path class="st0" d="M1414,36c44.4,0,87.5,8.7,128.1,25.8c39.2,16.6,74.4,40.3,104.6,70.5c30.2,30.2,54,65.4,70.5,104.6
		c17.1,40.5,25.8,83.6,25.8,128.1s-8.7,87.5-25.8,128.1c-16.6,39.2-40.3,74.4-70.5,104.6s-65.4,54-104.6,70.5
		c-40.5,17.1-83.6,25.8-128.1,25.8s-87.5-8.7-128.1-25.8c-39.2-16.6-74.4-40.3-104.6-70.5s-54-65.4-70.5-104.6
		c-17.1-40.5-25.8-83.6-25.8-128.1s8.7-87.5,25.8-128.1c16.6-39.2,40.3-74.4,70.5-104.6c30.2-30.2,65.4-54,104.6-70.5
		C1326.5,44.7,1369.6,36,1414,36 M1414,0c-201.6,0-365,163.4-365,365s163.4,365,365,365s365-163.4,365-365S1615.6,0,1414,0L1414,0z"
		/>
</g>
</svg>
