<?xml version="1.0" encoding="utf-8"?>
<!-- Generator: Adobe Illustrator 21.1.0, SVG Export Plug-In . SVG Version: 6.00 Build 0)  -->
<svg version="1.1" id="Layer_1" xmlns="http://www.w3.org/2000/svg" xmlns:xlink="http://www.w3.org/1999/xlink" x="0px" y="0px"
	 viewBox="0 0 1920 730" style="enable-background:new 0 0 1920 730;" xml:space="preserve">
<style type="text/css">
	.st0{fill:none;stroke:#3495D1;stroke-miterlimit:10;}
	.st1{fill:none;stroke:#000000;stroke-miterlimit:10;}
	.st2{fill:#353535;}
</style>
<g>
	<g>
		<path class="st0" d="M1192.8,127.1 M1102.6,246.4c-12,34.8-18.6,72.1-18.6,110.9c0,29,3.7,57.2,10.5,84.1 M1605.3,71.4
			c-52.6-33.6-115.2-53.1-182.3-53.1l0,0c-78.4,0-150.5,26.6-208,71.3 M1744.8,464.2c11.2-33.6,17.2-69.5,17.2-106.9 M1242.1,644.1
			c34.6,21.8,73.3,37.6,114.8,45.8"/>
	</g>
	<polyline class="st1" points="0,18.3 1423,18.3 1920,18.3 	"/>
</g>
<g>
	<path class="st2" d="M1122.7,236.4l-22.1-16.2l4.1-9.4l26.9,5.2l-2.2,5l-4.8-1l-3.7,8.6l4,2.9L1122.7,236.4z M1106.4,218.2
		l10.5,7.6l2.9-6.7l-12.7-2.6L1106.4,218.2z"/>
	<path class="st2" d="M1133,213.2l-23.6-12.6l4.3-8.1l22.5,4.6l0.1-0.3l-19.5-10.3l2.6-4.8l23.6,12.6l-4.2,7.9l-22.6-4.4l-0.2,0.4
		l19.5,10.3L1133,213.2z"/>
	<path class="st2" d="M1144.6,191.6l-19.4-19.5l5.5-8.6l25.8,9.2l-2.9,4.6l-4.6-1.7l-5,7.9l3.5,3.5L1144.6,191.6z M1131.4,171.1
		l9.2,9.1l3.9-6.2l-12.2-4.5L1131.4,171.1z"/>
	<path class="st2" d="M1167.4,158l-8.9,12.3l-21.6-15.7l3.2-4.4l17.7,13l5.8-7.9L1167.4,158z"/>
	<path class="st2" d="M1174.1,149.9l-3.4,4.2l-8.4-6.8l-17.6-3.6l3.8-4.7l11.4,2.9l-5.2-10.5l3.8-4.7l7.2,16.4L1174.1,149.9z"/>
	<path class="st2" d="M1163.9,127.7l-3.4-3.2l12-13l3.4,3.2l4.6,19.5l0.5,0.5l7.6-8.2l3.4,3.2l-12,12.9l-3.3-3.2l-4.6-19.5l-0.5-0.5
		L1163.9,127.7z"/>
	<path class="st2" d="M1195,126.8l-18.4-19.4l12.5-11.9l3.2,3.4l-8.6,8.2l4.3,4.5l6.9-6.6l3.2,3.3l-6.9,6.6l4.4,4.6l8.6-8.2l3.2,3.4
		L1195,126.8z"/>
	<path class="st2" d="M1625.2,102.5c-3.2-2.6-4.7-5.2-4.7-8c0.1-2.8,1.6-6,4.5-9.6c2.9-3.6,5.8-5.9,8.6-6.7c2.8-0.8,5.7,0.1,8.8,2.7
		c3.1,2.6,4.7,5.2,4.6,8.1s-1.7,6.1-4.6,9.8c-3.6,4.5-7.2,6.8-10.5,6.6l-0.7,6.2l-5.3-1.3l0.8-6.7
		C1626.4,103.4,1625.9,103.1,1625.2,102.5z M1626.1,94.5c-0.2,1.6,0.5,2.9,2.2,4.3c1.7,1.3,3.2,1.7,4.7,1.1s3.1-2.2,5.2-4.7
		s3.1-4.6,3.4-6.3c0.3-1.7-0.4-3.1-2.1-4.4c-1.7-1.3-3.2-1.7-4.7-1c-1.6,0.7-3.3,2.3-5.3,4.8C1627.4,90.9,1626.3,92.9,1626.1,94.5z"
		/>
	<path class="st2" d="M1647.2,108.8c-2.2,2.3-2.1,4.5,0.3,6.7c2.4,2.2,4.5,2.1,6.7-0.2l12.1-13.1l3.9,3.7l-12.1,13
		c-2.3,2.4-4.5,3.5-6.8,3.5c-2.3,0-4.7-1.2-7.2-3.5c-2.5-2.4-3.8-4.6-4-6.9c-0.2-2.3,0.8-4.6,3-7l12.2-13.1l3.9,3.7L1647.2,108.8z"
		/>
	<path class="st2" d="M1670.2,140.7c-2.8,0.3-5.5-1.1-8.3-4c-2.8-2.9-3.8-5.8-3.3-8.6c0.5-2.8,2.5-5.7,6-8.8
		c3.5-3.1,6.6-4.9,9.4-5.3c2.9-0.3,5.6,1,8.4,4c2.8,2.9,3.8,5.9,3.2,8.6c-0.6,2.8-2.6,5.8-6,8.9
		C1676.1,138.7,1673,140.4,1670.2,140.7z M1664,128.9c-0.5,1.5,0,3,1.5,4.6c1.5,1.6,2.9,2.2,4.4,1.8c1.6-0.4,3.5-1.7,5.9-3.8
		c2.4-2.2,3.8-4,4.4-5.6s0.1-3.1-1.3-4.7c-1.4-1.6-2.9-2.1-4.5-1.7c-1.6,0.4-3.6,1.8-6,3.9C1666,125.5,1664.5,127.3,1664,128.9z"/>
	<path class="st2" d="M1687.9,132l3.7-3l12.3,15.3l-3.7,3l-4.4-5.5l-17.1,13.8l-3.4-4.2l17.1-13.8L1687.9,132z"/>
	<path class="st2" d="M1684.9,163.4l21.9-15.3l9.9,14.2l-3.8,2.8l-6.8-9.7l-5.1,3.6l5.5,7.8l-3.9,2.7l-5.5-7.8l-5.2,3.6l6.8,9.7
		l-3.8,2.8L1684.9,163.4z"/>
	<path class="st2" d="M1712,188.5l-7.8,4.4l-2.7-4.7l23.3-13.2l5.1,9c3.1,5.5,2.1,9.6-3,12.6c-3,1.7-5.9,1.9-8.6,0.4l-7,8.4
		l-2.9-5.2l6.3-7.1L1712,188.5z M1720.9,192.5c1,0.2,2.1-0.1,3.1-0.7c1.1-0.6,1.9-1.5,2.2-2.4c0.3-1,0.2-2-0.4-3l-2.5-4.3l-7.4,4.2
		l2.5,4.4C1719.1,191.7,1719.9,192.3,1720.9,192.5z"/>
	<path class="st2" d="M1713.1,209.1l24.1-11.5l7.5,15.6l-4.2,2.1l-5.1-10.7l-5.6,2.7l4.1,8.6l-4.2,2l-4.1-8.6l-5.8,2.8l5.1,10.7
		l-4.2,2.1L1713.1,209.1z"/>
	<path class="st2" d="M1725.2,237.5c-1.5-3.8-1.5-6.9-0.1-9.2c1.5-2.4,4.3-4.4,8.7-6.1c4.4-1.8,8-2.3,10.7-1.6
		c2.8,0.7,4.8,2.9,6.4,6.8c1.5,3.7,1.5,6.9-0.1,9.2c-1.6,2.4-4.5,4.4-8.9,6.2c-5.4,2.2-9.5,2.3-12.5,0.5l-3.7,4.9l-3.9-3.7l4.1-5.4
		C1725.8,238.9,1725.5,238.4,1725.2,237.5z M1730,231c-1,1.2-1.1,2.9-0.3,4.8c0.8,2,2,3,3.5,3.3c1.6,0.2,3.8-0.3,6.9-1.5
		c3-1.2,5.1-2.5,6.2-3.7c1.1-1.3,1.3-2.9,0.5-4.8c-0.8-2-2-3-3.6-3.2c-1.7-0.2-4,0.3-7,1.5C1732.9,228.6,1730.9,229.9,1730,231z"/>
	<path class="st2" d="M1741.1,253.9c-2.9,0.9-4,2.9-3,5.9c0.9,3,2.9,4.1,5.9,3.1l17-5.2l1.6,5.2l-16.9,5.2c-3.1,1-5.7,0.9-7.7-0.3
		c-2-1.2-3.4-3.3-4.4-6.7c-1-3.2-1-5.9,0-8s3-3.5,6.2-4.5l16.9-5.2l1.6,5.2L1741.1,253.9z"/>
	<path class="st2" d="M1738.1,275.9l26-5.9l3.8,16.9l-4.6,1.1l-2.7-11.6l-6.1,1.4l2.1,9.2l-4.5,1l-2.1-9.2l-6.3,1.4l2.7,11.6
		l-4.6,1.1L1738.1,275.9z"/>
	<path class="st2" d="M1766.2,301.2c-0.5-2.9-1.6-4.1-3.4-3.8c-0.8,0.1-1.4,0.6-1.8,1.4c-0.3,0.8-0.7,2.6-1.1,5.2
		c-0.4,2.7-1.1,4.6-2,5.9c-0.9,1.2-2.5,2-4.6,2.4c-2.8,0.4-5-0.1-6.7-1.5c-1.7-1.5-2.8-3.5-3.1-6.3c-0.3-2.1-0.4-4.5-0.3-7.6v-1.5
		l4.2-0.1c0.1,3.5,0.3,6.2,0.6,8.1c0.4,2.8,1.8,3.9,4,3.5c0.8-0.1,1.4-0.6,1.8-1.3c0.4-0.7,0.7-2.1,0.9-4c0.4-3.1,1.1-5.4,2.1-6.9
		c1-1.4,2.6-2.3,4.6-2.7c2.7-0.4,4.7,0.1,6.3,1.5c1.6,1.4,2.6,3.5,2.9,6.3c0.3,1.9,0.4,4.4,0.4,7.5v1.5l-4.3,0.3
		C1766.6,305.4,1766.4,302.7,1766.2,301.2z"/>
	<path class="st2" d="M1767.4,312.9l4.8-0.5l1.9,19.6l-4.8,0.5l-0.7-7.1l-21.8,2.2l-0.5-5.4l21.8-2.1L1767.4,312.9z"/>
	<path class="st2" d="M1720.6,486.3l24.2,11.4l-7.3,15.4l-4.2-2l4.9-10.5l-7.1-3.3l-4,8.6l-4.2-2l4-8.6l-8.6-4L1720.6,486.3z"/>
	<path class="st2" d="M1705.4,522.3c-1.1-2.6-0.7-5.6,1.3-9.1s4.3-5.5,7.1-5.9s6.2,0.6,10.3,2.9c4.1,2.3,6.8,4.7,8,7.3
		c1.2,2.6,0.8,5.6-1.2,9.1c-2,3.5-4.4,5.5-7.2,5.8c-2.8,0.3-6.3-0.7-10.4-2.9C1709.1,527.3,1706.5,524.8,1705.4,522.3z
		 M1714.7,512.7c-1.6,0-2.9,0.9-3.9,2.8c-1.1,1.9-1.2,3.4-0.3,4.8c0.9,1.4,2.7,2.9,5.5,4.4c2.9,1.6,5.1,2.4,6.8,2.5
		c1.7,0,3-0.9,4-2.8s1.1-3.4,0.2-4.8c-0.9-1.4-2.8-2.9-5.6-4.4C1718.5,513.5,1716.3,512.7,1714.7,512.7z"/>
	<path class="st2" d="M1703.9,536l-7.5-4.9l2.9-4.5l22.3,14.7l-5.7,8.6c-3.4,5.2-7.7,6.3-12.6,3c-2.9-2-4.3-4.4-4.2-7.6l-10.6-2.5
		l3.2-4.9l9.1,2.4L1703.9,536z M1704.4,545.9c0.3,1,1,1.8,2.1,2.5c1.1,0.7,2.1,1,3.1,0.9c1-0.1,1.9-0.7,2.6-1.8l2.8-4.1l-7.1-4.7
		l-2.8,4.2C1704.3,543.9,1704.1,544.9,1704.4,545.9z"/>
	<path class="st2" d="M1708.5,561.5l-3.5,4.4l-19.3-11.3l-0.4,0.5l14.3,17.6l-3.9,4.9l-20.2-10.1l-0.4,0.5l15.1,16.4l-3.5,4.4
		l-17.6-20.7l5.1-6.4l18.5,9.4l-13.2-16l5.1-6.4L1708.5,561.5z"/>
	<path class="st2" d="M1665.5,572l15.1,22.9l-7.2,7.5l-23.5-14.2l3.7-3.9l4.2,2.6l6.5-6.8l-2.8-4.1L1665.5,572z M1674.4,594.8
		l-7.3-10.7l-5.1,5.3l11,6.9L1674.4,594.8z"/>
	<path class="st2" d="M1649.7,600.5l-6-6.7l4-3.6l17.9,19.9l-7.7,7c-4.7,4.2-8.9,4.1-12.9-0.2c-2.4-2.6-3-5.4-2.3-8.4l-9.6-5
		l4.4-3.9l8.4,4.6L1649.7,600.5z M1647.7,610.2c0.1,1,0.5,2,1.4,2.9s1.8,1.5,2.8,1.6s2-0.3,2.9-1.1l3.6-3.3l-5.7-6.3l-3.7,3.3
		C1648.1,608.2,1647.7,609.2,1647.7,610.2z"/>
	<path class="st2" d="M1622.7,611.6l7.1-5.5l16.4,21.1l-7.1,5.5c-1.9,1.4-3.4,2.4-4.9,2.9c-1.5,0.5-2.9,0.6-4.2,0.2
		c-1.4-0.4-2.6-1.1-3.7-2.1s-2.5-2.5-3.9-4.3c-1.5-1.9-2.6-3.5-3.3-5c-0.8-1.5-1.2-2.9-1.3-4.3s0.2-2.9,1.1-4.2
		C1619.7,614.6,1620.9,613,1622.7,611.6z M1624.7,623.5c0.5,0.7,1.2,1.7,2.1,2.8c0.9,1.2,1.7,2.1,2.3,2.8s1.3,1.1,2.1,1.5
		c0.8,0.4,1.6,0.4,2.4,0.1c0.8-0.3,1.7-0.8,2.8-1.6l2.9-2.2l-10.6-13.7l-2.9,2.2c-1.6,1.2-2.4,2.5-2.5,3.8
		C1623,620.3,1623.6,621.7,1624.7,623.5z"/>
	<path class="st2" d="M1610.2,621l14.8,22.2l-14.4,9.6l-2.7-3.9l9.8-6.6l-3.4-5.2l-8,5.3l-2.6-3.8l8-5.3l-3.5-5.3l-9.8,6.6l-2.7-3.9
		L1610.2,621z"/>
	<path class="st2" d="M1592.2,643.2l-4.4-7.8l4.7-2.7l13.3,23.2l-9,5.1c-5.5,3.1-9.6,2.2-12.6-2.9c-1.8-3-1.9-5.9-0.4-8.6l-8.4-7
		l5.1-2.9l7.2,6.3L1592.2,643.2z M1588.2,652.1c-0.2,1,0.1,2.1,0.7,3.1c0.6,1.1,1.5,1.9,2.4,2.2c0.9,0.3,2,0.2,3-0.4l4.3-2.5
		l-4.2-7.4l-4.3,2.5C1589,650.3,1588.3,651.1,1588.2,652.1z"/>
	<path class="st2" d="M1562.7,658.5l-3.6-8.2l4.9-2.2l10.8,24.5l-9.4,4.2c-5.7,2.6-9.8,1.2-12.2-4.2c-1.4-3.1-1.3-6.1,0.5-8.6
		l-7.7-7.8l5.4-2.5l6.5,6.9L1562.7,658.5z M1557.9,667c-0.3,1-0.1,2.1,0.4,3.2s1.3,2,2.2,2.4s2,0.4,3.1-0.1l4.5-2l-3.4-7.8l-4.6,2.1
		C1558.8,665.3,1558.1,666,1557.9,667z"/>
	<path class="st2" d="M1542,657.6l9.1,25.2l-16.2,5.9l-1.6-4.4l11.2-4l-2.2-5.9l-8.9,3.2l-1.6-4.3l8.9-3.2l-2.2-6l-11.2,4l-1.6-4.4
		L1542,657.6z"/>
	<path class="st2" d="M1520.3,688.6c2.8-0.8,3.8-2.1,3.3-3.9c-0.2-0.8-0.8-1.3-1.6-1.6c-0.8-0.2-2.6-0.4-5.3-0.5
		c-2.8-0.1-4.7-0.5-6.1-1.2c-1.4-0.7-2.3-2.2-2.9-4.2c-0.8-2.7-0.6-5,0.7-6.8c1.3-1.9,3.1-3.1,5.8-3.9c2-0.6,4.4-1,7.5-1.2l1.5-0.1
		l0.7,4.2c-3.5,0.5-6.2,1.1-8,1.6c-2.7,0.8-3.6,2.3-3,4.5c0.2,0.8,0.7,1.4,1.5,1.6c0.8,0.2,2.2,0.4,4.1,0.4c3.1,0,5.5,0.4,7.1,1.2
		c1.6,0.8,2.6,2.3,3.1,4.2c0.8,2.6,0.5,4.7-0.7,6.4c-1.2,1.7-3.1,2.9-5.9,3.7c-1.9,0.5-4.3,1-7.3,1.3l-1.5,0.1l-0.8-4.2
		C1516.3,689.6,1518.8,689,1520.3,688.6z"/>
	<path class="st2" d="M1493.9,680l4.3-1l-1.7-7.6l5.3-1.2l5.7,26.1l-9.6,2.1c-6.2,1.4-9.9-1-11.3-7.1c-0.7-3-0.4-5.6,0.9-7.6
		C1488.7,682,1490.8,680.7,1493.9,680z M1499.2,683.7l-4.2,0.9c-2.7,0.6-3.6,2.5-2.9,5.8c0.4,1.6,0.9,2.7,1.7,3.2
		c0.8,0.6,1.9,0.7,3.2,0.4l4.2-0.9L1499.2,683.7z"/>
	<path class="st2" d="M1461.7,680.4c1.4-2.5,4-3.9,8.1-4.5c4-0.6,7,0.1,8.9,2.1s3.2,5.3,3.9,9.9c0.7,4.7,0.3,8.3-1,10.8
		c-1.4,2.5-4,4-8.1,4.6c-4,0.6-7-0.2-8.9-2.2c-2-2.1-3.2-5.4-3.9-10C1460,686.4,1460.4,682.9,1461.7,680.4z M1475,682.1
		c-1-1.3-2.5-1.8-4.6-1.5s-3.4,1.2-4,2.7c-0.6,1.5-0.6,3.8-0.2,7c0.5,3.2,1.2,5.5,2.2,6.8c1,1.3,2.6,1.9,4.6,1.6
		c2.1-0.3,3.4-1.2,3.9-2.8c0.6-1.6,0.6-3.9,0.2-7.2C1476.7,685.5,1476,683.3,1475,682.1z"/>
	<path class="st2" d="M1454.7,678.4l1.6,26.6l-9.1,0.6l-7.8-21.6h-0.4l1.4,22l-5.4,0.3l-1.6-26.7l8.9-0.5l8,21.5h0.4l-1.4-22
		L1454.7,678.4z"/>
	<path class="st2" d="M1419.5,702.1c2.9,0,4.3-0.9,4.3-2.8c0-0.9-0.3-1.5-1-2c-0.7-0.5-2.4-1.1-4.9-2c-2.6-0.9-4.4-1.9-5.4-2.9
		s-1.6-2.8-1.5-4.9c0-2.9,0.9-4.9,2.7-6.3c1.8-1.4,3.9-2.1,6.7-2.1c2.1,0,4.5,0.4,7.5,1.1l1.4,0.3l-0.6,4.2
		c-3.5-0.5-6.2-0.8-8.1-0.9c-2.8,0-4.2,1.1-4.2,3.4c0,0.9,0.3,1.5,0.9,2c0.6,0.5,1.9,1,3.8,1.6c3,0.9,5.1,2,6.4,3.1
		c1.2,1.2,1.9,2.9,1.8,5c0,2.7-0.9,4.6-2.6,5.9c-1.7,1.3-3.9,1.9-6.7,1.9c-2,0-4.4-0.3-7.4-0.9l-1.4-0.3l0.5-4.3
		C1415.3,701.9,1417.9,702.1,1419.5,702.1z"/>
	<path class="st2" d="M1407.1,679.3l-2.1,26.6l-17.2-1.3l0.4-4.7l11.8,0.9l0.5-6.2l-9.5-0.7l0.4-4.6l9.5,0.7l0.5-6.4l-11.8-0.9
		l0.4-4.7L1407.1,679.3z"/>
	<path class="st2" d="M1230.2,615.4l-16.7,20.8l-7.2-5.7l8.7-21.2l-0.3-0.3l-13.8,17.2l-4.2-3.4l16.7-20.8l7,5.6l-8.6,21.3l0.3,0.3
		l13.8-17.2L1230.2,615.4z"/>
	<path class="st2" d="M1209.4,598.5l-18.2,19.6l-12.7-11.8l3.2-3.4l8.6,8.1l4.2-4.6l-7-6.5l3.1-3.4l7,6.5l4.3-4.7l-8.6-8.1l3.2-3.4
		L1209.4,598.5z"/>
	<path class="st2" d="M1179.5,582.4l-3.4,3.2l-5.3-5.7l10.1-9.5c3,2.4,5.3,4.3,6.9,6c2.9,3,4,5.9,3.4,8.6c-0.6,2.7-2.6,5.7-6.1,8.9
		c-3.5,3.3-6.7,5.1-9.3,5.4c-2.7,0.3-5.3-1-8.1-3.8c-1.7-1.8-3.2-3.9-4.8-6.3l-0.8-1.2l3.1-2.8c1.9,2.6,3.5,4.5,4.9,6
		c1.4,1.5,2.6,2.4,3.4,2.6c0.9,0.3,2,0.1,3.1-0.5c1.2-0.6,2.9-2,5.1-4c2.3-2.1,3.5-3.8,3.9-5.2s-0.3-2.9-1.9-4.7l-2.4-2.3l-3.8,3.5
		L1179.5,582.4z"/>
	<path class="st2" d="M1164.3,554c2.8-0.1,5.4,1.5,8,4.6c2.6,3.1,3.4,6.1,2.9,8.7c-0.7,2.7-2.9,5.5-6.5,8.5
		c-3.6,2.9-6.9,4.5-9.7,4.6c-2.9,0.1-5.5-1.4-8.1-4.5c-2.6-3.1-3.4-6.1-2.8-8.8c0.8-2.8,2.9-5.6,6.6-8.6
		C1158.3,555.7,1161.5,554.1,1164.3,554z M1169.7,566.3c0.6-1.5,0.2-3-1.1-4.7c-1.4-1.7-2.8-2.4-4.3-2.1c-1.6,0.3-3.6,1.4-6.1,3.4
		c-2.6,2.1-4.1,3.8-4.7,5.3c-0.7,1.6-0.3,3.1,1,4.7c1.3,1.7,2.8,2.3,4.4,2c1.7-0.3,3.7-1.5,6.2-3.5
		C1167.5,569.6,1169.1,567.8,1169.7,566.3z"/>
	<path class="st2" d="M1146.1,561.7l-3.9,2.8l-11.3-16.1l3.9-2.8l4,5.8l18-12.6l3.1,4.4l-18,12.6L1146.1,561.7z"/>
	<path class="st2" d="M1151.2,530.3l-22.6,14.3l-2.9-4.6l22.6-14.3L1151.2,530.3z"/>
	<path class="st2" d="M1146.5,523.1l-26.2,7.8l-5-9l20.3-18.3l2.7,4.7l-3.7,3.2l4.5,8.2l4.7-1.5L1146.5,523.1z M1122.1,524.9
		l12.4-3.8l-3.5-6.4l-9.7,8.6L1122.1,524.9z"/>
	<path class="st2" d="M1116.2,513.6l-4.3,2.1l-8.5-17.7l4.3-2.1l3,6.4l19.8-9.4l2.4,4.9l-19.8,9.4L1116.2,513.6z"/>
	<path class="st2" d="M1126.4,483.7l-24.8,9.9l-6.5-16l4.4-1.8l4.4,11l5.8-2.4l-3.5-8.8l4.3-1.8l3.5,8.8l6-2.4l-4.4-11l4.4-1.8
		L1126.4,483.7z"/>
</g>
</svg>
