<?xml version="1.0" encoding="utf-8"?>
<!-- Generator: Adobe Illustrator 19.0.0, SVG Export Plug-In . SVG Version: 6.00 Build 0)  -->
<svg version="1.1" id="Layer_1" xmlns="http://www.w3.org/2000/svg" xmlns:xlink="http://www.w3.org/1999/xlink" x="0px" y="0px"
	 viewBox="0 0 1280 800" enable-background="new 0 0 1280 800" xml:space="preserve">
<g id="XMLID_2_">
	<g id="XMLID_194_">
		<path id="XMLID_381_" fill="#FEFEFE" d="M640.6,724.7c-183.1,0-366.3,0-549.4,0.1c-2.3,0-2.8-0.5-2.8-2.8
			c0.1-221.5,0.1-443,0-664.5c0-2.3,0.5-2.8,2.8-2.8c366.3,0.1,732.6,0.1,1098.9,0c2.3,0,2.8,0.5,2.8,2.8
			c-0.1,221.5-0.1,443,0,664.5c0,2.3-0.5,2.8-2.8,2.8C1006.9,724.7,823.8,724.7,640.6,724.7z"/>
		<path id="XMLID_380_" fill="#D3EEF9" d="M1078.1,391c-0.2,0.4-1.3,0.5,0.1,1.3c4.9,2.8,8.8,6.6,11.5,11.6c2.4,4.4,4,8.9,3.9,14
			c-0.1,8.9-0.4,17.9,0.1,26.8c0.6,11.8-8.9,24.6-19.7,28.7c-3.5,1.3-7,2-10.8,2c-29.2-0.1-58.4,0-87.6,0c-4.2,0-4.2,0-4.3,4.3
			c0,4.2-0.1,8.4,0,12.6c0,1.4-0.2,2.6-1.3,3.6c-1.7,1-3.4,0.2-5.1,0.2c-7.8,0-15.6,0-23.4,0c-6.5,0.1-10.3,3.8-10.6,10.3
			c-0.1,2.5,0,4.9-0.1,7.4c-0.1,3.1-0.8,3.7-3.9,3.9c-2.1,0.1-4.1,0.1-5.7,1.8c-0.6,0.6-0.3,1.4-0.3,2c0.1,23.4,0,46.8,0,70.2
			c0,5.2-0.4,5.6-5.6,5.7c-6.3,0-12.5,0-18.8,0c-1.7,0-3.6,0.1-4.5-1.9c-0.1-4.3,0.7-8.5,0.6-12.8c-0.2-14-9.5-25-23.3-27.2
			c-4.1-0.6-4.4-0.9-4.5-5c0-1.5,0-3.1,0-4.6c-0.2-3.3-0.8-4-4.1-4c-6.6-0.1-13.1,0.1-19.7-0.1c-6.2-0.2-12.5-0.3-18.7-0.4
			c-5.6-0.1-11.4,0.2-17.2,0.6c-1.6,0.1-2.4,1-2.5,2.6c-0.1,1.2-0.1,2.5-0.1,3.7c0,23.7,0,47.4,0,71.2c0,1.7,0.5,3.5-1.1,4.9
			c-1.8-0.9-1.4-2.6-1.4-4.1c-0.1-5.9-0.4-11.7,0-17.6c1.2-19.1,0.3-38.2,0.6-57.3c0-0.3,0.1-0.6,0.3-0.8c-0.1,0-0.1,0-0.3,0
			c0,16.4,0,32.7,0,49.1c0,3.3-0.4,3.7-3.7,3.8c-13.2,0.5-24.9-11-25.3-25c-0.2-7.7,0-15.4-0.1-23.1c0-4.8-0.1-4.9-4.8-4.9
			c-9,0-18.1,0-27.1,0c-1.2,0-2.5,0-3.7-0.2c-1.3-0.2-2.1-0.8-2-2.2c0-0.2,0-0.4,0-0.6c0-29.4,0-58.8,0-88c-0.1,0.9,0,2,0,3
			c0,27.6-0.5,55.3,0.2,82.9c0.5,18.9,0.2,37.8,0.5,56.7c0,1.7,0.8,3.8-1.5,4.9c-1.5-1.7-1-3.7-1-5.6c0-46,0-91.9,0-137.9
			c0-1.2,0-2.5,0-3.7c0.1-6.1-3-10-8.1-12.7c-1.1-0.6-2.4-0.8-3.2-1.8c-0.1-0.2,0.3-0.6-0.4-0.6c-2.9,0.4-5.8,0.2-8.6,0.2
			c-60.7,0-121.3,0-182,0c-1.7,0-3.5-0.3-5.1,0.6c-1.2,0.5-2.4,1-3.7,0.8c-1.1-0.9-3.1-1-3-3.1c1.6-1.1,3.4-0.8,5.1-0.8
			c25.5,0,51,0,76.5,0c1,0,2.1,0,3.1,0c2,0.1,3.1-0.7,3-2.9c0-3.4,0-6.8,0-10.2c0-1.9-0.8-2.9-2.8-2.8c-1.2,0-2.5,0-3.7,0
			c-63.8,0-127.7,0-191.5,0c-2,0-4.4,0.7-6-1.4c-0.5-1.9,1.1-2.2,2.2-2.8c4.3-1.9,8.7-3.7,13.1-5.5c3.7-1.5,4.1-2.4,2.4-6.1
			c-3.6-8.1-6.2-16.6-10.6-24.3c-8.9-15.2-22.2-23.2-39.9-23.7c-15-0.4-27.6,5.2-37.5,16.3c-7.2,8-11.2,17.6-11.5,28.6
			c-0.1,4.9-0.1,9.9,1.3,14.7c0.3,0.9,0.5,1.8-0.3,2.6c-1.1,0.7-2.4,0.6-3.6,0.6c-21,0-42,0.2-62.9-0.1c-16-0.2-30.5-5.1-42.7-16.1
			c-10.3-9.4-16.6-20.8-19.6-34.3c-0.5-2.4-0.8-4.9-0.8-7.3c0-56.5,0-112.9-0.1-169.4c0-13.6,4.3-25.6,12.2-36.3
			c9.6-12.9,22.7-20.8,38.5-23.9c3.2-0.6,6.5-0.8,9.8-0.8c146,0,292,0.1,438,0c14.2,0,26.8,4.2,38,12.7
			c11.6,8.8,18.8,20.6,22.6,34.6c0.6,2.4,0,2.8-2.2,2.8c-4.8-0.1-9.6,0-14.4,0.5c6.7,0,13.4,0,20.1,0c1.1,0,2.3-0.4,3.2,0.5
			c-1.2,1.3-2.8,1.1-4.3,1.1c-5.3,0.1-10.7,0.1-16,0c-2.5,0-4.4,0.5-4.7,3.5c-0.2,1.9-1.6,2.6-3.3,2.6c-6.8,0.2-13.6,0.1-20.4,0
			c-2.1,0-3.3-1.1-3.4-3.2c-0.1-2.3-1.5-2.9-3.5-2.9c-2.5,0-4.9,0-7.4,0c-2.2,0.1-3.1,1.1-3.2,3.3c-0.1,3.5,0,7-0.1,10.5
			c-0.1,3.8-0.8,4.6-4.5,4.7c-3.8,0.1-7.6,0.1-11.4,0c-3.7-0.1-4.5-0.9-4.5-4.6c-0.1-5,0-10.1,0-15.1c0-6-0.1-6.1-6.3-6.1
			c-2.4,0-4.7,0-7.1,0c-3.6,0.1-4.2,0.7-4.4,4.4c-0.1,2.8,0,5.6,0,8.3c-0.1,4.3-0.7,5.1-5,5.1c-5.8,0.1-11.5,0-17.3,0
			c-4.3,0-4.8,0.5-4.8,4.8c-0.1,8.3,0,16.7,0,25c0,5.1-0.9,5.9-5.9,6c-3.7,0-7.4,0-11.1,0c-2.4,0-3.4,1.1-3.3,3.4c0,1.1,0,2.3,0,3.4
			c0,41.8,0,83.7,0,125.5c0,6.9-0.2,7.1-7,7.2c-2.8,0-5.6-0.1-8.3,0.1c-4.6,0.3-6.7,2.4-6.8,7c-0.1,2.5-0.1,4.9,0,7.4
			c0.2,4,2.2,6,6.2,6.3c1.6,0.2,3.3,0.1,4.9,0.1c159.1,0,318.3,0,477.4,0C1073.7,389.9,1076.1,389.3,1078.1,391z"/>
		<path id="XMLID_379_" d="M321,418.6c-2.8-10.4-3-20.6,0.6-30.9c6.5-18.3,24.4-31.6,43.7-32.2c20.7-0.7,38.3,10.2,46.4,28.8
			c3.1,7.1,6,14.4,9.1,21.5c1.1,2.6,0.3,3.9-2.2,4.9c-5.7,2.3-11.3,4.8-16.9,7.2c-4.4,1.9-5.9,5.9-7.9,9.8
			c-6.4,12-20.7,15.9-32.7,10.2c-1.9-0.9-3.6-0.9-5.6-0.1c-5.9,2.5-11.9,5-17.9,7.5c-3.9,1.6-4.4,1.5-7-1.6c-0.8-1-1.6-1.1-2.7-0.7
			c-2.2,0.8-4.4,1.6-5.9,3.7c-3.8,4.9-8.8,6.8-15,5.9c-1.5-0.2-2.9-0.1-4.2,0.4c-13.6,5.7-27.4,11.3-41,17
			c-10.1,4.1-20.1,8.3-30.2,12.5c-3.5,1.5-3.6,1.7-2.8,5.3c5.6,23.8,11.8,47.5,17.6,71.2c0.5,2.1,1.4,3.7,3.1,5.2
			c7.8,6.8,7.6,19.9,0.2,25.7c-3.7,2.9-2.9,6.4-2.5,10c0.1,1.1,0.9,1.6,1.9,1.7c0.9,0.1,1.8,0.1,2.8,0.1c14.7,0,29.4,0.1,44.1,0
			c8.5-0.1,14.8,3.4,18.9,10.9c1.5,2.7,2.1,5.5,2,8.6c-0.1,2.3,0.8,3.3,3.2,3.3c12.6,0,25.2,0,37.8,0c0.9,0,1.9,0.1,2.2-1.1
			c0.1-21.7,0-43.4,0.1-65.1c0-2.7-0.6-5.6,2.3-7.5c0.8-0.5,0.5-1.8,0.3-2.6c-2.9-10-4.4-20.3-6.9-30.3c0-0.1-0.1-0.2-0.3-0.4
			c0.1,8.4,2.3,16.1,4.9,23.8c0.7,2,1.3,4.1,2,6.2c0.6,1.8,0.3,3.3-1.5,4.2c-2,1-3.4,0-4.4-1.7c-1.7-3.1-2.6-6.5-3.8-9.8
			c-0.7-2.1-1.1-4.4-1.8-6.5c-1.5-5.3-2.2-10.7-2.6-16.1c-0.3-3.4-0.1-6.7,3.9-8.1c1.4-0.5,1.3-1.7,1.1-2.9c-0.6-3-1.5-6.1,1.9-8.2
			c0.8-0.5,0.3-1.5,0.2-2.3c-0.2-1.3-0.6-2.6-0.5-4c0.1-1.5,0.8-2.6,2.3-2.9c1.4-0.3,2.6,0.2,3.5,1.4c0.5,0.8,0.9,1.7,1,2.6
			c0.4,2.1,1.1,3.6,3.4,4.1c1.8,0.4,2.3,2.2,2.6,3.8c0.4,2.3,0.9,4.6,3,6.2c1.3,1,1.3,2.5,0.5,3.9c-0.6,1.2-0.9,2.5-0.6,3.9
			c2.4,11.1,4.8,22.1,7.1,33.2c0.1,0.4,0.1,1,0.8,1.3c-0.8-8.4-1.6-16.8-2.4-25.1c-1.3-12.8-2.6-25.5-3.9-38.3c-0.3-2.7,1-4.5,3.8-5
			c2.3-0.4,4.7-0.6,7-0.7c2.6-0.1,3.9,1.5,4.2,3.9c0.9,5.7,1.2,11.4,1.8,17.2c1.4,13.1,2.7,26.1,4.1,39.2c0.3,2.6,0.3,5.1,0.6,7.1
			c1.3-12.5,2.9-25.4,4.3-38.4c0.6-5,1.1-10,1.7-15c0.8-6,4.2-8.2,10-6.8c3.5,0.9,5.1,2.7,5.2,6.3c0.1,5.3-0.9,10.4-1.5,15.6
			c-0.5,5-1.2,10-1.6,15c-0.1,1.5,2.7,5.6,4.1,6.1c0.8,0.3,1.1-0.3,1.5-0.7c6.8-6.9,16.8-4.1,19.7,5.4c3.5,21.1,7.2,42.2,10.8,63.2
			c0.7,4.3,0.9,8.6-1.4,12.6c-3.1,4.9-8.1,7.4-12.9,10.1c-2.3,1.3-5.4,0.3-6.7-2.1c-1-1.7-2-3.2-4-3.8c-0.9-0.3-1.3-1.2-1.5-2.2
			c-0.1-1.2,0.2-2.3,1.3-3c1.8-1.1,2-2.6,1.7-4.5c-1.4-12.8-2.8-25.6-4.3-38.4c-0.6-4.9-0.3-9.8-1.1-14.6c-0.3-0.7-0.6-1.4-1.4-1.8
			c0.6,0.9,1.5,1.6,1.7,2.7c1.4,23,0.3,46,0.7,69c0.1,1.4,0.9,1.9,2.3,1.9c1.5,0,3.1,0,4.6,0c24.2,0,48.4,0,72.7,0
			c0.6,0,1.2,0.1,2.3-0.4c-2.5-4-3.1-8.5-2.9-13.1c0.2-4.8,1.5-6.1,6.4-6.2c0.2,0,0.4,0,0.6,0c5.5-0.1,5.5-0.1,4.8-5.4
			c0-48.6,0.1-97.2,0-145.9c0-5.1,2.2-9.1,6-12.3c1.1-0.9,2.3-1.3,3.7-1.3c1-0.3,2-0.5,3-0.8c0.8-1.1,2-0.8,3.1-0.8
			c63.6,0,127.2,0,190.8,0c0.9,0,1.9-0.3,2.7,0.4c9.8,3.2,12.8,7.4,12.8,17.9c0,46.8,0,93.7,0,140.5c0,1.2,0,2.5,0,3.7
			c0.5,4,0.5,4,4.9,4c0.5,0,1,0,1.5,0c4.9,0.1,6,1.2,6.1,6c0.1,4.6,0.2,9.2-2.6,13.1c0.9,0.8,1.5,0.7,2.1,0.7c18,0,35.9,0,53.9,0
			c0.8,0,1.7,0.2,2.4-0.3c0-26.1,0-52.2,0-78.3c0-4.9,0-4.9,5.1-4.9c3.5,0,7,0,10.5,0c1.2,0,2.4,0.2,3.4-0.9
			c0.7-0.8,1.9-0.9,2.5-0.2c1.6,1.5,3.4,1.1,5.2,1.1c11.1,0,22.2,0,33.3,0c3.6,0,4.2,0.6,4.2,4.1c0,2.8-0.8,5.9,0.2,8.2
			c1.2,2.6,4.9,1.3,7.4,2.1c11.7,3.7,19.6,13.6,20.3,25.9c0.3,4.7,0,9.4-1.3,14c0.1,1.7-0.5,3.2-1.3,4.7c-4.4,8-11.1,12.7-19.9,14.8
			c-1.4,0.3-3.4,0-4.1,1.7c-0.8,2.2-0.5,4.7-0.2,7c0.1,0.7,0.7,0.9,1.4,1c0.8,0.1,1.6,0.1,2.5,0.1c14.9,0,29.8,0,44.7,0
			c4.1,0,4.4-0.2,4.3-4.1c-0.4-15.6,0.9-31.2,0.7-46.8c-0.2-17-0.1-33.9,0-50.9c0-1.1-0.3-2.3,0.3-3.3c0.8-3,3.2-2.8,5.5-2.6
			c3.1,0.4,4.4-0.6,4-3.9c-0.3-2.5-0.2-5.1,0-7.7c0.2-5.4,4.1-9.8,9.5-9.9c9-0.3,18.1-0.1,27.1,0c1.1,0,2.2,0.4,3.3,0.7
			c4.3,2.2,6.5,5.6,6.3,10.6c-0.1,2.7,0.1,5.3-0.1,8c-0.1,1.7,0.4,2.3,2.2,2.3c1.9,0,2.1-0.8,2.1-2.4c-0.1-5.1,0.1-10.3-0.1-15.4
			c-0.1-2.7,0.9-3.9,3.7-3.9c29.7,0.1,59.4,0,89.1,0c1.4,0,2.6,0.3,3.6,1.3c0.5,1.2,0.3,2.4,0.3,3.6c0,40.6,0,81.1,0,121.7
			c0,1.2-0.3,2.5,0.3,3.6c10.3,0.1,20.5,0.2,30.8,0.2c9.8,0,13.6,3.8,13.6,13.6c0,4.8,0,9.7,0,14.5c-0.1,6.8-4.4,11.2-11.2,11.3
			c-1.2,0-2.5,0-3.7,0c-312.6,0-625.2,0-937.8,0c-9,0-12.8-3.8-12.8-12.7c0-5,0-10.1,0-15.1c0-7.3,4.3-11.6,11.8-11.6
			c12.2,0,24.5-0.1,36.7,0c2.3,0,2.9-0.5,2.9-2.8c-0.1-11.3,5.4-17.9,16.5-20.4c1.4-0.5,3.1,0.5,4.2-0.5c1.2-1.1-0.5-2.6,0-4
			c1.1-3.5-0.3-5.7-3.1-8.1c-3.3-2.8-5-7-5-11.5c0-4.1,0.5-8.2-0.6-12.2c-0.7-2.6-1.2-5.3-1-8.1c0.1-0.2,0.1-0.4-0.1-0.5
			c-0.9-1.3-1.2-2.8-1.5-4.3c-3.6-18.2-7.2-36.4-10.7-54.7c-0.5-2.7-1.6-4.8-3.7-6.9c-4.3-4.3-5.8-9.6-3.8-15.5
			c0.4-1.3,0.9-2.5,2.2-3.2c2.9-3.9,6.8-6.2,11.7-6.4c2-0.1,3.7-1.1,5.5-1.9c25.2-10.3,50.4-20.7,75.6-31c1.6-0.6,2.7-1.4,3.6-3
			c2.7-4.9,7.1-7.4,12.7-7.1c4.1,0.2,7.2-2.1,10.7-3.2C322,420,321.5,419.2,321,418.6z"/>
		<path id="XMLID_378_" d="M1078.1,391c-1.8,0-3.7-0.1-5.5-0.1c-160.5,0-321,0-481.4,0c-7.1,0-9.1-2-9.1-9.2c0-2.1,0-4.1,0-6.2
			c0-4.6,2.6-7.3,7.2-7.4c4-0.1,8-0.2,12,0c2.6,0.2,3-0.8,3-3.1c-0.1-43.9-0.1-87.8-0.1-131.7c0-4.8,0.2-5.1,5-5.1
			c4.4,0,8.8-0.1,13.3,0c1.8,0,2.2-0.5,2.2-2.3c-0.1-9.8,0-19.5,0-29.3c0-3.6,0.5-4.1,4.1-4.1c6.9,0,13.8-0.1,20.7,0
			c2.1,0,2.6-0.6,2.5-2.6c-0.2-3.9,0-7.8-0.1-11.7c0-2.4,1-3.6,3.5-3.6c4.3,0,8.6,0,13,0c2.5,0,3.5,1.2,3.4,3.6
			c-0.1,6.6,0,13.2-0.1,19.7c0,1.9,0.3,2.7,2.5,2.6c4.5-0.2,9-0.2,13.6,0c2.1,0.1,2.5-0.7,2.5-2.6c-0.1-4.1,0.1-8.2-0.1-12.3
			c-0.1-2.9,1.1-3.9,3.8-3.8c2.9,0.1,5.8,0.1,8.6,0c2.8-0.1,4,1.1,3.7,3.9c-0.2,2,0.4,2.6,2.5,2.6c6.8-0.1,13.6-0.1,20.4,0
			c1.9,0,2.4-0.5,2.4-2.4c-0.1-3.5,0.5-4,4.2-4c7.2,0,14.4,0,21.6,0c1.5,0.8,1.7,2.1,1.7,3.6c0,4.8,0.1,9.6,0.2,14.4
			c8.8-0.7,17.5-0.3,26.3-0.3c1.6,0,3,0.6,3.8,2.1c0.6,1.6,0.4,3.2,0.4,4.9c0,25.9,0,51.8,0,77.7c0,25.7,0.2,51.4,0.1,77.1
			c0,1,0,2.1,0.1,3.1c0.1,1.2,0.6,2,1.9,2.1c4.8,0.1,9.6,0.7,14.4-0.4c1.4-1.3,0.9-3.1,0.9-4.7c-0.1-55.6-0.3-111.3,0-166.9
			c0.1-9.7,0.2-19.5,0.7-29.2c0.6-1.6,1.7-2,3.4-2c26.4,0,52.7,0,79.1,0c2.6,0,3.4,1.2,3.4,3.6c0,6.9,0.1,13.7,0.1,20.6
			c1,1.1,1,2.5,1,3.8c0,43.4,0,86.9,0,130.3c0,0.3,0,0.6-0.1,0.9c0.2,12.7,0,25.5,0.1,38.2c0,1,0,2.1,0,3.1c0,1.9,0.8,2.8,2.8,2.8
			c2.2,0,4.3,0,6.5,0c12.6,0,25.3,0,37.9,0c4.3,0,4.5-0.2,4.5-4.5c0-35.9,0.2-71.7,0.1-107.6c0-1.7-0.2-3.5,0.3-5.2
			c4.2-3.4,3.3-8.2,3.3-12.8c0-14.5,0-29,0-43.4c0-1.7-0.4-3.5,1-5c0-7,0.2-14,0.1-20.9c0-3,1-3.9,4-3.9c21.2,0.1,42.3,0.1,63.5,0
			c3,0,4.3,1.1,3.9,4c-0.4,2.7,0.8,3.1,3.2,3.1c5.1-0.2,10.3,0,15.4-0.1c1.7,0,3.1,0.3,3.9,1.9c0.5,3.7,0.3,7.4,0.2,11.1
			c-0.1,3.1,0.7,6.1,0.8,9.2c0,1.2,0.6,1.9,1.8,2.2c2.6,0.7,3,2.5,3,4.9c-0.1,35.6,0,71.1,0,106.7c0,19.5,0,39.1,0,58.6
			c0,0.9-0.3,1.9,0.3,2.7c8.3,0.6,16.6,0.1,24.9,0.2c6.8,0.1,9,2.2,9,9.1c0,1.8,0,3.7,0,5.5C1084.8,387.9,1083.2,389.9,1078.1,391z"
			/>
		<path id="XMLID_377_" fill="#D3EEF9" d="M893.6,323c0-0.7-0.1-1.4-0.1-2.1c0-43.6,0-87.2,0-130.8c0-0.7,0.1-1.4,0.1-2.1
			c17.8,0,35.6,0,53.5,0c1.3,0,2.7-0.1,3.9,0.6c0.1,11.7,0.1,23.3,0.2,35c0,7.1,0,14.1,0,21.2c0,1.6,0.5,3.3-2.2,3.4
			c-0.5,0-1.1,1.1-1.6,1.7c-0.8,0.9-0.4,2-0.4,2.9c0,22.4,0,44.8,0,67.2c0,3.7-0.6,4.6-4.4,4.7c-15,0.2-30,0.1-45,0
			C896.1,324.5,894.7,324.2,893.6,323z"/>
		<path id="XMLID_376_" fill="#D3EEF9" d="M1050.9,367.9c-0.9-0.9-0.4-1.9-0.4-2.9c0-54.6,0-109.2,0-163.8c0-4.4,0-4.5-4.4-5
			c-1.7-0.2-1.3-1.2-1.3-2.1c0-7.2,0-14.4,0-21.6c1.1,2,0.4,4.2,0.5,6.3c0.2,3-1,7,0.5,8.6c1.4,1.5,5.5,0.5,8.5,0.4
			c7.4-0.2,14.6,1.1,20.9,5.1c10.9,6.9,18.1,16.5,18.3,29.8c0.2,21.6,0.2,43.2,0,64.8c-0.1,13.9-7.1,24-18.9,31
			c-6.2,3.8-13.1,4.3-20.1,5c-2.6,0.3-3-1.2-3-3.4c0.1-12.2,0-24.5,0-36.7c0-27.2,0-54.5,0-81.7c0-1.1,0-2.2,0-3.3
			c-0.2,0-0.3,0-0.5,0c0,1.2,0,2.3,0,3.5c0,53.9,0,107.7,0,161.6C1051,365,1050.9,366.4,1050.9,367.9z"/>
		<path id="XMLID_375_" fill="#D3EEF9" d="M807.7,165.7c0,8.4,0.1,16.9,0.1,25.3c0,58,0,116,0,174c0,1,0.7,2.2-0.6,3
			c-1.2-1.4-1-3.1-1-4.7c0-11.8-0.1-23.6,0-35.4c0-2.5-0.5-3.5-3.2-3.3c-3.2,0.2-6.4,0.2-9.5,0c-3.9-0.3-4.5-1-4.5-4.9
			c0-38.1,0-76.2,0-114.3c0-1,0.7-2.2-0.6-3.1c-1-1.3-2.4-1.4-3.9-1.4c-7.6,0-15.2,0-22.8,0c-0.9,0-2,0.7-2.7-0.6
			c1.4-2.9,0.5-6,0.6-9c0-2.4,0.5-3.4,3.2-3.4c14.2,0.1,28.4,0,42.5,0.2c2,0,1.9-0.8,1.9-2.1c0-5.8,0-11.5,0-17.3
			C807.2,167.7,806.9,166.6,807.7,165.7z"/>
		<path id="XMLID_374_" fill="#D3EEF9" d="M201.2,472.9c-4,8.2-2.9,13.6,4.2,19.8c0.8,0.7,1,1.5,1.2,2.4c4,20.5,8,41,12,61.5
			c0.1,0.3,0,0.6,0,0.9c-5.7,0-11.4-0.3-16.8-2.2c-10.9-3.8-19.5-15.7-19.5-27.3c0-9.3,0-18.7,0-28c0-12.1,5.9-20.7,15.9-26.9
			C199,472.4,200.1,472,201.2,472.9z"/>
		<path id="XMLID_373_" fill="#D3EEF9" d="M1078.1,556.4c0-12.2,0.1-24.5,0-36.7c0-2.7,0.7-3.3,3.4-2.7c9.7,2.1,18.7,12.6,18.3,23.3
			c-0.4,11.2,0,22.4-0.1,33.6c-0.1,10.7-8.9,20.3-19.9,22.2c-2,0.3-1.6-1-1.6-2.1c0-6.6,0-13.2,0-19.7
			C1078.1,568.4,1078.1,562.4,1078.1,556.4z"/>
		<path id="XMLID_372_" fill="#D3EEF8" d="M218.6,558c1.2,5.8,3.2,11.5,2.4,17.7c-0.9,6.5,1.8,11.8,7.2,15.6c1.2,0.8,1.6,1.7,1.4,3
			c-0.2,1.2-0.3,2.4-0.4,3.7c-0.4,4.6-0.4,4.6-5,4.4c1.1-1.2,2.8,0.1,4-1c-5.5-0.2-7.8-2.5-9.6-9.3c-0.8-3.3-1.4-6.6-1.3-10
			c0.1-6.2,0.1-12.5,0-18.7C217.3,561.5,217.3,559.6,218.6,558z"/>
		<path id="XMLID_371_" fill="#D3EEF9" d="M1077.4,625.4c-1.2-0.9-0.5-2.1-0.5-3.1c-0.1-42-0.1-83.9-0.1-125.9
			c0.8,0.6,0.6,1.5,0.6,2.3C1077.5,540.9,1077.4,583.1,1077.4,625.4z"/>
		<path id="XMLID_370_" fill="#FEFEFE" d="M261.8,469.3c14.1-5.9,28.2-11.7,42.3-17.6c0.8-0.4,1.5-0.2,2.4-0.1
			c6.4,1.3,11.6-0.6,15.4-5.9c2-2.8,5.3-2.9,8-4.3c1.1-0.6,1.2,0.9,1.4,1.5c1,3.1,2.8,3.3,5.5,2.1c6.6-2.9,13.2-5.5,19.8-8.4
			c1.6-0.7,2.7-0.5,4.2,0.3c13.4,7.2,30.1,0.6,34.4-13.8c1.1-3.9,4.1-4,6.8-5.1c0.5,1.6,1.8,1.2,3,1.2c24.1,0,48.3,0,72.4,0
			c41.8,0,83.6,0,125.5,0c4,0,4,0,4,4c0,3.7-0.1,7.4,0,11.1c0.1,2.1-0.6,2.9-2.8,2.8c-6-0.1-11.9,0-17.9,0c-21.6,0-43.2,0-64.7,0
			c-1.2,0-2.5-0.5-3.5,0.6c-0.6,0.8-1.6,0.9-2.5,1.2c-15.5,4.4-24.7,16-24.9,32c-0.2,12.8-0.2,25.7,0,38.6
			c0.2,12.4,5.4,22.2,16.1,28.8c0.9,0.6,1.9,1.7,3,0.9c0.9-0.6,0.5-1.9,0.5-2.9c0-25.7,0-51.4,0-77.1c0-1.8-0.3-3.7,1.1-5.4
			c1.2,1.1,0.7,2.4,0.7,3.5c0,34.4,0,68.9,0,103.3c0,11.8,0,23.6,0,35.5c0,1.1-0.2,2.3,0.2,3.4c0.4,2.1,1,4.1,2.4,6.3
			c-3.7,0-7,0-10.2,0c-2.5,0-3.7,1-3.8,3.6c-0.2,8.5,0.1,10,3.7,16c-0.6,0.6-1.4,0.2-2,0.2c-26.8,0-53.6,0-80.4,0.1
			c-2.5,0-3.2-0.5-2-2.8c0.4-1.1,0.2-2.2,0.2-3.4c0-14.7,0-29.4,0-44c0-1.1-0.4-2.2,0.5-3.3c1.5,1.1,1.3,2.7,1.3,4.2
			c0.1,9.9,0.1,19.7,0.1,29.6c0,2.6,0.1,5.1,0.7,7.6c0.9,2.1,3.4,0.8,4.3,1.9c0.9,1.1,0.7,3.1,2.1,4.2c1.7,1.3,3.6,1.8,5.4,0.6
			c4.3-2.7,9-4.9,12-9.2c16.8,3,32.2-12.5,31.2-29c-0.4-6.3-0.1-12.7-0.1-19.1c0-1.9-0.2-3.7-0.6-5.5c-2.7-13.3-14-22.6-27.6-22.8
			c-4.1,0-8.2-0.1-12.3,0.4c-2.5-7.1-7.4-9.7-14.7-7.7c-2.2,0.6-3.5,2-4.2,4.1c-0.2,0.5-0.1,1.3-0.9,1.3c-0.7,0-1-0.5-1.2-1.1
			c-0.4-1.2-1-2.5-2.1-2.9c-2.8-0.9-2.5-2.7-2.2-5c1.2-9.5,2.2-19,3.3-28.5c0.5-5-1-6.8-6.2-7.4c-4.4-0.5-6.7,1.2-7.2,5.9
			c-2.2,18.5-4.2,37-6.4,55.4c-0.1,0.7,0.3,1.7-1,2.3c-0.5-4.3-0.9-8.5-1.3-12.7c-1.9-18.2-3.7-36.4-5.5-54.6
			c-0.3-2.7-1.4-3.7-4-3.3c-2.1,0.3-4.3,0.5-6.4,0.7c-2.4,0.2-3.4,1.4-3.2,3.9c2.2,21.1,4.3,42.1,6.4,63.2c0.1,0.9,1,2.5-0.6,2.8
			c-1.9,0.4-1.6-1.4-1.8-2.5c-2.5-11.6-5-23.3-7.6-34.9c-0.3-1.3-0.4-2.2,0.8-3.2c1.5-1.2,1.1-3.2-0.5-3.7c-2.1-0.7-2.2-2-2.5-3.6
			c-0.2-1.3-0.5-2.6-0.9-3.9c-0.3-1.3-1.1-2.5-2.5-2.2c-2.3,0.5-2.6-0.7-2.8-2.4c-0.1-1.2-0.4-2.4-0.8-3.6c-0.4-1.6-1.4-2.5-3.2-2.1
			c-1.6,0.4-2.1,1.5-1.8,3.1c0.2,0.9,0.4,1.8,0.6,2.7c0.4,1.9,1.5,3.9-1.7,4.5c-1,0.2-1.3,1.5-1.1,2.6c0.2,1.1,0.3,2.3,0.7,3.3
			c1,2.7,1.1,4.6-2.7,4.9c-2.1,0.2-2.1,2.2-2.2,3.9c-0.1,5.6,0.8,11.1,1.9,16.5c0.2,0.8,0.3,1.6,0.4,2.4c0.6,1.5-0.5,1.6-1.4,1.6
			c-6.7,0-13.4,0.1-20-0.1c-1.9-0.1-2.7-1.1-2.6-3c0.6-10.8,0.2-21.6,0.3-32.4c0-14.5-11.5-27.2-25.9-28.7
			c-12.4-1.3-24.8-0.4-37.3-0.5C263.8,470.3,262.4,471,261.8,469.3z"/>
		<path id="XMLID_369_" fill="#FEFEFE" d="M801.6,624.1c0.1,0.4,0.7,1,0,1.3c-0.4,0.2-1,0.2-1.5,0.2c-19.6,0-39.2,0-59.4,0
			c4.8-4.9,4.3-10.7,4.4-16.4c0-2.5-1.2-3.5-3.5-3.5c-3.3,0-6.6,0-10.1,0c0.7-1.8,1.3-3.4,1.9-5.1c1-1.2,0.5-2.6,0.5-3.9
			c0-47.4,0-94.8,0-142.2c0-1,0-2,0.5-3.1c0,1,0,2,0,2.9c0,28.4,0,56.7-0.1,85.1c0,2.9,0.7,3.8,3.7,3.8c10.3-0.2,20.6,0,30.8-0.1
			c2.9,0,3.9,0.6,3.8,3.7c-0.2,8.3-0.1,16.7-0.1,25c0,13.8,11,24.5,24.7,24.5c2.4,0,3.1-0.7,3.1-3.1c-0.1-15.9-0.1-31.9-0.1-47.8
			c0-0.7,0-1.4,0-2.7c0.8,1.6,0.5,2.7,0.5,3.7c0,24.7,0,49.3,0.1,74C801,621.7,800.6,623,801.6,624.1z"/>
		<path id="XMLID_368_" fill="#000101" d="M428.8,291.5c0-28,0-55.9,0-83.9c0-4.2,0.2-4.4,4.3-4.4c16.9,0,33.7,0,50.6,0
			c1.7,0,3.1-0.2,4.6-1.2c2.6-1.9,5.7-1.9,8.4,0c1.5,1,2.9,1.3,4.6,1.3c16.8,0,33.5,0,50.3,0c3.9,0,4.3,0.4,4.3,4.4
			c0,56,0,112.1,0,168.1c0,4-0.5,4.5-4.4,4.5c-39.5,0-79,0-118.4,0c-3.9,0-4.2-0.3-4.2-4.3C428.8,347.8,428.8,319.6,428.8,291.5z"/>
		<path id="XMLID_367_" d="M366.1,269.4c-0.1,42.4-34.6,76.7-76.8,76.5c-42.5-0.2-76.4-34.5-76.3-77.3c0.1-41.8,34.7-76,76.8-75.9
			C331.9,192.8,366.3,227.3,366.1,269.4z"/>
		<path id="XMLID_366_" fill="#D3EEF9" d="M512.2,599.4c-0.9-1.1-0.5-2.4-0.5-3.6c0-45.9,0-91.9-0.1-137.8c0-1.1,0-2.2-0.6-3.4
			c0,1,0,2,0,2.9c0,26.8,0,53.7,0,80.5c0,3.5-0.3,3.7-3.3,2.1c-9.9-5.6-16.5-13.7-17.7-25.4c-1.5-15.2-0.9-30.4-0.4-45.6
			c0.5-15.7,10.5-27.4,25.1-31.1c1-0.2,2-0.2,3-0.3c1.8-0.5,2.4,0.9,3.2,1.9c-6.4,3.5-8.9,8.9-8.9,16.2c0.2,46.6,0.1,93.2,0.1,139.8
			C512.3,596.9,512.2,598.2,512.2,599.4z"/>
		<path id="XMLID_365_" fill="#FEFEFE" d="M920.8,519.3c0,2.3,0.1,4.5,0.1,6.8c0,32.1,0,64.3,0.1,96.4c0,2.2-0.3,3.1-2.9,3.1
			c-16.7-0.1-33.5-0.1-50.2,0c-2.2,0-2.7-0.3-2.3-2.6c0.5-2.3,0.2-4.7,0.2-7.1c0-1,0-1.7,1.4-1.8c12.4-1,20.6-7.7,25.3-19
			c0.8,1.2,2,1.2,3.2,1.2c7.1,0,14.2-0.1,21.3,0c2.6,0.1,3.3-0.8,3.3-3.3c-0.1-23.9-0.1-47.8-0.1-71.8c0-0.8,0-1.6,0-2.5
			c0-0.1,0.1-0.1,0.2-0.2C920.5,518.9,920.6,519.1,920.8,519.3z"/>
		<path id="XMLID_364_" fill="#FEFEFE" d="M720.6,438.5c-9.6,0-19.1,0.1-28.7,0.1c-54.6,0-109.1,0-163.7,0c-1.4,0-2.9-0.1-4.2,0.3
			c0.6-2,2.2-1.1,3.4-1.1c22.6-0.1,45.2,0,67.8,0c41.1,0,82.2,0,123.3,0c0.8,0,1.8-0.3,2.4,0.1C722,438.3,720.7,438.3,720.6,438.5z"
			/>
		<path id="XMLID_363_" fill="#A58574" d="M639.1,630.7c156.7,0,313.4,0,470.1,0c5.6,0,7.6,2,7.6,7.6c0,4.9,0,9.9,0,14.8
			c0,4.7-2.2,6.8-6.8,6.9c-0.6,0-1.2,0-1.9,0c-313,0-626,0-938.9,0c-6.3,0-8-1.7-8-8.1c0-4.4,0-8.8,0-13.3c0-6.2,1.8-7.9,7.8-7.9
			c63.7,0,127.5,0,191.2,0C453.2,630.7,546.2,630.7,639.1,630.7z"/>
		<path id="XMLID_362_" fill="#D3EEF9" d="M261.8,469.3c1.6,1.1,3.1-0.2,4.7-0.2c10.2,0.1,20.3-0.1,30.5,0.1
			c16.2,0.3,28.2,9.6,31.8,25.4c0,0.2,0.2,0.4,0.2,0.6c0,12.1,0.5,24.2-0.3,36.3c-0.1,1.5-0.2,2.4,1.6,2.4c7.1,0,14.2,0.1,21.2,0.1
			c0.1,0,0.3-0.5,0.4-0.8c1.7,4.9,3.3,9.9,5,14.8c0.6,1.7,1.4,3.8,3.8,2.9c2.4-0.9,1.7-2.9,1-4.7c-3.7-9.3-6.5-18.8-7-28.9
			c-0.1-1-0.7-2.3,0.7-2.6c1.6-0.4,1.3,1.3,1.4,2.1c2.3,10.8,4.6,21.7,7,32.5c0.2,1.2,0.8,2-1.1,2.4c-2,0.4-1.8,2.2-1.8,3.8
			c0,13.1,0,26.3,0,39.4c0,9.4,0,18.9,0.1,28.3c-1.7-0.6-1.3-2.1-1.5-3.3c-0.5-3.8,0.7-7.5,0.7-11.3c0-17.2,0-34.3,0-51.5
			c0-1-0.3-2.1,0.3-3.1c-0.6,0.7-0.3,1.5-0.3,2.2c0,17.7,0,35.4,0,53c0,3.4-0.3,3.8-3.6,3.9c-13,0.1-25.9,0.1-38.9,0
			c-1.2,0-2.5-0.2-3.5-0.9c-4.5-7.2-10.8-10.3-19.4-10.1c-15.2,0.3-30.4,0-45.6,0.1c-2,0-3.2-0.3-2.9-2.6c0-0.2,0-0.4-0.1-0.6
			c-0.9-4.2-0.1-7.2,3.5-10.5c7.1-6.4,6.2-18.2-1.2-24.2c-1.6-1.3-2.3-2.7-2.8-4.5c-6.1-24.6-12.2-49.2-18.3-73.8
			c-0.4-1.5-0.7-2.7,1.2-3.4C239.8,478.4,250.8,473.8,261.8,469.3z"/>
		<path id="XMLID_361_" fill="#39373A" d="M324.1,404.4c-0.5-21.2,15.5-39.9,36.7-43.2c20.3-3.2,39.4,7.5,47.1,26.6
			c2.3,5.6,4.5,11.2,7,16.8c0.7,1.7,0.3,2.3-1.3,3c-23.9,9.9-47.7,19.9-71.6,29.8c-6.4,2.7-6.6,2.6-9.2-3.7
			c-3-7.5-6.9-14.7-8.4-22.7C324,408.4,324.3,406.1,324.1,404.4z"/>
		<path id="XMLID_360_" fill="#504F54" d="M1071.9,562.7c0,19.8,0,39.7,0.1,59.5c0,2.5-0.7,3.3-3.2,3.3c-26.7-0.1-53.5-0.1-80.2,0
			c-2.5,0-3.1-0.8-3.1-3.1c0.1-39.7,0.1-79.4,0-119.1c0-2.6,0.7-3.3,3.2-3.3c26.7,0.1,53.5,0.1,80.2,0c2.5,0,3.1,0.7,3.1,3.1
			C1071.9,523,1071.9,542.9,1071.9,562.7z"/>
		<path id="XMLID_359_" fill="#504F54" d="M970.9,602.2c-4.8-1.8-9.9-0.8-14.9-1c-5-0.2-10.1,0-15.1,0c-0.7,0-1.5,0.1-2.2,0
			c-1.3-0.2-2.6,1.8-3.5,0.4c-0.6-0.9-0.2-2.6-0.2-3.9c0-29.9,0-59.8,0-89.7c0-6.3,1.7-8,8.1-8c7.3,0,14.6,0,21.9,0
			c4.2,0,6.3,2.1,6.3,6.2c0,31.2,0,62.5,0,93.7C971.3,600.8,971.5,601.5,970.9,602.2z"/>
		<path id="XMLID_358_" fill="#E50003" d="M806.6,584.8c0-12,0.1-24.1-0.1-36.1c0-2.3,0.5-3.1,2.9-2.9c2.7,0.2,5.3,0.1,8,0
			c1.6-0.1,2.1,0.5,2.1,2.1c-0.1,8.8,0,17.7,0,26.5c0,1,0.2,2-1.4,2.2c-3.3,0.4-7.2,4.6-7.3,7.8c-0.1,5.1,0,10.3,0,15.4
			c0,2.1,1.1,3,3.1,3c5.4,0,10.9,0,16.3,0c2.1,0,3.1-1.2,3.1-3.4c-0.1-4.9,0-9.9,0-14.8c-0.1-3.5-3.9-7.7-7.3-8.1
			c-1.3-0.2-1.4-0.8-1.4-1.8c0-9,0-18.1,0-27.1c0-1.6,0.7-1.9,2-1.9c10.7,0,21.4,0,32.1,0c1.8,0,2.2,0.7,2.2,2.4
			c0,24.3,0,48.5,0,72.8c0,3.5-1.2,4.6-4.7,4.6c-15,0-30,0-45,0c-3.6,0-4.5-0.9-4.5-4.6C806.6,608.9,806.6,596.9,806.6,584.8z"/>
		<path id="XMLID_357_" fill="#515054" d="M622.8,605.7c-32.2,0-64.4,0-96.6,0c-6.3,0-9-2.7-9-9c0-47.3,0-94.6,0-141.9
			c0-7.1,3.8-10.9,10.8-10.9c63.2,0,126.5,0,189.7,0c7,0,10.6,3.6,10.6,10.7c0,47.5,0,95,0,142.5c0,6-2.7,8.6-8.6,8.6
			C687.4,605.7,655.1,605.7,622.8,605.7z"/>
		<path id="XMLID_356_" fill="#AEAFB3" d="M623,610.7c37.9,0,75.9,0,113.8-0.1c2.7,0,3.5,0.7,3.3,3.4c-0.3,7.1-4.6,11.6-11.6,11.6
			c-70.4,0-140.8,0-211.3,0c-7.6,0-12.6-5.9-11.7-13.4c0.1-1,0.4-1.5,1.5-1.5c0.6,0,1.2,0,1.9,0C546.9,610.7,584.9,610.7,623,610.7z
			"/>
		<path id="XMLID_355_" fill="#F28E00" d="M414.8,590.2c0,10,0,19.9,0,29.9c0,4.3-1.2,5.5-5.5,5.5c-12.6,0-25.3,0-37.9,0
			c-4.1,0-5.4-1.2-5.4-5.3c0-20.3,0-40.5-0.1-60.8c0-2.4,0.7-2.8,2.9-2.8c14.3,0.1,28.6,0.1,42.9,0c2.7,0,3.2,0.8,3.1,3.3
			C414.7,570,414.8,580.1,414.8,590.2z"/>
		<path id="XMLID_354_" fill="#D3EEF9" d="M437.1,535.2c0.6-0.4,0.8-1.2,1.7-1.2c10.6-0.3,21.3-0.6,29.9,7.3
			c5.8,5.3,9.3,12,9.6,19.9c0.3,8.1,0.1,16.2,0.1,24.4c-0.1,11.6-10,23.2-22,26.1c-2.5,0.6-5.1,0.5-7.6,0.6c-1.1,0-1.7-0.5-2.3-1.2
			c2.1-3.9,2.2-7.9,1.5-12.2c-3.7-20.7-7.2-41.5-10.7-62.2C437,536.3,437.1,535.8,437.1,535.2z"/>
		<path id="XMLID_353_" fill="#39373A" d="M261.8,625.4c-15.4,0-30.8-0.1-46.3,0.1c-2.5,0-3.1-0.7-3.1-3.1c0.1-8.8,6-14.9,14.9-14.9
			c23.1,0,46.3,0,69.4,0c9.1,0,15.3,7.1,14.4,16.1c-0.2,1.9-1.2,1.8-2.5,1.8c-7,0-14,0-21,0C279.1,625.4,270.4,625.4,261.8,625.4z"
			/>
		<path id="XMLID_352_" fill="#39373A" d="M980.6,573.6c0,16.2-0.1,32.5,0.1,48.7c0,2.5-0.8,3.1-3.1,3.1c-16-0.1-32.1-0.1-48.1,0
			c-2.3,0-3.2-0.5-3.2-3c0.1-32.6,0.1-65.2,0.1-97.8c0-1.4-0.4-3,2-2.9c2.4,0,1.8,1.7,1.8,3c0,29.9,0,59.8,0,89.8
			c0,4.9,0.3,5.3,5.2,5.3c12,0,24.1,0,36.1,0c4.7,0,4.9-0.2,4.9-4.8c0-30,0-60.1,0-90.1c0-1.1-0.8-2.8,1.3-3.2c2.3-0.4,3,0.6,3,2.9
			C980.5,540.9,980.6,557.3,980.6,573.6z"/>
		<path id="XMLID_351_" fill="#D3EEF9" d="M223.5,490.9c5.8,23.4,11.5,46.4,17.3,69.6c-5.8-0.5-10.9,0.7-15.3,5.1
			c-1.9-9.7-3.8-19-5.6-28.3c-2.6-13.2-5.1-26.4-7.7-39.6c-0.4-1.8-0.6-2.7,1.9-2.7C217.6,495.2,220.6,493.4,223.5,490.9z"/>
		<path id="XMLID_350_" fill="#45A9E1" d="M432.3,615.8c-1.8-15.6-3.5-30.7-5.1-45.8c-1.3-11.7-2.6-23.5-4-35.2
			c-0.2-1.9,0.2-2.5,2.1-2.7c4.4-0.3,6.1,0.8,6.8,5.1c3.6,21.1,7.3,42.3,10.9,63.4c0.9,4.9-0.5,8.7-4.9,11.3
			C436.3,613.1,434.6,614.3,432.3,615.8z"/>
		<path id="XMLID_349_" fill="#FEFEFE" d="M222.8,469.9c-2.7-1.5,0.1-1.6,0.6-1.8c6.8-2.9,13.6-5.6,20.4-8.4
			c17.1-7,34.3-14.1,51.7-21.2c0.5,3.6,1.8,6.8,4.3,9.6c-18.6,7.6-36.8,15-55.1,22.5c-0.6-1.3-1.6-0.5-2.4-0.5
			C235.8,470.1,229.3,470.5,222.8,469.9z"/>
		<path id="XMLID_348_" fill="#FEFEFE" d="M314.2,612.4c13.8,0,27.6,0,41.5,0c4.2,0,4.2,0,4.2-4.1c0-17.2,0-34.3,0-51.5c0-1,0-2,0-3
			c0.2,0,0.4,0,0.5,0c0,1.1,0,2.1,0,3.2c0,21,0,41.9,0,62.9c0,1.2-0.4,2.5,0.5,3.5c0.4,1.1,1.1,2.2-1.1,2.2
			c-13.9-0.1-27.9-0.1-41.8,0c-1.7,0-2.1-0.6-2-2.1C316.4,619.7,315.7,616,314.2,612.4z"/>
		<path id="XMLID_347_" fill="#D4EEF9" d="M865.7,584.1c0-5.2,0.1-10.5,0-15.7c0-1.6,0.4-2.3,2.1-1.8c0.8,0.2,1.6,0.3,2.4,0.5
			c8,2.4,11.8,9.1,11.4,19.5c-0.3,7.4-5.7,13.7-13,15.2c-1.9,0.4-3,0.3-2.9-2.2C865.9,594.4,865.7,589.3,865.7,584.1
			C865.7,584.1,865.7,584.1,865.7,584.1z"/>
		<path id="XMLID_346_" fill="#ADAEB2" d="M225.9,577.2c0-6.5,5.3-11.7,11.8-11.7c6.5,0,11.9,5.4,11.8,12
			c-0.1,6.4-5.4,11.7-11.8,11.8C231.2,589.3,225.8,583.8,225.9,577.2z"/>
		<path id="XMLID_345_" fill="#383639" d="M953.2,614.8c-5.1,0-10.3-0.1-15.4,0c-2.5,0.1-3-1.1-2.8-3.2c0.4-3.3,2.6-5.4,6-5.4
			c8.1,0,16.2,0,24.3,0c2.7,0,4.5,1.1,5.6,3.5c1.6,3.5,0.5,5.1-3.3,5.1C962.8,614.8,958,614.8,953.2,614.8z"/>
		<path id="XMLID_344_" fill="#ADAEB2" d="M319.1,437.9c0,5.1-4.2,9.2-9.3,9.2c-5,0-9.2-4.2-9.2-9.2c0-5.2,4.3-9.4,9.5-9.3
			C315.1,428.6,319.2,432.8,319.1,437.9z"/>
		<path id="XMLID_343_" fill="#ADAEB2" d="M213.1,490.1c-5-0.1-9.2-4.3-9.2-9.3c0-5,4.2-9.2,9.2-9.2c5.2,0,9.4,4.3,9.3,9.5
			C222.4,486.1,218.2,490.2,213.1,490.1z"/>
		<path id="XMLID_342_" fill="#D6EFF6" d="M422.7,613.6c-1.7-1.5-1.8-3.5-1.8-5.7c0.1-10.7,0-21.3,0-32c0-1,0-2,0-3
			c-0.2,0-0.4,0-0.6,0c0,1,0,2,0,3c0,14.6,0,29.1-0.1,43.7c0,1.1,0.4,2.3-0.5,3.2c0-22.4-0.1-44.7-0.1-67.1c0-1.1,0.1-2.2-0.5-3.2
			c0.1-0.3,0.2-0.7,0.6-0.8c1.5,7.9,1.9,15.9,2.9,23.8c1.3,10.6,2.4,21.2,3.6,31.9c0.2,1.4,0.6,2.8-1.7,2.9
			C422.8,610.5,422.6,612,422.7,613.6z"/>
		<path id="XMLID_341_" fill="#FCEB03" d="M815.8,590.7c0.4-2.2-0.9-5.1,1.2-7.5c1.1-1.2,6.5-2.5,8.5-1.4c1.7,0.9,2.8,2.6,2.8,4.8
			c-0.1,3.1-0.1,6.2,0,9.2c0.1,1.8-0.6,2.2-2.3,2.2c-2.6-0.1-5.1-0.2-7.7,0c-1.9,0.1-2.8-0.4-2.6-2.5
			C815.9,594,815.8,592.5,815.8,590.7z"/>
		<path id="XMLID_340_" fill="#1A932B" d="M388.7,549.4c0.3,1.7,0,2.4-1.3,2.4c-1.3,0-2.1-0.4-2.2-1.9c-0.3-3.7-0.8-7.3-1.1-11
			c-1.2-12-2.5-24-3.6-36c-0.1-1.4-1.8-4.2,1.2-4.5c3-0.3,2.1,2.6,2.3,4.3c1.5,13.5,2.8,27.1,4.2,40.6
			C388.3,545.5,388.1,547.8,388.7,549.4z"/>
		<path id="XMLID_339_" fill="#F40205" d="M888.7,584.4c0,13.1-8,22.8-20.3,24.5c-0.9,0.1-2.2,0.9-2.5-0.7c-0.3-1.7,1.2-1.2,2.1-1.3
			c10.7-1.3,18.5-10.2,18.7-21c0.2-7.1-1.1-13.5-6.4-18.6c-3.4-3.2-7.4-5.1-12-5.9c-0.9-0.1-2.8,0.6-2.4-1.3
			c0.3-1.4,1.9-0.7,2.9-0.6c10.9,1.5,19.3,10.8,19.9,21.9C888.7,582.4,888.7,583.4,888.7,584.4z"/>
		<path id="XMLID_338_" fill="#ED510B" d="M361.5,514.6c-0.3-1.2,0.8-1.2,1.6-1.5c1.5-0.5,1.7,0.5,1.9,1.6
			c1.5,7.2,3.1,14.5,4.6,21.7c0.9,4.1,1.8,8.2,2.6,12.4c0.2,0.9,1.7,2.4-0.5,2.9c-1.8,0.4-2.4-0.5-2.8-2.3c-1.9-9.4-4-18.7-6-28
			C362.5,519.3,362,517.1,361.5,514.6z"/>
		<path id="XMLID_337_" fill="#F7B22D" d="M407.5,515.9c-1.3,11.3-2.6,22.6-3.8,33.9c-0.2,1.6-0.8,2-2.3,2c-1.8,0-1.3-1.2-1.2-2.1
			c1.3-11.4,2.6-22.8,3.9-34.2c0.1-1-0.4-2.5,1.8-2.4C408.1,513.3,407.6,514.6,407.5,515.9z"/>
		<path id="XMLID_336_" fill="#FAF3AA" d="M364.9,433.2c8.3-3.5,16.3-6.8,24.4-10.2C387.7,431.9,374.5,437.6,364.9,433.2z"/>
		<path id="XMLID_335_" fill="#D5EEF8" d="M222.8,469.9c1.4-0.9,3-0.7,4.5-0.7c5.2,0,10.4,0,15.6,0c1.1,0,1.6,0.3,1.8,1.4
			c-5.4,2.3-10.7,4.5-16.1,6.9c-1.1,0.5-1.4,0.2-1.7-0.8C226.2,474,224.5,471.9,222.8,469.9z"/>
		<path id="XMLID_334_" fill="#69686D" d="M237.8,602.6c-1.6-0.5-4.3,0.9-3.7-2.3c0.4-2.1-1.2-5.6,2-6c4.6-0.7,5.1,0.5,5.3,6.1
			C241.5,604,238.8,601.7,237.8,602.6z"/>
		<path id="XMLID_333_" fill="#69686D" d="M328.2,435.8c-0.1,1.6-1.7,1.4-2.7,1.8c-1.2,0.6-1.3-0.4-1.4-1.3
			c-0.3-3.2-1.5-5.9-3.7-8.3c-0.4-0.5-1.8-1.1-0.5-1.8c1.1-0.5,2.9-2.3,3.7-0.8C325.6,428.7,326.7,432.3,328.2,435.8z"/>
		<path id="XMLID_332_" fill="#4BB7EE" d="M411.3,533.5c0,5.6,0,11.2,0,16.8c0,1.1-0.5,1.4-1.5,1.4c-1,0-1.2-0.5-1.1-1.4
			c0.7-5.6,1.3-11.3,1.9-16.9C410.8,533.5,411,533.5,411.3,533.5z"/>
		<path id="XMLID_331_" fill="#97BE06" d="M382.7,490.5c0.2,1.5,0.5,2.9-1.4,2.8c-3.2-0.2-1.7-2.8-2.1-4.3c-0.3-1.1-0.6-2.6,1.5-2.5
			C383.9,486.6,381.9,489.4,382.7,490.5z"/>
		<path id="XMLID_330_" fill="#F7F7F7" d="M409.7,495.7c-0.5,0.8,0.9,3.1-1.9,3.2c-1.8,0-2.1-0.9-1.7-2.3c0.4-1.3-0.8-3.5,2.1-3.4
			C409.9,493.2,410.2,494,409.7,495.7z"/>
		<path id="XMLID_329_" fill="#DD4D0C" d="M363.5,506.8c-0.2,1.8-1.8,1.8-2.5,1.6c-1.9-0.4-1.2-2.5-1.6-3.8c-0.4-1.5,1.2-1.5,2-1.5
			C364,503.4,362.4,505.9,363.5,506.8z"/>
		<path id="XMLID_328_" fill="#C1C2C6" d="M408.3,506.5c-0.1,0.2,0.8,2-1.4,1.7c-1.2-0.1-2.4-0.2-1.9-1.8c0.3-1-0.6-2.9,1.9-2.6
			C408.3,503.9,409.1,504.2,408.3,506.5z"/>
		<path id="XMLID_327_" fill="#D1D2D5" d="M416.4,541.1c0-0.6,0-1.2,0-1.8c0-0.7,0.2-1.1,1-1.2c0.7,0,1.1,0.2,1.2,1
			c0.1,1.1,0.4,2.2,0.4,3.3c0,0.8,1,2.1-0.9,2.3c-1.7,0.2-1.7-0.9-1.6-2.1C416.4,542.1,416.4,541.6,416.4,541.1z"/>
		<path id="XMLID_326_" fill="#F3FEFE" d="M419.8,551.7c-0.2,0.3-0.4,0.5-0.6,0.8c-0.2-0.2-0.5-0.4-0.7-0.5
			c-0.7-0.5-2.3,0.1-2.1-1.5c0.1-0.9,1.1-0.7,1.7-0.7C419.7,549.6,420.1,550.4,419.8,551.7z"/>
		<path id="XMLID_325_" fill="#A68574" d="M833.5,373.1c80.6,0,161.2,0,241.8,0c4.6,0,4.6,0,4.5,4.7c-0.1,9.1,1.3,8-8,8
			c-160.1,0-320.1,0-480.2,0c-4.7,0-4.7,0-4.7-4.5c0.1-9.4-1.5-8.2,8.1-8.2C674.5,373.1,754,373.1,833.5,373.1z"/>
		<path id="XMLID_324_" fill="#45A9E1" d="M888.5,268.7c0,32.1,0,64.1,0.1,96.2c0,2.5-0.5,3.3-3.2,3.3c-9.9-0.2-19.7-0.1-29.6,0
			c-2,0-2.8-0.4-2.8-2.6c0.1-64.8,0.1-129.5,0-194.3c0-2.3,0.8-2.6,2.8-2.6c10,0.1,19.9,0.1,29.9,0c2.4,0,2.8,0.8,2.8,3
			C888.5,204,888.5,236.4,888.5,268.7z"/>
		<path id="XMLID_323_" fill="#C3C4C8" d="M848,268.4c0,32.2,0,64.4,0.1,96.5c0,2.8-0.8,3.3-3.4,3.3c-9.7-0.2-19.3-0.1-29,0
			c-2.1,0-3-0.3-3-2.8c0.1-64.7,0.1-129.3,0-194c0-2.4,0.7-2.8,2.9-2.8c9.9,0.1,19.7,0.2,29.6,0c2.4,0,2.8,0.8,2.8,2.9
			C848,203.8,848,236.1,848,268.4z"/>
		<path id="XMLID_322_" fill="#504F54" d="M1045.4,284.4c0,26.6-0.1,53.3,0.1,79.9c0,3.2-0.9,3.9-4,3.8c-6.3-0.2-12.5-0.1-18.8,0
			c-2,0-2.6-0.6-2.6-2.6c0-36.8,0-73.6,0-110.4c0-1.3,0-2.2,1.8-2.5c7.1-1.5,10.6-5.3,11.6-12.6c1.4-10.3,2.6-20.5,3.9-30.8
			c0.4-3.3,1.8-5.8,5-7.2c2.2-1,3.1-0.7,3.1,2c-0.1,9.7,0,19.3,0,29C1045.4,250.1,1045.4,267.3,1045.4,284.4z"/>
		<path id="XMLID_321_" fill="#504F54" d="M1015.2,310.4c0,18.2,0,36.4,0,54.6c0,2.3-0.5,3.2-3,3.2c-19-0.1-38-0.1-57.1,0
			c-2.1,0-2.9-0.5-2.8-2.7c0.1-36.6,0-73.2,0.1-109.8c0-1.1-0.5-2.8,1.4-2.8c2.3,0,1.4,1.9,1.4,3c0.1,12.9,0,25.7,0,38.6
			c0,7.5,3.9,11.5,11.3,11.5c11.6,0,23.2,0,34.9,0c6.9,0,11.2-4.2,11.2-11.1c0-13.1,0-26.1,0-39.2c0-1-0.7-2.8,1.4-2.7
			c1.8,0.1,1.1,1.7,1.1,2.7C1015.2,273.8,1015.2,292.1,1015.2,310.4z"/>
		<path id="XMLID_320_" fill="#F7AE2C" d="M980.7,234.8c0,21.1,0,42.2,0.1,63.2c0,2.3-0.5,3-2.9,2.9c-3.8-0.2-7.6,0-11.4-0.1
			c-4.2,0-6.3-2.1-6.3-6.2c0-14,0-28,0-41.9c0-2.4,0.4-4.9-3.3-5c-1.2,0-0.8-1.3-0.8-2c0-4,0-8,0-12c0-20.6,0.1-41.1-0.1-61.7
			c0-2.8,0.7-3.4,3.4-3.3c6,0.2,11.9,0.3,17.9,0c3-0.1,3.4,1,3.4,3.6C980.7,193.1,980.7,213.9,980.7,234.8z"/>
		<path id="XMLID_319_" fill="#50AB25" d="M758.9,308.5c0-18.8,0.1-37.6-0.1-56.4c0-2.6,0.7-3.3,3.3-3.2c6.3,0.2,12.5,0.1,18.8,0
			c1.9,0,2.7,0.3,2.7,2.5c-0.1,38.1-0.1,76.3,0,114.4c0,1.9-0.6,2.4-2.5,2.4c-6.5-0.1-13-0.1-19.4,0c-2.4,0.1-2.9-0.7-2.9-2.9
			C758.9,346.3,758.9,327.4,758.9,308.5z"/>
		<path id="XMLID_318_" fill="#FEFEFE" d="M893.6,323c2.8,0.8,5.7,0.6,8.6,0.6c13.2,0,26.3,0,39.5,0c4.9,0,5-0.1,5-5
			c0-22.1,0-44.2,0-66.3c0-0.9,0.1-1.8,0.1-2.7c0,0,0.2-0.1,0.2-0.1c0.1,0,0.2,0.1,0.3,0.1c0,26.4,0.1,52.8,0.1,79.3
			c0,12.2,0,24.5,0.1,36.7c0,2-0.6,2.5-2.5,2.5c-16.3-0.1-32.7-0.1-49,0c-1.4,0-2.5,0.1-2.4-2C893.6,351.8,893.6,337.4,893.6,323z"
			/>
		<path id="XMLID_317_" fill="#EDEEF0" d="M651.8,296.2c0,23,0,46.1,0.1,69.1c0,2.5-0.7,3-3.1,2.9c-5.5-0.2-11.1-0.1-16.6,0
			c-1.9,0-2.6-0.3-2.6-2.4c0.1-46.7,0.1-93.3,0-140c0-2.1,0.6-2.6,2.6-2.5c5.5,0.1,11.1,0.2,16.6,0c2.7-0.1,3.1,0.9,3.1,3.3
			C651.7,249.7,651.8,272.9,651.8,296.2z"/>
		<path id="XMLID_316_" fill="#B27A43" d="M656.8,274c0-30.3,0-60.6-0.1-90.9c0-2.6,0.7-3.3,3.2-3.2c6.7,0.2,6.7,0,6.7,6.8
			c0,59.3,0,118.6,0.1,177.9c0,3-0.7,3.8-3.7,3.7c-6.2-0.2-6.2-0.1-6.2-6.3C656.8,332.6,656.8,303.3,656.8,274z"/>
		<path id="XMLID_315_" fill="#346EB6" d="M1012.7,211.7c0-11.1,0-22.2,0-33.3c0-2.1,0.4-2.9,2.7-2.8c7.3,0.1,14.6,0.1,21.9,0
			c2,0,2.7,0.5,2.6,2.6c-0.1,5.8-0.1,11.5,0,17.3c0,1.4-0.3,2.2-1.5,3.1c-3.8,2.6-5.5,6.3-6,10.9c-1.1,9.9-2.5,19.8-3.8,29.6
			c-0.9,6.3-3.8,8.7-10.1,8.7c-5.7,0-5.7,0-5.7-5.8C1012.7,231.8,1012.7,221.7,1012.7,211.7z"/>
		<path id="XMLID_314_" fill="#A0DFFB" d="M609.1,300.5c0-21.4,0-42.7-0.1-64.1c0-2.4,0.6-3.1,3-3c3.6,0.2,7.2,0.1,10.8,0
			c1.3,0,1.9,0.4,1.7,1.7c-0.1,0.6,0,1.2,0,1.8c0,42.6,0,85.3,0.1,127.9c0,2.7-0.6,3.6-3.3,3.3c-3.2-0.3-6.4-0.2-9.5,0
			c-2.2,0.1-2.7-0.5-2.7-2.7c0.1-14.7,0.1-29.4,0.1-44.1C609.1,314.4,609.1,307.4,609.1,300.5z"/>
		<path id="XMLID_313_" fill="#ECEDEE" d="M701.2,278c0,29.1,0,58.2,0.1,87.2c0,2.4-0.6,3-3,3c-2.5,0-3.3-0.5-3.3-3.2
			c0.1-58.3,0.1-116.5,0.1-174.8c0-1-0.6-2.6,0.4-2.8c1.6-0.4,3.5-0.4,5.2-0.1c1,0.1,0.5,1.4,0.5,2.2c0,5.4,0,10.9,0,16.3
			C701.2,229.9,701.2,253.9,701.2,278z"/>
		<path id="XMLID_312_" fill="#F99405" d="M731.4,280.9c0,28,0,55.9,0.1,83.9c0,2.5-0.4,3.6-3.3,3.4c-6.5-0.3-12.9-0.2-19.4,0
			c-2.1,0-2.6-0.6-2.6-2.6c0.1-13.2,0-26.3,0-39.5c0-43,0-85.9-0.1-128.9c0-2.9,0.5-3.9,3.6-3.8c6.3,0.3,12.5,0.2,18.8,0
			c2.4-0.1,2.9,0.7,2.9,2.9C731.4,224.6,731.4,252.8,731.4,280.9z"/>
		<path id="XMLID_311_" fill="#22A497" d="M690.1,269.4c0,10.8-0.1,21.6,0,32.4c0,2.1-0.5,2.9-2.7,2.8c-4.5-0.2-9-0.1-13.6,0
			c-1.8,0-2.3-0.5-2.3-2.3c0-22.2,0.1-44.4,0-66.6c0-2,0.8-2.4,2.6-2.3c4.4,0.1,8.8,0.1,13.2,0c2.1-0.1,2.8,0.5,2.8,2.7
			C690,247.2,690.1,258.3,690.1,269.4z"/>
		<path id="XMLID_310_" fill="#FEFEFE" d="M788.4,202.2c1.6,0.9,0.8,2.4,0.8,3.6c0,37.7,0,75.5,0,113.2c0,4.1,0.3,4.5,4.5,4.6
			c3.5,0.1,7,0.3,10.5-0.1c2.8-0.3,3,0.8,3,3.1c-0.1,13.8,0,27.6,0,41.3c-5.6,0-11.3,0-16.9,0.2c-2.4,0.1-1.7-1.5-1.7-2.7
			c0-14.1,0-28.2,0-42.2c0-39.6,0-79.1,0-118.7C788.6,203.8,788.5,203,788.4,202.2z"/>
		<path id="XMLID_309_" fill="#E84E0B" d="M671.6,338.8c0-8.8,0.1-17.7-0.1-26.5c0-2.4,0.7-3,2.9-2.9c4.4,0.2,8.8,0.1,13.2,0
			c1.6,0,2.4,0.2,2.4,2.1c-0.1,18.2-0.1,36.3,0,54.5c0,1.6-0.5,2.1-2.1,2.1c-4.6-0.1-9.2-0.1-13.9,0c-2.1,0.1-2.6-0.7-2.6-2.6
			C671.6,356.6,671.6,347.7,671.6,338.8z"/>
		<path id="XMLID_308_" fill="#45A9E1" d="M753.8,209.2c0,6.4-0.1,12.7,0,19.1c0,1.7-0.4,2.3-2.2,2.3c-4.3-0.1-8.6-0.1-12.9,0
			c-1.5,0-2.3-0.2-2.2-2c0.1-13.2,0.1-26.3,0-39.5c0-1.8,0.8-2,2.2-1.9c4.3,0.1,8.6,0.1,12.9,0c1.8-0.1,2.2,0.6,2.2,2.3
			C753.7,196,753.8,202.6,753.8,209.2z"/>
		<path id="XMLID_307_" fill="#F7F7F8" d="M736.5,281.1c0-14.3,0-28.6-0.1-42.8c0-2.1,0.5-2.8,2.7-2.8c4.2,0.2,8.4,0.1,12.6,0
			c1.6,0,2.1,0.5,2.1,2.1c0,28.9,0,57.7,0,86.6c0,1.6-0.4,2.1-2,2.1c-4.2-0.1-8.4-0.2-12.6,0c-2.2,0.1-2.7-0.6-2.7-2.7
			C736.5,309.4,736.5,295.2,736.5,281.1z"/>
		<path id="XMLID_306_" fill="#F3B02D" d="M985.7,234.5c0-20.9,0-41.7-0.1-62.6c0-2.6,0.6-3.3,3.2-3.2c8.5,0.2,17.1,0,25.6,0.1
			c1,0,2.7-0.7,2.8,0.8c0,2-1.9,1-2.9,1c-6.4,0.1-12.7,0.1-19.1,0.1c-4.5,0-4.8,0.3-4.8,4.7c0,40.8,0,81.6,0,122.4
			c0,1.3,0.9,3.1-1.9,3.2c-2.4,0.1-2.9-0.7-2.9-3C985.8,276.8,985.7,255.6,985.7,234.5z"/>
		<path id="XMLID_305_" fill="#45A9E0" d="M753.8,349.9c0,5.2-0.1,10.5,0,15.7c0,1.9-0.3,2.7-2.5,2.6c-4.3-0.2-8.6-0.1-12.9,0
			c-1.5,0-2-0.4-2-1.9c0-11,0-22,0-33c0-1.4,0.3-2.1,1.9-2c4.5,0.1,9,0.1,13.6,0c1.8,0,2,0.8,1.9,2.3
			C753.7,339,753.8,344.4,753.8,349.9z"/>
		<path id="XMLID_304_" fill="#F7AF2C" d="M771.1,222.2c3.5,0,7,0,10.5,0c1.4,0,2,0.4,2,1.9c-0.1,6-0.1,11.9,0,17.9
			c0,1.4-0.3,2-1.9,2c-7-0.1-14-0.1-20.9,0c-1.5,0-2-0.4-2-1.9c0.1-6,0.1-11.9,0-17.9c0-1.7,0.6-2.1,2.1-2
			C764.3,222.3,767.7,222.2,771.1,222.2z"/>
		<path id="XMLID_303_" fill="#50AF25" d="M995.4,237.8c0-19.8,0-39.7,0-59.5c0-1.2-0.6-2.8,1.7-2.8c1.2,0,2,0.3,1.9,1.7
			c0,0.4,0,0.8,0,1.2c0,39.8,0,79.5,0,119.3c0,1,0.7,2.5-0.8,2.9c-2.1,0.6-2.8-0.3-2.8-2.5c0.1-18.7,0-37.4,0-56.1
			C995.4,240.7,995.4,239.3,995.4,237.8z"/>
		<path id="XMLID_302_" fill="#356EB8" d="M1004.1,300.5c0-1.5,0-2.4,0-3.3c0-39.5,0-78.9,0-118.4c0-0.6,0-1.2,0-1.8
			c0-1.1,0.6-1.4,1.6-1.3c0.9,0,2-0.2,2,1.2c0,0.7,0,1.4,0,2.2c0,38.2-0.1,76.4-0.1,114.7C1007.6,296.4,1007.1,298.7,1004.1,300.5z"
			/>
		<path id="XMLID_301_" fill="#E84E0B" d="M690.1,217.2c0,3.1-0.1,6.2,0,9.2c0,1.4-0.4,2-1.9,2c-4.8-0.1-9.7-0.1-14.5,0
			c-1.7,0-2.1-0.6-2.1-2.2c0.1-6.2,0.1-12.3,0-18.5c0-1.5,0.5-2,2-2c4.8,0.1,9.7,0.1,14.5,0c1.7,0,2.1,0.6,2.1,2.1
			C690,211,690.1,214.1,690.1,217.2z"/>
		<path id="XMLID_300_" fill="#50AD25" d="M771.4,205.8c3.4,0,6.8,0.1,10.2,0c1.5,0,2.1,0.5,2,2c0,0.1,0,0.2,0,0.3
			c0.5,9,0.5,9-8.4,9c-4.7,0-9.4-0.1-14.2,0c-1.6,0-2.1-0.5-2.2-2.1c-0.4-9.2-0.5-9.2,8.6-9.2C768.8,205.8,770.1,205.8,771.4,205.8z
			"/>
		<path id="XMLID_299_" fill="#98BF01" d="M640.3,218.2c-3,0-5.9,0-8.9,0c-1.2,0-1.9-0.3-1.9-1.7c0.1-1.9,0.1-3.9,0-5.8
			c0-1.3,0.6-1.6,1.7-1.6c6.3,0,12.7,0,19,0.1c0.2,0,0.5-0.1,0.6,0c2.1,2.3,0.4,5,0.9,7.4c0.3,1.5-0.8,1.6-1.9,1.6
			C646.7,218.2,643.5,218.2,640.3,218.2z"/>
		<path id="XMLID_298_" fill="#EEEFF1" d="M640.9,204.1c-3.1,0-6.2,0-9.2,0c-1.4,0-2.2-0.1-2.2-1.9c0-4.4-0.1-4.4,4.3-4.4
			c5.3,0,10.7,0.1,16-0.1c2.8-0.1,2,1.8,1.9,3c-0.1,1.3,1.2,3.5-1.9,3.4C646.9,204,643.9,204.1,640.9,204.1z"/>
		<path id="XMLID_297_" fill="#FEFEFE" d="M433.8,291.5c0-26.8,0-53.7-0.1-80.5c0-2.2,0.4-2.9,2.8-2.9c15.1,0.1,30.2,0.1,45.3,0.1
			c1.6,0,2.7-0.1,3.1,2.2c0.7,3.8,3.9,5.9,7.6,5.9c3.6-0.1,6.5-2.2,7.3-5.9c0.4-1.8,1.1-2.2,2.9-2.2c15.1,0.1,30.2,0.1,45.3,0
			c2.3,0,2.6,0.7,2.6,2.8c-0.1,53.8-0.1,107.5,0,161.3c0,2.5-0.8,3-3.1,3c-37-0.1-74-0.1-111,0c-2.3,0-2.9-0.5-2.9-2.9
			C433.9,345.4,433.8,318.5,433.8,291.5z"/>
		<path id="XMLID_296_" fill="#C6021E" d="M495.2,208.5c-0.3,1.7-1.2,2.7-2.8,2.6c-1.6-0.1-2.6-1.3-2.6-2.8c0-1.6,1.2-2.6,2.8-2.6
			C494.2,205.8,495.1,206.9,495.2,208.5z"/>
		<path id="XMLID_295_" fill="#D8D9DB" d="M289.5,340.9c-39.6-0.1-71.6-32.3-71.5-72c0.1-39.1,32.5-71.3,71.7-71.1
			c39.3,0.1,71.3,32.2,71.4,71.5C361.2,308.6,328.8,341,289.5,340.9z"/>
		<path id="XMLID_294_" fill="#010102" d="M1028.1,511.8c10.9,0,21.8,0,32.7,0c3.6,0,4.3,0.7,4.3,4.3c0,8,0,16,0,24
			c0,3.3-0.9,4.3-4.2,4.3c-21.7,0-43.3,0-65,0c-3.7,0-4.2-0.6-4.2-4.3c0-8,0-16,0-24c0-4.2,0.1-4.3,4.4-4.3
			C1006.7,511.8,1017.4,511.8,1028.1,511.8z"/>
		<path id="XMLID_293_" fill="#010101" d="M1039.5,568.5c8.5-0.1,7.8-0.5,7.8,7.8c0,8.8,0.9,8.1-8.1,8.1c-8,0-8,0.3-8-7.9
			C1031.3,567.2,1031.4,568.6,1039.5,568.5z"/>
		<path id="XMLID_292_" fill="#010101" d="M1000.1,568.5c8.3-0.1,7.7-0.4,7.7,7.6c-0.1,8.4,1.4,8.4-8.2,8.3c-7.8,0-7.7,0-7.8-7.7
			C991.7,567.4,991.7,568.6,1000.1,568.5z"/>
		<path id="XMLID_291_" fill="#010101" d="M1047.3,593.7c-0.1,8,1.5,8.1-8.2,8.1c-7.8-0.1-7.8,0-7.8-7.7c-0.1-9.6,0-8.2,8.3-8.3
			C1048,585.8,1047.3,585.2,1047.3,593.7z"/>
		<path id="XMLID_290_" fill="#010101" d="M1007.8,593.9c-0.1,7.6,1.3,7.9-7.8,7.9c-8.6,0-8.2,0.2-8.2-8.2c0-8.9,0.3-7.7,7.6-7.7
			c0.1,0,0.2,0,0.3,0C1008.6,585.8,1007.8,585.1,1007.8,593.9z"/>
		<path id="XMLID_289_" fill="#010101" d="M1049,576.5c0-8.5-0.8-8,8-7.9c7.8,0,8.1-1.2,8.1,7.9c0,8.3,0.1,8-8.1,8
			C1047.6,584.5,1049.1,584.4,1049,576.5z"/>
		<path id="XMLID_288_" d="M1022.1,568.5c8.6-0.1,7.8-0.5,7.8,7.8c0,8.6,0.7,8.2-8.2,8.2c-8.3,0-7.9,0.3-7.9-7.9
			C1013.9,567.8,1013.3,568.5,1022.1,568.5z"/>
		<path id="XMLID_287_" d="M1049,593.8c0-8.6-0.8-8,7.9-8c8,0,8.2-1.3,8.1,8.2c-0.1,7.8,0,7.8-7.7,7.8c-0.1,0-0.2,0-0.3,0
			C1047.6,601.9,1049.1,601.6,1049,593.8z"/>
		<path id="XMLID_286_" d="M1013.9,593.8c0-8.7-0.6-7.9,8-7.9c8.8,0,8-0.6,8,7.9c0,8.4,0.6,8-8,8.1
			C1012.7,601.8,1013.9,601.6,1013.9,593.8z"/>
		<path id="XMLID_285_" fill="#010101" d="M1039.3,566.8c-8.5,0-7.9,0.8-8-8c-0.1-9,0.5-7.6,7.8-7.6c9.4,0,8.2-1.1,8.2,8.2
			c0,8.3,0.9,7.4-7.4,7.4C1039.7,566.8,1039.5,566.8,1039.3,566.8z"/>
		<path id="XMLID_284_" fill="#010101" d="M1039.2,618.7c-8.6,0-7.9,0.8-7.9-8c-0.1-8.8,0.4-7.5,7.5-7.6c2,0,3.9,0,5.9,0
			c2,0,2.7,1.1,2.6,3c0,3.2-0.1,6.4,0,9.6c0.1,2.3-1,3.2-3.2,3.1C1042.5,618.6,1040.9,618.7,1039.2,618.7z"/>
		<path id="XMLID_283_" d="M999.8,618.7c-8.6,0-8,0.8-8-7.9c0-8.2-0.5-7.7,7.7-7.7c9.1,0,8.4-0.8,8.4,8.2c0,8.2,0.9,7.4-7.4,7.4
			C1000.2,618.7,1000,618.7,999.8,618.7z"/>
		<path id="XMLID_282_" fill="#000001" d="M999.7,566.8c-8.5,0-7.9,0.8-7.9-8c0-8.1-0.6-7.6,7.7-7.6c9.1,0,8.3-0.8,8.3,8.2
			C1007.8,568,1008.6,566.7,999.7,566.8z"/>
		<path id="XMLID_281_" d="M1056.8,566.8c-8.8-0.1-7.7,1-7.7-7.6c0-9-1.2-7.9,8-8c8.5,0,7.9-0.7,8,8
			C1065.1,567.9,1065.3,566.8,1056.8,566.8z"/>
		<path id="XMLID_280_" d="M1021.9,618.7c-8.6-0.1-7.9,1.1-8-7.9c0-8.4-0.5-7.7,7.9-7.7c9,0,8.1-0.6,8.1,8.1
			C1029.9,619.4,1030.5,618.7,1021.9,618.7z"/>
		<path id="XMLID_279_" fill="#010101" d="M1056.9,618.7c-9-0.1-7.8,1-7.8-7.9c-0.1-8.3-0.7-7.8,7.6-7.7c8.5,0.1,8.5-1.4,8.5,8.5
			C1065.1,619.8,1065,618.6,1056.9,618.7z"/>
		<path id="XMLID_278_" d="M1021.9,566.8c-8.7,0-8,0.7-8-7.9c0-8.3-0.5-7.7,7.6-7.7c9.4,0,8.4-0.9,8.4,8.4
			C1029.9,567.6,1030.3,566.8,1021.9,566.8z"/>
		<path id="XMLID_277_" d="M622.6,600.7c-31.8,0-63.5,0-95.3,0c-4.6,0-5-0.4-5-4.9c0-47.4,0-94.8,0-142.2c0-4.4,0.5-4.8,4.7-4.8
			c63.8,0,127.7,0,191.5,0c4.4,0,4.8,0.3,4.8,4.7c0,47.4,0,94.8,0,142.2c0,4.8-0.2,5-5.1,5C686.3,600.7,654.4,600.7,622.6,600.7z"/>
		<path id="XMLID_276_" fill="#040508" d="M431.4,541.1c-0.3,1.8-1.3,3.1-3.3,3c-2-0.1-3-1.3-2.9-3.3c0.1-1.8,1.3-2.8,3-2.8
			C430.1,538,431.1,539.2,431.4,541.1z"/>
		<path id="XMLID_275_" fill="#000001" d="M884.9,211.9c0,10.8,0,21.6,0,32.4c0,4.2-0.4,4.7-4.5,4.7c-6.7,0-13.4-0.1-20,0
			c-2.7,0-3.6-1.1-3.6-3.7c0-22.2,0.1-44.4,0-66.6c0-2.8,1.1-3.9,3.9-3.8c6.8,0.1,13.6,0.1,20.3,0c2.9,0,4,1.2,4,4.1
			C884.8,190,884.9,200.9,884.9,211.9z"/>
		<path id="XMLID_274_" fill="#010101" d="M884,340.8c-0.1,7.4-6.1,13.2-13.5,13.1c-7.2-0.1-13-6.2-12.9-13.4
			c0.1-7.2,6-13.1,13.2-13.1C878.1,327.4,884,333.4,884,340.8z"/>
		<path id="XMLID_273_" d="M844.5,211.9c0,11,0,22,0,33c0,3.6-0.5,4.1-4.1,4.1c-6.8,0-13.6-0.1-20.3,0c-2.6,0-3.7-1-3.7-3.7
			c0.1-22.2,0.1-44.4,0-66.6c0-2.8,1-3.9,3.8-3.9c6.8,0.1,13.6,0.1,20.3,0c2.9,0,4,1.1,4,4C844.4,189.9,844.5,200.9,844.5,211.9z"/>
		<path id="XMLID_272_" fill="#010101" d="M843.6,340.5c0,7.5-5.8,13.4-13.2,13.4c-7.3,0-13.2-5.8-13.2-13.1
			c-0.1-7.4,5.9-13.5,13.2-13.4C837.7,327.4,843.6,333.3,843.6,340.5z"/>
		<path id="XMLID_271_" fill="#020202" d="M1008.3,338.2c0,6.2,0,12.3,0,18.5c0,0.7,0,1.4,0,2.2c-0.1,1.7-0.9,3.1-2.8,3
			c-1.7-0.1-2.4-1.3-2.5-2.9c0-1,0-2.1,0-3.1c0-12.5,0-25,0-37.5c0-2.1,0.2-4.3,2.8-4.2c2.3,0.1,2.6,2.2,2.6,4.2
			C1008.2,324.8,1008.3,331.5,1008.3,338.2z"/>
		<path id="XMLID_270_" d="M992.2,337.5c0-6.7,0-13.4,0-20c0-1.8,0.3-3.5,2.4-3.5c2,0,2.6,1.5,2.6,3.4c0,13.7,0,27.3,0,41
			c0,1.9-0.5,3.4-2.6,3.4c-1.9-0.1-2.4-1.6-2.4-3.3C992.3,351.5,992.2,344.5,992.2,337.5z"/>
		<path id="XMLID_269_" d="M964.6,338.1c0,6.7,0,13.4,0,20c0,1.8-0.2,3.5-2.4,3.6c-2.4,0.1-2.6-1.8-2.6-3.7c0-13.5,0-26.9,0-40.4
			c0-2,0.3-3.7,2.6-3.8c2.4,0,2.4,2,2.4,3.8C964.6,324.6,964.6,331.3,964.6,338.1z"/>
		<path id="XMLID_268_" d="M970.6,337.7c0-6.7,0-13.4,0-20c0-1.7,0.1-3.6,2.2-3.7c2.2-0.1,2.8,1.7,2.8,3.6c0,13.6,0,27.1,0,40.7
			c0,1.8-0.4,3.5-2.5,3.5c-2.2,0-2.5-1.6-2.5-3.5C970.7,351.4,970.6,344.6,970.6,337.7z"/>
		<path id="XMLID_267_" d="M986.2,338.1c0,6.7,0,13.3,0,20c0,1.8-0.2,3.6-2.3,3.6c-2.4,0.1-2.6-1.9-2.6-3.7c0-13.4,0-26.9,0-40.3
			c0-1.9,0.4-3.8,2.6-3.8c2.4,0,2.4,2.1,2.4,3.9C986.2,324.6,986.2,331.4,986.2,338.1z"/>
		<path id="XMLID_266_" fill="#020301" d="M773.7,309.1c0,15.4,0,30.8,0,46.2c0,0.8,0,1.6,0,2.5c-0.2,1.6-1,2.4-2.6,2.4
			c-1.7,0-2.4-1.1-2.4-2.6c-0.1-1.4,0.1-2.9,0.1-4.3c0-30,0-60,0-90c0-0.9,0-1.9,0.1-2.8c0.1-1.3,1-2.1,2.2-2.2
			c1.4-0.1,2.3,0.8,2.6,2.1c0.2,0.9,0.1,1.8,0.1,2.8C773.8,278.5,773.7,293.8,773.7,309.1z"/>
		<path id="XMLID_265_" fill="#040404" d="M647.2,288.1c0,19.5,0,39.1,0,58.6c0,0.6,0,1.2,0,1.9c-0.1,1.5-0.9,2.6-2.5,2.6
			c-1.7,0-2.6-1.1-2.6-2.7c0-0.6,0-1.2,0-1.9c0-38.9,0-77.7,0-116.6c0-0.6,0-1.2,0-1.9c0.1-1.7,0.8-2.8,2.6-2.8
			c1.8,0,2.4,1.2,2.5,2.9c0,0.6,0,1.2,0,1.9C647.2,249.5,647.2,268.8,647.2,288.1z"/>
		<path id="XMLID_264_" fill="#010101" d="M634.3,288.5c0-19.5,0-39.1,0-58.6c0-0.8-0.1-1.7,0.1-2.5c0.2-1.3,1-2,2.3-2
			c1.3,0,2.2,0.6,2.5,1.9c0.2,0.9,0.1,1.8,0.1,2.8c0,38.9,0,77.7,0,116.6c0,0.8,0.1,1.7-0.1,2.5c-0.3,1.3-1.1,2.2-2.6,2.2
			c-1.4-0.1-2.3-0.9-2.4-2.3c-0.1-0.8,0-1.6,0-2.5C634.3,327.1,634.3,307.8,634.3,288.5z"/>
		<path id="XMLID_263_" fill="#010101" d="M619.2,301.1c0,19.3,0,38.6,0,58c0,0.8,0,1.6,0,2.5c-0.1,1.3-0.9,2-2.2,2.2
			c-1.3,0.2-2.2-0.6-2.5-1.8c-0.3-1-0.2-2-0.2-3c0-38.7,0-77.5,0-116.2c0-0.8-0.1-1.7,0.1-2.5c0.3-1.5,1.2-2.5,2.7-2.3
			c1.4,0.1,2.2,1,2.2,2.5c0,0.7,0,1.4,0,2.2C619.2,262.1,619.2,281.6,619.2,301.1z"/>
		<path id="XMLID_262_" fill="#010000" d="M729.4,288.5c0,21.3,0,42.6,0,63.8c0,6.9-3.9,11-10.5,10.9c-6.5,0-10.3-4.2-10.3-11.1
			c0-42.5,0-84.9,0-127.4c0-4.3,0.4-4.7,4.8-4.7c3.9,0,7.8,0,11.7,0c3.8,0,4.3,0.5,4.3,4.2C729.4,245.7,729.4,267.1,729.4,288.5z"/>
		<path id="XMLID_261_" fill="#010101" d="M719,217.6c-2.4,0-4.7-0.1-7.1,0c-2.3,0.1-3.5-0.9-3.4-3.3c0.1-1.6,0-3.3,0-4.9
			c0.1-6.2,4.4-10.5,10.5-10.4c6.1,0.1,10.3,4.3,10.3,10.3c0,9.3,1,8.2-8.2,8.2C720.5,217.6,719.7,217.6,719,217.6z"/>
		<path id="XMLID_260_" fill="#010000" d="M678.3,267.2c0-7.6,0-15.2,0-22.8c0-2,0.5-3.7,2.7-3.6c2.2,0.1,2.3,1.8,2.3,3.6
			c0,13.6,0,27.1,0,40.7c0,2,0,3.9,0,5.9c0,1.7-0.4,3.2-2.5,3.1c-2,0-2.5-1.4-2.5-3.1C678.3,283,678.3,275.1,678.3,267.2z"/>
		<path id="XMLID_259_" fill="#010101" d="M683.3,340.6c0,7.2,0,14.4,0,21.6c0,1.9-0.1,3.8-2.5,3.8c-2.3,0-2.6-1.8-2.6-3.8
			c0-14.4,0-28.8,0-43.1c0-1.9,0.3-3.7,2.7-3.6c2.2,0,2.4,1.8,2.4,3.6C683.3,326.2,683.3,333.4,683.3,340.6z"/>
		<path id="XMLID_258_" fill="#010101" d="M751.6,281c0,12.6,0,25.3,0,37.9c0,1.9,0.2,4-2.4,4.1c-2.6,0.1-2.6-2-2.6-4
			c0-25.4,0-50.8,0-76.2c0-1.8-0.1-3.8,2.3-4c2.3-0.2,2.8,1.5,2.8,3.5C751.6,255.3,751.6,268.2,751.6,281z"/>
		<path id="XMLID_257_" d="M738.7,281c0-12.5,0-25.1,0-37.6c0-0.8-0.1-1.7,0.1-2.5c0.3-1.4,1.3-2.1,2.7-2c1.2,0.1,2.1,0.8,2.2,2.2
			c0.1,0.7,0,1.4,0,2.2c0,25.2,0,50.4,0,75.6c0,0.7,0,1.4,0,2.2c-0.2,1.3-1,2-2.3,2.1c-1.4,0.1-2.4-0.6-2.7-2
			c-0.2-0.8-0.1-1.6-0.1-2.5C738.7,306.1,738.7,293.6,738.7,281z"/>
		<path id="XMLID_256_" fill="#F8D35E" d="M502.4,316.8c0-2.6,0.1-5.1,0-7.7c0-1.4,0.6-2,2-2c12,0,24.1,0,36.1,0
			c1.5,0,1.9,0.6,1.9,2c0,11.5-0.1,23,0,34.6c0,2.2-1.2,2.2-2.7,2.1c-8.9,0-17.9,0.1-26.8-0.1c-2.6,0-3.4,0.7-3.3,3.3
			c0.1,2,0.6,4.1-0.4,6c-1.9-2.8-1.1-5.9-0.8-8.9c0.8-8.5,0.2-16.9,0.4-25.4c0-2.1-1-2.9-3-2.9C504.6,317.8,503.3,317.8,502.4,316.8
			z"/>
		<path id="XMLID_255_" fill="#B9DF1A" d="M469.7,348.9c-7.1,0-14.2-0.2-21.2-0.1c-2.2,0-2.7-0.7-2.7-2.8c0.1-11,0.1-22,0-32.9
			c0-2.3,0.7-3,2.9-2.9c11.1,0.1,22.2,0.2,33.2,0c3.1-0.1,4.4,0.7,3.8,3.9c-0.2,0.9,0,1.8,0.1,2.8c0.9,1,0.9,2.3,0.9,3.5
			c0,8.3,0.1,16.6,0,24.9c0,3.9-0.8,4.6-4.7,4.7c-2.9,0.1-5.7,0-8.6,0C472.1,349.9,470.8,349.9,469.7,348.9z"/>
		<path id="XMLID_254_" fill="#FA804F" d="M469.7,348.9c4.5,0,9-0.1,13.5,0c2,0,2.6-0.6,2.6-2.6c-0.1-9.8,0-19.6,0-29.5
			c5.5,0,11.1,0,16.6,0c7.3,0.2,7.4,0.2,7.3,7.5c-0.1,10.3-0.3,20.5-0.5,30.8c-9.4,0.1-18.8,0.1-28.2,0.2c-1.7,0-3.5,0-5.2,0
			C469.6,355.2,469.6,355.2,469.7,348.9z"/>
		<path id="XMLID_253_" fill="#050505" d="M492.5,257.9c-14.8,0-29.6,0-44.4,0c-0.8,0-1.7,0.1-2.5,0c-1.4-0.2-2.2-1.1-2.2-2.5
			c0-1.3,0.8-2.1,2-2.4c0.9-0.2,1.8-0.2,2.8-0.2c29.6,0,59.2,0,88.8,0c0.7,0,1.4,0,2.2,0c1.5,0.2,2.6,1.1,2.5,2.6
			c0,1.5-1,2.4-2.6,2.5c-0.8,0-1.6,0-2.5,0C521.9,257.9,507.2,257.9,492.5,257.9z"/>
		<path id="XMLID_252_" fill="#010101" d="M492.5,267.5c-14.9,0-29.8,0-44.7,0c-0.7,0-1.4,0-2.2,0c-1.5-0.1-2.3-1.1-2.3-2.4
			c0-1.3,0.8-2.3,2.2-2.5c0.8-0.1,1.6-0.1,2.5-0.1c29.6,0,59.2,0,88.8,0c0.3,0,0.6,0,0.9,0c1.9-0.1,3.8,0.2,3.8,2.5
			c0,2.3-1.8,2.5-3.7,2.5C522.8,267.5,507.7,267.5,492.5,267.5z"/>
		<path id="XMLID_251_" fill="#010101" d="M492.5,281.7c14.9,0,29.8,0,44.7,0c0.8,0,1.7-0.1,2.5,0.1c1.3,0.2,2,1.2,2,2.4
			c0,1.2-0.6,2.2-1.9,2.4c-0.9,0.2-1.8,0.1-2.8,0.1c-29.6,0-59.2,0-88.8,0c-0.3,0-0.6,0-0.9,0c-1.9,0.1-3.8-0.1-3.8-2.5
			c0-2.3,1.8-2.6,3.7-2.6c13.5,0,26.9,0,40.4,0C489.2,281.7,490.8,281.7,492.5,281.7z"/>
		<path id="XMLID_250_" fill="#020202" d="M492.8,272.2c14.7,0,29.4,0,44.1,0c0.8,0,1.6,0,2.5,0c1.3,0.1,2.1,0.9,2.3,2.1
			c0.2,1.4-0.6,2.4-2,2.7c-1,0.2-2,0.2-3.1,0.2c-29.4,0-58.8,0-88.2,0c-0.4,0-0.8,0-1.2,0c-1.9,0.1-3.8-0.4-3.8-2.6
			c0-2.4,1.9-2.5,3.8-2.5C462.4,272.2,477.6,272.2,492.8,272.2z"/>
		<path id="XMLID_249_" fill="#050505" d="M492.1,226.5c-10.1,0-20.1,0-30.2,0c-2,0-4.3,0.1-4.3-2.6c0-2.5,2.2-2.5,4.1-2.5
			c20.3,0,40.7,0,61,0c0.5,0,1,0,1.5,0c1.5,0.1,2.6,1,2.7,2.5c0,1.7-1.1,2.6-2.8,2.6c-3.3,0-6.6,0-9.9,0
			C506.9,226.5,499.5,226.5,492.1,226.5z"/>
		<path id="XMLID_248_" fill="#010101" d="M492.3,232.3c10.3,0,20.5,0,30.8,0c1.9,0,3.8,0.2,3.8,2.5c0,2.2-1.8,2.6-3.7,2.6
			c-20.6,0-41.3,0-61.9,0c-1.9,0-3.7-0.3-3.7-2.6c0.1-2.3,2-2.4,3.9-2.4C471.7,232.3,482,232.3,492.3,232.3z"/>
		<path id="XMLID_247_" fill="#020202" d="M476.1,296.4c-9.7,0-19.3,0-29,0c-1.8,0-3.6-0.3-3.7-2.3c-0.2-2.6,1.8-2.7,3.8-2.7
			c14.9,0,29.8,0,44.7,0c4.5,0,9,0,13.6,0c1.8,0,3.5,0.3,3.6,2.4c0,2.3-1.7,2.7-3.7,2.7C495.6,296.4,485.8,296.4,476.1,296.4z"/>
		<path id="XMLID_246_" d="M289.5,330.1c-33.5,0-60.7-27.3-60.6-60.9c0.1-33.5,27.5-60.8,60.9-60.6c33.5,0.2,60.5,27.3,60.6,60.7
			C350.4,302.7,322.9,330.1,289.5,330.1z"/>
		<path id="XMLID_245_" fill="#C7DFEB" d="M1028.1,539.2c-9.6,0-19.1-0.1-28.7,0.1c-2.5,0-3-0.8-2.9-3.1c0.2-5.7,0.1-11.5,0-17.3
			c0-1.7,0.5-2.2,2.2-2.2c19.6,0.1,39.2,0.1,58.9,0c2,0,2.4,0.6,2.4,2.4c-0.1,5.9-0.1,11.7,0,17.6c0,2.1-0.6,2.6-2.6,2.5
			C1047.6,539.1,1037.9,539.2,1028.1,539.2z"/>
		<path id="XMLID_244_" fill="#B2B3B7" d="M1039.4,579.2c-2.5,0.6-3-0.6-3-2.9c0-2.3,0.5-3,2.9-2.9c2.1,0.1,3.3,0.2,3.2,2.9
			C1042.3,578.7,1042,579.9,1039.4,579.2z"/>
		<path id="XMLID_243_" fill="#B2B3B7" d="M997,576.3c-0.8-2.8,1.1-2.6,3-2.8c2.8-0.3,2.6,1.2,2.8,3.2c0.4,3.2-1.6,2.4-3.4,2.6
			C996.9,579.7,996.7,578.3,997,576.3z"/>
		<path id="XMLID_242_" fill="#B1B2B6" d="M1042.2,593.4c0.6,2.6-0.3,3.4-2.8,3.2c-1.9-0.1-3.3,0-3-2.6c0.2-1.9-0.2-3.7,2.8-3.2
			C1041,591.1,1043.3,590.4,1042.2,593.4z"/>
		<path id="XMLID_241_" fill="#B1B2B5" d="M999.7,596.5c-2.4,0.7-2.9-0.4-2.9-2.7c0-2.3,0.4-3.2,3-3.1c2.3,0.1,3.1,0.6,3.1,3
			C1003,596.4,1002.1,597.1,999.7,596.5z"/>
		<path id="XMLID_240_" fill="#B1B2B5" d="M1056.9,579.2c-2.6,0.7-2.8-0.7-3-2.9c-0.2-2.8,1.2-2.7,3.2-2.8c2.4-0.1,2.8,0.7,2.9,2.9
			C1060.1,578.8,1059.4,579.8,1056.9,579.2z"/>
		<path id="XMLID_239_" fill="#A6A7AA" d="M1022.2,573.6c2.6-0.7,2.6,0.8,2.8,2.9c0.2,2.7-1,2.8-3.2,2.9c-2.7,0.2-2.8-1-3-3.2
			C1018.6,573.3,1020.1,573.3,1022.2,573.6z"/>
		<path id="XMLID_238_" fill="#A6A7AB" d="M1057,590.9c2.6-0.6,2.9,0.6,3,2.9c0.1,2.6-0.9,2.9-3.1,2.9c-2.4,0.1-3-0.6-3-3
			C1053.9,591.2,1054.6,590.3,1057,590.9z"/>
		<path id="XMLID_237_" fill="#A7A8AB" d="M1021.8,596.6c-2.2,0.5-3-0.3-3-2.6c0-2.5,0.7-3.2,3.2-3.2c2.6,0,2.9,0.9,3,3.1
			C1025.1,596.6,1024,597,1021.8,596.6z"/>
		<path id="XMLID_236_" fill="#B3B3B7" d="M1039.5,561.8c-2.4,0.6-3.2-0.3-3.1-2.8c0.1-2.1,0.3-3.1,2.8-2.9c2,0.2,3.5-0.1,3.2,2.8
			C1042.3,561,1042.1,562.5,1039.5,561.8z"/>
		<path id="XMLID_235_" fill="#B2B3B6" d="M1042.2,610.8c0.7,2.8-0.6,3.1-2.9,3.1c-2.1,0-3.1-0.3-3-2.8c0.1-2.1,0.3-3.4,2.9-3.1
			C1041.3,608.2,1043.3,607.9,1042.2,610.8z"/>
		<path id="XMLID_234_" fill="#AEAFB2" d="M999.9,608.1c2.6-0.7,3,0.5,3.1,2.8c0.1,2.7-1.1,2.9-3.2,2.9c-1.9,0-3.1-0.1-2.9-2.5
			C997,609.2,996.7,607.2,999.9,608.1z"/>
		<path id="XMLID_233_" fill="#AEAFB3" d="M999.9,561.8c-2.5,0.7-3-0.5-3-2.9c0-2.3,0.5-3,2.9-2.9c2,0.1,3.4,0.1,3.2,2.9
			C1002.8,561.3,1002.4,562.5,999.9,561.8z"/>
		<path id="XMLID_232_" fill="#AEAFB2" d="M1056.8,556.3c2.7-0.7,3.2,0.5,3.2,2.9c0,2.3-0.7,2.9-2.9,2.8c-2.1-0.1-3.3-0.2-3.2-2.9
			C1054.1,556.8,1054.3,555.4,1056.8,556.3z"/>
		<path id="XMLID_231_" fill="#A6A7AA" d="M1024.8,611.1c0.8,3-1.3,2.6-3.2,2.8c-2.9,0.4-2.6-1.3-2.8-3.3c-0.2-2.7,1.3-2.5,3.1-2.6
			C1024.5,607.8,1025.4,608.6,1024.8,611.1z"/>
		<path id="XMLID_230_" fill="#B1B2B6" d="M1057,608.1c2.6-0.7,2.9,0.7,3,2.9c0.1,2.4-0.8,2.8-3,2.8c-2.2,0-3.2-0.3-3.1-2.9
			C1054,608.5,1054.6,607.5,1057,608.1z"/>
		<path id="XMLID_229_" fill="#AEAFB2" d="M1021.7,561.8c-2.7,0.7-2.7-0.9-2.9-3c-0.3-3,1.4-2.6,3.3-2.7c2.5-0.2,2.7,0.8,2.8,3
			C1025.1,561.7,1024,562.3,1021.7,561.8z"/>
		<path id="XMLID_228_" fill="#D3EEF9" d="M622.7,595.7c-30.7,0-61.5,0-92.2,0c-2.3,0-3.1-0.4-3.1-3c0.1-45.3,0.1-90.7,0-136
			c0-2.4,0.5-3,3-3c61.6,0.1,123.2,0.1,184.8,0c2.7,0,3.1,0.8,3.1,3.3c-0.1,45.1-0.1,90.3,0,135.4c0,2.7-0.6,3.4-3.3,3.4
			C684.2,595.6,653.5,595.7,622.7,595.7z"/>
		<path id="XMLID_227_" fill="#F8F8F9" d="M861.8,211.5c0-9.6,0.1-19.3-0.1-28.9c0-2.2,0.7-2.8,2.8-2.7c4.3,0.2,8.6,0.2,12.9,0
			c2.1-0.1,2.5,0.6,2.5,2.6c-0.1,19.6-0.1,39.2,0,58.8c0,2.2-0.7,2.8-2.8,2.7c-4.3-0.2-8.6-0.2-12.9,0c-2.1,0.1-2.5-0.7-2.5-2.6
			C861.8,231.4,861.8,221.5,861.8,211.5z"/>
		<path id="XMLID_226_" fill="#FDFDFD" d="M878.9,340.6c0,4.5-3.6,8.3-8.1,8.3c-4.4,0-8.2-3.7-8.3-8.1c-0.1-4.4,3.7-8.3,8.1-8.4
			C875.1,332.3,878.9,336.1,878.9,340.6z"/>
		<path id="XMLID_225_" fill="#F6F6F8" d="M839.4,212.3c0,9.7-0.1,19.3,0,29c0,2.1-0.4,2.9-2.7,2.8c-4.3-0.2-8.6-0.1-12.9,0
			c-1.8,0-2.5-0.2-2.5-2.3c0.1-19.8,0.1-39.7,0-59.5c0-1.7,0.4-2.3,2.2-2.3c4.5,0.1,9,0.2,13.6,0c2-0.1,2.3,0.7,2.3,2.5
			C839.4,192.3,839.4,202.3,839.4,212.3z"/>
		<path id="XMLID_224_" fill="#FDFDFD" d="M830.5,348.9c-4.4,0-8.2-3.7-8.3-8.2c0-4.4,3.8-8.3,8.2-8.3c4.4,0,8.2,3.8,8.2,8.2
			C838.6,345.1,834.9,348.9,830.5,348.9z"/>
		<path id="XMLID_223_" fill="#F5F5F6" d="M713.6,290c0-20.7,0.1-41.3-0.1-62c0-2.5,0.7-3.3,3.1-3c2.5,0.3,5.9-1.1,7.3,0.6
			c1.2,1.5,0.4,4.7,0.4,7.2c0,39.7,0,79.3,0,119c0,4.3-1.7,6.3-5.3,6.3c-3.6,0-5.5-2-5.5-6.2C713.6,331.3,713.6,310.7,713.6,290z"/>
		<path id="XMLID_222_" fill="#F5F5F6" d="M718.8,212.6c-0.4,0-0.8,0.1-1.2,0c-1.3-0.3-3.3,0.9-3.9-0.7c-0.6-1.6-0.4-3.7,0.5-5.4
			c1.3-2.3,4.8-3.1,7.4-1.8c2.2,1.1,3.7,5,2.7,7.2c-0.3,0.7-0.9,0.7-1.5,0.7C721.5,212.6,720.2,212.6,718.8,212.6z"/>
		<path id="XMLID_221_" fill="#4FAB24" d="M466.7,335.4c4.2,0,8.4,0,12.6,0c1.9,0,3.1,0.8,3.1,2.6c0,1.6-1.2,2.4-2.9,2.4
			c-8.6,0-17.2,0-25.8,0c-1.7,0-2.9-0.7-2.9-2.4c0-1.9,1.3-2.6,3.1-2.5C458.1,335.4,462.4,335.4,466.7,335.4z"/>
		<path id="XMLID_220_" fill="#4FAB25" d="M465.7,315.6c3.9,0,7.8,0,11.7,0c1.8,0,3.2,0.7,3.2,2.5c0,1.8-1.3,2.5-3.2,2.5
			c-7.8-0.1-15.6,0-23.4,0c-1.7,0-3.2-0.4-3.3-2.3c-0.1-2.1,1.5-2.7,3.3-2.6C457.9,315.6,461.8,315.6,465.7,315.6z"/>
		<path id="XMLID_219_" fill="#4EAA25" d="M462,330.5c-2.8,0-5.5,0-8.3,0c-1.6,0-2.9-0.6-3-2.4c-0.1-1.9,1.3-2.5,2.9-2.5
			c5.5-0.1,11.1-0.1,16.6,0c1.7,0,2.6,1.1,2.6,2.8c0,1.8-1.3,2.1-2.8,2.2C467.3,330.5,464.7,330.5,462,330.5z"/>
		<path id="XMLID_218_" fill="#FEFEFE" d="M289.9,213.6c30.8,0.4,55.8,25.7,55.3,56.1c-0.5,30.9-25.7,55.8-56.1,55.3
			c-31.2-0.5-55.8-25.7-55.3-56.7C234.4,238,259.7,213.3,289.9,213.6z"/>
		<path id="XMLID_217_" fill="#020202" d="M622.7,578.7c23.3,0,46.7,0,70,0c0.9,0,1.9-0.1,2.8,0.1c1.2,0.3,2,1,2,2.4
			c0,1.3-0.7,2.2-1.9,2.4c-0.9,0.2-1.8,0.1-2.8,0.1c-46.6,0-93.1,0-139.7-0.1c-2.5,0-3.9,0.3-3.4,3.2c0.3,1.8-0.2,3.5-2.3,3.6
			c-2.3,0.1-3-1.7-2.7-3.6c0.5-2.9-0.8-3.6-3.4-3.2c-0.9,0.1-1.9,0.1-2.8-0.1c-1.2-0.3-1.9-1.2-1.9-2.5c0-1.3,0.8-2,2-2.4
			c0.2-0.1,0.4,0,0.6-0.1c1.8-0.3,4.2,1,5.1-0.7c0.8-1.4,0.2-3.6,0.2-5.5c0-31.8,0-63.5,0-95.3c0-0.7,0-1.4,0-2.2
			c0.1-1.5,0.9-2.6,2.5-2.7c1.7,0,2.6,1.1,2.6,2.8c0,0.6,0,1.2,0,1.9c0,32.8,0,65.6-0.1,98.4c0,2.8,0.8,3.3,3.4,3.3
			C576.2,578.6,599.5,578.7,622.7,578.7z"/>
		<path id="XMLID_216_" fill="#010101" d="M617.7,562.9c0.8-1.5-0.2-2.5-1.3-3.6c-7.9-8.2-15.7-16.5-23.6-24.8c-1-1.1-2.1-0.9-3.4-1
			c-4.8-0.7-6.5,2.9-8.7,5.8c-7.8,10.3-15.7,20.6-23.5,30.9c-0.4,0.5-0.7,1-1.1,1.4c-1,1.1-2.3,1.5-3.5,0.5c-1.2-1-1.3-2.3-0.4-3.5
			c1.6-2.1,3.2-4.3,4.8-6.4c7.5-9.9,15-19.8,22.5-29.7c0.9-1.2,1.3-2.2,0.7-3.8c-1.1-3.2-0.3-6.1,2.4-8.3c2.4-2,5.6-2.3,8.4-0.8
			c3,1.7,4.5,4.3,3.9,7.7c-0.3,1.7,0.3,2.7,1.3,3.8c7.9,8.2,15.8,16.5,23.6,24.8c1.1,1.1,2,1.6,3.4,0.9c0.3-0.2,0.9-0.4,1.2-0.3
			c3.8,1.4,5.2-1.6,6.9-3.9c10.4-13.7,20.8-27.3,31.2-40.9c1-1.2,1.5-2.2,0.8-4c-1.9-5,2-10.2,7.5-9.9c1.9,0.1,2.7-0.6,3.7-1.9
			c4.2-5.6,8.5-11.1,12.7-16.7c1.1-1.4,2.2-2.7,4.1-1.4c2,1.4,1.1,3,0,4.5c-4.3,5.6-8.6,11.3-12.9,16.9c-0.9,1.2-1.3,2.1-0.7,3.8
			c1.8,5.2-2.3,10.5-7.8,9.9c-1.6-0.2-2.2,0.4-3,1.4c-11.3,14.8-22.5,29.6-33.8,44.3c-0.8,1.1-1,1.9-0.6,3.3
			c1.1,3.3,0.1,6.1-2.7,8.2c-2.5,1.9-5.3,2.2-8.1,0.7C618.8,569.1,617.5,566.5,617.7,562.9z"/>
		<path id="XMLID_215_" fill="#020303" d="M699.8,590.7c-1.2-0.1-2-0.5-2.4-1.4c-0.5-0.9-0.3-1.8,0.3-2.6c1.6-2,4.9-3.4,4.8-5.5
			c-0.1-1.8-3.1-3.5-4.8-5.3c-0.9-1.1-0.8-2.3,0.2-3.3c1-1,2.2-1.1,3.3-0.1c2.4,2.3,4.8,4.7,7.2,7.1c0.9,0.9,1.1,2.1,0.2,3
			c-2.5,2.6-5,5.1-7.6,7.6C700.6,590.5,700.1,590.6,699.8,590.7z"/>
		<path id="XMLID_214_" fill="#010102" d="M556.7,470.1c0,1.1-0.5,1.9-1.3,2.4c-1,0.7-2,0.4-2.8-0.3c-1.2-1-2.4-2-3.3-3.2
			c-1.6-2.1-2.8-1.7-4.2,0.1c-0.8,1-1.9,1.9-2.8,2.8c-1.2,1.2-2.6,1.3-3.8,0c-1.1-1.2-0.9-2.4,0.2-3.5c2.2-2.3,4.5-4.5,6.8-6.7
			c0.9-0.9,2.1-1.3,3-0.4c2.7,2.5,5.2,5.2,7.8,7.8C556.5,469.3,556.6,469.8,556.7,470.1z"/>
		<path id="XMLID_213_" d="M864.5,212.1c0-8.2,0-16.4,0-24.7c0-1.9,0.2-3.7,2.6-3.7c2.3,0.1,2.5,1.9,2.5,3.8c0,16.4,0,32.9,0,49.3
			c0,1.9-0.2,3.8-2.5,3.9c-2.6,0.1-2.6-2-2.6-4C864.5,228.6,864.5,220.4,864.5,212.1z"/>
		<path id="XMLID_212_" d="M877,212.3c0,8.3,0,16.6,0,25c0,1.8-0.2,3.5-2.4,3.6c-2.3,0-2.7-1.7-2.7-3.7c0-16.5,0-33.1,0-49.6
			c0-1.9,0.3-3.7,2.6-3.7c2.4,0,2.4,2,2.4,3.8C877,195.8,877,204,877,212.3z"/>
		<path id="XMLID_211_" fill="#020202" d="M827.9,211.9c0-8.1,0-16.2,0-24.3c0-1.9,0.1-3.8,2.5-3.8c2.3,0,2.6,1.8,2.6,3.7
			c0,16.4,0,32.9,0,49.3c0,2-0.2,4-2.7,3.9c-2.3-0.1-2.4-2-2.4-3.9C828,228.5,827.9,220.2,827.9,211.9z"/>
		<path id="XMLID_210_" fill="#010101" d="M281.7,300.1c1.3-7.8,2.9-15.2,3.7-22.6c0.7-6.7,3.3-11.6,8.4-16.1
			c9.7-8.7,18.8-18.1,28.1-27.2c1.3-1.3,2.8-2.6,4.5-1c1.9,1.8,0.5,3.3-0.9,4.7c-10.6,10.3-21.2,20.7-31.8,31
			c-1.3,1.3-2,2.6-2.3,4.5c-1.4,8.7-2.9,17.4-4.4,26.1c-0.3,1.7-0.9,3.3-3.1,3.1C282.3,302.4,281.7,301.2,281.7,300.1z"/>
		<path id="XMLID_209_" fill="#020202" d="M265.9,223.9c2.4,0,4.5,2.2,4.4,4.6c-0.1,2.3-2.1,4.2-4.4,4.2c-2.5,0-4.5-2.1-4.4-4.5
			C261.6,225.8,263.6,223.8,265.9,223.9z"/>
		<path id="XMLID_208_" fill="#030303" d="M270.2,310.5c-0.1,2.4-2.3,4.5-4.6,4.3c-2.3-0.2-4.2-2.2-4.2-4.5c0-2.4,2.2-4.4,4.7-4.2
			C268.4,306.2,270.3,308.2,270.2,310.5z"/>
		<path id="XMLID_207_" fill="#020202" d="M248.4,250c-2.4-0.1-4.3-2-4.3-4.3c0-2.4,2.1-4.5,4.5-4.4c2.3,0.1,4.3,2.1,4.3,4.4
			C253,248,250.8,250,248.4,250z"/>
		<path id="XMLID_206_" fill="#020202" d="M289.4,312.5c2.6-0.1,4.5,1.7,4.5,4.3c0,2.4-1.8,4.3-4.2,4.4c-2.4,0.1-4.5-2-4.5-4.4
			C285.2,314.4,287,312.5,289.4,312.5z"/>
		<path id="XMLID_205_" fill="#030303" d="M336.9,265c2.5,0,4.4,2,4.4,4.5c-0.1,2.4-1.9,4.2-4.3,4.2c-2.5,0-4.5-2-4.4-4.5
			C332.6,266.9,334.6,265,336.9,265z"/>
		<path id="XMLID_204_" fill="#030303" d="M237.8,269.1c0.1-2.4,2.3-4.3,4.8-4.1c2.4,0.2,4,2.1,3.9,4.6c-0.1,2.5-2.2,4.3-4.7,4.1
			C239.5,273.5,237.6,271.4,237.8,269.1z"/>
		<path id="XMLID_203_" fill="#030303" d="M293.9,222c0,2.5-2,4.3-4.6,4.2c-2.4-0.1-4.2-2-4.1-4.4c0-2.3,2-4.3,4.3-4.3
			C292,217.5,293.9,219.5,293.9,222z"/>
		<path id="XMLID_202_" fill="#020202" d="M248.6,297.4c-2.2,0.1-4.3-1.9-4.5-4.1c-0.2-2.4,1.9-4.6,4.3-4.7c2.2-0.1,4.4,1.9,4.5,4.1
			C253.1,295.1,251,297.4,248.6,297.4z"/>
		<path id="XMLID_201_" fill="#020202" d="M313.3,223.8c2.4,0.1,4.3,2.2,4.2,4.7c-0.1,2.4-2,4.2-4.4,4.1c-2.3-0.1-4.3-2.1-4.4-4.3
			C308.7,226,311,223.8,313.3,223.8z"/>
		<path id="XMLID_200_" fill="#020202" d="M317.5,310.5c-0.1,2.3-2,4.3-4.3,4.3c-2.3,0-4.6-2.3-4.5-4.5c0.1-2.4,2.3-4.4,4.7-4.2
			C315.9,306.2,317.6,308,317.5,310.5z"/>
		<path id="XMLID_199_" fill="#030303" d="M330.5,241.2c2.3-0.1,4.6,2.1,4.6,4.5c0,2.3-2,4.2-4.3,4.3c-2.5,0.1-4.5-1.9-4.4-4.4
			C326.3,243.2,328.2,241.3,330.5,241.2z"/>
		<path id="XMLID_198_" fill="#030303" d="M330.6,297.5c-2.3,0-4.2-2-4.3-4.3c-0.1-2.5,1.9-4.6,4.4-4.5c2.2,0,4.3,2.1,4.4,4.3
			C335.1,295.2,332.9,297.5,330.6,297.5z"/>
		<path id="XMLID_197_" fill="#E10306" d="M627.9,564c-0.2,1.5-1.1,2.5-2.5,2.6c-1.5,0.1-2.5-1-2.6-2.4c-0.1-1.7,1-2.8,2.6-2.7
			C626.9,561.4,627.7,562.5,627.9,564z"/>
		<path id="XMLID_196_" fill="#4FA926" d="M590.1,526.1c-0.2,1.7-1,2.7-2.5,2.7c-1.5,0-2.5-0.9-2.6-2.4c-0.1-1.7,1-2.7,2.6-2.7
			C589.2,523.7,589.9,524.8,590.1,526.1z"/>
		<path id="XMLID_195_" fill="#E98D06" d="M673.2,505.1c-0.1,1.6-1,2.6-2.5,2.7c-1.7,0.1-2.8-1-2.7-2.6c0-1.5,1.1-2.5,2.6-2.5
			C672.1,502.7,673,503.7,673.2,505.1z"/>
	</g>
</g>
<rect id="XMLID_386_" x="988.4" y="547.6" fill="#504F54" width="78.6" height="73"/>
<g id="XMLID_383_">
	<rect id="XMLID_385_" x="992.5" y="552.4" width="14.8" height="14.8"/>
	<rect id="XMLID_382_" x="996.5" y="556.4" fill="#AEAFB3" width="6.8" height="6.8"/>
</g>
<g id="XMLID_387_">
	<rect id="XMLID_389_" x="992.5" y="569.5" width="14.8" height="14.8"/>
	<rect id="XMLID_388_" x="996.5" y="573.5" fill="#AEAFB3" width="6.8" height="6.8"/>
</g>
<g id="XMLID_390_">
	<rect id="XMLID_392_" x="992.5" y="586.6" width="14.8" height="14.8"/>
	<rect id="XMLID_391_" x="996.5" y="590.6" fill="#AEAFB3" width="6.8" height="6.8"/>
</g>
<g id="XMLID_393_">
	<rect id="XMLID_395_" x="992.5" y="603.7" width="14.8" height="14.8"/>
	<rect id="XMLID_394_" x="996.5" y="607.6" fill="#AEAFB3" width="6.8" height="6.8"/>
</g>
<g id="XMLID_405_">
	<rect id="XMLID_407_" x="1016" y="552.4" width="14.8" height="14.8"/>
	<rect id="XMLID_406_" x="1020" y="556.4" fill="#AEAFB3" width="6.8" height="6.8"/>
</g>
<g id="XMLID_402_">
	<rect id="XMLID_404_" x="1016" y="569.5" width="14.8" height="14.8"/>
	<rect id="XMLID_403_" x="1020" y="573.5" fill="#AEAFB3" width="6.8" height="6.8"/>
</g>
<g id="XMLID_399_">
	<rect id="XMLID_401_" x="1016" y="586.6" width="14.8" height="14.8"/>
	<rect id="XMLID_400_" x="1020" y="590.6" fill="#AEAFB3" width="6.8" height="6.8"/>
</g>
<g id="XMLID_396_">
	<rect id="XMLID_398_" x="1016" y="603.7" width="14.8" height="14.8"/>
	<rect id="XMLID_397_" x="1020" y="607.6" fill="#AEAFB3" width="6.8" height="6.8"/>
</g>
<g id="XMLID_417_">
	<rect id="XMLID_419_" x="1032.9" y="552.4" width="14.8" height="14.8"/>
	<rect id="XMLID_418_" x="1036.8" y="556.4" fill="#AEAFB3" width="6.8" height="6.8"/>
</g>
<g id="XMLID_414_">
	<rect id="XMLID_416_" x="1032.9" y="569.5" width="14.8" height="14.8"/>
	<rect id="XMLID_415_" x="1036.8" y="573.5" fill="#AEAFB3" width="6.8" height="6.8"/>
</g>
<g id="XMLID_411_">
	<rect id="XMLID_413_" x="1032.9" y="586.6" width="14.8" height="14.8"/>
	<rect id="XMLID_412_" x="1036.8" y="590.6" fill="#AEAFB3" width="6.8" height="6.8"/>
</g>
<g id="XMLID_408_">
	<rect id="XMLID_410_" x="1032.9" y="603.7" width="14.8" height="14.8"/>
	<rect id="XMLID_409_" x="1036.8" y="607.6" fill="#AEAFB3" width="6.8" height="6.8"/>
</g>
<g id="XMLID_429_">
	<rect id="XMLID_431_" x="1050.1" y="552.4" width="14.8" height="14.8"/>
	<rect id="XMLID_430_" x="1054.1" y="556.4" fill="#AEAFB3" width="6.8" height="6.8"/>
</g>
<g id="XMLID_426_">
	<rect id="XMLID_428_" x="1050.1" y="569.5" width="14.8" height="14.8"/>
	<rect id="XMLID_427_" x="1054.1" y="573.5" fill="#AEAFB3" width="6.8" height="6.8"/>
</g>
<g id="XMLID_423_">
	<rect id="XMLID_425_" x="1050.1" y="586.6" width="14.8" height="14.8"/>
	<rect id="XMLID_424_" x="1054.1" y="590.6" fill="#AEAFB3" width="6.8" height="6.8"/>
</g>
<g id="XMLID_420_">
	<rect id="XMLID_422_" x="1050.1" y="603.7" width="14.8" height="14.8"/>
	<rect id="XMLID_421_" x="1054.1" y="607.6" fill="#AEAFB3" width="6.8" height="6.8"/>
</g>
</svg>
