<?xml version="1.0" encoding="utf-8"?>
<!-- Generator: Adobe Illustrator 19.0.0, SVG Export Plug-In . SVG Version: 6.00 Build 0)  -->
<svg version="1.1" id="Layer_1" xmlns="http://www.w3.org/2000/svg" xmlns:xlink="http://www.w3.org/1999/xlink" x="0px" y="0px"
	 viewBox="0 0 1280 800" enable-background="new 0 0 1280 800" xml:space="preserve">
<g id="XMLID_3_">
	<g id="XMLID_229_">
		<path id="XMLID_499_" fill="#FDFDFD" d="M633.2,742.5c-204.8,0-409.6,0-614.5,0.1c-2.4,0-2.9-0.5-2.9-2.9
			c0.1-196.7,0.1-393.4,0-590.1c0-2.4,0.5-2.9,2.9-2.9c409.9,0.1,819.7,0.1,1229.6,0c2.4,0,2.9,0.5,2.9,2.9
			c-0.1,196.7-0.1,393.4,0,590.1c0,2.4-0.5,2.9-2.9,2.9C1043.3,742.5,838.2,742.5,633.2,742.5z"/>
		<path id="XMLID_498_" fill="#CCF1F9" d="M152.6,492.1c-12.1,0-24.2,0-36.2,0c-12.5,0-26.2-11.3-28.5-23.6
			c-0.9-4.7-1.4-9.4-1.4-14.3c0.1-28.5-0.1-57.1,0.1-85.6c0.1-10,2.8-19.2,10.6-26.1c5.7-5.1,12.3-8.3,20.1-8.4
			c32.1,0,64.2,0,96.2,0c1.4,1.4,1.1,3.2,1.1,4.8c0,9.1,0,18.2,0,27.3c0,5.2,0.1,5.4,5.4,5.4c53.8,0,107.6,0,161.4,0
			c2.1,0,4.3-0.6,6.1,1.2c-3.6,1.2-7.4,0.4-11.1,0.5c-2.4,0-3.1,0.6-3.1,3.1c0.1,25.8,0.1,51.5,0,77.3c0,2.6,0.8,3.2,3.3,3.2
			c27.6-0.1,55.2-0.1,82.7-0.1c1.6,1.7,1.1,3.8,1.1,5.8c0,34.6,0,69.2,0,103.8c0,2.7,0.4,5.3,0.1,8c-1.9,1-4,0.8-6,0.8
			c-6.8,0-13.6,0.1-20.4,0c-1.2,0-2.3,0-3.4,0.5c-1.7-0.4-1.5-1.9-1.7-3.1c-2.4-13.5-5-26.9-6.9-40.5c-1.3-9.2-7.9-12.3-15.7-10.3
			c-2,0.5-3.4,1.5-4.3,3.4c-1.7,3.5-3,3.6-5.2,0.2c-0.6-0.9-1.2-1.9-2.1-2.4c-2.9-1.5-3.1-4-2.7-6.9c1.4-10.9,2.5-21.9,3.8-32.8
			c0.3-2.6,0.1-5-2.4-6.5c-2.5-1.6-5.3-1.7-8-0.6c-2.5,1-2.9,3.6-3.2,5.9c-0.8,6.1-1.4,12.3-2.1,18.5c-1.8,15.2-3.4,30.4-5.2,45.6
			c0,0.4-0.1,0.9-0.2,1.3c-0.3,1-0.7,1.9-1.9,1.9c-1.3,0-1.4-1.2-1.5-2.1c-0.5-4.1-1-8.3-1.4-12.4c-1.5-13.9-2.7-27.9-4.2-41.8
			c-0.8-7.2-1.5-14.5-2.2-21.7c-0.3-3.4-1.2-4.1-4.5-3.7c-1.6,0.2-3.2,0.3-4.8,0.5c-3.5,0.5-4.5,1.6-4.2,5.1c0.5,4.7,0.9,9.4,1.4,14
			c1.6,15.9,3.2,31.9,4.9,47.8c0.4,3.4,0.6,6.8,1,10.2c0.2,1.6,0.8,3.8-1.5,4.3c-2.6,0.6-3.1-1.7-3.6-3.6
			c-1.9-8.4-3.7-16.9-5.5-25.4c-1-4.8-2.1-9.6-3.1-14.4c-0.4-1.8-0.6-3.6,0.6-5.2c0.8-1.1,0.9-2.3-0.4-3.1c-2.5-1.5-2.9-4.1-3.4-6.6
			c-0.5-2.4-1-4.7-4.2-4.7c-1.5,0-2-1.4-2.4-2.7c-0.4-1.7-0.7-3.4-1.3-5c-0.3-0.8-0.8-1.6-1.8-1.5c-1.1,0.2-1.5,1.1-1.5,2.2
			c0,1.4,0.4,2.7,0.8,4.1c0.5,2,0.4,3.8-1.8,4.9c-1.6,0.8-1.6,2.4-1.4,3.9c0.3,1.7,0.7,3.3,0.9,5.1c0.1,1.2,0.1,2.5-1.2,3.1
			c-1.2,0.5-2.3,0.5-3.1-0.7c-0.4-0.8-0.5-1.6-0.5-2.5c-0.4-4.5-0.4-4.5-5-4.5c-2.2,0-4.5,0-6.7,0c-2,0-3,0.9-2.9,2.9
			c0,1.2,0,2.4,0,3.5c0,37.3,0,74.6,0,111.9c0,1.9,0.3,3.9-0.7,5.6c-0.3,0.4-0.7,0.4-1.1,0.1c-1.3-1.9-0.8-4.1-0.8-6.2
			c0-62,0-124.1,0-186.1c0-10.7,1.4-10.1-10.3-10.1c-4.8,0-9.6,0.1-14.4,0c-3.9-0.1-4.7-0.9-4.8-4.7c-0.1-5.1,0-10.3-0.1-15.4
			c-0.1-3.5-0.7-4.1-4.2-4.2c-3.3-0.1-6.6,0-9.9,0c-2.3,0-3.5,1-3.7,3.4c-0.4,4.4-0.9,4.8-5.3,4.9c-8,0.1-16,0.1-24.1,0
			c-4.4,0-4.9-0.4-5.4-4.8c-0.3-2.4-1.3-3.5-3.6-3.5c-8.2,0-16.5,0-24.7,0c-2.6,0-3.6,1.4-3.6,3.8c0,4.8,0,9.6,0,14.4
			c0,5.5-0.6,6.1-6,6.1c-8.2,0-16.5,0-24.7,0c-6.9,0-7.2,0.3-7.2,7.3c0,21.5,0,43,0,64.5C153.6,488.5,154.1,490.5,152.6,492.1z"/>
		<path id="XMLID_497_" fill="#45A9E1" d="M306.9,617.4c0.2,0,0.3-0.1,0.5-0.1c0.7-0.6,1.5-0.9,2.4-0.9c7.9,0,15.7-0.4,23.6,0.2
			c0.4,0.1,0.8,0.3,1.1,0.5c1.2,1.7,0.8,3.7,0.9,5.6c0.1,2.6,0,5.1,0,7.7c0.2,6,3.8,9.6,10,9.7c11.4,0.1,22.9,0,34.3,0
			c4.1,0,8.1,0.1,12.2,0c5.9-0.2,9.4-3.8,9.7-9.7c0.2-4.3-0.5-8.5,0.5-12.8c0.2-0.3,0.5-0.6,0.8-0.8c1.4-0.5,2.9-0.5,4.3,0
			c0,0,4.5,6.3,4.5,6.3c0.6,0.8,0.8,1.7,1.2,2.6c1.4,3,4,4.1,6.8,2.4c4.6-2.8,9.6-5.2,13-9.7c0.8-1.1,1.7-1.9,3.1-2
			c2-0.3,4.1-0.2,6.1-0.2c46.6,0,93.2,0.1,139.8,0c0.7,0,1.5,0,2.2,0.2c1.5,3.4-0.2,7.4-3.6,8.2c-4,1-5.2,2.3-5.3,6.4
			c0,1.4-0.1,2.8,0.1,4.2c0.4,2.8,2,4.4,4.8,4.8c1.2,0.2,2.3,0.1,3.5,0.1c26.5,0,53.1,0,79.6,0c1.1,0,2.1,0,3.2-0.1
			c0.9-0.1,1.7-0.2,2.4-0.7c3.4-2.6,2.6-6.3,2.5-9.7c-0.1-2.7-1.8-4.3-4.7-4.9c-4-0.8-5.6-3.9-4-7.8c1.7-0.8,3.6-0.6,5.4-0.6
			c17.5,0,35.1,0,52.6,0.1c29.9,0.2,59.9-0.2,89.8-0.1c1.8,0,3.6-0.1,5.4,0.2c0.4,0.1,0.8,0.3,1.1,0.5c1.1,1.2,0.9,2.8,1,4.3
			c0.1,3.4-0.1,6.8,0.1,10.3c0.2,5,3.6,8.5,8.6,8.5c17.9,0.1,35.7,0.1,53.6,0c5.6,0,8.8-3.5,9.1-9.2c0.1-2,0-4.1,0.1-6.1
			c0.1-1.8,0.9-3.2,2.8-3.4c5.2-0.7,10-2.3,14.6-4.6c0.4-0.2,0.8-0.1,1.3,0c1,0.9,2.2,0.5,3.4,0.5c12.2,0,24.5,0,36.7,0
			c1,1.2,0.8,2.6,0.9,4c0,4.4,0.1,8.8,0,13.1c-0.1,2.8,0.6,5,3.1,6.5c0.8,1.8,2.4,1,3.7,1c40,0,80,0,120,0c11.5,0,23.1,0,34.6,0
			c1.1,0,2.1-0.3,2.6,0c-0.5,0-1.6,0-2.7,0c-51.4,0-102.9,0-154.3-0.1c-1.1,0-2.8,1.1-3.5-0.9c1.9-1.5,4.1-1,6.2-1c50,0,100,0,150,0
			c9.5,0,8.4,0.8,8.5-8.4c0-3.3,0-6.6,0-9.9c0-1.4-0.1-2.8,1.2-3.8c0.3,0.1,0.6,0.2,0.7,0.6c0.2,6.2,0,12.4,0.1,18.7
			c0-6.3,0.1-12.5-0.1-18.8c-0.3-0.3-0.4-0.6-0.4-1c32.9,0,65.9,0.3,98.8-0.2c11.7-0.2,20.3,7.3,18.6,21.3
			c-1.1,8.6-7.5,14.6-16.2,14.6c-16.5,0.1-32.9,0-49.4,0c-1.2,0-2.3-0.3-3.5-0.5c-3.1-0.8-6.3-0.9-9.5-0.9
			c-348.7,0-697.4,0-1046.1,0c-3.4,0-6.8-0.1-10.1,1c-1.6,0.1-3.2,0.4-4.8,0.4c-14,0-28-0.4-42,0.1c-11.2,0.4-20.7-5.5-19.7-20
			c0.6-7.8,4.8-13.6,12.3-15.6c1.6-0.4,3.2-0.3,4.8-0.3c33.8,0,67.5,0,101.3,0c1.1,1.1,1,2.5,1,3.9c0,4.5,0.1,9,0,13.5
			c0,2.3,0.3,4.4,1.8,6.3c0.8,1.9,2.4,1,3.6,1c46.6,0,93.2,0,139.9,0.1c1.1,0,2.1-0.3,2.6,0c-0.3,0-1.2,0-2.1,0
			c-46.8,0-93.7,0-140.5-0.1c-1,0-2.6,1-3.2-0.9c1.8-1.5,3.9-1,5.9-1c45.3,0,90.6,0,135.9,0c8.8,0,8.1,0.3,8.2-8.3
			c0-3.5,0-7.1,0-10.6C305.7,619.8,305.6,618.4,306.9,617.4z"/>
		<path id="XMLID_496_" fill="#060707" d="M1148.4,360.5c-0.1,8.1-0.2,16.2-0.2,24.4c0,14.2,0.2,28.4,0,42.7c0,3.2,1.1,3.4,3.7,3.3
			c3.6-0.2,7.3-0.2,10.9-0.1c4.6,0.1,7,2.6,7.1,7.3c0,2.6,0,5.1,0,7.7c-0.1,4.8-2.6,7.2-7.4,7.3c-4.3,0-8.6-0.1-12.8-0.1
			c-64.5,0-129,0-193.5,0c-6.9,0-9-2.1-9-8.9c0-2-0.1-4.1,0-6.1c0.2-4.3,2.6-6.8,6.8-6.9c4.2-0.1,8.3-0.1,12.5,0
			c1.5,0,2.3-0.3,2.3-2.1c-0.1-21.1-0.1-42.1-0.1-63.2c-0.8-1.4-0.9-3-0.9-4.7c0-20.3,0-40.6,0-60.9c0-5.4,1.3-6.6,6.6-6.7
			c3.2-0.1,6.4,0,9.6,0c3.3-0.1,3.6-0.4,3.7-3.8c0.1-7.5,0-15,0-22.4c0-1.2,0-2.4,0.1-3.5c0.3-3.4,1.4-4.5,4.9-4.5
			c7.5,0,15,0,22.4,0c0.1-4.2,0.2-8.3,0.2-12.5c0.1-3.7,0.6-4.2,4.3-4.2c3.7,0,7.5,0,11.2,0c1.6,0,3,0.3,3.6,2
			c0.3,3.1,0.2,6.2,0.1,9.3c-0.2,3.6,1,7,0.8,10.5c-0.1,1.6,1,2.3,2.5,2.3c3.8,0.1,7.7,0,11.5,0c2,0,2.5-1.2,2.5-2.9
			c0.1-4.3,1-8.5,0.8-12.7c0.8-1.2,2-1.3,3.4-1.3c2.8,0.1,5.5,0.1,8.3,0c2.7-0.1,4,1.1,3.8,3.8c-0.2,1.9,0.4,2.6,2.5,2.5
			c6.6-0.1,13.2-0.1,19.8,0c2.1,0,2.6-0.7,2.4-2.6c-0.3-2.7,1-3.8,3.7-3.8c5.9,0.1,11.7,0,17.6-0.1c5,0,5.1,0,5.4,5.1
			c-0.9,3.4,0.6,6.7,0.7,10.1c0.1,1.9,1.9,1.8,3.2,1.8c5.2,0.1,10.5,0,15.7,0c1,0,1.9,0,2.9,0c5.9,0.1,7.5,1.6,7.5,7.5
			c0,27.4,0,54.7,0,82.1C1149.5,357.5,1149.6,359.2,1148.4,360.5z"/>
		<path id="XMLID_495_" d="M155.1,641.2c-1.9-0.7-2.4-2.1-2.4-4c0-6.6,0-13.3-0.1-19.9c0.1-0.7,0.1-1.5,0.1-2.2
			c0-40.3,0-80.5,0-120.8c0-0.7-0.1-1.5-0.1-2.2c0-12.9,0.1-25.9,0.1-38.8c0-11.4,0-22.9,0-34.3c0-4.5,0.6-5.1,5.2-5.1
			c10,0,19.9-0.1,29.8,0.1c2.2,0,2.9-0.5,2.8-2.8c-0.2-6,0-12-0.1-18c-0.1-3,1.2-4,4-3.9c8.6,0.1,17.1,0,25.7,0
			c3.6,0,4.5,0.7,4.2,4.3c-0.2,3.3,0.6,4.3,4.1,4.2c8.8-0.3,17.5-0.2,26.3,0c2,0,2.8-0.4,2.5-2.5c-0.1-0.8,0-1.7,0-2.6
			c0-2.4,1.1-3.5,3.6-3.5c4.2,0.1,8.3,0.1,12.5,0c2.8-0.1,3.8,1.3,3.8,3.9c0,6.1,0.1,12.2-0.1,18.3c0,2,0.5,2.5,2.5,2.5
			c7.6-0.1,15.2-0.1,22.8,0c3.8,0,4.4,0.6,4.4,4.5c0,65.5,0,131,0,196.4c0,0.9,0.1,1.7,0.1,2.6c0,6.3-0.1,12.6-0.1,18.9
			c0,4.4-0.4,4.8-4.7,4.8c-25.1,0-50.3,0-75.4,0c-22.3,0-44.7,0-67,0c-1.2,0-2.3,0.1-3.5,0.2C155.8,641.4,155.4,641.4,155.1,641.2z"
			/>
		<path id="XMLID_494_" fill="#CCF1F9" d="M1014.9,259c-0.7,1.4-1.9,0.6-2.8,0.6c-6.5,0.1-13,0.1-19.6,0c-2.9,0-4,1-4,4
			c0.1,9.3-0.1,18.6,0.1,27.9c0,2.5-0.7,3.1-3.1,3c-4.3-0.2-8.6,0-12.8-0.1c-3-0.1-4.2,1.1-4.1,4.2c0.1,21.2,0,42.3,0,63.5
			c0,1.2-0.1,2.3-0.1,3.5c-1.1-0.8-2.5-0.6-3.7-0.6c-11.2,0-22.5,0-33.7,0c-18.8,0-35.8-15.7-37.7-34.3c-1.2-11.5-1-23.1-0.4-34.6
			c1.1-20,15.1-34.8,35-37.7c0.8-0.1,1.7,0,2.6,0c26.7,0,53.5,0,80.2,0C1012.3,258.4,1013.7,258.2,1014.9,259z"/>
		<path id="XMLID_493_" fill="#CCF1F9" d="M786.3,354.7c30.6,0,61.2,0,91.7,0c14.2,0,26.1,11.5,25.8,25.8c-0.1,5.6-0.1,11.1,0,16.7
			c0.4,17-15.3,29-31.3,25.8c-1.1-0.2-2.3-0.2-3.5-0.2c-27.6,0-55.2,0-82.8,0c-1.1-1.2-1-2.8-1-4.2c0-19.9,0-39.7,0-59.6
			C785.3,357.5,785.2,355.9,786.3,354.7z"/>
		<path id="XMLID_492_" d="M786.3,354.7c-0.1,8.8-0.2,17.7-0.2,26.5c0,13.8,0.1,27.7,0.1,41.5c0,11.3,0,22.7,0,34
			c1.1,1.2,1.1,2.7,1.1,4.2c0,35.8,0,71.7,0,107.5c0,1.7-0.2,3.4-0.7,5.1c-1.7,9.2-8.6,15.2-18.1,15.6c-2.8,0.1-5.8,1-8.3-1
			c-0.7-2-0.9-3.9,0.4-5.8c1.8-1.1,3.7-0.7,5.6-0.8c8.8-0.2,13.2-4.6,13.2-13.4c0-3,0-6,0-9c0-2.3-1-3.3-3.3-3.2c-1,0-1.9,0-2.9,0
			c-100.2,0-200.3,0-300.5,0c-7.2,0-6.5-0.3-6.5,6.7c0,2.4-0.1,4.7,0,7.1c0.3,6.6,4.3,11,10.9,11.7c3.2,0.3,6.4,0.1,9.6,0.1
			c8.9,0,17.8,0,26.6,0c1.5,0,3-0.1,4.4,0.7c1.4,1.9,1.2,3.9,0.3,5.9c-1.2,1.2-2.7,1-4.2,1c-11.9,0-23.7,0.2-35.6,0
			c-7.9-0.1-14.3-3.4-17.9-10.8c-0.5-1.1-1.3-2.3-0.5-3.6c-0.5-2.8-0.5-5.7-0.5-8.6c0-35.3,0-70.7,0-106c0-1.2-0.1-2.3-0.1-3.5
			c0-11.3,0-22.7,0-34c-1-1.3-0.9-2.8-0.9-4.3c0-19.8,0-39.7,0-59.5c0-1.5-0.1-3,1-4.3c2-13.9,9.8-20.6,23.9-20.6
			c92.9,0,185.9,0,278.8,0C776.5,334,784.1,340.5,786.3,354.7z"/>
		<path id="XMLID_491_" fill="#CCF1F9" d="M785.8,574.3c0.1-2,0.3-4,0.3-6.1c0-36,0-71.9,0-107.9c0-1.2,0.1-2.3,0.1-3.5
			c11.1,0,22.2,0,33.4,0c16.6,0,32.3,12.5,35.9,28.8c0.5,2.4,0.8,4.8,0.8,7.3c0.1,15.2,0,30.4,0,45.5c-4.7,1.8-9.4,1.1-14.1,0.4
			c-1.5-0.2-2.9-0.5-4.4,0c-1.5,0.5-3.2,0.5-4.8,0.5c-3.6,0-7.3-0.1-10.9,0c-3.7,0.1-4.4,0.8-4.6,4.6c-0.1,1.2,0,2.4,0,3.5
			c0,21.5,0,42.9,0,64.4c0,1.9,0.5,3.9-1.1,5.4c-0.2,0-0.4-0.1-0.5-0.1c-1.3-1.4-1-3.2-1-4.9c0-10.8,0-21.6,0-32.4
			c0-4.7,0-4.7-4.8-4.7c-6.1,0-12.2,0-18.3,0C789.7,575.3,787.7,575.2,785.8,574.3z"/>
		<path id="XMLID_490_" d="M951.2,641.3c-2.8-0.3-3.6-1.8-3.6-4.5c0.1-6.5,0-12.9-0.1-19.4c0.1-0.9,0.2-1.9,0.2-2.8
			c0-31.1,0-62.2,0-93.4c0-4.1,0.5-4.5,4.7-4.5c5.2,0,5.1,0,5.2-5.2c0-2.8-0.1-5.6,0.2-8.3c0.5-5.2,4.2-9.4,9.4-9.8
			c10.3-0.7,20.7-0.7,31.1,0c5.8,0.4,9.6,5,9.7,10.8c0.1,3.4,0.1,6.8,0,10.3c-0.1,2,0.7,2.2,2.4,2.3c1.8,0,2.1-0.6,2.1-2.2
			c-0.1-5.7,0-11.3,0-17c0-3.6,0.8-4.4,4.2-4.4c32.3,0,64.6,0,96.9,0c3.7,0,4.2,0.7,4.2,4.7c0,38.7,0,77.4,0,116.1
			c0,1.2-0.3,2.4,0.3,3.5c0,0.2,0.1,0.4,0.1,0.6c0,0,0,0,0,0c-0.8,0.9-0.5,2-0.5,3.1c0,5.7,0,11.3,0,17c0,2.1-0.9,3.2-3,3.1
			c-0.6,0-1.3,0-1.9,0c-52.3,0-104.5,0-156.8,0c-1.3,0-2.6,0.1-3.8,0.1C951.9,641.4,951.6,641.4,951.2,641.3z"/>
		<path id="XMLID_489_" d="M100.7,652.7c1-1.8,2.5-2.5,4.5-2.3c1.9,0.1,3.8,0,5.8,0c350.1,0,700.2,0,1050.2,0c2.1,0,4.1-0.2,5.2,2.1
			c-0.1,2.5-1.4,3.7-3.9,3.4c-1.1-0.1-2.1,0-3.2,0c-351.1,0-702.2,0-1053.4,0C103.5,656,100.7,656.5,100.7,652.7z"/>
		<path id="XMLID_488_" fill="#010101" d="M387.6,372.8c-56.3,0-112.7,0-169,0c-4.9,0-4.9,0-4.9-5c0-11.2-0.1-22.4-0.1-33.7
			c0-1.2,0.1-2.3,0.1-3.5c0-30.5,0-61-0.1-91.5c0-3.1,0.8-4.1,4-4.1c55.8,0.1,111.7,0.1,167.5,0c3.2,0,4,1.1,4,4.1
			c-0.1,43.2-0.1,86.4,0,129.6C389,370.4,389.2,371.9,387.6,372.8z"/>
		<path id="XMLID_487_" d="M816.4,617.4c0.1-24.6,0.1-49.2,0.2-73.8c0-4.7,0.3-5,5.2-5c3.9,0,7.7,0,11.6,0c1.9,0,3.8,0.4,5.4-1.3
			c0.3-0.4,1.4-0.5,1.8-0.3c5.1,3,10.6,1.1,15.9,1.4c9.6,0,19.2,0.1,28.8,0.1c3.8,0,4.5,0.7,4.5,4.4c0,3,0.1,6,0,9
			c0,1.3,0.3,1.9,1.7,2c15.3,1.5,25.7,9.5,29.3,24.4c3.7,15.1,0.4,28.6-12.9,38.4c-0.1,0.1-0.2,0.1-0.2,0.2c-4.8,3-9.9,5-15.5,5.3
			c-1.8,0.1-2.4,0.7-2.3,2.5c0.2,2.4,0.1,4.9,0,7.4c-0.4,5.5-4.5,9.2-9.9,9.2c-17.7,0-35.4,0-53.2,0c-5.8,0-10-4.1-10.1-10
			C816.4,626.6,816.4,622,816.4,617.4z"/>
		<path id="XMLID_486_" fill="#CCF1F9" d="M459.4,354.7c0,22.7,0,45.4,0,68.1c-7.3,0-14.5,0-21.8,0c-10.7-0.1-21.8-10.1-23.1-20.8
			c-1-8.8-1.3-17.7,0.1-26.4c1.8-12,12.6-20.9,24.6-20.9C446,354.7,452.7,354.7,459.4,354.7z"/>
		<path id="XMLID_485_" fill="#CCF1F9" d="M1148.4,360.5c-0.1-1.2-0.2-2.3-0.2-3.5c0-28.2,0-56.4,0-84.6c0-4.5-0.3-4.7-4.7-4.7
			c-7.3,0-14.5-0.1-21.8,0c-1.9,0-2.8-0.4-2.6-2.5c0.3-3.6-0.4-7.2,0.4-10.8c-0.4,3.3,0.8,4.4,4.3,4.1c9.3-0.7,18.4,0,26.6,5.1
			c10.4,6.4,17.5,15.3,19.2,27.7c1.7,12.4,1.2,25,0.5,37.5c-0.8,13.3-7.4,23.8-19,30.9C1150.2,360.1,1149.4,360.5,1148.4,360.5z"/>
		<path id="XMLID_484_" fill="#CCEFF7" d="M1052.6,250.7c0,4.9-0.1,9.8-0.1,14.7c0,1.6-0.4,2.3-2.2,2.2c-4.7-0.1-9.4-0.1-14.1,0
			c-1.8,0-2.1-0.7-2.1-2.3c0.1-7,0.1-14.1,0.1-21.1c1.1,3.8,0.4,7.6,0.4,11.4c0,2.1,0.7,2.8,2.8,2.7c3.9-0.1,7.9-0.1,11.8,0
			c2.1,0.1,2.8-0.6,2.7-2.7C1052.1,254,1051.6,252.3,1052.6,250.7z"/>
		<path id="XMLID_483_" d="M402.6,617.3c0,4.3-0.1,8.6-0.1,12.8c0,6.5-4.3,10.9-10.7,10.9c-15.7,0-31.5,0-47.2,0
			c-5.9,0-10.3-4.3-10.4-10.2c-0.1-4.5-0.1-9-0.1-13.5c-0.8-1.1-0.6-2.5-0.6-3.7c0-19.6,0-39.2-0.1-58.7c0-2.4,0.1-4.7,2.3-6.3
			c1.1-0.8,1-2.1,0.7-3.3c-2.9-12.1-5.2-24.3-8-36.4c-0.1-0.3-0.2-0.6-0.8-1c-0.4,1.9-0.2,3.6,0,5.4c1.2,9.5,3.7,18.7,7.1,27.6
			c0.4,1,0.8,2,1.1,3c0.5,2-0.1,3.6-2,4.6c-2,1-3.5-0.1-4.6-1.7c-1-1.4-1.5-3.1-2-4.7c-1.2-3.3-2.2-6.7-3.4-10
			c-2.6-8.7-4.2-17.6-4.1-26.7c0.1-3.5,1-4.4,4.1-4.7c2.8,0.2,3.9-0.9,2.8-3.8c-0.5-1.4-0.6-2.9-1-4.4c-0.7-2.5-0.2-4.3,2.6-4.7
			c1.5-0.2,1.3-1,1.1-2.1c-0.5-2-0.9-4-1.3-6c-0.4-1.8,0.4-3,2-3.5c1.8-0.5,2.9,0.6,3.3,2.2c0.4,1.3,0.6,2.7,0.9,4.1
			c0.4,2,0.4,4.3,3.8,3.3c1.2-0.4,2.2,0.9,2.5,2.4c0.3,1.7,0.7,3.3,1.1,5c0.4,1.7,0.4,3.3,2.8,3.9c2.1,0.6,2.4,2.9,0.6,4.3
			c-1.4,1-1.2,1.9-0.9,3.2c3,14,6,28,9,42c0.3,1.4,0.4,2.9,2.4,2.5c1.9-0.4,0.8-1.9,0.7-2.9c-2.4-24.5-4.9-48.9-7.4-73.4
			c-0.5-4.7-0.2-5.1,4.6-5.6c2.2-0.3,4.5-0.5,6.7-0.7c2.6-0.3,3.7,0.9,4,3.4c1.5,15.6,3.1,31.3,4.6,46.9c1,10.4,2.1,20.8,3.2,31.3
			c0,0.4,0.1,0.9,0.7,1c1.3-0.6,0.9-1.9,1.1-3c2.4-21.2,4.8-42.5,7.3-63.7c0.8-7,4.7-9.3,11.4-7.1c3,1,4.6,3.6,4.2,7.1
			c-1.3,11.7-2.7,23.4-4.1,35c-0.2,2-0.7,3.9,2.1,4.7c1.8,0.5,2.7,2.3,3.3,4.1c0.2,0.7,0.6,1.1,1.4,1c0.6-0.1,1.1-0.3,1.1-0.9
			c0.5-2.8,2-4.8,4.8-5.3c4.1-0.8,8.3-1.4,12.1,1.3c2.7,1.9,4.2,4.4,4.8,7.7c2.5,14.7,5,29.3,7.5,43.9c0.1,0.6,0,1.3,0.6,1.8
			c1.1,0.9,1.2,2.2,1.5,3.5c1.5,8.6,2.8,17.3,4.4,25.8c0.5,2.6,0.4,5.3,0.1,8c-0.2,1.7-0.6,3.4-2.2,4.4c-3.5,5.9-9.5,8.8-15,12
			c-3.2,1.8-6.7-0.4-7.7-4.3c-0.2-1,0-2.3-1.8-1.9c-1.7,0.3-3-0.5-3.6-2c-0.7-1.5,0.3-2.6,1.4-3.6c0.9-1.1,2.1-1.9,1.8-3.8
			c-1.8-13.3-2.9-26.7-4.6-40.1c-0.3-4.1-0.6-8.2-1.3-12.2c-0.2-2.8-0.7-5.6-0.6-8.5c0.1-1.8-0.5-3.3-1.8-4.7
			c2.9,3.1,1.9,7.1,1.9,10.6c0.2,18.2,0.1,36.5,0.1,54.7C403.3,614.9,403.4,616.2,402.6,617.3z"/>
		<path id="XMLID_482_" fill="#FEFEFE" d="M434.3,617.3c1.9-4.4,1.9-8.8,1-13.4c-1.8-9.4-3.2-18.8-4.7-28.3c0.2-0.8-0.1-1.5,1.4-1.5
			c8.9,0.2,17.9,0.4,26.8-0.1c0.4,0,0.8,0.5,1.3,0.8c3.1,9,9.1,13.3,18.5,13.3c13.1,0,26.3,0,39.4,0c1.1,1.2,0.9,2.8,1,4.3
			c0,5.4,0,10.9,0,16.3c0,3.3,0.3,3.6,3.7,3.6c12,0,23.9,0,35.9,0c3.6,0,3.9-0.3,3.9-4.1c0-5.2,0-10.5,0-15.7c0-1.6-0.2-3.2,1.2-4.5
			c1.1-0.6,2.2-0.7,3.4-0.7c6.8,0,13.6-0.1,20.5,0c4,0.1,4.8,1.1,3.8,4.9c-1.8,6.9-3.4,13.9-5.4,20.7c-0.4,1.4-0.6,3-2,3.8
			c-0.9,0.5-1.9,0.4-2.8,0.4c-48.7,0-97.4,0-146.2,0C434.8,617.3,434.5,617.3,434.3,617.3z"/>
		<path id="XMLID_481_" fill="#FEFEFE" d="M324.1,500.6c-2.4,0.6-3.2,2.2-3.3,4.7c-0.2,9.1,1.9,17.8,4,26.5
			c0.3,6.7,0.1,13.5,3.1,19.7c1.1,2.3,2,4.8,3.9,6.6c1.8,1.7,2.2,3.6,2.2,6c-0.1,16.6,0,33.1-0.1,49.7c0,1.1,0.3,2.3-0.3,3.4
			c-8.8,0-17.5,0-26.3,0.1c0-40.4,0-80.8-0.1-121.2c0-3.3,0.9-4.3,4.1-4c3.4,0.3,6.8,0.1,10.3,0c1.8,0,2.5,0.6,2.4,2.4
			C324,496.5,324.1,498.5,324.1,500.6z"/>
		<path id="XMLID_480_" fill="#FEFEFE" d="M785.8,574.3c1.2-1.5,2.4,0.1,3.6,0.1c8-0.2,16,0,24-0.2c2.1,0,2.4,0.4,2.4,2.3
			c-0.1,13.6,0,27.1,0,40.7c-5.2,0-10.5,0.1-15.7,0.1c-46.1,0-92.1,0-138.2,0c-1.4-0.8-1.6-2.2-1.9-3.5c-2-7.5-4.1-14.9-5.8-22.5
			c-0.3-1.4-1.1-3,1.1-3.7c2.2-0.3,4.5-0.2,6.7-0.1c3,0.1,3.8,0.8,3.9,3.8c0.2,5.2,0,10.5,0.1,15.7c0,3.8,0.3,4,4,4.1
			c11.7,0,23.5,0,35.2,0c3.9,0,4.2-0.4,4.3-4.2c0.1-5-0.1-10,0.1-15.1c0.1-4.1,1.5-5,5.6-3.7c1.1,1.4,0.9,3,0.9,4.6c0,6,0,12,0,17.9
			c0,4,0.2,4.2,4.1,4.3c12.1,0,24.1-0.1,36.2,0.1c2.4,0,3.3-0.8,3.3-3.1c0-6.4,0-12.8,0-19.2c0-1.6-0.3-3.2,1-4.5c2.2,0,4.5,0,6.7,0
			C776.8,588.2,783.1,583.5,785.8,574.3z"/>
		<path id="XMLID_479_" d="M655.4,588.2c-1.8,0.3-0.8,1.5-0.6,2.2c2.3,9,4.7,18,7.1,27c0.3,1.1,0.7,2.3,0.9,3.4
			c0.2,2.3,1.3,2.9,3.6,2.9c4,0,5.6,2.8,5.4,8.8c-0.2,6.6-1.6,8.7-5.9,8.7c-28.7,0-57.3,0-86,0c-0.2,0-0.4,0-0.6,0
			c-3.3-0.2-5.3-2.5-5.5-6.3c-0.3-7.6,0.9-11.1,4.6-11c3.6,0.1,4.3-1.7,4.8-4.4c0.2-0.8,0.4-1.6,0.6-2.5c2.3-8.8,4.6-17.5,7-26.2
			c0.6-2,0.2-2.6-1.9-2.5c-8.3,0.1-16.6,0.1-25,0.1c-2-2.5-1.9-4.2,0.5-6.3c1.6-0.5,3.2-0.3,4.8-0.3c30,0,60,0,90.1,0
			c1.6,0,3.2-0.1,4.8,0.4c2.1,1.1,1.9,2.9,1.5,4.7c-0.5,1.9-2.2,1.3-3.5,1.4C659.9,588.2,657.7,587.9,655.4,588.2z"/>
		<path id="XMLID_478_" fill="#D0F3F9" d="M333.6,617.2c0-17.5,0-35.1,0-52.6c0-1.9-0.3-3.3-1.9-5.1c-4.9-5.4-7.3-12.2-7.6-19.5
			c-0.1-2.7-0.7-5.6,0.7-8.2c1.6,4.5,3.3,9,4.9,13.5c0.7,1.9,1.6,3.8,4.1,2.8c2.5-1,1.8-3,1.1-4.9c-4.3-10.7-7.5-21.6-8.2-33.1
			c-0.1-1.4-1.3-4,1.2-4.2c2.1-0.2,1.5,2.5,1.8,3.8c2.8,12.3,5.3,24.6,8,37c0.3,1.3,1.1,2.6-1.4,2.8c-2,0.2-1.9,2.2-1.9,3.8
			c0,18.9,0,37.9,0,56.8c0,2.5-0.1,4.9-0.1,7.4C333.9,617.3,333.8,617.2,333.6,617.2z"/>
		<path id="XMLID_477_" fill="#F9FAFB" d="M405.7,573.6c1.2,10.4,2.4,20.9,3.7,31.3c0.4,3.1,0.5,6.2,1.1,9.2
			c0.5,2.5-0.1,3.8-2.9,3.4c-1.5-0.1-3.1-0.2-4.6-0.3c-0.6-0.8-0.3-1.6-0.3-2.5c0-15.3,0-30.7,0-46c0-0.9-0.4-1.9,0.6-2.8
			c1.4,1.2,1.2,2.8,1.3,4.3C404.7,571.4,404.2,572.8,405.7,573.6z"/>
		<path id="XMLID_476_" fill="#C8F6FE" d="M951.2,641.3c0.3,0,0.7,0,1-0.1c1.1,0.7,2.3,0.3,3.4,0.3c52.1,0,104.2,0,156.2,0
			c1,0,2.1,0,3.1,0c0,0.3,0,0.5,0,0.8c-0.9,0-1.9,0-2.8,0c-52.8,0-105.7,0-158.5-0.1C953,642.3,951.3,643.5,951.2,641.3z"/>
		<path id="XMLID_475_" fill="#C8F6FE" d="M155.1,641.2c0.3,0,0.7,0,1,0c1.1,0.7,2.3,0.3,3.4,0.3c47.1,0,94.1,0,141.2,0
			c1.1,0,2.3,0,4.1,0c-1.3,1.1-2.3,0.7-3.1,0.7c-48,0-96,0-144,0C156.8,642.3,155.1,643.5,155.1,641.2z"/>
		<path id="XMLID_474_" fill="#D5F2F4" d="M405.7,573.6c-1.1,0.5-2.1,0.8-2.1-1c0-2,0-4-0.6-5.9c0,16.8,0,33.7,0,50.5
			c-0.2,0-0.3,0.1-0.4,0.2c0-14.6,0-29.3-0.1-43.9c0-6.9,0-13.9,0-20.8c0-1.7-0.4-3.1-2.2-3.4c-1.2-0.2-2.1-0.2-1.9-1.8
			c0.1-1.1,0.9-1.1,1.6-1c1.1,0.2,2.8-0.8,3,1.3c0.2,1.8,0.4,3.6,0.5,5.4c-0.2,2.8-0.4,5.6,0.8,8.2
			C405.2,565.4,405.6,569.5,405.7,573.6z"/>
		<path id="XMLID_473_" fill="#C8F6FE" d="M665.2,642.1c-28.3,0-56.7,0-85,0c0-0.1,0-0.2,0-0.3c28.3,0,56.7,0,85,0
			C665.2,641.9,665.2,642,665.2,642.1z"/>
		<path id="XMLID_472_" fill="#C8F6FE" d="M879.4,642.2c-17.1,0-34.2,0-51.4,0c0-0.1,0-0.3,0-0.4c17.1,0,34.2,0,51.3,0
			C879.3,642,879.3,642.1,879.4,642.2z"/>
		<path id="XMLID_471_" fill="#C8F6FE" d="M392.8,642.2c-16.1,0-32.1,0-48.2,0c0-0.1,0-0.2,0-0.3c16,0,32.1,0,48.1,0
			C392.7,642,392.7,642.1,392.8,642.2z"/>
		<path id="XMLID_470_" fill="#FDFDFD" d="M1118.3,617.9c1,1.1,0.6,2.4,0.6,3.7c0,5.6,0,11.3-0.6,16.9
			C1118.3,631.6,1118.3,624.8,1118.3,617.9C1118.3,617.9,1118.3,617.9,1118.3,617.9z"/>
		<path id="XMLID_469_" fill="#A68574" d="M1058.6,448c-34.1,0-68.2,0-102.4,0c-4.3,0-4.3,0-4.3-4.3c0-8.1,0-8.1,8.1-8.1
			c62.7,0,125.4,0,188,0c4.6,0,9.2,0,13.8-0.2c2.4-0.1,3.1,0.9,3.2,3.2c0.1,9.3,0.2,9.3-8.9,9.3C1123.6,448,1091.1,448,1058.6,448
			C1058.6,448,1058.6,448,1058.6,448z"/>
		<path id="XMLID_468_" fill="#50AB25" d="M1143.3,372.8c0,18.3-0.1,36.6,0.1,54.9c0,2.7-0.8,3.4-3.4,3.3c-6-0.2-12-0.1-18,0
			c-2.1,0-2.7-0.7-2.7-2.8c0.1-37,0.1-74,0-111c0-2.3,0.8-2.9,2.9-2.8c6.1,0.1,12.2,0.1,18.3,0c2.3-0.1,2.8,0.8,2.8,2.9
			C1143.3,335.8,1143.3,354.3,1143.3,372.8z"/>
		<path id="XMLID_467_" fill="#B27943" d="M1020,338.8c0-29.5,0-59,0-88.6c0-2.4,0.3-3.3,3.1-3.1c6.5,0.4,6.5,0.3,6.5,6.8
			c0,57.8,0,115.5,0.1,173.3c0,2.9-0.6,3.9-3.7,3.8c-6-0.2-6-0.1-6-6.1C1020,396.2,1020,367.5,1020,338.8z"/>
		<path id="XMLID_466_" fill="#A1E1FA" d="M988.6,365.1c0,20.9,0,41.7,0.1,62.6c0,2.5-0.5,3.4-3.1,3.2c-3.4-0.2-6.8-0.1-10.3,0
			c-1.4,0-2-0.4-1.8-1.8c0.1-0.4,0-0.9,0-1.3c0-41.7,0-83.4-0.1-125.2c0-2.6,0.6-3.5,3.3-3.3c3,0.2,6,0.2,9,0c2.4-0.2,3,0.6,3,3
			C988.5,323.2,988.6,344.1,988.6,365.1z"/>
		<path id="XMLID_465_" fill="#F0F1F2" d="M1057.3,342.5c0-28.4,0-56.9-0.1-85.3c0-2.3,0.4-3.2,2.9-3.1c2.1,0.1,3.1,0.2,3.1,2.9
			c-0.1,57-0.1,114-0.1,171c0,0.9,0.8,2.4-0.8,2.7c-1.5,0.3-3.3,0.3-4.8-0.1c-0.9-0.2-0.4-1.7-0.4-2.7
			C1057.3,399.4,1057.3,371,1057.3,342.5z"/>
		<path id="XMLID_464_" fill="#21A498" d="M1052.3,334c0,10.6-0.1,21.2,0,31.8c0,2.2-0.5,3-2.8,2.9c-4.3-0.2-8.6-0.1-12.8,0
			c-1.8,0-2.4-0.5-2.4-2.4c0.1-21.6,0-43.2,0-64.8c0-1.6,0.4-2.3,2.2-2.2c4.5,0.1,9,0.1,13.5,0c2.1-0.1,2.4,0.9,2.4,2.7
			C1052.3,312.6,1052.3,323.3,1052.3,334z"/>
		<path id="XMLID_463_" fill="#FB9B02" d="M1068.2,345.4c0-27.3,0-54.6-0.1-81.9c0-2.6,0.7-3.2,3.2-3.2c6.2,0.2,12.4,0.1,18.6,0
			c2,0,2.8,0.3,2.8,2.6c-0.1,55.1-0.1,110.2,0,165.3c0,2-0.6,2.5-2.5,2.5c-6.4-0.1-12.8-0.2-19.3,0c-2.4,0.1-2.8-0.8-2.8-2.9
			C1068.2,400.4,1068.2,372.9,1068.2,345.4z"/>
		<path id="XMLID_462_" fill="#E94F0B" d="M1034.4,402.2c0-8.6,0.1-17.1,0-25.7c0-2.3,0.5-3.3,3-3.1c4.3,0.2,8.6,0.1,12.8,0
			c1.6,0,2.2,0.5,2.2,2.2c0,17.7-0.1,35.3,0,53c0,1.9-0.8,2.3-2.5,2.3c-4.3-0.1-8.6-0.1-12.8,0c-2.1,0.1-2.8-0.5-2.8-2.7
			C1034.4,419.5,1034.4,410.9,1034.4,402.2z"/>
		<path id="XMLID_461_" fill="#45AAE1" d="M1097.6,275.1c0-6.2,0.1-12.4,0-18.6c0-1.8,0.6-2.4,2.4-2.4c4.1,0.1,8.1,0.1,12.2,0
			c1.8,0,2.4,0.5,2.3,2.4c-0.1,12.5-0.1,25,0,37.5c0,2-0.6,2.5-2.5,2.5c-4-0.1-7.9-0.1-11.9,0c-2,0.1-2.6-0.5-2.5-2.5
			C1097.7,287.7,1097.6,281.4,1097.6,275.1z"/>
		<path id="XMLID_460_" fill="#FAFAFB" d="M1097.6,345.4c0-13.7,0.1-27.4-0.1-41c0-2.4,0.5-3.1,3-3c3.8,0.2,7.7,0.1,11.5,0
			c1.7,0,2.4,0.3,2.4,2.2c-0.1,28-0.1,56,0,84c0,1.8-0.4,2.4-2.3,2.3c-4.1-0.1-8.1-0.2-12.2,0c-2.2,0.1-2.4-0.8-2.4-2.6
			C1097.6,373.4,1097.6,359.4,1097.6,345.4z"/>
		<path id="XMLID_459_" fill="#45AAE1" d="M1097.6,412.5c0-5.1,0.1-10.3,0-15.4c0-1.8,0.5-2.4,2.4-2.4c4.2,0.1,8.3,0.1,12.5,0
			c1.5,0,2,0.4,2,2c-0.1,10.7-0.1,21.4,0,32.1c0,1.6-0.5,2-2,2c-4.3-0.1-8.6-0.1-12.8,0c-1.9,0-2-0.9-2-2.3
			C1097.6,423.2,1097.6,417.8,1097.6,412.5z"/>
		<path id="XMLID_458_" d="M1006,352.8c0-18.8,0-37.7,0-56.5c0-0.7,0-1.5,0-2.2c0-1.3,0.8-2,2-2.1c1.3-0.2,2,0.7,2.3,1.8
			c0.2,0.9,0.1,1.9,0.1,2.9c0,37.4,0,74.9,0,112.3c0,0.4,0,0.9,0,1.3c-0.1,1.6,0.1,3.5-2.3,3.5c-2.5,0-2.1-1.9-2.1-3.5
			C1006,391.1,1006,371.9,1006,352.8z"/>
		<path id="XMLID_457_" d="M998.3,353.1c0-18.7,0-37.4,0-56.1c0-0.7,0-1.5,0-2.2c0-1.6,0.6-2.9,2.3-2.8c1.5,0.1,2.1,1.3,2,2.8
			c0,0.6,0,1.3,0,1.9c0,37.4,0,74.8,0,112.3c0,0.4,0,0.9,0,1.3c-0.1,1.6,0.1,3.5-2.3,3.5c-2.5,0-2.1-1.9-2.1-3.5
			C998.3,391.2,998.3,372.2,998.3,353.1z"/>
		<path id="XMLID_456_" fill="#F8B02D" d="M1131.3,309.6c-3.3,0-6.6-0.1-9.9,0c-1.5,0-2-0.5-2-2c0.1-5.8,0.1-11.5,0-17.3
			c0-1.6,0.6-2,2.1-1.9c6.7,0.1,13.4,0.1,20.2,0c1.4,0,1.9,0.4,1.8,1.8c-0.1,5.9-0.1,11.7,0,17.6c0,1.4-0.5,1.8-1.9,1.8
			C1138.1,309.5,1134.7,309.6,1131.3,309.6z"/>
		<path id="XMLID_455_" fill="#E84E0B" d="M1052.3,283.3c0,2.6-0.2,5.1,0,7.7c0.2,2.6-0.4,3.6-3.3,3.4c-4-0.3-8.1-0.1-12.2,0
			c-1.8,0.1-2.7-0.3-2.7-2.4c0.1-5.8,0.1-11.5,0-17.3c0-1.6,0.3-2.3,2.1-2.3c4.6,0.1,9.2,0.1,13.8,0c1.7,0,2.2,0.6,2.1,2.2
			C1052.3,277.5,1052.3,280.4,1052.3,283.3z"/>
		<path id="XMLID_454_" fill="#50AC25" d="M1131.5,272.5c3.2,0,6.4,0.1,9.6,0c1.9-0.1,2.3,0.6,2.3,2.4c0.2,8.6,0.3,8.6-8.2,8.6
			c-4.4,0-8.8-0.1-13.1,0c-2.1,0.1-2.7-0.7-2.7-2.7c-0.1-8.3-0.1-8.3,8.3-8.3C1128.9,272.5,1130.2,272.5,1131.5,272.5z"/>
		<path id="XMLID_453_" fill="#97BE01" d="M1004,275.7c2.7,0,5.4,0.2,8-0.1c2.7-0.3,3.2,0.8,3.1,3.2c-0.1,5.7,0,5.7-5.7,5.7
			c-4.5,0-9-0.1-13.4,0c-1.8,0-2.6-0.2-2.6-2.4c0.1-6.6,0-6.6,6.4-6.6C1001.2,275.7,1002.6,275.7,1004,275.7z"/>
		<path id="XMLID_452_" fill="#F0F1F3" d="M1004.3,264.5c3,0,6,0.1,9,0c2.4-0.1,2,1.6,1.8,2.7c-0.2,1.2,1.4,3.5-1.6,3.5
			c-6.1,0-12.1,0-18.2,0c-3,0-1.4-2.3-1.6-3.5c-0.2-1.2-0.5-2.8,1.8-2.7C998.3,264.7,1001.3,264.5,1004.3,264.5z"/>
		<path id="XMLID_451_" fill="#F7AE2C" d="M158.4,556c0-25.4,0-50.7-0.1-76.1c0-2.6,0.6-3.4,3.3-3.4c8.8,0.2,17.5,0.1,26.3,0
			c1.9,0,2.5,0.4,2.5,2.5c-0.1,51.4-0.1,102.7,0,154.1c0,1.8-0.4,2.4-2.3,2.4c-9.1-0.1-18.2-0.2-27.3,0c-2.7,0.1-2.5-1.3-2.5-3.1
			C158.4,606.9,158.4,581.4,158.4,556z"/>
		<path id="XMLID_450_" fill="#21A295" d="M257.2,519.7c0,37.3,0,74.7,0.1,112c0,3.2-0.9,3.9-3.9,3.8c-8.6-0.2-17.1-0.2-25.7,0
			c-2.4,0-3.3-0.5-3.2-3.1c0.1-12.8,0.1-25.7,0.1-38.5c0-62.3,0-124.5-0.1-186.8c0-3.2,0.8-3.9,3.9-3.8c8.3,0.2,16.7,0.2,25,0
			c3-0.1,3.9,0.6,3.9,3.8C257.1,444.6,257.2,482.2,257.2,519.7z"/>
		<path id="XMLID_449_" fill="#EA4F0B" d="M262.9,515.2c0-38.8,0-77.7-0.1-116.5c0-3.1,0.8-4.3,3.9-3.8c0.9,0.2,1.9,0.1,2.9,0
			c1.3-0.1,2,0.4,1.9,1.8c-0.1,0.6,0,1.3,0,1.9c0,77.7,0,155.3,0,233c0,1.2,1,3.2-0.9,3.6c-2.3,0.4-4.9,0.7-7.2-0.2
			c-0.9-0.4-0.4-2-0.4-3C262.9,593.1,262.9,554.2,262.9,515.2z"/>
		<path id="XMLID_448_" fill="#22A498" d="M301,503.7c0,14.7-0.1,29.5,0.1,44.2c0,2.6-0.7,3.3-3.2,3.2c-6-0.2-12-0.1-18,0
			c-2,0-2.8-0.3-2.8-2.6c0.1-29.9,0.1-59.9,0-89.8c0-2.1,0.6-2.7,2.7-2.7c6.2,0.1,12.4,0.1,18.6,0c2.2-0.1,2.6,0.7,2.6,2.7
			C301,473.7,301,488.7,301,503.7z"/>
		<path id="XMLID_447_" fill="#F6F6F8" d="M277.2,595.9c0-12.2,0.1-24.4,0-36.5c0-2.1,0.5-2.7,2.6-2.7c6.3,0.1,12.6,0.1,18.9,0
			c2.1,0,2.4,0.6,2.4,2.5c-0.1,24.6-0.1,49.2,0,73.7c0,1.9-0.4,2.6-2.4,2.5c-6.3-0.1-12.6-0.2-18.9,0c-2.2,0.1-2.6-0.6-2.6-2.7
			C277.3,620.5,277.2,608.2,277.2,595.9z"/>
		<path id="XMLID_446_" fill="#EEEFF1" d="M218.8,519.7c0,19,0,38.1,0,57.1c0,2.4-0.3,3.4-3,3.2c-5.7-0.2-11.3-0.1-17,0
			c-1.9,0-2.8-0.2-2.8-2.5c0.1-38.7,0.1-77.4,0-116.1c0-2.3,0.8-2.6,2.8-2.6c5.8,0.1,11.6,0.2,17.3,0c2.3-0.1,2.8,0.7,2.8,2.9
			C218.8,481,218.8,500.4,218.8,519.7z"/>
		<path id="XMLID_445_" fill="#97BE00" d="M218.8,424.4c0,8.6-0.1,17.1,0,25.7c0,2.2-0.3,3.2-2.9,3.1c-5.9-0.2-11.8-0.1-17.6,0
			c-1.6,0-2.2-0.4-2.2-2.2c0.1-18,0.1-35.9,0-53.9c0-1.8,0.7-2.1,2.3-2.1c6.1,0.1,12.2,0.1,18.3,0c2,0,2.2,0.8,2.2,2.5
			C218.8,406.4,218.8,415.4,218.8,424.4z"/>
		<path id="XMLID_444_" fill="#97BE00" d="M196.1,610.6c0-7.4,0.1-14.8,0-22.1c0-2,0.4-2.8,2.6-2.8c6,0.2,12,0.1,18,0
			c1.6,0,2.2,0.4,2.2,2.1c-0.1,15.2-0.1,30.4,0,45.5c0,1.8-0.7,2.1-2.3,2.1c-6.1-0.1-12.2-0.1-18.3,0c-2,0-2.2-0.8-2.2-2.5
			C196.1,625.5,196.1,618.1,196.1,610.6z"/>
		<path id="XMLID_443_" fill="#E84E0B" d="M174.4,441.2c4.5,0,9,0.1,13.5,0c1.8,0,2.6,0.3,2.6,2.4c-0.1,8.3-0.1,16.7,0,25
			c0,1.9-0.7,2.3-2.4,2.3c-9.1-0.1-18.2-0.1-27.2,0c-2.1,0-2.5-0.7-2.4-2.6c0.1-8.2,0.1-16.5,0-24.7c0-2.1,0.7-2.5,2.6-2.5
			C165.5,441.3,169.9,441.2,174.4,441.2z"/>
		<path id="XMLID_442_" fill="#F6F6F8" d="M277.2,435c0-4.5,0.1-9,0-13.5c0-1.6,0.4-2,2-2c6.6,0.1,13.3,0.1,19.9,0
			c1.8,0,2,0.7,2,2.2c-0.1,8.8-0.1,17.5,0,26.3c0,1.8-0.4,2.4-2.3,2.3c-6.4-0.1-12.8-0.1-19.2,0c-2.1,0.1-2.4-0.8-2.4-2.6
			C277.3,443.5,277.2,439.2,277.2,435z"/>
		<path id="XMLID_441_" fill="#F7AE2C" d="M174.4,435.5c-4.6,0-9.2-0.1-13.8,0c-1.6,0-2.3-0.4-2.2-2.2c0.1-3.9,0.1-7.9,0-11.9
			c0-1.6,0.5-2,2-2c9.3,0.1,18.6,0.1,27.9,0c1.6,0,2.3,0.4,2.2,2.1c-0.1,3.8-0.1,7.7,0,11.5c0.1,1.9-0.5,2.4-2.3,2.3
			C183.6,435.4,179,435.5,174.4,435.5z"/>
		<path id="XMLID_440_" fill="#504F54" d="M622.7,549.3c-51.2,0-102.5,0-153.7,0.1c-2.8,0-3.8-0.6-3.8-3.6
			c0.1-62.9,0.1-125.8,0.1-188.7c0-10.9,6.2-17.2,17-17.2c93.7,0,187.5,0.1,281.2-0.1c10.7,0,17.2,8.7,17.2,17.3
			c-0.3,62.6-0.1,125.2-0.1,187.8c0,5.1,0.6,4.5-4.4,4.5C725,549.3,673.9,549.3,622.7,549.3z"/>
		<path id="XMLID_439_" fill="#D8D9DB" d="M664.5,582.5c-33.5,0-67,0-100.5,0c-2.1-1.6-1.4-3.9-1.4-5.9c-0.1-5.8-0.1-5.8-5.8-5.8
			c-11,0-22,0-33,0c-4.7,0-4.7,0.1-4.8,4.9c-0.1,2.3,0.6,4.7-0.9,6.8c-13,0-26.1,0-39.1,0c-8.6,0-13.6-4.9-13.6-13.5
			c0-4,0.1-7.9,0-11.9c-0.1-1.7,0.4-2.4,2.1-2.1c0.8,0.1,1.7,0,2.6,0c102.4,0,204.7,0,307.1-0.1c2.9,0,3.8,0.7,3.6,3.6
			c-0.3,3.7,0,7.5-0.1,11.2c0,7.4-5.1,12.5-12.4,12.7c-2.5,0.1-4.9,0-7.4,0c-1.5-1.6-1-3.6-1-5.5c0.1-2.5-0.8-3.7-3.5-3.7
			c-12.3,0.1-24.5,0-36.8,0c-2.5,0-3.4,1.1-3.4,3.5c0,2,0.4,4.1-0.8,5.9c-1.6,1-3.1,1-4.7,0.1c-1.7-2.9-0.8-6.1-0.9-9.1
			c-0.2-4.8-0.1-4.9-4.8-4.9c-11.5,0-23.1,0-34.6,0c-4,0-4.1,0.2-4.2,4.2c0,2,0.1,4.1-0.1,6.1C665.9,580.4,665.9,581.7,664.5,582.5z
			"/>
		<path id="XMLID_438_" fill="#F8D35F" d="M715,582.5c0-2.7,0.1-5.3,0.1-8c-0.1-1.7,0.6-2.2,2.3-2.2c13.7,0,27.4,0.1,41.1,0
			c1.9,0,2.3,0.8,2.3,2.5c-0.1,2.6,0,5.1,0,7.7c0,1.9,0,3.8,0,5.7c0,8.4-0.1,16.9,0,25.3c0,2.2-0.4,2.8-2.9,2.8
			c-13.2-0.2-26.3-0.2-39.5-0.1c-2.4,0-3.3-0.5-3.3-3.2c0.1-8.2,0-16.5,0-24.7c-0.2-0.3-0.4-0.6-0.6-1
			C714.1,585.7,713.9,584.1,715,582.5z"/>
		<path id="XMLID_437_" fill="#CEE929" d="M518,582.5c0-3.5,0.2-7,0.1-10.5c0-1.8,0.6-2.4,2.4-2.4c13.6,0.1,27.3,0.1,40.9,0
			c1.8,0,2.4,0.6,2.4,2.4c0,3.5-0.4,7,0.3,10.5c-0.3,1.9-0.3,3.8,0,5.7c-0.6,7.5-0.2,14.9-0.2,22.4c0,2.4-0.6,3.1-3,3
			c-13.2-0.1-26.5-0.1-39.7,0c-2.4,0-3.1-0.5-3.1-3c0.1-7.5,0-14.9,0-22.4C518,586.3,518,584.4,518,582.5z"/>
		<path id="XMLID_436_" fill="#515055" d="M1018.1,566.8c0-21.6,0.1-43.2-0.1-64.8c0-2.9,0.8-3.5,3.6-3.5c29,0.1,58,0.1,87,0
			c3.2,0,3.9,1,3.9,4c-0.1,43.1-0.1,86.2,0,129.3c0,2.7-0.6,3.6-3.5,3.6c-29.1-0.1-58.2-0.1-87.3,0c-3.1,0-3.6-1-3.6-3.8
			C1018.2,610.1,1018.1,588.4,1018.1,566.8z"/>
		<path id="XMLID_435_" fill="#504F54" d="M963.4,609.9c0-1.8,0-3.2,0-4.6c0-32.8,0-65.7,0-98.5c0-6.6,1.7-8.3,8.3-8.3
			c7.8,0,15.6,0,23.4,0c5.2,0,7.4,2.2,7.4,7.4c0,33.7,0,67.4,0,101c0,2.2,0.1,2.6-2.8,2.3c-11.4-0.9-22.8-0.7-34.2-0.1
			C965,609.3,964.4,609.6,963.4,609.9z"/>
		<path id="XMLID_434_" fill="#3A383B" d="M1012.4,579.1c0,17.5-0.1,35.1,0.1,52.6c0,2.7-0.5,3.7-3.5,3.7c-17.4-0.1-34.9-0.1-52.3,0
			c-2.4,0-3.4-0.4-3.4-3.1c0.1-35.6,0.1-71.3,0.1-106.9c0-1.6-0.3-3.3,2.3-3.1c1.5,0.1,2.2,0.5,2.1,2c-0.1,0.7,0,1.5,0,2.2
			c0,32.5,0,65,0,97.6c0,4.8,0,4.8,4.8,4.8c13.6,0,27.2,0,40.8,0c4.6,0,5.1-0.5,5.1-5.1c0-32.3,0-64.6,0-96.9c0-0.6,0-1.3,0-1.9
			c-0.1-1.5,0-2.7,2.1-2.7c2,0.1,1.8,1.3,1.8,2.6c0,7.9,0,15.8,0,23.8C1012.4,558.8,1012.4,568.9,1012.4,579.1z"/>
		<path id="XMLID_433_" fill="#39373A" d="M982.8,623.7c-5.3,0-10.7-0.2-16,0.1c-3.1,0.1-3.6-1.1-3.4-3.7c0.3-3.4,2.1-5.3,5.6-5.3
			c9.3,0,18.6,0,27.8,0c3.7,0,6.4,3.6,5.8,7.2c-0.3,1.8-1.6,1.7-2.9,1.7C994.1,623.7,988.5,623.7,982.8,623.7z"/>
		<path id="XMLID_432_" fill="#F6F6F8" d="M301.5,258.1c26.6,0,53.3,0,79.9-0.1c2.3,0,3,0.4,3,2.9c-0.1,34.8-0.1,69.5,0,104.3
			c0,2.4-0.6,3-3,3c-53.4-0.1-106.8-0.1-160.1,0c-2.4,0-3.2-0.4-3.2-3.1c0.1-34.7,0.1-69.3,0-104c0-2.6,0.7-3.1,3.2-3.1
			C248,258.1,274.8,258.1,301.5,258.1z"/>
		<path id="XMLID_384_" fill="#46ACE4" d="M301.2,239.8c26.6,0,53.3,0,79.9-0.1c2.7,0,3.5,0.8,3.3,3.4c-0.2,2.7-0.2,5.4,0,8
			c0.1,1.9-0.6,2.5-2.4,2.3c-0.4-0.1-0.9,0-1.3,0c-53,0-105.9,0-158.9,0.1c-3.2,0-4.1-0.8-3.8-3.9c0.3-2.3,0.2-4.7,0-7.1
			c-0.2-2.4,0.7-2.8,2.9-2.8C247.7,239.8,274.5,239.8,301.2,239.8z"/>
		<path id="XMLID_381_" fill="#E50003" d="M884,588.8c0,13.7,0,27.4,0,41.1c0,4.3-1.1,5.5-5.5,5.5c-16.9,0-33.8,0-50.7,0
			c-4.4,0-5.6-1.1-5.6-5.5c0-27.6,0-55.2-0.1-82.8c0-2.4,0.6-3.2,3-3c3.1,0.2,6.2,0.1,9.3,0c1.8-0.1,2.6,0.3,2.6,2.4
			c-0.1,10.2-0.1,20.3,0,30.5c0,1.3,0,2.2-1.8,2.3c-3.7,0.2-8.3,5.5-8.4,9.4c-0.1,5.6,0,11.1,0,16.7c0,2.6,1.2,3.9,3.9,3.9
			c6,0,12-0.1,18,0c2.9,0,4-1.3,3.9-4.1c-0.1-5.2,0-10.5,0-15.7c0-4.7-3.9-9.4-8.5-10.2c-1.4-0.2-1.5-0.9-1.5-2
			c0-10.4,0-20.8,0-31.1c0-1.8,0.8-2.1,2.3-2.1c12.2,0,24.4,0.1,36.6,0c2.5,0,2.4,1.3,2.4,3C884,561,884,574.9,884,588.8z"/>
		<path id="XMLID_380_" fill="#FEFEFE" d="M889.6,588.1c0-6,0.1-12-0.1-18c-0.1-2.4,0.9-2.6,2.8-2.3c5.7,1,10.1,3.9,13,8.9
			c6.6,11,1.9,26.1-9.6,30.5c-0.2,0.1-0.4,0.2-0.6,0.3c-5.3,1.8-5.6,1.6-5.6-4C889.6,598.3,889.6,593.2,889.6,588.1z"/>
		<path id="XMLID_379_" fill="#FAE903" d="M832.7,595.4c0.5-2.5-1-5.6,1.3-8.4c1.1-1.4,2.2-1.8,4-2c8.3-0.7,9.5,1.9,9.2,9.2
			c-0.1,2.3-0.1,4.7,0,7c0.2,2.1-0.7,2.6-2.6,2.5c-3.2-0.1-6.4-0.1-9.6,0c-1.8,0.1-2.5-0.5-2.3-2.3
			C832.8,599.5,832.7,597.7,832.7,595.4z"/>
		<path id="XMLID_378_" fill="#F20004" d="M913.7,588c0-14.7-7.9-24.1-22-26c-1-0.1-2-0.1-1.9-1.5c0.2-1.6,1.4-0.9,2.2-0.9
			c11.6,0.5,22.5,10.9,23.9,23.1c1.3,11.9-1.3,22.4-11.9,29.5c-3.6,2.4-7.7,3.7-12,4.2c-0.9,0.1-2.1,0.6-2.3-0.9
			c-0.2-1.4,0.9-1.4,1.9-1.5C905.9,611.8,913.7,602.6,913.7,588z"/>
		<path id="XMLID_377_" fill="#F28D00" d="M396.8,593.8c0,11.8,0,23.5,0,35.3c0,4.8-1.5,6.3-6.3,6.3c-14.8,0-29.5,0-44.3,0
			c-4.8,0-6.3-1.5-6.3-6.3c0-23.7,0-47.5-0.1-71.2c0-2.5,0.6-3.2,3.2-3.2c16.9,0.1,33.8,0.1,50.7,0c2.5,0,3.2,0.6,3.2,3.2
			C396.7,569.9,396.8,581.9,396.8,593.8z"/>
		<path id="XMLID_376_" fill="#45A9E1" d="M417.2,624c-2.6-23.4-5.2-46.5-7.8-69.6c-0.9-8.4-1.7-16.8-2.9-25.1
			c-0.4-2.6,0.5-3.1,2.7-3.2c5.1-0.3,7,1.1,7.8,6.1c3.5,20.2,7,40.3,10.5,60.5c0.9,4.9,1.6,9.9,2.4,14.9c0.8,5.1-1.1,8.9-5.5,11.6
			C422.2,620.7,419.8,622.3,417.2,624z"/>
		<path id="XMLID_375_" fill="#F7B22D" d="M366.5,547.4c0.1,0.7,0.3,1.7-1.5,1.7c-1.5,0-2.6,0-2.8-2c-0.9-9.4-1.9-18.7-2.8-28.1
			c-1-9.9-2-19.8-3-29.6c-0.2-1.7-0.3-2.8,2-2.9c2.3-0.2,2.1,1.1,2.2,2.5c1.8,18.3,3.7,36.6,5.6,54.8
			C366.3,544.8,366.4,545.9,366.5,547.4z"/>
		<path id="XMLID_374_" fill="#EB500B" d="M345.9,549c-1.6,0.3-2.2-0.4-2.5-1.8c-2.9-13.7-5.7-27.4-8.8-41c-0.4-1.8,0.4-2,1.6-2.3
			c1.3-0.3,2.2-0.4,2.5,1.3c2.9,13.9,5.9,27.8,8.9,41.6C348.1,548.5,347.7,549.4,345.9,549z"/>
		<path id="XMLID_373_" fill="#F6B12D" d="M381.6,549c-1.7,0.3-2.2-0.3-2-2.1c1.6-13.8,3.2-27.6,4.7-41.4c0.2-1.6,0.8-1.9,2.2-1.7
			c1.5,0.2,2.2,0.5,2,2.3c-1.6,13.5-3.1,27-4.6,40.5C383.7,548.1,383.7,549.5,381.6,549z"/>
		<path id="XMLID_372_" fill="#47ACE2" d="M392.8,526.5c0,4,0,7.2,0,10.5c0,3.5,0,7,0,10.6c0,1.3-0.6,1.6-1.8,1.6
			c-1.4,0-1.6-0.6-1.4-1.8c0.7-6.5,1.4-12.9,2.2-19.4C391.8,527.7,392.1,527.5,392.8,526.5z"/>
		<path id="XMLID_371_" fill="#E93425" d="M359.4,477.1c-0.1,1.5,1.4,3.7-1.9,3.8c-1.6,0.1-2.1-0.2-2.1-1.8c0-1-0.3-2.1-0.3-3.1
			c-0.1-1.4-1-3.1,1.8-3.4c2.8-0.3,2.3,1.4,2.4,2.9C359.3,476,359.4,476.5,359.4,477.1z"/>
		<path id="XMLID_370_" fill="#F9F9F9" d="M391.1,483.8c-0.8,1.1,1.1,4.1-2.7,3.4c-3.9-0.8-0.8-3.2-1.2-4.7c-0.5-1.8,0.7-2.2,2.5-2
			C392.3,480.6,391.1,482.3,391.1,483.8z"/>
		<path id="XMLID_369_" fill="#C3C4C8" d="M398.3,536.6c0.9-1.2-1.2-3.7,1.5-3.8c2.8-0.1,1.8,2.5,1.8,3.9c0,1.4,2.4,4.5-1.8,4
			C397,540.4,399.3,537.9,398.3,536.6z"/>
		<path id="XMLID_368_" fill="#E64F0B" d="M337,496.5c0,2.1-1.9,2.1-2.8,1.9c-2.6-0.5-1.7-3.1-2.1-4.7c-0.4-1.8,1.9-1.7,2.8-1.5
			C337.3,492.7,336,495.3,337,496.5z"/>
		<path id="XMLID_367_" fill="#CBCCD0" d="M389.2,496c-0.2,0.2,1.5,2.8-1.5,2.2c-1.4-0.3-3-0.1-2.2-2.3c0.4-1.2-0.8-3.5,2.2-3.1
			C389.4,493,390.5,493.3,389.2,496z"/>
		<path id="XMLID_366_" fill="#F9FAFB" d="M404.3,561.3c-0.2,0.6,0.1,1.3-1.1,2c0-3.6-0.6-6.9,0.4-10.2
			C403.8,555.9,404.1,558.6,404.3,561.3z"/>
		<path id="XMLID_365_" fill="#FA8150" d="M715,588c0,0.1,0,0.3,0,0.4c-4.5,0-4.5,0-4.5,4.6c0,5.4-0.1,10.9,0,16.3
			c0.1,2.2-0.7,2.7-2.8,2.7c-13.5-0.1-26.9-0.1-40.4,0c-2,0-2.5-0.6-2.5-2.6c0.1-6.2,0-12.4,0.1-18.6c0-2-0.6-2.6-2.5-2.5
			c-2.3,0.1-4.7-0.1-7-0.2c2-0.1,4-0.3,6-0.1c2.7,0.3,4-0.6,3.4-3.4c-0.1-0.7-0.2-1.4-0.3-2.2c0.8-4,0.3-8.1,0.3-12.1
			c0-1.9,0.5-2.6,2.5-2.6c13.5,0.1,27.1,0.1,40.6,0c2,0,2.6,0.6,2.5,2.5c-0.1,4,0,8.1,0,12.2C711.3,585,712.4,587,715,588z"/>
		<path id="XMLID_364_" fill="#D8D9DB" d="M622.6,623.6c-10.6,0-21.2-0.1-31.8,0.1c-2.4,0-2.6-0.6-2.1-2.7c2.7-10,5.4-20,7.9-30
			c0.5-2,1.2-2.7,3.4-2.7c15.2,0.1,30.4,0.1,45.6,0c2.1,0,2.9,0.5,3.4,2.6c2.5,10.1,5.1,20.1,7.9,30.1c0.7,2.6-0.1,2.8-2.3,2.7
			C644,623.5,633.3,623.6,622.6,623.6z"/>
		<path id="XMLID_363_" fill="#DADBDD" d="M622.6,635.5c-13.3,0-26.5-0.1-39.8,0c-2.3,0-3.4-0.3-3.3-3.1c0.1-2.3,0.3-3.3,3.1-3.3
			c26.7,0.1,53.5,0,80.2-0.1c1.1,0,2.7-0.8,3.1,0.7c0.4,1.6,0.3,3.4,0,5.1c-0.2,1.1-1.7,0.6-2.6,0.6
			C649.8,635.5,636.2,635.5,622.6,635.5z"/>
		<path id="XMLID_362_" fill="#010101" d="M1129,373c0-14.9,0-29.7,0-44.6c0-0.9,0-1.7,0-2.6c0.1-1.4,1-2.2,2.3-2.2
			c1.3,0,2.2,0.7,2.3,2.1c0.1,0.9,0,1.7,0,2.6c0,30,0,60.1,0,90.1c0,0.9,0,1.7-0.1,2.6c-0.2,1.4-1.2,2.1-2.4,2.1c-1.2,0-2-0.8-2.1-2
			c-0.1-0.9-0.1-1.9-0.1-2.9C1129,403.1,1129,388.1,1129,373z"/>
		<path id="XMLID_361_" fill="#020303" d="M983.4,365.3c0,19,0,38.1,0,57.1c0,1.9,0.1,4-2.4,4c-2.4,0-2.5-2.1-2.5-4
			c0-38.3,0-76.6,0-114.8c0-2,0.3-4,2.7-3.9c2.2,0.1,2.3,2,2.3,3.9C983.4,326.8,983.4,346,983.4,365.3z"/>
		<path id="XMLID_360_" fill="#000100" d="M1045.8,332.5c0,7.4,0,14.7,0,22.1c0,1.8,0,3.7-2.3,3.8c-2.7,0.1-2.5-2.1-2.5-3.9
			c0-14.7,0-29.5,0-44.2c0-1.7-0.2-3.8,2.3-3.8c2.7-0.1,2.5,2,2.5,3.9C1045.8,317.8,1045.8,325.2,1045.8,332.5z"/>
		<path id="XMLID_359_" fill="#020202" d="M1090.6,353.5c0,20.6,0,41.3,0,61.9c0,6.6-3.8,10.6-10.2,10.6c-6.1,0-10.1-4-10.1-10.4
			c0-41.8,0-83.6,0-125.4c0-2.9,1.1-4,4-4c4,0.1,7.9,0,11.9,0c4,0,4.4,0.4,4.4,4.4C1090.6,311.6,1090.6,332.6,1090.6,353.5z"/>
		<path id="XMLID_358_" fill="#020101" d="M1080.6,284c-2.4,0-4.7,0-7.1,0c-2,0-3.1-0.9-3.1-2.8c-0.1-2.2-0.2-4.5,0.1-6.7
			c0.6-5.4,5.1-8.9,10.9-8.5c5.5,0.3,9.3,4.1,9.3,9.5c0,9.7,1.2,8.5-8.5,8.6C1081.6,284,1081.1,284,1080.6,284z"/>
		<path id="XMLID_357_" fill="#040201" d="M1045.8,403.8c0,7.1,0,14.1,0,21.2c0,1.9-0.2,3.7-2.5,3.6c-2.1-0.1-2.4-1.8-2.4-3.5
			c0-14.1,0-28.2,0-42.4c0-1.8,0.4-3.4,2.5-3.5c2.1,0,2.5,1.6,2.5,3.4C1045.8,389.7,1045.8,396.7,1045.8,403.8z"/>
		<path id="XMLID_356_" fill="#030303" d="M1104.7,346c0,12.3,0,24.6,0,36.9c0,1.9,0,4-2.6,3.9c-2.3-0.1-2.4-1.9-2.4-3.8
			c0-24.8,0-49.6,0-74.4c0-2,0.1-4,2.6-3.9c2.5,0.1,2.4,2.2,2.4,4.1C1104.7,321.2,1104.7,333.6,1104.7,346z"/>
		<path id="XMLID_355_" fill="#030303" d="M1112.3,345.8c0,12.2,0,24.4,0,36.6c0,0.5,0,1.1,0,1.6c0,1.6-0.7,2.8-2.3,2.8
			c-1.8,0-2.6-1.2-2.6-2.9c0-4.9,0-9.8,0-14.8c0-19.9,0-39.8,0-59.7c0-0.9-0.1-1.7,0.1-2.6c0.2-1.4,1.2-2.3,2.6-2.2
			c1.3,0.1,2.1,1,2.2,2.3c0.1,0.7,0,1.5,0,2.2C1112.3,321.4,1112.3,333.6,1112.3,345.8z"/>
		<path id="XMLID_354_" fill="#020100" d="M177.2,557.3c0,20.7,0,41.5,0,62.2c0,1.2,0.3,2.6-0.7,3.7c-1.6,1.7-4.1,1.1-4.8-1.2
			c-0.3-1-0.2-2.1-0.2-3.2c0-41.2,0-82.3,0-123.5c0-0.5,0-1.1,0-1.6c0-2.1,0.6-3.7,3-3.8c2.4,0,2.8,1.8,2.8,3.8
			c0,15.3,0,30.6,0,45.9C177.2,545.5,177.2,551.4,177.2,557.3z"/>
		<path id="XMLID_353_" d="M253.5,529.6c0,28,0,56,0,84.1c0,3.6-0.5,7-2.9,9.9c-3.7,4.3-8.8,5.3-15,3.4c-4.9-1.5-7.9-6.3-7.9-12
			c0-25.2,0-50.5,0-75.7c0-31.7,0-63.3,0-95c0-4.5,0.4-4.9,5-4.9c5.1,0,10.3,0,15.4,0c5,0,5.3,0.3,5.3,5.2
			C253.5,472.9,253.5,501.3,253.5,529.6z"/>
		<path id="XMLID_352_" d="M240.4,435.1c-3,0-6,0-9,0c-2.5,0-3.8-1.1-3.7-3.7c0.1-2.6,0-5.1,0-7.7c0.2-6.8,5.3-12,12-12.1
			c8-0.1,13.2,4.3,13.7,11.6c0.2,2.8,0.1,5.5,0.1,8.3c0,2.4-1.1,3.5-3.5,3.5C246.8,435.1,243.6,435.1,240.4,435.1z"/>
		<path id="XMLID_351_" d="M292,501.6c0,10.1,0,20.1,0,30.2c0,2.2,0.2,4.7-2.9,4.6c-2.8-0.1-2.9-2.4-2.9-4.5c0-20.3,0-40.6,0-61
			c0-0.3,0-0.6,0-1c0.1-1.9,0.9-3.5,3-3.4c2.1,0.1,2.8,1.6,2.7,3.6C291.9,480.6,291.9,491.1,292,501.6z"/>
		<path id="XMLID_350_" fill="#010101" d="M291.9,598.6c0,9.6,0,19.2,0,28.8c0,2.1-0.1,4.1-2.7,4.2c-2.8,0.1-3.1-2.1-3.1-4.3
			c0-19.2,0-38.5,0-57.7c0-2.1,0.4-4.1,2.8-4.2c2.8-0.1,3,2.1,2.9,4.3C291.9,579.3,291.9,588.9,291.9,598.6z"/>
		<path id="XMLID_349_" fill="#010101" d="M199.6,519.2c0-16.7,0-33.4,0-50.1c0-0.7-0.1-1.5,0-2.2c0.2-1.7,1.3-2.7,3-2.6
			c1.6,0.1,2.5,1,2.7,2.7c0.1,0.7,0,1.5,0,2.2c0,33.6,0,67.2,0,100.8c0,0.7,0,1.5,0,2.2c-0.1,1.6-1.1,2.5-2.7,2.6
			c-1.6,0.1-2.6-0.8-3-2.4c-0.2-0.8-0.1-1.7-0.1-2.6C199.6,553,199.6,536.1,199.6,519.2z"/>
		<path id="XMLID_348_" fill="#020202" d="M215.3,519.6c0,16.9,0,33.8,0,50.7c0,0.7,0.1,1.5-0.1,2.2c-0.4,1.5-1.4,2.4-3,2.4
			c-1.4-0.1-2.4-0.9-2.6-2.4c-0.1-0.9-0.1-1.9-0.1-2.9c0-33.4,0-66.7,0-100.1c0-1-0.1-1.9,0.1-2.9c0.3-1.6,1.3-2.4,2.9-2.4
			c1.5,0,2.4,0.9,2.6,2.4c0.1,0.8,0.1,1.7,0.1,2.6C215.3,486,215.3,502.8,215.3,519.6z"/>
		<path id="XMLID_347_" d="M622.6,539.6c-47.5,0-95,0-142.5,0c-5,0-5.3-0.3-5.3-5.3c0-60,0-120.1,0-180.1c0-4.9,0.3-5.2,5.3-5.2
			c95,0,190,0,285.1,0c5.6,0,5.7,0.2,5.7,5.8c0,59.7,0,119.4,0,179.1c0,5.6-0.1,5.7-5.8,5.7C717.6,539.6,670.1,539.6,622.6,539.6z"
			/>
		<path id="XMLID_346_" fill="#020201" d="M715,588c-4.8,0.1-4.8,0.1-4.4-5.5c1.5,0,2.9,0,4.4,0C715,584.4,715,586.2,715,588z"/>
		<path id="XMLID_345_" fill="#4FAC25" d="M541.8,602.5c-4.7,0-9.4,0-14.1,0c-1.2,0-2.6,0-2.5-1.7c0.1-1.3,1.3-1.4,2.5-1.4
			c9.4,0,18.8,0,28.2,0c1.2,0,2.6,0.1,2.5,1.7c-0.1,1.4-1.4,1.4-2.5,1.4C551.2,602.5,546.5,602.5,541.8,602.5z"/>
		<path id="XMLID_344_" fill="#4BAA25" d="M541,576.9c4.3,0,8.5,0,12.8,0c1.2,0,2.6-0.1,2.5,1.6c-0.1,1.4-1.3,1.5-2.4,1.5
			c-8.7,0-17.5,0-26.2,0c-1.2,0-2.6-0.1-2.5-1.7c0-1.4,1.3-1.4,2.4-1.4C532.1,576.9,536.6,576.9,541,576.9z"/>
		<path id="XMLID_343_" fill="#4EAC25" d="M536.2,588.4c3,0,6,0,8.9,0c1.1,0,2.3,0.1,2.3,1.6c0,1.4-1.2,1.5-2.4,1.5
			c-5.7,0-11.5,0-17.2,0c-1.2,0-2.6-0.2-2.6-1.7c0-1.6,1.6-1.4,2.7-1.4C530.7,588.4,533.5,588.4,536.2,588.4z"/>
		<path id="XMLID_342_" d="M1064.7,511.2c11.8,0,23.5,0,35.3,0c4.4,0,4.8,0.4,4.8,4.7c0,8.9-0.1,17.7,0,26.6c0,3-1.1,4.2-4.1,4.2
			c-24-0.1-48.1-0.1-72.1,0c-2.8,0-4.1-1-4.1-3.9c0.1-9.1,0-18.2,0-27.3c0-3.7,0.5-4.3,4.3-4.3
			C1040.8,511.2,1052.7,511.2,1064.7,511.2z"/>
		<path id="XMLID_341_" d="M1104.8,600.8c-0.1,8.8,1.3,8.8-8.6,8.7c-9-0.1-9.4,1.3-9.3-9.2c0.1-8.5,0-8.5,8.4-8.5c0.1,0,0.2,0,0.3,0
			C1105.3,591.6,1104.9,591.5,1104.8,600.8z"/>
		<path id="XMLID_340_" fill="#000001" d="M1057.9,609.5c-9.6,0.1-8.9,0.5-8.9-9.1c0-7.9-1.1-8.8,8.5-8.7c9.3,0.1,9.2,0,9.3,9.2
			C1066.9,610.1,1066.9,609.6,1057.9,609.5z"/>
		<path id="XMLID_339_" fill="#010101" d="M1068.1,600.5c0.1-8.6-1.3-8.8,8.6-8.8c10.2,0,8.8,0,8.9,8.8c0,9.8,1.1,8.9-8.9,9
			C1066.7,609.6,1068.2,609.6,1068.1,600.5z"/>
		<path id="XMLID_338_" fill="#010101" d="M1096.1,628.3c-9.4,0.1-9.2,0.7-9.2-9.3c0-9.5,0.4-8.1,8.2-8.1c2.1,0,4.3,0,6.4,0
			c2.1,0,3.2,1,3.2,3.1c0,3.7,0,7.5,0,11.2c0,2.1-1.2,3.1-3.2,3.1C1099.8,628.3,1098,628.3,1096.1,628.3z"/>
		<path id="XMLID_337_" fill="#010101" d="M1057.6,628.3c-9.3,0-8.7,0.7-8.7-8.6c0-9.7-0.7-8.8,8.8-8.8c1.7,0,3.4,0.1,5.1,0
			c3-0.2,4,1.3,4,4.1c0,3.1,0,6.2,0,9.3c0,2.8-1.2,4.2-4,4.1C1061,628.2,1059.3,628.3,1057.6,628.3z"/>
		<path id="XMLID_336_" d="M1033.3,609.5c-9.1,0.1-8.2,0.5-8.2-8.3c0-1.9,0.1-3.8,0-5.8c-0.1-2.4,1.1-3.6,3.4-3.6
			c3.5-0.1,7-0.1,10.5,0c2.3,0,3.5,1.3,3.5,3.6c0,3.5-0.1,7,0,10.5c0,2.5-1.2,3.5-3.5,3.5C1037.2,609.5,1035.2,609.5,1033.3,609.5z"
			/>
		<path id="XMLID_335_" d="M1095.6,590.4c-8.6-0.1-8.6,1.4-8.7-8.7c0-9.8,0.6-8.7,8.8-8.8c9.6,0,9.1-0.5,9,9c0,9.1,0.7,8.4-8.5,8.4
			C1096.1,590.4,1095.9,590.4,1095.6,590.4z"/>
		<path id="XMLID_334_" fill="#010101" d="M1096.2,554.3c9.4,0,8.6-0.8,8.6,8.6c0,9.3,0.5,8.8-9,8.8c-8.5,0-8.9,0.9-8.9-9
			c0-9.8,0.3-8.4,8.3-8.4C1095.6,554.3,1095.9,554.3,1096.2,554.3z"/>
		<path id="XMLID_333_" d="M1058.2,554.3c1.4,0,2.8,0,4.2,0c3.6,0,4.4,0.7,4.4,4.2c0,3.1,0.1,6.2,0,9.3c-0.1,2.5-1.2,4-4,3.9
			c-3.3-0.1-6.6,0-9.9,0c-2.7,0-3.9-1.3-3.9-3.9c0-3.2,0.1-6.4,0-9.6c-0.1-2.7,1-4,3.8-3.9C1054.5,554.3,1056.3,554.3,1058.2,554.3z
			"/>
		<path id="XMLID_332_" d="M1057.7,590.4c-9.7,0-8.8,0.8-8.8-8.8c0-9.1-0.4-8.8,8.8-8.7c1.5,0,3,0,4.5,0c3.4,0,4.5,1,4.5,4.3
			c0.1,3.1,0,6.2,0,9.3c0,2.6-1.1,4-3.9,3.8C1061.2,590.4,1059.5,590.4,1057.7,590.4z"/>
		<path id="XMLID_331_" d="M1033.9,628.3c-9.6,0-8.8,0.9-8.8-8.7c0-9.7-0.8-8.7,8.8-8.7c9.5,0,8.7-0.9,8.7,8.8
			C1042.6,629,1043.2,628.3,1033.9,628.3z"/>
		<path id="XMLID_330_" d="M1068.1,619.1c0-9-0.7-8.3,8.3-8.3c1.9,0,3.8,0,5.8,0c2.4-0.1,3.5,1.1,3.4,3.5c0,3.5,0,7,0,10.6
			c0,2.3-1.1,3.3-3.3,3.3c-3.5,0-7,0-10.6,0c-2.6,0-3.7-1.2-3.6-3.7C1068.2,622.7,1068.1,620.9,1068.1,619.1z"/>
		<path id="XMLID_329_" d="M1076.7,590.4c-9.7-0.1-8.4,1.1-8.5-8.5c0-1.8,0-3.6,0-5.4c0-2.4,1.2-3.5,3.5-3.5c3.4,0,6.8,0,10.2,0
			c2.5,0,3.8,1,3.7,3.6c-0.1,3.5-0.1,7,0,10.5c0.1,2.3-0.9,3.4-3.2,3.3C1080.5,590.4,1078.6,590.4,1076.7,590.4z"/>
		<path id="XMLID_328_" d="M1077.1,554.3c9.8,0.1,8.5-1,8.5,8.6c0,9.5,0.9,8.8-8.7,8.9c-10,0.1-8.7-0.1-8.7-8.7
			c0-9.9-1.3-8.7,8.6-8.8C1076.9,554.3,1077,554.3,1077.1,554.3z"/>
		<path id="XMLID_327_" d="M1025.1,562.8c0.1-9.6-1.2-8.5,8.5-8.5c9.9,0,8.9-0.9,8.9,8.9c0,8.3,1.2,8.6-8.5,8.5
			C1024.1,571.6,1025.1,572.4,1025.1,562.8z"/>
		<path id="XMLID_326_" d="M1033.6,590.4c-9.7-0.1-8.4,1.1-8.5-8.6c0-9.5-1-8.8,8.7-8.9c9.9-0.1,8.7,0,8.7,8.6c0,1.2,0,2.3,0,3.5
			c0,5.2-0.2,5.3-5.5,5.3C1035.9,590.4,1034.7,590.4,1033.6,590.4z"/>
		<path id="XMLID_325_" fill="#040404" d="M304.1,263.7c23.8,0,47.5,0,71.3,0c0.9,0,1.7-0.1,2.6,0c1.5,0.2,2.4,1.1,2.3,2.5
			c-0.1,1.3-0.9,2.1-2.3,2.3c-0.7,0.1-1.5,0-2.2,0c-47.8,0-95.7,0-143.5,0c-0.9,0-1.7,0.1-2.6-0.1c-1.1-0.3-1.9-1.1-1.9-2.3
			c0-1.2,0.7-2,1.9-2.3c0.9-0.2,1.9-0.1,2.9-0.1C256.4,263.7,280.3,263.7,304.1,263.7z"/>
		<path id="XMLID_324_" fill="#010101" d="M329.9,280.6c0,4.2-3.7,7.8-7.8,7.7c-4.3-0.1-7.6-3.6-7.5-7.9c0.1-4.1,3.5-7.5,7.6-7.5
			C326.3,272.8,329.9,276.4,329.9,280.6z"/>
		<path id="XMLID_323_" fill="#010101" d="M350.4,280.4c0.1,4.2-3.5,7.8-7.7,7.8c-4.1,0-7.6-3.4-7.7-7.5c-0.1-4.3,3.2-7.9,7.5-8
			C346.8,272.7,350.4,276.2,350.4,280.4z"/>
		<path id="XMLID_322_" fill="#010101" d="M301.5,272.8c4.2,0,7.8,3.6,7.8,7.8c0,4.1-3.5,7.6-7.6,7.7c-4.2,0.1-7.8-3.4-7.9-7.6
			C293.8,276.4,297.2,272.8,301.5,272.8z"/>
		<path id="XMLID_321_" fill="#010101" d="M273.2,280.4c0.1-4.3,3.6-7.7,7.9-7.6c4.1,0.1,7.5,3.6,7.6,7.7c0,4.2-3.6,7.8-7.8,7.8
			C276.7,288.3,273.1,284.7,273.2,280.4z"/>
		<path id="XMLID_320_" fill="#020202" d="M260.3,362.8c-4.3,0-7.8-3.4-7.8-7.7c0-4.3,3.5-7.8,7.8-7.7c4.1,0.1,7.5,3.5,7.6,7.6
			C268.1,359.3,264.6,362.8,260.3,362.8z"/>
		<path id="XMLID_319_" fill="#010101" d="M293.8,299.3c0-4.3,3.4-7.8,7.7-7.8c4.2,0,7.8,3.6,7.7,7.8c-0.1,4.1-3.5,7.5-7.6,7.6
			C297.4,307,293.8,303.5,293.8,299.3z"/>
		<path id="XMLID_318_" fill="#010101" d="M343.2,328.8c4.3,0.2,7.5,3.9,7.3,8.2c-0.3,4.1-3.8,7.4-7.9,7.2c-4.3-0.2-7.6-3.8-7.4-8.1
			C335.3,331.9,338.9,328.6,343.2,328.8z"/>
		<path id="XMLID_317_" fill="#010101" d="M329.9,299.1c0.1,4.2-3.5,7.8-7.7,7.8c-4.1,0-7.6-3.3-7.7-7.5c-0.1-4.3,3.2-7.9,7.5-8
			C326.2,291.4,329.8,294.9,329.9,299.1z"/>
		<path id="XMLID_316_" fill="#020202" d="M314.5,336.5c0-4.3,3.4-7.8,7.7-7.7c4.2,0,7.8,3.6,7.7,7.8c-0.1,4.1-3.5,7.5-7.6,7.6
			C318,344.3,314.5,340.8,314.5,336.5z"/>
		<path id="XMLID_315_" fill="#010101" d="M322.1,310.1c4.2,0,7.8,3.5,7.7,7.8c0,4.2-3.7,7.7-7.9,7.7c-4.1-0.1-7.5-3.5-7.5-7.6
			C314.4,313.6,317.8,310.1,322.1,310.1z"/>
		<path id="XMLID_314_" fill="#010101" d="M355.7,280.4c0.1-4.3,3.6-7.8,7.9-7.7c4.2,0.1,7.6,3.7,7.5,8c-0.1,4.1-3.6,7.5-7.7,7.5
			C359.1,288.3,355.6,284.7,355.7,280.4z"/>
		<path id="XMLID_313_" fill="#010101" d="M335.1,318c-0.1-4.3,3.3-7.8,7.6-7.8c4.3,0,7.8,3.5,7.7,7.7c0,4.1-3.3,7.5-7.5,7.7
			C338.7,325.7,335.1,322.2,335.1,318z"/>
		<path id="XMLID_312_" fill="#010101" d="M371.1,336.6c0,4.2-3.7,7.8-7.9,7.7c-4.1-0.1-7.5-3.5-7.5-7.6c0-4.3,3.4-7.8,7.7-7.8
			C367.6,328.8,371.1,332.3,371.1,336.6z"/>
		<path id="XMLID_311_" fill="#010101" d="M342.6,291.5c4.3-0.1,7.8,3.4,7.9,7.6c0,4.3-3.5,7.8-7.7,7.8c-4.1,0-7.6-3.4-7.7-7.5
			C335,295.1,338.3,291.6,342.6,291.5z"/>
		<path id="XMLID_310_" fill="#010101" d="M293.8,317.7c0.1-4.3,3.7-7.7,7.9-7.6c4.2,0.1,7.7,3.8,7.5,8c-0.2,4.1-3.7,7.5-7.8,7.4
			C297.2,325.5,293.7,321.9,293.8,317.7z"/>
		<path id="XMLID_309_" fill="#010101" d="M273.2,336.5c0-4.3,3.5-7.7,7.8-7.7c4.1,0,7.5,3.4,7.7,7.5c0.1,4.2-3.4,7.8-7.6,7.9
			C276.7,344.2,273.2,340.8,273.2,336.5z"/>
		<path id="XMLID_308_" fill="#010101" d="M280.9,291.5c4.2,0,7.8,3.6,7.7,7.8c-0.1,4.1-3.5,7.6-7.6,7.6c-4.2,0.1-7.8-3.4-7.8-7.7
			C273.2,295,276.6,291.5,280.9,291.5z"/>
		<path id="XMLID_307_" fill="#020202" d="M293.8,336.7c-0.1-4.3,3.3-7.8,7.6-7.9c4.2-0.1,7.8,3.5,7.8,7.7c0,4.1-3.4,7.6-7.5,7.7
			C297.6,344.4,293.9,340.9,293.8,336.7z"/>
		<path id="XMLID_306_" fill="#010101" d="M273.2,317.7c0.1-4.3,3.6-7.7,7.9-7.5c4.1,0.1,7.5,3.6,7.5,7.7c0,4.2-3.6,7.8-7.8,7.7
			C276.6,325.5,273.1,322,273.2,317.7z"/>
		<path id="XMLID_305_" fill="#010101" d="M281,362.8c-4.3,0-7.8-3.3-7.8-7.6c0-4.3,3.5-7.8,7.7-7.7c4.1,0,7.6,3.4,7.7,7.5
			C288.8,359.1,285.3,362.8,281,362.8z"/>
		<path id="XMLID_304_" fill="#010101" d="M371.1,299.2c0,4.3-3.6,7.8-7.8,7.7c-4.2,0-7.7-3.7-7.6-7.9c0.1-4.1,3.5-7.5,7.6-7.5
			C367.6,291.4,371.1,295,371.1,299.2z"/>
		<path id="XMLID_303_" fill="#010101" d="M371.1,317.9c0,4.3-3.6,7.7-7.9,7.6c-4.1-0.1-7.5-3.5-7.5-7.6c0-4.3,3.4-7.8,7.7-7.8
			C367.6,310.1,371.1,313.6,371.1,317.9z"/>
		<path id="XMLID_302_" fill="#010101" d="M252.6,318c-0.1-4.3,3.4-7.8,7.6-7.9c4.2,0,7.8,3.5,7.8,7.7c0,4.1-3.3,7.6-7.5,7.7
			C256.3,325.7,252.7,322.2,252.6,318z"/>
		<path id="XMLID_301_" fill="#010101" d="M252.6,299.1c0.1-4.3,3.6-7.7,7.9-7.6c4.1,0.1,7.5,3.5,7.5,7.7c0,4.2-3.5,7.8-7.7,7.8
			C256,306.9,252.5,303.3,252.6,299.1z"/>
		<path id="XMLID_300_" fill="#010101" d="M252.6,336.4c0-4.3,3.5-7.7,7.8-7.7c4.1,0.1,7.5,3.5,7.6,7.6c0.1,4.2-3.4,7.8-7.7,7.9
			C256.1,344.3,252.6,340.7,252.6,336.4z"/>
		<path id="XMLID_299_" fill="#010101" d="M268,280.5c0,4.2-3.5,7.8-7.7,7.8c-4.1,0-7.5-3.4-7.6-7.6c-0.1-4.3,3.3-7.9,7.5-8
			C264.3,272.7,267.9,276.3,268,280.5z"/>
		<path id="XMLID_298_" fill="#010101" d="M247.3,355.2c0,4.3-3.5,7.7-7.8,7.6c-4.2-0.1-7.5-3.5-7.5-7.6c0-4.2,3.5-7.8,7.8-7.8
			C243.9,347.4,247.3,350.9,247.3,355.2z"/>
		<path id="XMLID_297_" fill="#010101" d="M247.3,336.4c0,4.3-3.4,7.8-7.7,7.8c-4.1,0-7.5-3.4-7.7-7.5c-0.1-4.2,3.3-7.8,7.6-7.9
			C243.8,328.7,247.3,332.1,247.3,336.4z"/>
		<path id="XMLID_296_" fill="#010101" d="M231.9,317.8c0-4.2,3.7-7.7,7.9-7.7c4.3,0.1,7.6,3.6,7.5,7.9c-0.1,4.2-3.5,7.5-7.6,7.5
			C235.5,325.6,231.9,322,231.9,317.8z"/>
		<path id="XMLID_295_" fill="#010101" d="M231.9,299.2c0-4.2,3.6-7.8,7.8-7.7c4.2,0,7.5,3.4,7.6,7.6c0.1,4.3-3.3,7.9-7.6,7.9
			C235.6,307,231.9,303.4,231.9,299.2z"/>
		<path id="XMLID_294_" fill="#040506" d="M303.8,249.5c-23.7,0-47.5,0-71.2,0c-0.9,0-1.7,0-2.6,0c-1.2,0-2.1-0.6-2.1-1.9
			c0-1.2,0.4-2.2,1.7-2.4c1-0.2,2.1-0.2,3.2-0.2c47.4,0,94.8,0,142.2,0c1.2,0,2.4,0.1,3.5,0.2c1.2,0.2,1.9,1,1.9,2.2
			c-0.1,1.1-0.8,2-2,2.1c-0.9,0.1-1.7,0-2.6,0C351.7,249.5,327.8,249.5,303.8,249.5z"/>
		<path id="XMLID_293_" fill="#C3F6FE" d="M378.5,250.6c-49.6,0-99.2,0-148.8,0c0-0.1,0-0.2,0-0.3c49.6,0,99.2,0,148.8,0
			C378.5,250.3,378.5,250.4,378.5,250.6z"/>
		<path id="XMLID_292_" fill="#020405" d="M416,536.3c0,2.3-1.1,3.7-3.4,3.8c-2.2,0-3.6-1.2-3.7-3.5c0-2.1,1.1-3.6,3.2-3.6
			C414.3,532.9,416,533.8,416,536.3z"/>
		<path id="XMLID_291_" fill="#F6F6F8" d="M1075.3,354.3c0-20,0-40-0.1-60c0-2.5,0.5-3.3,3.1-3.2c7.3,0.2,7.3,0,7.3,7.3
			c0,38.8,0,77.7,0,116.5c0,4.4-1.7,6.3-5.4,6.2c-3.3-0.1-4.9-2-4.9-5.7C1075.3,395,1075.3,374.7,1075.3,354.3z"/>
		<path id="XMLID_290_" fill="#F5F5F7" d="M1080.2,279c-0.3,0-0.7,0.1-1,0c-1.3-0.4-3.4,1.1-3.8-0.9c-0.5-2.3-0.5-5,2.1-6.5
			c2.1-1.3,4.2-1.2,6.3,0.2c2.4,1.6,1.9,4.1,1.9,6.4c0,1.2-1,0.9-1.6,0.9C1082.8,279,1081.5,279,1080.2,279z"/>
		<path id="XMLID_289_" fill="#DEDC00" d="M247.9,531.2c0,27.6,0,55.2,0,82.8c0,5.7-2.6,8.4-7.8,8.2c-3.4-0.2-6.1-2.5-6.5-5.9
			c-0.1-0.9-0.1-1.9-0.1-2.9c0-55,0-109.9-0.1-164.9c0-3,0.8-3.6,3.6-3.4c2.5,0.2,5.2,0.3,7.7,0c2.8-0.3,3.2,0.8,3.2,3.4
			c-0.1,25.7-0.1,51.3-0.1,77C247.9,527.4,247.9,529.3,247.9,531.2z"/>
		<path id="XMLID_288_" fill="#DEDC00" d="M240.6,429.5c-0.4,0-0.9,0.1-1.3,0c-1.9-0.9-5.1,2-5.7-1.6c-0.9-5.7,1.2-9.6,5-10.4
			c4.4-0.8,7.9,1,8.9,4.7c0,0.1,0,0.2,0.1,0.3C249.1,428.9,248.4,429.5,240.6,429.5z"/>
		<path id="XMLID_287_" fill="#EDBA3E" d="M480.5,533.1c-0.1-0.8-0.2-1.7-0.2-2.5c0-57.7,0-115.3,0-173c0-0.7,0.1-1.5,0.2-2.2
			c0.4,0.2,0.6,0.4,0.8,0.8c0.7,4,0.2,8,0.3,12c0.1,1.2-0.3,2.6,0.6,3.7c1.8,0.7,3.6,0.4,5.4,0.4c58.6,0,117.2,0,175.8,0
			c8.2,0,8.5,0.4,5.4,8c-0.7,1.7-1.1,3.5-2.5,4.8c-1.7,1-3.5,0.7-5.3,0.7c-33.5,0-67,0-100.4,0c-10.6,0-18.5,7.9-18.5,18.6
			c0,24.1,0,48.1,0,72.2c0,9.3,3.5,14.2,12.2,17.5c4.4,1.7,9.1,2.5,13.8,2.8c3.8,0.3,4.5,1.4,2.6,4.9c-1.4,2.7-3.7,4.7-6,6.6
			c-2.5,2.1-5,4-7.5,6c-1.4,1.1-2.5,2.5-1.9,4.4c0.6,2,2.5,2.3,4.2,2.3c9.5,0,18.6-2.2,27.3-6.1c8.2-3.7,15-9.3,21.3-15.8
			c3.3-3.5,8.5-4.2,12.9-2.1c0.7,1.3,0.1,2.5-0.4,3.7c-3.9,9.8-7.8,19.6-11.8,29.5c-0.6,1.5-1.1,3.1-3.2,3.1c-40.5,0-81.1,0-121.6,0
			C482.8,533.5,481.6,533.8,480.5,533.1z"/>
		<path id="XMLID_286_" fill="#8EECF4" d="M765.4,373.2c2.2,0.4,1.1,2.1,1.1,3.1c0.1,19.8,0.1,39.6,0.1,59.4c0,31.7,0,63.3,0.1,95
			c0,2.6-0.8,3.3-3.3,3.3c-48.6,0-97.1,0-145.7,0c-0.4,0-0.8-0.1-1.3-0.1c-0.6-1.3,0.1-2.5,0.6-3.6c3.9-9.9,7.7-19.8,11.7-29.6
			c0.6-1.6,1.1-3.3,3-3.9c1.7-0.4,3.4-0.3,5.1-0.3c20.2,0,40.4-0.1,60.6,0c8,0.1,12.7-4.8,17-10.4c1-1.3,1-3,1-4.6
			c0-26.9,0.1-53.9,0-80.8c0-7.1-7.7-14.1-15.8-14.5c-5.3-0.2-10.7,0-16-0.1c-1.5,0-3,0-4.5,0c-1.2-0.1-2.4,0-3.3-1
			c-0.3-4.3,1.8-7.8,3.9-11.2c1-1.6,3-1.3,4.7-1.4c8.3,0,16.7,0,25,0c16.8,0,33.6,0,50.3,0C761.6,372.3,763.6,372.1,765.4,373.2z"/>
		<path id="XMLID_285_" fill="#F6F6F8" d="M631,497.3c-4.5,11.2-9,22.3-13.5,33.5c-0.4,1-0.8,2-1.2,3c-3.3,0-6.5,0-9.8,0
			c-0.2-0.1-0.3-0.2-0.2-0.3c0.1-0.1,0.2-0.2,0.2-0.2c4.7-11.8,9.4-23.5,14.2-35.3c-0.1-3.2,1.8-5.8,2.5-8.7
			c11.4-27.5,22.1-55.4,33.2-83c1.7-4.4,3.5-8.7,5.2-13.1c1.4-2.7,1.8-5.9,4-8.2c1.4-3.2,2.7-6.5,4.1-9.7c0.8-1.7,0-2.1-1.5-2
			c-0.5,0-1.1,0-1.6,0c-60.8,0-121.5,0-182.3,0c-1.2,0-2.5,0.6-3.6-0.6c1.2-1.9,0.1-3.9,0.1-5.9c0.1-3.8,0.3-7.5-0.1-11.3l-0.2-0.1
			c0,0-0.2,0-0.2,0c0.8-1.1,2-0.6,3-0.6c93,0,186,0,279.1,0c0.8,0,1.9-0.6,2.6,0.5c-0.5,0.5-0.7,1-0.6,1.7c0.2,4.4,0,8.9,0.1,13.3
			c0,0.8-0.1,1.7,0.6,2.3c0.2,0.1,0.2,0.3,0.2,0.5c-16.5,0-32.9,0.1-49.4,0.1c-10.8,0-21.6,0.1-32.4-0.1c-2.6,0-3.9,0.8-4.6,3.3
			c-0.8,2.9-2.4,5.4-3.1,8.4c0,3.1-2,5.6-2.8,8.5c-12,30.2-24,60.3-36.1,90.5c-0.5,1.3-1.1,2.6-1.6,3.8
			C633.9,490.9,633.5,494.6,631,497.3z"/>
		<path id="XMLID_284_" fill="#D9C184" d="M606.6,533.2c0,0.2,0,0.3,0,0.5c-1.3,0.1-2.6,0.2-3.8,0.2c-39.7,0-79.5,0-119.2,0
			c-1,0-2.4,0.8-3.1-0.7c36.5,0,73,0,109.4,0.1C595.5,533.2,601,533.2,606.6,533.2z"/>
		<path id="XMLID_283_" fill="#FCFCFD" d="M765.1,372.7c-0.9,0-1.4,0-1.4-1.4c-0.1-5.1,0.9-10.1-0.5-15.2c-0.3-1.3,1.2-0.6,1.8-0.8
			C765.5,361.1,765.3,366.9,765.1,372.7z"/>
		<path id="XMLID_282_" fill="#C6DEEA" d="M1064.6,541c-10.6,0-21.2-0.1-31.8,0.1c-2.2,0-2.6-0.6-2.6-2.7c0.1-6.4,0.1-12.8,0-19.3
			c0-1.8,0.4-2.4,2.3-2.4c21.4,0.1,42.8,0.1,64.2,0c2.1,0,2.5,0.7,2.4,2.6c-0.1,6.4-0.1,12.8,0,19.3c0,2-0.4,2.5-2.5,2.5
			C1086,540.9,1075.3,541,1064.6,541z"/>
		<path id="XMLID_281_" fill="#A9AAAD" d="M1099,600.6c0.6,2.5-0.4,3.2-2.9,3.2c-2.5,0-3.4-0.6-3.4-3.3c0-2.7,1-3,3.3-3.1
			C1098.4,597.5,1099.7,598,1099,600.6z"/>
		<path id="XMLID_280_" fill="#A9AAAE" d="M1058,603.7c-2.3,0.4-3.5,0.1-3.4-2.8c0.1-2.5,0.5-3.5,3.3-3.4c2.4,0.1,3.3,0.5,3.2,3.1
			C1061,603,1060.7,604.4,1058,603.7z"/>
		<path id="XMLID_279_" fill="#B2B3B7" d="M1076.9,603.7c-2.7,0.7-3.1-0.6-3.1-3c-0.1-2.6,0.8-3.1,3.2-3.1c2.6,0,3.1,0.8,3.1,3.2
			C1080.1,603.3,1079.4,604.3,1076.9,603.7z"/>
		<path id="XMLID_278_" fill="#B3B4B8" d="M1096.1,616.6c2.7-0.7,2.9,0.7,3.1,3c0.2,2.8-1.1,2.9-3.3,3c-2.6,0.1-3.1-0.8-3.1-3.2
			C1092.7,616.7,1093.7,616.1,1096.1,616.6z"/>
		<path id="XMLID_277_" fill="#B3B4B8" d="M1054.8,619.2c-0.8-3.3,1.5-2.5,3.3-2.8c3-0.5,2.7,1.3,3,3.3c0.4,3.2-1.6,2.5-3.5,2.8
			C1054.6,623,1054.3,621.4,1054.8,619.2z"/>
		<path id="XMLID_276_" fill="#A8A8AC" d="M1036.8,600.8c0.8,3.2-1.2,2.8-3.2,3.1c-3,0.3-2.8-1.3-3-3.4c-0.3-3,1.2-2.9,3.4-3
			C1036.8,597.3,1037.4,598.4,1036.8,600.8z"/>
		<path id="XMLID_275_" fill="#A9AAAE" d="M1095.8,584.9c-2.7,0.7-3.1-0.6-3.1-3c-0.1-2.6,0.7-3.1,3.2-3.2c2.7,0,3.2,0.8,3.3,3.3
			C1099.3,584.8,1098.2,585.4,1095.8,584.9z"/>
		<path id="XMLID_274_" fill="#A8A9AD" d="M1096.2,565.8c-2.7,0.6-3.5-0.3-3.5-2.9c0-2.5,0.7-3.3,3.2-3.2c2.4,0.1,3.4,0.5,3.3,3.1
			C1099.1,565.2,1098.9,566.7,1096.2,565.8z"/>
		<path id="XMLID_273_" fill="#A9AAAD" d="M1057.8,565.8c-2.8,0.8-3.1-0.7-3.3-3.1c-0.2-2.9,1.2-2.9,3.3-3c2.6-0.1,3.2,0.7,3.2,3.2
			C1061.1,565.4,1060.4,566.4,1057.8,565.8z"/>
		<path id="XMLID_272_" fill="#A9AAAE" d="M1057.9,584.8c-2.7,0.6-3.3-0.4-3.4-2.9c-0.1-2.8,0.9-3.2,3.4-3.2c2.7-0.1,3,0.9,3.1,3.3
			C1061.1,584.5,1060.4,585.6,1057.9,584.8z"/>
		<path id="XMLID_271_" fill="#B3B4B8" d="M1033.9,622.4c-2.9,0.8-3.1-0.7-3.3-3c-0.2-2.9,1.2-2.9,3.4-3c2.5-0.1,3,0.7,3,3
			C1036.9,621.9,1036.5,623.3,1033.9,622.4z"/>
		<path id="XMLID_270_" fill="#B4B5B9" d="M1073.9,619.5c-0.7-2.7,0.7-3,3-3.1c2.4,0,3.2,0.6,3.2,3.1c0,2.6-0.8,3.1-3.2,3.1
			C1074.5,622.6,1073.2,622.2,1073.9,619.5z"/>
		<path id="XMLID_269_" fill="#AFAFB3" d="M1077.1,584.8c-2.8,0.7-3.3-0.5-3.4-3c0-2.6,0.7-3.1,3.2-3.1c2.5,0,3.3,0.6,3.2,3.1
			C1080,584.2,1079.8,585.8,1077.1,584.8z"/>
		<path id="XMLID_268_" fill="#AEAFB3" d="M1077.1,559.9c2.9-0.7,2.8,1,3,3.2c0.3,2.9-1.2,2.8-3.3,3c-2.8,0.2-2.9-1.1-3-3.3
			C1073.5,559.9,1074.7,559.4,1077.1,559.9z"/>
		<path id="XMLID_267_" fill="#ADAEB2" d="M1033.8,559.8c2.5-0.6,3.2,0.4,3.2,3c0,2.5-0.6,3.1-3.1,3.2c-2.8,0.1-3.2-1-3.2-3.4
			C1030.6,560,1031.5,559.4,1033.8,559.8z"/>
		<path id="XMLID_266_" fill="#B2B3B7" d="M1030.8,582c-0.5-2.4,0.2-3.3,2.9-3.3c2.7,0,3.2,0.8,3.3,3.4c0.2,3-1.4,2.8-3.4,2.9
			C1031.2,585.1,1030.1,584.4,1030.8,582z"/>
		<path id="XMLID_265_" fill="#DDDEE0" d="M325.1,280.6c-0.4,1.7-1.3,2.9-3,2.8c-1.9-0.1-3-1.3-2.8-3.2c0.2-1.7,1.3-2.7,3.1-2.6
			C324.1,277.8,324.9,279,325.1,280.6z"/>
		<path id="XMLID_264_" fill="#9C9BA1" d="M345.8,280.6c-0.4,1.6-1.2,2.8-3,2.8c-1.9,0-3-1.2-2.8-3.1c0.1-1.7,1.2-2.8,2.9-2.7
			C344.6,277.7,345.4,279,345.8,280.6z"/>
		<path id="XMLID_263_" fill="#DDDEE0" d="M304.5,280.5c-0.3,1.6-1.1,2.8-2.8,2.9c-1.9,0.1-3.1-1.1-3.1-2.9c0-1.8,1.2-3,3-2.9
			C303.4,277.7,304.2,278.9,304.5,280.5z"/>
		<path id="XMLID_262_" fill="#DBDCDE" d="M280.9,283.5c-1.8-0.3-3-1.3-2.9-3.2c0.1-1.6,1.2-2.8,2.9-2.7c1.9,0.1,2.9,1.2,2.8,3.1
			C283.7,282.4,282.5,283.3,280.9,283.5z"/>
		<path id="XMLID_261_" fill="#DDDEE0" d="M263.2,355.1c-0.1,1.7-1,2.8-2.8,2.9c-1.8,0.1-2.9-1-3-2.7c-0.1-1.9,1.1-3.1,2.9-3.1
			C262,352.2,263,353.3,263.2,355.1z"/>
		<path id="XMLID_260_" fill="#DDDEE0" d="M301.4,296.2c1.8,0.1,3,1.2,3,3c0,1.6-1.1,2.8-2.8,2.8c-1.9,0-3-1.2-3-2.9
			C298.6,297.5,299.7,296.5,301.4,296.2z"/>
		<path id="XMLID_259_" fill="#9B9A9F" d="M345.7,336.4c-0.2,1.6-1,2.8-2.7,3c-1.8,0.1-2.9-0.8-3-2.5c-0.2-1.9,0.9-3.1,2.8-3.2
			C344.4,333.5,345.4,334.7,345.7,336.4z"/>
		<path id="XMLID_258_" fill="#DDDEE0" d="M325.1,299.3c-0.4,1.6-1.3,2.9-3.1,2.8c-1.9-0.1-3-1.3-2.8-3.2c0.2-1.7,1.3-2.7,3.1-2.6
			C324.1,296.4,324.9,297.7,325.1,299.3z"/>
		<path id="XMLID_257_" fill="#DFE0E2" d="M325.1,336.5c-0.4,1.6-1.2,2.8-2.9,2.8c-1.7,0-2.8-1-2.9-2.8c-0.1-1.9,1.1-3.1,3-3
			C324,333.6,324.9,334.9,325.1,336.5z"/>
		<path id="XMLID_256_" fill="#E0E1E2" d="M322,314.9c1.8,0.2,3,1.2,3,2.8c0.1,1.8-1.1,3-3,3c-1.7-0.1-2.8-1.2-2.7-2.9
			C319.3,316,320.4,315.2,322,314.9z"/>
		<path id="XMLID_255_" fill="#9B9A9F" d="M366.4,280.5c-0.2,1.7-1.1,2.8-2.8,3c-1.8,0.1-2.9-0.9-3-2.6c-0.2-1.9,0.9-3.1,2.8-3.1
			C365.1,277.6,366,278.8,366.4,280.5z"/>
		<path id="XMLID_254_" fill="#9B9A9F" d="M345.7,317.7c-0.2,1.6-1,2.8-2.7,3c-1.8,0.2-2.9-0.8-3-2.6c-0.2-1.9,0.9-3.1,2.7-3.2
			C344.5,314.9,345.3,316.1,345.7,317.7z"/>
		<path id="XMLID_253_" fill="#9B9A9F" d="M363.4,333.5c1.7,0.3,2.9,1.3,2.9,3c-0.1,1.8-1.2,3-3.1,2.8c-1.7-0.1-2.7-1.3-2.6-3
			C360.6,334.6,361.8,333.7,363.4,333.5z"/>
		<path id="XMLID_252_" fill="#9B9A9F" d="M345.7,299.2c-0.3,1.6-1.2,2.8-3,2.8c-1.9,0-3-1.2-2.8-3.1c0.1-1.7,1.2-2.8,3-2.7
			C344.6,296.4,345.5,297.6,345.7,299.2z"/>
		<path id="XMLID_251_" fill="#E0E1E2" d="M304.5,317.8c-0.3,1.6-1.1,2.9-2.9,2.9c-1.9,0-3-1.2-3-3c0.1-1.7,1.2-2.8,3-2.7
			C303.4,315,304.2,316.2,304.5,317.8z"/>
		<path id="XMLID_250_" fill="#DDDEE0" d="M281,333.5c1.7,0.3,2.8,1.2,2.8,3c0,1.7-1,2.9-2.8,2.9c-1.9,0-3-1.2-3-3.1
			C278.1,334.6,279.3,333.7,281,333.5z"/>
		<path id="XMLID_249_" fill="#DCDDDF" d="M280.9,296.2c1.7,0.2,2.8,1.1,2.9,2.8c0.1,1.8-1,3-2.9,3c-1.7,0-2.8-1.1-2.9-2.7
			C277.9,297.5,279.1,296.5,280.9,296.2z"/>
		<path id="XMLID_248_" fill="#DEDFE1" d="M304.5,336.5c-0.5,1.8-1.4,3-3.2,2.8c-1.9-0.2-2.9-1.4-2.7-3.3c0.2-1.6,1.4-2.7,3.2-2.5
			C303.6,333.8,304.3,335.1,304.5,336.5z"/>
		<path id="XMLID_247_" fill="#DCDDDF" d="M283.8,317.9c-0.3,1.6-1.1,2.8-2.9,2.8c-1.8,0-2.9-1.1-2.9-2.8c0-1.8,1.1-3,3-3
			C282.8,315,283.7,316.2,283.8,317.9z"/>
		<path id="XMLID_246_" fill="#DBDBDD" d="M281,358c-1.9-0.1-3-1.2-3-3c0-1.7,1.2-2.8,2.8-2.8c1.8,0,3,1.1,3,3
			C283.8,356.9,282.7,357.8,281,358z"/>
		<path id="XMLID_245_" fill="#9B9A9F" d="M363.4,302.1c-1.6-0.2-2.8-1.1-2.9-2.8c-0.1-1.7,0.9-2.9,2.6-3c1.9-0.1,3.1,1.1,3.1,2.9
			C366.3,300.9,365.2,301.9,363.4,302.1z"/>
		<path id="XMLID_244_" fill="#9A999E" d="M366.4,317.8c-0.3,1.6-1.2,2.9-2.9,2.9c-1.9,0-3-1.1-2.9-3c0.1-1.7,1.2-2.8,3-2.7
			C365.2,315,366.1,316.2,366.4,317.8z"/>
		<path id="XMLID_243_" fill="#DBDCDD" d="M260.4,320.8c-2-0.3-3.2-1.3-3.1-3.1c0.1-1.6,1.2-2.8,2.9-2.7c1.8,0,2.9,1.1,2.9,3
			C263.1,319.7,261.9,320.5,260.4,320.8z"/>
		<path id="XMLID_242_" fill="#DBDCDE" d="M260.2,296.2c1.7,0.2,2.8,1,2.9,2.8c0.1,1.8-0.9,2.9-2.6,3.1c-1.9,0.2-3.1-1-3.2-2.9
			C257.3,297.5,258.5,296.5,260.2,296.2z"/>
		<path id="XMLID_241_" fill="#DDDEE0" d="M260.3,333.5c1.7,0.4,2.9,1.2,2.9,3c-0.1,1.9-1.2,3-3.1,2.9c-1.7-0.1-2.7-1.3-2.6-3
			C257.5,334.6,258.7,333.7,260.3,333.5z"/>
		<path id="XMLID_240_" fill="#DBDCDE" d="M263.2,280.6c-0.2,1.7-1.1,2.8-2.8,2.9c-1.9,0.1-3-1.1-3-2.9c0-1.8,1.2-3,3.1-2.9
			C262.1,277.7,263,278.9,263.2,280.6z"/>
		<path id="XMLID_239_" fill="#DBDCDE" d="M242.6,355.3c-0.3,1.6-1.1,2.7-2.9,2.7c-1.9,0-3-1.1-2.9-3c0-1.7,1.2-2.8,2.8-2.8
			C241.4,352.2,242.4,353.4,242.6,355.3z"/>
		<path id="XMLID_238_" fill="#DADBDD" d="M242.6,336.6c-0.2,1.7-1.1,2.8-2.8,2.8c-1.9,0-3-1.2-3-3c0-1.7,1.2-2.8,2.8-2.8
			C241.4,333.5,242.4,334.7,242.6,336.6z"/>
		<path id="XMLID_237_" fill="#D9DADC" d="M242.6,318.2c-0.4,1.6-1.3,2.7-3,2.6c-1.8-0.1-2.9-1.3-2.8-3.2c0.2-1.6,1.3-2.7,3-2.6
			C241.6,315.1,242.5,316.3,242.6,318.2z"/>
		<path id="XMLID_236_" fill="#DADADC" d="M242.6,299c-0.1,1.7-1,2.9-2.7,3c-1.9,0.1-3.1-1-3.2-2.8c-0.1-1.8,1.1-3,2.9-3
			C241.4,296.3,242.3,297.4,242.6,299z"/>
		<path id="XMLID_235_" fill="#F6DE89" d="M665.7,384.9c-0.8,2.9-1.9,5.7-3.3,8.4c-1.6,1.3-3.5,0.9-5.3,0.9c-31.7,0-63.3,0-95,0
			c-3.3,0-6.1,0.7-8.2,3.4c-1.5,1.8-2.2,3.9-2.2,6.2c0,24.5-0.1,49,0,73.5c0,6.4,4.6,10.6,11,10.7c4.1,0,8.1-0.1,12.2,0
			c5,0.1,6.6,2.3,6.5,7.3c-0.2,4.6-1,8.9-3.4,13.3c2.8,0,4.8-1.3,6.9-2.2c6-2.4,11-6.2,14.4-11.8c0.7-1.1,1.5-2.1,2.2-3.1
			c1.7-2.5,4-3.6,7.1-3.5c3.7,0.1,7.5,0,11.2,0.1c1.5,0,3.1-0.2,4,1.5c-0.4,3.1-1.9,5.7-3,8.5c-4.6-1-8.9-1.7-12.7,2.6
			c-10.2,11.5-23.2,18.3-38.3,20.9c-3.4,0.6-6.9,1.2-10.5,0.9c-2-0.2-4.3-0.3-5.1-2.5c-0.9-2.6,0.4-4.5,2.4-6
			c3.7-2.8,7.5-5.6,10.8-9c0.4-0.5,1-0.9,1.3-1.4c1-1.5,2.7-3.2,2.1-4.8c-0.6-1.5-2.9-0.5-4.4-0.7c-7.5-1-14.7-2.4-20.6-7.8
			c-3.4-3.1-4.7-7-4.7-11.5c0-25.5,0-50.9,0-76.4c0-8.6,9.1-17.4,17.7-17.4C594.4,384.9,630,384.9,665.7,384.9z"/>
		<path id="XMLID_234_" fill="#FCFCFD" d="M480.8,355.4c1.1-0.2,1.5,0.1,1.2,1.3c-1.1,4.8-1.1,9.7,0,14.5c0.3,1.3-0.2,1.5-1.2,1.4
			C480.6,366.9,480.5,361.2,480.8,355.4z"/>
		<path id="XMLID_233_" fill="#C8FEFE" d="M631,497.3c1.3-3.2,2.5-6.5,3.8-9.7c14.8,0.7,29.5,0.2,44.3,0.3c5.9,0.1,11.8,0.1,17.7,0
			c5.7-0.1,8.7-3.3,9.1-8.9c0.7-9.7,1-19.5,0.5-29.2c-0.8-15.7-0.4-31.4-0.6-47.1c-0.1-4.8-3.3-8.2-8.2-8.3
			c-6.7-0.2-13.5,0-20.2-0.1c-1.6,0-3.2,0.3-4.6-1c0.5-3,1.8-5.7,3.2-8.3c7.6,0,15.2,0.1,22.8,0c8.4-0.1,13.1,5,17.2,11.4
			c0.7,1.2,0.5,2.5,0.5,3.8c0,26.3-0.2,52.6,0.2,78.9c0.1,6.8-3.1,10.7-7.7,14.4c-3.6,2.9-7.6,4.1-12.4,4
			C674.6,497.1,652.8,497.3,631,497.3z"/>
		<path id="XMLID_232_" fill="#EDBA3E" d="M623.8,489.4c-6-1.1-12.1-0.3-18.2-0.4c-1.4,0-2.1,1.3-2.8,2.4
			c-3.9,5.5-7.4,11.3-13.9,14.2c-4,1.8-7.9,3.7-12.5,4.7c0.8-1.9,1.2-3.6,2.1-4.9c2.5-4,1.7-8.5,2.2-12.8c0.2-2.2-2-3.8-4.6-3.8
			c-4.6,0-9.2,0-13.8,0c-6.5,0-11.5-5.1-11.5-11.7c0-18.2,0-36.3,0-54.5c0-6.6,0-13.3,0-19.9c0.1-4.9,4.6-9.5,9.3-9.5
			c34.1,0,68.2,0,102.3,0c-4.8,12.1-9.5,24.2-14.3,36.3c-7.5,18.8-15,37.7-22.5,56.5C625.1,487.2,624.4,488.3,623.8,489.4z"/>
		<path id="XMLID_231_" fill="#8EECF4" d="M672.7,393.2c8.4,0,16.9,0,25.3,0c4.5,0,8.7,4.2,8.7,8.6c0,3.8,0.1,7.7,0,11.5
			c-0.4,16.6,0.6,33.1,0.7,49.6c0,6.1-0.8,12.1-0.7,18.2c0,3.3-4.5,7.6-7.9,7.6c-20.5,0-41.1,0-61.6,0c-1,0-2.2,0.2-2.5-1.3
			c10.1-25.4,20.2-50.7,30.4-76.1C667.6,405.4,669.6,399,672.7,393.2z"/>
		<path id="XMLID_230_" fill="#FCFCFD" d="M623.2,367.5c-44.5,0-89,0-133.5,0c-3.7,0-4.3-0.8-3.8-4.4c0.2-1.6,1.1-2.5,2.7-2.7
			c0.6-0.1,1.3,0,1.9,0c88.4,0,176.8,0,265.2,0c4.3,0,5.3,1,5.1,4.6c-0.1,1.8-0.9,2.5-2.6,2.4c-0.9,0-1.7,0-2.6,0
			C711.4,367.5,667.3,367.5,623.2,367.5z"/>
	</g>
</g>
<g id="XMLID_2_">
	<rect id="XMLID_386_" x="1021.2" y="548.4" fill="#504F54" width="85.6" height="79.5"/>
	<g id="XMLID_383_">
		<rect id="XMLID_385_" x="1025.7" y="553.7" width="16.1" height="16.1"/>
		<rect id="XMLID_382_" x="1030.1" y="558" fill="#AEAFB3" width="7.4" height="7.4"/>
	</g>
	<g id="XMLID_387_">
		<rect id="XMLID_389_" x="1025.7" y="572.3" width="16.1" height="16.1"/>
		<rect id="XMLID_388_" x="1030.1" y="576.6" fill="#AEAFB3" width="7.4" height="7.4"/>
	</g>
	<g id="XMLID_390_">
		<rect id="XMLID_392_" x="1025.7" y="590.9" width="16.1" height="16.1"/>
		<rect id="XMLID_391_" x="1030.1" y="595.2" fill="#AEAFB3" width="7.4" height="7.4"/>
	</g>
	<g id="XMLID_393_">
		<rect id="XMLID_395_" x="1025.7" y="609.5" width="16.1" height="16.1"/>
		<rect id="XMLID_394_" x="1030.1" y="613.8" fill="#AEAFB3" width="7.4" height="7.4"/>
	</g>
	<g id="XMLID_405_">
		<rect id="XMLID_407_" x="1051.3" y="553.7" width="16.1" height="16.1"/>
		<rect id="XMLID_406_" x="1055.6" y="558" fill="#AEAFB3" width="7.4" height="7.4"/>
	</g>
	<g id="XMLID_402_">
		<rect id="XMLID_404_" x="1051.3" y="572.3" width="16.1" height="16.1"/>
		<rect id="XMLID_403_" x="1055.6" y="576.6" fill="#AEAFB3" width="7.4" height="7.4"/>
	</g>
	<g id="XMLID_399_">
		<rect id="XMLID_401_" x="1051.3" y="590.9" width="16.1" height="16.1"/>
		<rect id="XMLID_400_" x="1055.6" y="595.2" fill="#AEAFB3" width="7.4" height="7.4"/>
	</g>
	<g id="XMLID_396_">
		<rect id="XMLID_398_" x="1051.3" y="609.5" width="16.1" height="16.1"/>
		<rect id="XMLID_397_" x="1055.6" y="613.8" fill="#AEAFB3" width="7.4" height="7.4"/>
	</g>
	<g id="XMLID_417_">
		<rect id="XMLID_419_" x="1069.7" y="553.7" width="16.1" height="16.1"/>
		<rect id="XMLID_418_" x="1074" y="558" fill="#AEAFB3" width="7.4" height="7.4"/>
	</g>
	<g id="XMLID_414_">
		<rect id="XMLID_416_" x="1069.7" y="572.3" width="16.1" height="16.1"/>
		<rect id="XMLID_415_" x="1074" y="576.6" fill="#AEAFB3" width="7.4" height="7.4"/>
	</g>
	<g id="XMLID_411_">
		<rect id="XMLID_413_" x="1069.7" y="590.9" width="16.1" height="16.1"/>
		<rect id="XMLID_412_" x="1074" y="595.2" fill="#AEAFB3" width="7.4" height="7.4"/>
	</g>
	<g id="XMLID_408_">
		<rect id="XMLID_410_" x="1069.7" y="609.5" width="16.1" height="16.1"/>
		<rect id="XMLID_409_" x="1074" y="613.8" fill="#AEAFB3" width="7.4" height="7.4"/>
	</g>
	<g id="XMLID_429_">
		<rect id="XMLID_431_" x="1088.5" y="553.7" width="16.1" height="16.1"/>
		<rect id="XMLID_430_" x="1092.8" y="558" fill="#AEAFB3" width="7.4" height="7.4"/>
	</g>
	<g id="XMLID_426_">
		<rect id="XMLID_428_" x="1088.5" y="572.3" width="16.1" height="16.1"/>
		<rect id="XMLID_427_" x="1092.8" y="576.6" fill="#AEAFB3" width="7.4" height="7.4"/>
	</g>
	<g id="XMLID_423_">
		<rect id="XMLID_425_" x="1088.5" y="590.9" width="16.1" height="16.1"/>
		<rect id="XMLID_424_" x="1092.8" y="595.2" fill="#AEAFB3" width="7.4" height="7.4"/>
	</g>
	<g id="XMLID_420_">
		<rect id="XMLID_422_" x="1088.5" y="609.5" width="16.1" height="16.1"/>
		<rect id="XMLID_421_" x="1092.8" y="613.8" fill="#AEAFB3" width="7.4" height="7.4"/>
	</g>
</g>
<rect id="XMLID_500_" x="946.3" y="641" fill="#45A9E1" width="179.2" height="3.8"/>
<rect id="XMLID_502_" x="809" y="641" fill="#45A9E1" width="179.2" height="3.8"/>
<rect id="XMLID_501_" x="1117.8" y="617.3" fill="#45A9E1" width="4.8" height="28.7"/>
<rect id="XMLID_504_" x="1117.8" y="590.9" fill="#FDFDFD" width="4.8" height="26.4"/>
<rect id="XMLID_503_" x="765" y="354.2" width="3.3" height="183.3"/>
<rect id="XMLID_507_" x="477.5" y="354.3" width="3.3" height="183.3"/>
<rect id="XMLID_506_" x="478.8" y="351.6" width="287.5" height="3.3"/>
<rect id="XMLID_508_" x="478.8" y="533.3" width="287.5" height="3.3"/>
<rect id="XMLID_505_" x="386.1" y="480.4" transform="matrix(0.9938 0.1109 -0.1109 0.9938 56.0696 -40.1774)" fill="#F9F9F9" width="6.2" height="7.1"/>
<rect id="XMLID_510_" x="384.8" y="492.3" transform="matrix(0.9938 0.1109 -0.1109 0.9938 57.3349 -39.9263)" fill="#F9F9F9" width="5.5" height="6.2"/>
</svg>
