<?xml version="1.0" encoding="utf-8"?>
<!-- Generator: Adobe Illustrator 19.0.0, SVG Export Plug-In . SVG Version: 6.00 Build 0)  -->
<svg version="1.1" id="Layer_1" xmlns="http://www.w3.org/2000/svg" xmlns:xlink="http://www.w3.org/1999/xlink" x="0px" y="0px"
	 viewBox="0 0 1280 800" enable-background="new 0 0 1280 800" xml:space="preserve">
<g id="XMLID_1_">
	<g id="XMLID_138_">
		<path id="XMLID_270_" fill="#FEFEFE" d="M640.4,721.8c-203.6,0-407.2,0-610.8,0.1c-2.7,0-3.3-0.6-3.3-3.3
			c0.1-189.9,0.1-379.8,0-569.7c0-2.7,0.6-3.3,3.3-3.3c407.5,0.1,814.9,0.1,1222.4,0c2.7,0,3.3,0.6,3.3,3.3
			c-0.1,189.9-0.1,379.8,0,569.7c0,2.7-0.6,3.3-3.3,3.3C1048.1,721.8,844.2,721.8,640.4,721.8z"/>
		<path id="XMLID_269_" fill="#BDEAFE" d="M523.7,378.3c-1.3-1-2.7-0.6-4.1-0.6c-24.5,0-48.9-0.3-73.4,0.1
			c-20.7,0.3-37.2-16.5-36.9-36.8c0.4-24,0.4-48,0-72c-0.3-20.5,16.3-36.9,36.9-36.8c78,0.3,156,0.1,234.1,0.1
			c19.9,0,35.6,15.8,35.6,35.8c0,24.2-0.1,48.5,0,72.7c0.1,12.7-5,22.8-14.9,30.5c-1.9,1.8-4.2,1.2-6.4,1.2
			c-49.3,0-98.5,0.1-147.8,0c-7.5,0-14.7,0.5-20.8,5.4C525.4,378.3,524.6,378.6,523.7,378.3z"/>
		<path id="XMLID_268_" fill="#BDEAFE" d="M861.5,417.4c19.6,0,39.2,0,58.8,0c1.7-0.2,2.5,1.1,3.6,2c11.9,10.4,25.4,17.8,41,20.5
			c27.9,4.8,52.7-1.8,73.8-21.3c1-0.9,1.8-2.3,3.5-1.7c1.2,0.9,2.5,0.5,3.8,0.5c14.1,0,28.1,0,42.2,0c24.7,0,45.6,18.2,49.3,42.7
			c0.4,2.8,0.6,5.6,0.6,8.4c0,27.4,0,54.8,0,82.3c-1.9,1.1-2.7-0.1-3-1.6c-0.6-3.9-2.5-6.7-6-8.7c-2.1-1.2-2-3.1,0.1-4.1
			c6.5-2.9,6.9-8.4,5.9-14c-1-6-5.2-9.3-11.2-10.3c-29.8-5.1-59.6-10.4-89.5-15.2c-7.9-1.3-14.4,1.5-18.9,8.4
			c-1.8,2.8-3.8,5.4-5.4,8.3c-2.5,4.4-1.6,7.3,2.9,9.5c1.7,0.8,3,1.8,3.5,3.7c0.3,1.2,0.8,2.3,2.3,2.4c1.2,0,2-0.9,2.3-1.9
			c1-2.7,3-2.9,5.4-2.6c24.5,2.8,49.1,5.6,73.6,8.2c1.4,0.1,2.8,0.4,4.1,0.9c1.8,0.7,2.1,2.1,2,3.7c-0.1,1.6-1,2.6-2.6,2.8
			c-1.5,0.3-3.1,0.2-4.6,0.2c-27.1,0-54.1,0-81.2,0c-1.7,0-3.3-0.1-5,0.1c-4.3,0.6-6.3,2.5-7,6.7c-0.7,4.1-1.1,4.5-5.3,4.5
			c-14.5,0.1-29.1,0-43.6,0c-1.3,0-2.6,0-3.9,0c-2.8,0.1-4,1.4-4,4.2c0,6.1,0,12.3,0,18.4c0,7.8,0,7.8-8,7.8c-3.8,0-7.6-0.1-11.3,0
			c-3.6,0.1-4.6,1.2-4.8,4.8c-0.1,3.3,0,6.6,0,9.9c0,2.7,1.2,4.1,4,4.5c4,0.5,4.4,1.1,4.5,4.9c0.1,6.5,0.1,13,0,19.5
			c0,1.4,0.2,2.9-1.4,3.7c-0.6-0.3-1-0.7-1.1-1.3c-0.3-3.9-2.9-4.1-6-4.1c-19.3,0.1-38.7,0-58,0c-2,0-4,0.3-5.8-1
			c-1.1-1.6-0.9-3.4-0.9-5.1c0-65.1,0-130.2,0-195.4C860.2,420.9,859.8,418.9,861.5,417.4z"/>
		<path id="XMLID_267_" fill="#BDEAFE" d="M173.9,372.1c1.3,1.1,0.7,2.7,0.7,4c0,32.4,0,64.8,0,98.3c2.3-7.4,5.6-13.1,10.6-17.7
			c2.2-2,4.7-3.6,7.1-5.2c1.9-1.3,4-2.3,6.3,1.1c0-2.3,0-3.6,0-4.8c0-56.9,0-113.7,0-170.6c0-1.5-0.6-3.1,0.6-4.4
			c1.8,1.7,1.3,4,1.3,6c0,28.1,0,56.3,0,84.4c0,37.9,0,75.9,0,113.8c0,7.3,0.1,7.4,7.3,7.4c48.6,0,97.2,0,145.7,0
			c7.7,0,7.9-0.2,7.9-8c0-8,0-16.1,0-24.1c0-1.7-0.3-3.6,1.2-5c27.8,0,55.5,0,83.3,0c15.9,0,30.9,12.8,33.7,28.5
			c0.5,2.9,0.7,5.8,0.7,8.8c0,23.9-0.1,47.7,0,71.6c0,12.1-4.7,21.9-14.1,29.4c-1.6-1.7-1-3.8-1.1-5.7c-0.1-2.2,0-4.5,0-6.7
			c0-2.6-0.2-4.9-3.2-6.1c-1.8-0.7-1.5-2.5-1.3-4c1.5-12.2,2.8-24.4,4.2-36.6c1.3-11,2.6-22.1,3.8-33.1c0.8-7-1.4-9.4-7.9-9.7
			c-4.7-0.2-7,1.7-7.6,6.5c-2.9,22.9-5.3,45.8-7.9,68.7c-0.2,1.8-0.5,3.5-0.7,5.3c-0.3,2.5-1.8,3.4-4.1,3.3
			c-2.3-0.1-3.4-1.3-3.5-3.6c-0.1-2.8-0.2-5.7,0.1-8.5c0.8-9.1,0.9-18.2,1.3-27.2c0.6-15.9,1.1-31.9,2-47.8c0.2-4.1-1.1-5.6-5.2-5.7
			c-2.4-0.1-4.7,0-7.1,0c-2.3,0-3.5,1.2-3.8,3.4c-0.1,0.7-0.2,1.4-0.1,2.1c0.2,15.6-1.1,31.2-1.6,46.7c-0.3,11.8-1.3,23.6-1.3,35.4
			c0,3.7-1,4.8-4,5.1c-4.6,0.6-6.5-0.3-7.5-4c-2.1-8-3.6-16.2-5.3-24.2c-1.5-6.9-2.9-13.9-4.4-20.8c-0.4-2-0.5-4,0.6-5.8
			c0.8-1.3,1.3-2.9-0.3-3.8c-3.1-1.7-3.4-4.6-4-7.5c-0.5-2.8-1.3-5.3-4.9-5.3c-1.7,0-2.1-1.7-2.6-3c-0.7-1.9-0.7-4-1.7-5.8
			c-0.5-0.9-1.2-1.6-2.3-1.4c-1.3,0.2-1.7,1.2-1.7,2.4c0,2,0.6,4,1,5.9c0.3,1.6,0.2,3.1-1.5,3.9c-2.5,1.2-2.8,3.3-2.2,5.7
			c0.2,0.8,0.3,1.6,0.5,2.4c0.7,3.7,1.4,5.5-3.5,6.9c-3.3,1-3.3,4.1-3.1,6.8c0.9,13.1,3.7,25.7,8.4,38c0.5,1.4,1,2.9,1.7,4.3
			c0.7,1.3,1.5,2.7,3.2,2c1.7-0.7,1.4-2.3,1-3.7c-0.5-1.7-1.1-3.4-1.8-5c-3.8-10-6.3-20.3-7.5-30.9c-0.2-1.6-0.3-3.3,0.1-4.9
			c0.3-1.1,0.8-2.1,2-2.1c1.2-0.1,1.5,0.9,1.9,1.8c0.5,1,0.7,2,0.9,3.1c2.6,13,5.6,25.9,8.3,38.9c0.6,2.8,0.8,5.3-2.1,7.2
			c-1.5,1-1.5,2.9-1.5,4.5c0,5.3,0,10.6,0,16c0,1.6,0.2,3.4-1.4,4.5c-1.6,0.7-3.2,0.6-4.9,0.6c-18.6,0-37.2,0-55.8,0
			c-1.6,0-3.3,0.1-4.9-0.5c-2.6-2-5.5-2.4-8.7-2.4c-25.6,0.1-51.3,0-76.9,0c-0.6,0-1.2,0-1.8,0c-5.4,0.1-5.9,0.6-6,5.9
			c0,10.7,0,21.5,0,32.2c0,1.8,0.2,3.6-0.8,5.2c-1.2,0.9-1.4-0.2-1.7-0.9c-0.5-1.3-0.4-2.8-0.4-4.2c0-10.3,0-20.6,0-30.8
			c0-4.3-0.3-4.5-4.7-4.6c-4.3,0-8.5,0.2-12.8,0c-14.3-0.7-24.8-7.5-31.7-19.9c-0.9-1.6-1.4-3.2-1.5-4.2c0.5,1.3,0.3,3.5,0.3,5.7
			c0,29.3,0,58.6-0.1,87.9c0,1.8,0.4,3.8-0.9,5.5c-0.5,0.2-0.9,0-1.2-0.4c-0.9-1.6-0.7-3.4-0.7-5.2c0-95.1,0-190.2,0-285.2
			C172.7,375.9,172.3,373.8,173.9,372.1z"/>
		<path id="XMLID_266_" fill="#ECEDEF" d="M174.1,668.5c0.2,0,0.4,0,0.6-0.1c0.7-6.9,0.2-13.9,0.3-20.8c0.1-7.2,0-7.2,7.4-7.2
			c15.6,0.1,31.1-0.2,46.7,0.1c3.1,1.2,4.2,4.1,5.3,6.7c0.9,2.1-1.5,2.3-2.9,2.3c-4.8,0.2-9.7,0.1-14.5,0.1c-1.5,0-3.1-0.1-4.6,0.1
			c-2.8,0.4-3.6,2.1-1.9,4.2c3.3,4,6.5,8.1,10.7,11.3c4.1,3.2,9,4.3,14,4.3c26.7,0.1,53.4,0.1,80.2,0c7.5,0,13.7-3.2,18.5-9.1
			c1.6-1.9,3.5-3.6,5-5.5c0.9-1.1,1.7-2.4,1-3.9c-0.7-1.4-2.1-1.4-3.4-1.4c-5.3-0.1-10.6,0-16-0.1c-1.8,0-4.3,0.7-5.1-1.4
			c-0.6-1.8,1.4-3.3,2.5-4.8c0.4-0.5,0.9-0.8,1.4-1.1c1.2-0.5,2.4-1,3.7-1.1c20.3-1.2,40.6-0.9,60.9-0.8c3.9,0,4.7,0.9,4.7,5
			c0,4.5,0.5,9-0.3,13.4c0,0.1,0.1,0.2,0.1,0.3c0.1,0.2,0.3,0.2,0.6,0c0.2,0.2,0.4,0.3,0.5,0.5c2.4,8.1,8.5,9.9,16,9.9
			c14.8-0.1,29.5,0,44.3,0c1.8,0,3.5-0.1,5.3-0.4c6.5-1.2,9.9-5.1,10.2-11.6c0.2-3.7,0-7.3,0.1-11c0-1.5-0.2-3.1,1.1-4.3
			c3.1-1.1,6.3-0.7,9.4-0.7c6.5-0.1,13,0.1,19.5-0.1c2.4,0,3.2,0.8,3,3.1c-0.2,2.3-0.1,4.7,0.7,7c0.1,0.4,0.1,1.2,0.6,0.2
			c0.1-0.3,0.1-0.7,0.1-1c1.4,0.1,1.6,1.3,2,2.2c4.1,11.4,12.8,16.1,24.4,16.6c0.6,0,1.2,0,1.8,0c107.9,0,215.8,0,323.7,0
			c6.7,0,12.9-1.3,18.3-5.6c5.3-4.4,8.2-10,8.3-16.9c0-2.8,0-5.7,0-8.5c0-1.4,0-2.9,1-4c3.1,1.3,2,4,1.6,6c-0.4,2.2-0.2,4.3-0.4,5.9
			c-0.1-0.4,0.2-1.4,0-2.4c-0.3-2.5,1-3.4,3.2-3.5c0.6,0,1.2-0.1,1.8-0.1c22.2,0,44.3,0,66.5,0c2,0,4,0,5.8,1.2
			c1,1.5,0.8,3.2,0.8,4.8c0,5.8,0,11.6,0,17.4c0.1,4.4,1.1,5.3,5.5,5.6c1.4,0.1,2.8,0,4.3,0c65.7,0,131.5,0,197.2,0
			c3.9,0,7.8-0.1,11-2.6c0.8,0.1,0.8,0.1,0.8-0.4c0-7.1,0.1-14.2-0.1-21.2c-0.1-2.9,0.8-3.8,3.7-3.8c23.1,0.1,46.3,0.1,69.4,0
			c2.7,0,3.8,0.7,3.6,3.6c-0.5,10.1,0.3,20.2,0.7,30.3c0.1,2.6-0.6,5.1-0.8,7.7c-0.1,1.2-0.8,2.2-1.7,1.6c-2.3-1.5-1.6,1.2-2.6,1.6
			c-1.6-3.7-4.8-3.8-8.3-3.8c-75.6,0-151.1,0-226.7,0c-326.2,0-652.4,0-978.6,0c-2.7,0-5.5,0.6-8-0.9c0.3-0.8,1-0.9,1.7-1
			c1.2,0,2.4,0,3.5,0c402.9,0,805.8,0,1208.7,0c1.5,0,3,0,5.2,0c-1.8-1.1-3.2-0.7-4.5-0.7c-344.4,0-688.8,0-1033.2,0
			c-59,0-118,0-177,0c-4.7,0-5.1,0-4.6-4.8c1-10.3,0.5-20.5,0.6-30.8c0-1.9,0.6-2.8,2.6-2.7c5.8,0.1,11.6,0.1,17.4,0
			c2.3,0,2.8,0.9,2.7,3c-0.1,7.6,0,15.1,0,22.7c0,0.2,0.1,0.5,0.2,0.5c0.2,0.1,0.4-0.1,0.6-0.2c3.5,2,7.4,2,11.3,2
			c32.4,0,64.7,0,97.1,0C165,669.6,169.6,669.9,174.1,668.5z"/>
		<path id="XMLID_265_" fill="#010000" d="M1176.3,667c-0.8,2.7-2.6,3.5-5.3,3.5c-69.5-0.1-139,0-208.4,0c-4.5,0-5.3-0.8-5.3-5.4
			c0-7.8-0.1-15.6-0.1-23.4c-1.3-1.5-1.1-3.3-1-5c0.1-3-1.2-3.9-4-3.8c-5,0.1-10.1,0.1-15.1,0c-2.2-0.1-4.6-0.2-4.9-3.3
			c0-8.2,0-16.3,0.1-24.5c0-2-0.7-2.3-2.5-2.4c-5.4-0.1-5.8-0.6-5.8-5.9c0-3.5,0.1-7.1,0-10.6c-0.1-3.3,1.5-4.7,4.7-4.7
			c5.4,0.1,10.9-0.1,16.3,0.1c2.2,0.1,2.8-0.6,2.8-2.8c-0.1-7.6-0.1-15.1,0-22.7c0-4.2,0.8-5,5-5c16.1,0,32.2,0,48.2,0
			c2.5,0,3.7-0.2,3.7-3.3c0-5.2,3.7-8.1,9.5-8.1c29.4,0,58.9-0.1,88.3,0.1c2.9,0,3.3-1,3.2-3.4c-0.1-2.1-1.5-1.8-2.6-1.9
			c-14.1-1.6-28.2-3.2-42.2-4.8c-11.7-1.3-23.5-2.6-35.2-4c-1.9-0.2-3.4-0.5-3.5,2.2c-0.1,2.1-1.6,3.2-3.7,3c-2-0.2-3.3-1.7-3-3.7
			c0.3-2-0.4-2.5-2.3-2.9c-5.4-1.2-7.2-5.8-4.3-10.5c2-3.2,4-6.4,6.1-9.5c4.9-6.9,11.7-9.8,20-8.4c29.9,5.1,59.8,10.3,89.7,15.4
			c7.9,1.3,12.6,7.5,11.8,15.4c-0.5,4.9-1.2,9.6-7.2,10.6c-0.7,0.1-0.9,0.5-1,1.2c-0.1,0.9,0.5,1.3,1.2,1.5c4.6,1.5,6.4,4.8,6.2,9.5
			c-0.1,1.9,1.1,1.7,2.3,1.4c12.3,0.1,24.6,0.1,36.8,0.2c4.9,0,5.7,0.8,5.7,5.8c0,7.2,0.1,14.4-0.1,21.6c-0.1,2.6,0.7,3.2,3.2,3
			c2.5-0.2,5,0,7.4-0.1c3,0,4.6,1.3,4.5,4.5c-0.1,4.4,0,8.7,0,13.1c0,2.2-1,3.8-3.3,3.7c-2.2-0.1-2.4,0.9-2.4,2.7
			c0.1,7.3,0,14.6,0.1,22c0,3.2-1.2,4.5-4.4,4.5c-3,0-7.1-1.4-8.9,0.5c-1.9,2-0.6,6-0.6,9.2C1176.1,650,1176.2,658.5,1176.3,667z"/>
		<path id="XMLID_264_" d="M879.3,634.5c0,3.7,0.1,7.3,0.1,11c0,14.1-10.4,24.6-24.5,24.9c-1.3,0-2.6,0-3.9,0
			c-107.8,0-215.6,0-323.4,0c-15.7,0-22.8-5-28.1-19.6c0-0.4-0.1-0.9-0.1-1.3c-0.4-5-0.5-9.9,0.1-14.9c1.1-1.6,2.7-2.1,4.6-2
			c5.7,0.1,11.5,0,17.8,0c-4.2-5.3-4.5-11.1-4.5-17c0-72.6,0.1-145.3,0-217.9c0-7.2,1.6-13.7,6.4-19.3c5.7-5.2,12.4-7,20.1-6.9
			c51.1,0.1,102.2,0.1,153.3,0.1c1.3,0,2.6-0.1,3.9-0.2c1.3,0.1,2.6,0.1,3.9,0.1c43.9,0,87.9,0,131.8,0c15.2,0,24.7,9.5,24.7,24.8
			c0,7.1,0.1,14.2,0.1,21.3c0,1.3-0.1,2.6-0.1,3.9c0,65.5,0,131,0,196.5c0,1.8,0,3.5,0,5.3c1.1,2.9-1.4,5.1-1.8,8.1
			c4.8,0.3,9.5,0,14.2,0.2C876,631.6,878.6,631.4,879.3,634.5z"/>
		<path id="XMLID_263_" fill="#020202" d="M27.9,681.6c1.4-0.1,2.8-0.3,4.2-0.3c404,0,807.9,0,1211.9,0c5.1,0,5.6,0.4,5.4,5
			c-1.2,1.3-2.6,1.9-4.4,1.8c-1.8,0-3.5,0-5.3,0c-401.5,0-803,0-1204.4,0c-0.8,0-1.7-0.1-2.5,0c-3.6,0.6-5.3-0.7-4.7-4.5
			C28.1,683,27.9,682.3,27.9,681.6z"/>
		<path id="XMLID_262_" d="M174.1,668.5c-1.1,1.5-2.5,1.9-4.3,1.9c-37.7,0-75.3,0-113,0c-2.3,0-3.8-0.8-4.8-2.8
			c0.1-10,0.2-20.1,0.2-30.1c0-87,0-174,0-261c0-5.5,0.3-5.9,5.8-5.9c36.9,0,73.8,0,110.7,0c1.9,0,3.8-0.2,5.2,1.5
			c0.1,3.2,0.2,6.4,0.2,9.6c0,94.4,0,188.9,0,283.3C174.2,666.2,174.1,667.3,174.1,668.5z"/>
		<path id="XMLID_261_" d="M466.2,642.3c-0.1,5-0.1,9.9-0.2,14.9c-0.1,8.3-5,13.2-13.3,13.2c-16.5,0-33.1,0-49.6,0
			c-9.2,0-12.6-2.5-15-11.2c-0.3-0.4-0.4-0.8-0.4-1.3c-0.7-20.2-1-40.4-0.8-60.6c0-1.6,0-3.3,1.2-4.7c0.1-7.2,0.2-14.4,0.2-21.6
			c0-2.3,0.2-4.3,3.1-4.7c1.6-0.2,1-1.3,0.9-2.1c-3.2-14.9-6.3-29.8-9.5-44.6c-0.1-0.6,0-1.9-1.3-1.8c-1.6,0.1-1.3,1.4-1.3,2.4
			c0.5,11.2,3.1,21.9,6.8,32.4c0.9,2.7,2,5.3,3,7.9c0.8,2.2,0.6,4.1-1.8,5c-2.1,0.7-3.6-0.2-4.5-2.3c-5.7-14.1-9.9-28.5-10.3-43.8
			c-0.2-7.1,0.6-7.4,5.7-8.1c1.6-0.2,1.8-0.9,1.3-2.4c-0.6-1.8-0.6-3.7-1.2-5.5c-1-3.2-0.8-5.6,3.1-6.5c1.5-0.3,1-1.3,0.8-2.2
			c-0.5-2.1-1-4.1-1.4-6.2c-0.4-2.1,0.2-3.9,2.5-4.4c2.2-0.5,3.6,0.7,4.2,2.8c0.4,1.4,0.7,2.7,0.9,4.1c0.4,2.3,0.2,4.7,4,3.8
			c1.7-0.4,2.8,1.3,3.2,3.1c0.4,1.8,0.9,3.7,1.2,5.5c0.3,1.9,0.6,3.4,3,4.1c2.5,0.7,2.8,3.5,0.6,5.4c-1.3,1.1-1.3,2-1,3.3
			c3.4,15.7,6.8,31.3,10.1,47.1c0.5,2.3,1.3,3.3,3.7,2.9c1-0.2,2.1-0.1,3.2,0c1.8,0.2,2.4-0.5,2.5-2.4c0.3-10.5,0.8-21,1.2-31.5
			c0.7-18.2,1.5-36.3,2.1-54.5c0.1-3.5,1.4-5,4.9-4.7c2.9,0.2,5.9,0.2,8.9,0.3c3.1,0.1,4.3,1.6,4.2,4.7c-1.2,27.9-2.3,55.9-3.4,83.9
			c-0.1,2.3-0.8,4.9,3.3,4.3c1.8-0.3,2.3-0.7,2.5-2.5c2.5-22.9,5.2-45.8,7.8-68.6c0.2-2.1,0.5-4.2,0.8-6.3c0.6-4.5,3.9-7,8.4-6.6
			c7.2,0.7,9.9,3,9.4,8.3c-1.2,12-2.7,23.9-4.1,35.9c-1.4,12.6-2.8,25.1-4.3,37.7c-0.2,1.3-0.1,2,1.5,2.1c2.6,0.2,3.1,2.1,3.1,4.3
			c0.1,5,0.1,9.9,0.2,14.9C466.2,604.5,466.2,623.4,466.2,642.3z"/>
		<path id="XMLID_260_" fill="#000101" d="M362.7,447.2c-0.1,10.9-0.1,21.7-0.2,32.6c0,5-0.7,5.7-5.7,5.7c-50.6,0-101.1,0-151.7,0
			c-5.4,0-6-0.6-6-6.2c0-66.9,0-133.8,0-200.6c0-2,0.1-4,0.2-6c1-1.8,2.5-2.2,4.5-2.2c51.4,0,102.8,0,154.2,0c3.7,0,4.5,1.1,4.5,5.4
			c0,55.6,0,111.3,0,166.9C362.5,444.4,362.6,445.8,362.7,447.2z"/>
		<path id="XMLID_259_" fill="#010101" d="M725.6,251.3c0-32,0-64.1,0-96.1c0-4.8,0.5-5.4,5.2-5.4c19.4,0,38.8,0,58.2,0
			c2,0,3.7-0.3,5.3-1.4c3-2.1,6.2-2.1,9.2,0c1.7,1.2,3.4,1.4,5.3,1.4c19.1,0,38.3,0,57.4,0c4.9,0,5.5,0.6,5.5,5.5
			c0,64.1,0,128.1,0,192.2c0,5.3-0.6,5.9-5.8,5.9c-44.9,0-89.8,0-134.8,0c-5.1,0-5.6-0.5-5.6-5.7
			C725.6,315.6,725.6,283.4,725.6,251.3z"/>
		<path id="XMLID_258_" fill="#000001" d="M1042.2,416.9c-11,10.7-23.7,18.8-38.7,22.5c-31,7.7-58.3,0.8-81.9-20.9
			c-0.4-0.4-0.9-0.7-1.4-1.1c-11.6-12.1-19.5-26.2-23.1-42.6c-11-49.6,24.5-98.8,75-103.6c48.9-4.7,90.9,30.7,94.3,79.7
			C1068.3,376.4,1059.7,398.3,1042.2,416.9z"/>
		<path id="XMLID_257_" fill="#ECEDEF" d="M499.5,634.5c0,5,0,9.9-0.1,14.9C498.4,644.4,498.3,639.5,499.5,634.5z"/>
		<path id="XMLID_256_" fill="#FEFEFE" d="M879.3,634.5c-1.1-1.7-2.6-2.1-4.5-2c-5.7,0.1-11.5,0-17.6,0c2.1-3,3.4-6.1,4.3-9.4
			c21.8,0,43.6,0.1,65.4-0.1c3.8,0,5.5,0.8,4.8,4.8c-0.1,0.5,0.3,1.1,0.5,1.6c0.9,1.8,2.3,2.4,4.3,2.3c6.1-0.1,12.2,0,18.3-0.1
			c2,0,2.7,0.5,2.6,2.5c-0.2,2.5-0.1,4.9-0.2,7.4c-10.5,0-20.9,0-31.4,0c-13.7,0-27.3,0.1-41-0.1c-3.5-0.1-4.7,1-4.2,4.4
			c0.2,1.4,0,2.8-0.2,4.2C879.3,644.9,880.7,639.6,879.3,634.5z"/>
		<path id="XMLID_255_" d="M319.3,643c-1.3,1.7-2.5,3.4-3.8,5.1c0.7,1.1,1.7,0.4,2.5,0.5c6.5,0.1,13,0,19.5,0c1.6,0,3.1,0.4,3.8,2
			c0.6,1.4,0.3,2.8-0.8,3.9c-3.2,3.5-6.2,7.1-9.7,10.3c-4.1,3.8-9.2,5.6-14.9,5.6c-27.3,0-54.6-0.1-81.9,0c-7.1,0-12.8-2.6-17.6-7.7
			c-2.2-2.3-4.3-4.7-6.4-7.1c-1.2-1.4-2.8-2.7-1.8-4.9c1-2.3,3.1-2.1,5.2-2.1c6.8,0,13.6,0,20.8,0c-1.8-2.7-3.4-5.2-5-7.7
			c-1.9-1.8-2.5-3.9-1.6-6.4c0-13.1,0-26.2,0-39.3c0-4.4,0.8-5.2,5.1-5.2c28.1,0,56.2,0,84.3,0c2.4,0,4.2,0.5,5.2,2.7
			c1,2.8,3,3.5,5.8,3.3c3.2-0.2,6.4,0,9.6,0c9,0,17,8.1,16.1,16.6c-0.3,3.3,0.2,6.6-0.5,9.9c-2.7,11.8-12.4,19.4-24.5,19.6
			C325.5,642.1,322.2,641,319.3,643z"/>
		<path id="XMLID_254_" fill="#FEFEFE" d="M227.6,634.4c0.5,2.1,1.1,4.3,1.6,6.4c-0.1,0.8-0.5,1-1.4,1c-16.4-0.1-32.8-0.1-49.2-0.2
			c-2.7,0-3.5,0.8-3.4,3.4c0.2,6.7,0.1,13.4,0,20.2c0,1.1,0.5,2.4-0.6,3.3c0-34,0-67.9,0-102.9c4.6,14,13.1,22.7,26.5,26.2
			c7.2,1.9,14.6,0.9,21.8,0.9c3.2,0,4.2,0.8,4.2,4.1c-0.2,11.2-0.1,22.4-0.1,33.7C227.1,631.7,226.6,633.2,227.6,634.4z"/>
		<path id="XMLID_253_" fill="#FDFDFB" d="M319.3,643c0-2.2,1.7-1.5,2.8-1.6c4.3-0.2,8.5,0.2,12.8-1.1c10.7-3.2,17.9-12.3,17.9-23.4
			c0-15.4-4.4-19.9-19.9-19.9c-2.2,0-4.5-0.3-6.7,0.1c-3.9,0.6-4.7-1.2-4-4.5c22,0,44,0,66,0c0.1,16.3,0.1,32.6,0.2,48.9
			c0,5.9-0.1,11.8-0.2,17.7c-0.1,0.7-0.2,1.4-0.2,2.1c-0.2,0-0.4,0-0.5,0c0-5.4-0.1-10.7,0.1-16.1c0.1-2.7-0.6-3.7-3.5-3.7
			c-15.6,0.1-31.2-0.3-46.7,0.3C331.3,642,325.2,641.6,319.3,643z"/>
		<path id="XMLID_252_" fill="#E84E0B" d="M1093.7,663.6c-23.8,0-47.5-0.1-71.3,0.1c-3.3,0-3.9-1-3.8-3.9c0.2-7.9,0.2-15.8,0-23.8
			c-0.1-3.3,0.7-4.3,4.2-4.3c45.9,0.1,91.7,0.1,137.6,0.1c2.1,0,4.3,0.1,6.4,0c1.7-0.1,2.6,0.3,2.5,2.3c-0.1,9.1-0.1,18.2,0,27.3
			c0,2.8-1.7,2.3-3.3,2.3C1141.9,663.6,1117.8,663.6,1093.7,663.6z"/>
		<path id="XMLID_251_" fill="#F7B02D" d="M1066.1,557.8c23.4,0,46.8,0.1,70.2-0.1c3.4,0,4.1,1,3.9,4.1c-0.2,5.5-0.1,11.1,0,16.7
			c0,2-0.2,2.9-2.6,2.9c-47.7-0.1-95.5-0.1-143.2,0c-2.3,0-2.7-0.8-2.7-2.8c0.1-5.9,0.2-11.8,0-17.7c-0.1-2.6,0.8-3.1,3.2-3.1
			C1018.5,557.8,1042.3,557.8,1066.1,557.8z"/>
		<path id="XMLID_250_" fill="#E94E0B" d="M1059.9,596c-41.7,0-83.4,0-125.1,0c-1.3,0-3.3,0.8-3.8-0.8c-0.5-2-0.2-4.2-0.1-6.3
			c0-0.6,0.9-0.6,1.5-0.7c1.1,0,2.1,0,3.2,0c83.1,0,166.1,0,249.2,0c1.3,0,3.4-0.8,3.8,0.8c0.5,2,0.3,4.2,0,6.3
			c-0.2,1.3-1.8,0.7-2.8,0.7c-9.3,0-18.7,0-28,0C1125.2,596,1092.5,596,1059.9,596z"/>
		<path id="XMLID_249_" fill="#97BE00" d="M1014.3,517.5c2.4-3.7,4.4-7.1,6.7-10.2c3.1-4.1,7.3-5.8,12.4-4.9
			c29.9,5.1,59.8,10.2,89.7,15.3c5.6,1,8.1,5.8,6.1,11.3c-0.6,1.7-1.8,1.2-2.9,1.1c-13.3-1.5-26.5-3-39.8-4.4
			c-22.5-2.5-45-5-67.6-7.6C1017.7,518,1016.3,517.8,1014.3,517.5z"/>
		<path id="XMLID_248_" fill="#45A9E1" d="M967.8,602.7c8.9,0,17.7,0.1,26.6-0.1c2.4,0,3.1,0.6,3,3c-0.2,5.7-0.1,11.3,0,17
			c0,1.9-0.6,2.4-2.4,2.4c-17.9-0.1-35.7-0.1-53.6,0c-2,0-2.7-0.5-2.6-2.6c0.1-5.7,0.1-11.4,0-17c-0.1-2.2,0.6-2.8,2.8-2.8
			C950.3,602.8,959,602.7,967.8,602.7z"/>
		<path id="XMLID_247_" fill="#45A9E1" d="M1158.1,625c-7.2,0-14.4-0.1-21.6,0.1c-2.7,0.1-3.4-0.8-3.3-3.4c0.2-5.3,0.1-10.6,0-15.9
			c0-2.2,0.4-3.1,2.9-3.1c14.8,0.1,29.5,0.1,44.3,0c2,0,3,0.4,2.9,2.7c-0.2,5.7-0.2,11.3,0,17c0.1,2.3-0.8,2.8-2.9,2.7
			C1173,624.9,1165.6,625,1158.1,625z"/>
		<path id="XMLID_246_" fill="#F7AE2C" d="M1011.8,647.7c0,4.4-0.1,8.7,0,13.1c0.1,2-0.3,2.9-2.6,2.9c-7.4-0.2-14.9-0.1-22.3,0
			c-1.8,0-2.5-0.5-2.4-2.4c0.1-9.1,0.1-18.2,0-27.2c0-1.9,0.7-2.4,2.5-2.3c7.4,0.1,14.9,0.1,22.3,0c2,0,2.7,0.5,2.6,2.5
			C1011.7,638.7,1011.8,643.2,1011.8,647.7z"/>
		<path id="XMLID_245_" fill="#BDE7FA" d="M1004.1,623.8c0-6.4,0-12.7-0.1-19.1c0-1.5,0.5-2.2,2-2c0.6,0.1,1.2,0,1.8,0
			c38.4,0,76.7,0,115.1-0.1c3.1,0,4,0.7,3.9,3.8c-0.3,5.8-0.2,11.6-0.2,17.3c-1.8-0.4-1.4-2-1.4-3.1c-0.2-2.8-0.3-5.6,0-8.4
			c0.3-2.7-0.4-4.1-3.3-3.9c-1.9-1.4-4-1.8-6.4-1.8c-33.3,0-66.6,0-99.9,0.1c-1.8,0-4.8-0.7-4.8,2.1c0,3,3,1.9,4.8,1.9
			c33.2,0,66.4,0,99.6,0c1.5,0,3.1-0.1,4.5,0.5c1.3,0.7,0.9,1.5,0,2.1c-1.5,1.1-3,2.3-4.9,2.8c-2.1,0.5-4.2,0.3-6.4,0.3
			c-29.9,0-59.8,0-89.7,0c-1.3,0-2.6,0-3.9,0c-4.5,0.2-5.2,1.5-3,5.5c0.4,1.8-1,1.9-2.1,2C1007.8,624.3,1005.9,624.5,1004.1,623.8z"
			/>
		<path id="XMLID_244_" fill="#BDEAFE" d="M969.5,581.4c-4.2,0-8.5-0.1-12.7,0c-1.7,0-2.6-0.2-2.5-2.2c0.1-6.4,0.1-12.7,0-19.1
			c0-2,0.8-2.3,2.5-2.3c8.6,0.1,17.2,0.1,25.8,0c2,0,2.3,0.7,2.3,2.4c-0.1,6.2-0.1,12.5,0,18.7c0,2.1-0.7,2.5-2.6,2.5
			C978,581.3,973.8,581.4,969.5,581.4z"/>
		<path id="XMLID_243_" fill="#F6F6F8" d="M1160.2,581.3c-3.8,0-7.5-0.1-11.3,0c-1.5,0-2.1-0.4-2-2c0.1-6.6,0.1-13.2,0-19.8
			c0-1.4,0.5-1.8,1.8-1.8c7.8,0,15.6,0.1,23.3,0c1.6,0,1.7,0.7,1.7,2c0,6.5-0.1,13,0,19.4c0,1.7-0.4,2.3-2.2,2.2
			C1167.8,581.3,1164,581.3,1160.2,581.3z"/>
		<path id="XMLID_242_" fill="#9BC401" d="M1069.6,550.9c-18.3,0-36.6,0-55,0c-1.4,0-3.6,1-3.5-2c0.1-2.7,1.8-2.5,3.7-2.5
			c36.9,0,73.8,0,110.6,0c2,0,3.5,0.1,3.5,2.7c-0.1,2.8-2,1.8-3.3,1.8C1106.9,551,1088.2,550.9,1069.6,550.9z"/>
		<path id="XMLID_241_" fill="#E84E0B" d="M977.7,648c0,4.3-0.1,8.5,0,12.8c0.1,2-0.4,3.1-2.7,2.9c-3.5-0.3-8,1.4-10.3-0.6
			c-2.3-2.1-0.6-6.7-0.7-10.2c-0.1-6,0.1-12-0.1-18.1c0-2.2,0.5-3.2,2.9-3.1c2.7,0.2,5.4,0.2,8.1,0c2.3-0.2,2.8,0.7,2.7,2.8
			C977.6,639,977.7,643.5,977.7,648z"/>
		<path id="XMLID_240_" fill="#EEEEEE" d="M1004.1,623.8c2.4-1.5,5.3,0.3,7.6-1.2c1.7-1.7,4-1.2,6-1.2c31.7,0,63.5,0,95.2,0
			c1.5,0,3.1,0.1,4.6-0.1c1.3-0.1,2.8-0.4,3-2c0.2-1.6-1-2.2-2.4-2.6c-1-0.3-2.1-0.4-2.9-1.2c1.4-1.5,3.1-2.6,4.9-3.4
			c0.3-1.5,1.1-2.8,2.3-3.7c1.3,0.1,1.8-1.4,3.2-1.6c0.8,5.7-0.5,11.5,0.7,17.1c0,1.9-1.5,1.2-2.3,1.2c-39.2,0-78.5,0-117.7,0
			C1005.6,624.9,1004.1,625.7,1004.1,623.8z"/>
		<path id="XMLID_239_" fill="#C5C9CD" d="M1116.6,539.5c-1.4-0.6-5.3,1.4-4-2.6c1.1-3.3,4.5-0.4,6.8-0.8c1.3-0.2,2.6,0.2,2.3,2.2
			c-0.1,0.9-0.5,1.2-1.3,1.2C1119.2,539.6,1118,539.5,1116.6,539.5z"/>
		<path id="XMLID_238_" fill="#69686D" d="M688.9,632.5c-50,0-100,0-150,0c-10.1,0-14.7-4.5-14.7-14.7c0-73.8,0-147.5,0-221.3
			c0-12,6.2-18.2,18.1-18.2c98.1,0,196.2,0,294.3,0c7,0,12.4,2.3,16,8.5c1.5,2.5,1.8,5.3,1.8,8.2c0,74.8,0,149.7,0,224.5
			c0,8.4-5,13.1-13.7,13.1C790.1,632.5,739.5,632.5,688.9,632.5z"/>
		<path id="XMLID_237_" fill="#AEAFB3" d="M689.7,639.4c58.9,0,117.8,0,176.6,0c6.4,0,6.4,0,6.3,6.5c-0.1,8.7-6.1,15.9-14.7,17.4
			c-1.4,0.2-2.8,0.2-4.2,0.2c-109.4,0-218.7,0-328.1,0c-13.1,0-21.3-9.5-19.5-22.5c0.2-1.1,0.4-1.8,1.7-1.7c0.8,0,1.7,0,2.5,0
			C570,639.4,629.8,639.4,689.7,639.4z"/>
		<path id="XMLID_236_" fill="#2FBBAA" d="M109.9,520.6c0,46.3,0,92.7,0.1,139c0,3.3-0.9,4.1-4.1,4c-14.5-0.2-29.1-0.1-43.6,0
			c-2.7,0-3.3-0.7-3.3-3.3C59,567.2,59,474,59,380.9c0-2.8,0.7-3.5,3.5-3.5c14.5,0.1,29.1,0.2,43.6,0c3.2,0,3.9,0.8,3.9,3.9
			C109.9,427.7,109.9,474.2,109.9,520.6z"/>
		<path id="XMLID_235_" fill="#2FBBAA" d="M167.5,520.7c0,46.3,0,92.7,0.1,139c0,3.4-1,4-4.1,4c-14.4-0.2-28.8-0.1-43.3,0
			c-2.6,0-3.7-0.4-3.6-3.4c0.1-93.1,0.1-186.3,0-279.4c0-2.9,0.9-3.5,3.6-3.5c14.5,0.1,29.1,0.2,43.6,0c3.3,0,3.8,1,3.8,4
			C167.4,427.8,167.5,474.2,167.5,520.7z"/>
		<path id="XMLID_234_" fill="#E84E0B" d="M395.2,616.4c0-13.4,0.1-26.7-0.1-40.1c0-2.5,0.4-3.5,3.2-3.5c19.3,0.1,38.5,0.1,57.8,0
			c2.6,0,3.1,0.9,3.1,3.2c-0.1,26.8,0,53.7-0.1,80.5c0,5.2-1.8,6.9-7.1,6.9c-16.7,0-33.3,0-50,0c-5.2,0-6.9-1.8-6.9-7.1
			C395.2,643.1,395.2,629.8,395.2,616.4z"/>
		<path id="XMLID_233_" fill="#1A922A" d="M433.5,502.2c-0.9,20.4-1.8,40.7-2.6,61.1c-0.1,1.8-0.1,3.3-2.6,3.1
			c-2.6-0.2-1.8-2.1-1.7-3.4c0.9-21.7,1.8-43.3,2.7-65c0-1.1-0.2-2.5,1.8-2.1c1.5,0.3,2.8,0.4,2.6,2.4
			C433.5,499.6,433.6,500.9,433.5,502.2C433.6,502.2,433.5,502.2,433.5,502.2z"/>
		<path id="XMLID_232_" fill="#EB500B" d="M401.8,566.3c-1.7,0.3-2.1-0.6-2.4-1.9c-3.2-15.2-6.5-30.5-9.8-45.7
			c-0.4-1.6-0.2-2.5,1.8-3c2.3-0.6,2.3,0.8,2.6,2.2c3.2,15.1,6.5,30.2,9.7,45.3C403.9,564.8,404.7,566.8,401.8,566.3z"/>
		<path id="XMLID_231_" fill="#F7B22D" d="M450.5,562.5c1.7-15,3.4-29.8,5-44.5c0.2-1.4,0-2.8,2.3-2.4c2.1,0.3,2.2,1.3,2,3.1
			c-1.8,15.1-3.5,30.2-5.1,45.3c-0.2,2.1-1.2,2.5-3,2.4C448.3,566,451.5,563.4,450.5,562.5z"/>
		<path id="XMLID_230_" fill="#9BC205" d="M429.9,484.3c0-0.9,0-1.9,0-2.8c0-1.7,1.2-1.4,2.2-1.4c1,0,2.2-0.2,2.2,1.5
			c-0.1,1.5-0.1,3.1-0.1,4.6c-0.1,1.4,0.3,3.1-2.2,3c-2.4-0.1-2.2-1.5-2.2-3.1c0-0.6,0-1.2,0-1.8
			C429.8,484.3,429.8,484.3,429.9,484.3z"/>
		<path id="XMLID_229_" fill="#B8DEEF" d="M458.5,493.7c0.9-1.1-1.6-4.4,2.3-4.5c1.2,0,3.2-0.1,2.4,1.9c-0.8,1.9,1.2,5.1-2.3,5.6
			C459.5,496.9,457.6,496.7,458.5,493.7z"/>
		<path id="XMLID_228_" fill="#E7500C" d="M391.6,507c0.3,2.4-1.6,2.2-2.5,2.2c-3-0.1-1.9-2.9-2.4-4.5c-0.8-2.4,1.5-2.2,2.6-2.1
			C392.2,502.9,390.4,505.9,391.6,507z"/>
		<path id="XMLID_227_" fill="#C1C6CB" d="M461.3,505.7c-0.5,1.1,0.9,3.5-2.1,3.3c-1.6-0.1-2.9-0.4-2.3-2.4c0.4-1.3-0.9-3.7,2.2-3.3
			C460.5,503.4,462.1,503.3,461.3,505.7z"/>
		<path id="XMLID_226_" fill="#F7D7A6" d="M206,477.7c0-1.3-0.1-2.6-0.1-3.9c0-64.2,0-128.3-0.1-192.5c0-2.9,0.3-4,3.7-4
			c47.6,0.1,95.3,0.1,142.9,0.1c2.1,0,3.4-0.1,3.3,2.8c-0.1,56.5-0.1,113-0.1,169.5c0,0.6-0.1,1.2-0.1,1.8c-0.8,1.3-0.7,2.7-0.7,4.1
			c0,6.3-0.1,12.5,0,18.8c0.1,3-1,3.8-3.9,3.8c-9.8-0.2-19.6-0.1-29.4,0c-1.1,0-2.3-0.2-3.4,0.3c-0.4,0.2,0.1,0.6-0.1,0.2
			c-0.1-0.1,0-0.2,0.2-0.3c2.7-0.5,5.4-0.2,8.1-0.2c8.7,0,17.5,0,26.2,0c0.9,0,1.9-0.4,2.7,0.4c-0.8,0.8-1.8,0.4-2.7,0.4
			c-47.9,0-95.9,0-143.8,0c-0.9,0-1.9,0.4-2.7-0.4c2.1-1,4.4-0.4,6.6-0.4c6.4-0.1,12.7-0.1,19.1,0c0.8,0,1.9-0.6,2.5,0.6
			c-0.4-1.2-1.4-0.6-2-0.6c-7.5-0.1-15.1-0.1-22.6,0c-2.1,0-2.9-0.6-2.8-2.8c0.2-4.4,0-8.8-0.1-13.2c-0.2-0.5-0.9,0.1-0.5-0.1
			c0.2-0.1,0.3,0,0.3,0.1c0.6,5,0.3,10,0.1,15C206.7,477.6,206.3,477.6,206,477.7z"/>
		<path id="XMLID_225_" fill="#BDEAFE" d="M355.3,478.5c-12.4,0-24.8,0-37.2,0c0-0.3,0-0.5,0-0.8c1.1,0,2.2,0,3.4,0
			c9.8,0,19.6-0.1,29.4,0c2.4,0,3.3-0.6,3.3-3.2c-0.2-6.5-0.1-13,0-19.5c0-1.4-0.4-2.9,1.4-3.7C355.6,460.5,355.9,469.5,355.3,478.5
			z"/>
		<path id="XMLID_224_" fill="#BEEAFE" d="M206,477.7c1.2-3.9,0.3-7.9,0.5-11.9c0.1-1.4,0-2.8,0.7-4.2c0,4.3,0.1,8.6,0,13
			c-0.1,2.5,0.7,3.3,3.2,3.2c8.1-0.1,16.3-0.1,24.4,0.7c-9.6,0-19.1,0-28.7,0c-0.1-0.2-0.2-0.3-0.2-0.5
			C205.9,477.9,205.9,477.8,206,477.7z"/>
		<path id="XMLID_223_" fill="#FEFEFE" d="M731.4,251.4c0-30.9,0-61.7-0.1-92.6c0-2.5,0.4-3.4,3.2-3.3c17.4,0.2,34.8,0.1,52.1,0.1
			c1.8,0,3.1-0.1,3.6,2.5c0.8,4.3,4.5,6.8,8.7,6.7c4.1-0.1,7.5-2.5,8.4-6.7c0.5-2.1,1.3-2.5,3.3-2.5c17.4,0.1,34.8,0.1,52.1,0
			c2.6,0,3,0.8,3,3.2c-0.1,61.8-0.1,123.7,0,185.5c0,2.9-0.9,3.5-3.6,3.4c-42.6-0.1-85.1-0.1-127.7,0c-2.6,0-3.3-0.6-3.3-3.3
			C731.5,313.4,731.4,282.4,731.4,251.4z"/>
		<path id="XMLID_222_" fill="#C6021E" d="M802,155.8c-0.3,2.1-1.4,3.3-3.3,3.2c-1.9-0.1-3-1.4-3-3.3c0-1.9,1.3-3,3.2-3
			C800.9,152.8,801.7,154.2,802,155.8z"/>
		<path id="XMLID_221_" fill="#C9B898" d="M1060,356.5c0,43.3-35.4,79.2-78,79.2c-44.4,0-80-35.2-79.9-79.1
			c0-43.7,35.6-79.2,79.1-79.2C1024.6,277.5,1060,313,1060,356.5z"/>
		<path id="XMLID_220_" fill="#FEFEFE" d="M275,596.8c12.4,0,24.8,0.1,37.2-0.1c2.5,0,3.1,0.6,3.1,3.1c-0.1,10.4,0,20.8-0.1,31.2
			c0,10-7.4,17.5-17.4,17.5c-15.4,0.1-30.7,0.1-46.1,0c-9.6,0-17.2-7.3-17.4-16.9c-0.2-10.9,0-21.7-0.1-32.6c0-2.5,1.3-2.2,2.9-2.2
			C249.7,596.8,262.4,596.8,275,596.8z"/>
		<path id="XMLID_219_" fill="#F6F6F7" d="M330.2,655.6c-3.6,4.7-7.7,8-13.8,8c-27.8,0-55.5,0-83.3,0c-6,0-10-3.5-13.6-7.9
			C222.4,655.1,324,654.9,330.2,655.6z"/>
		<path id="XMLID_218_" fill="#FEFEFE" d="M322.1,619.4c0-4.5,0.1-9,0-13.4c0-1.5,0.4-2.1,2-2c4.8,0.1,9.7-0.1,14.5,0.1
			c3.8,0.1,7.1,3.1,7.5,6.7c1.8,15.4-7.1,25.1-22.3,23.9c-1.8-0.1-1.7-0.9-1.7-2.2C322.1,628.1,322.1,623.7,322.1,619.4z"/>
		<path id="XMLID_217_" fill="#010001" d="M1095.1,644.4c19.6,0,39.2,0,58.8,0c0.8,0,1.7,0,2.5,0c2.2,0.2,3.2,1.5,3.2,3.5
			c-0.1,1.9-1.3,3-3.2,3.1c-0.9,0.1-1.9,0-2.8,0c-39.2,0-78.5,0-117.7,0c-1.1,0-2.2,0.1-3.2-0.2c-1.9-0.4-2.8-1.7-2.6-3.6
			c0.2-1.8,1.2-2.8,3-2.9c0.9-0.1,1.9,0,2.8,0C1055.7,644.4,1075.4,644.4,1095.1,644.4z"/>
		<path id="XMLID_216_" d="M1064.5,566.3c19,0,38.1,0,57.1,0c0.9,0,1.9-0.1,2.8,0c1.7,0.2,2.8,1.3,2.9,3c0.1,1.9-0.9,3.2-2.8,3.5
			c-1,0.2-2.1,0.1-3.2,0.1c-38,0-75.9,0-113.9,0c-0.7,0-1.4,0-2.1,0c-2.4,0-4-1-3.9-3.5c0.1-2.5,1.8-3.2,4.2-3.2
			C1025.2,566.3,1044.9,566.3,1064.5,566.3z"/>
		<path id="XMLID_215_" fill="#030403" d="M1121.7,522.9c-0.4,2.8-1.7,4.4-4.4,4.4c-2.7,0-4.1-1.6-4.1-4.2c0-2.6,1.6-4.2,4.2-4.2
			C1120.1,518.9,1121.3,520.6,1121.7,522.9z"/>
		<path id="XMLID_214_" fill="#020202" d="M1115.3,615.4c1.3,0.1,2.6,0.1,3.9,0.2c1.9,0.1,3.1,1.3,3.2,3.1c0.1,1.9-1,3.1-2.8,3.5
			c-1.1,0.2-2.4,0.1-3.5,0.1c-33.3,0-66.7,0-100,0c-1.4,0-2.8,0.1-4.3,0.1c-2.2-0.7-3.5-2-2.9-4.5c0.6-2.6,2.8-2.5,4.8-2.4
			c32.6,0,65.2,0,97.8,0C1112.7,615.6,1114,615.5,1115.3,615.4z"/>
		<path id="XMLID_213_" d="M1122.5,608.3c-0.1,1.7-0.8,2.9-2.3,3.7c-7.8,0-15.6,0.1-23.4,0.1c-27.5,0-55,0-82.6,0
			c-1.1,0-2.1,0-3.2-0.2c-1.8-0.4-2.4-1.6-2.4-3.4c0-1.7,1-2.6,2.5-3c0.7-0.2,1.4-0.1,2.1-0.1c34.7,0,69.4,0,104.2,0
			C1119.9,605.4,1121.7,605.8,1122.5,608.3z"/>
		<path id="XMLID_212_" fill="#010202" d="M689.7,387.5c49.9,0,99.8,0,149.7,0c5.8,0,5.9,0.1,5.9,5.7c0,74.8,0,149.7,0,224.5
			c0,5.6-0.1,5.7-5.8,5.7c-100,0-200,0-300.1,0c-5.5,0-5.8-0.3-5.8-5.8c0-74.8,0-149.7,0-224.5c0-5.1,0.4-5.5,5.4-5.5
			C589.2,387.5,639.4,387.5,689.7,387.5z"/>
		<path id="XMLID_211_" fill="#000001" d="M104.3,439.7c0,15.7,0,31.4,0,47.1c0,4.9-0.7,5.6-5.8,5.7c-9.6,0-19.1,0-28.7,0
			c-4.3,0-5.2-0.9-5.2-5.2c0-31.8,0-63.6,0-95.4c0-4.2,0.9-5,4.9-5.1c9.9,0,19.9,0,29.8,0c4.2,0,5,0.8,5,5
			C104.3,407.8,104.3,423.8,104.3,439.7z"/>
		<path id="XMLID_210_" fill="#010101" d="M84.6,605.3c10.4,0.1,18.6,8.3,18.5,18.8c-0.1,10.4-8.3,18.6-18.7,18.6
			c-10.2,0-18.7-8.5-18.8-18.7C65.5,613.6,74.1,605.2,84.6,605.3z"/>
		<path id="XMLID_209_" d="M122.2,439.5c0-15.7,0-31.4,0-47.1c0-4.7,0.7-5.4,5.2-5.5c9.8,0,19.6,0,29.4,0c4.2,0,5,0.8,5.1,4.9
			c0,31.9,0,63.8,0,95.7c0,4-1,5-5.1,5c-9.8,0-19.6,0-29.4,0c-4.3,0-5.2-0.9-5.2-5.2C122.2,471.4,122.2,455.4,122.2,439.5z"/>
		<path id="XMLID_208_" fill="#010101" d="M123.5,624c0-10.5,8.1-18.7,18.5-18.7c10.4,0,18.7,8.1,18.9,18.5
			c0.1,10.2-8.3,18.9-18.5,19C131.9,642.9,123.5,634.5,123.5,624z"/>
		<path id="XMLID_207_" fill="#FEFEFE" d="M344.9,380.2c0,26.4,0,52.7,0,79.1c0,6.6-2.6,9.2-9.2,9.2c-36.3,0-72.6,0-108.9,0
			c-6.9,0-10.3-3.2-10.3-10.1c0-52.1,0-104.3,0-156.4c0-6.2,2.1-10.3,10.2-10.3c36.2,0.2,72.3,0.1,108.5,0.1c6.9,0,9.6,2.6,9.6,9.6
			C344.9,327.7,344.9,353.9,344.9,380.2z"/>
		<path id="XMLID_206_" fill="#F8D35F" d="M810.3,280.4c0-3,0.1-5.9,0.1-8.9c0-1.6,0.7-2.3,2.3-2.3c13.8,0,27.7,0,41.5,0
			c1.7,0,2.2,0.7,2.2,2.4c0,13.2-0.1,26.5,0,39.7c0,2.6-1.4,2.5-3.1,2.5c-10.3,0-20.6,0.1-30.9-0.1c-2.9,0-4,0.8-3.8,3.7
			c0.1,2.3,0.6,4.7-0.4,6.9c-2.2-3.2-1.3-6.8-1-10.2c0.9-9.7,0.2-19.5,0.4-29.2c0.1-2.4-1.1-3.3-3.5-3.3
			C812.8,281.6,811.3,281.7,810.3,280.4z"/>
		<path id="XMLID_205_" fill="#B9DF1B" d="M772.6,317.4c-8.1,0-16.3-0.2-24.4-0.1c-2.5,0-3.1-0.8-3.1-3.2c0.1-12.6,0.1-25.3,0-37.9
			c0-2.7,0.8-3.4,3.4-3.4c12.7,0.1,25.5,0.2,38.2,0c3.5-0.1,5,0.8,4.4,4.4c-0.2,1,0,2.1,0.1,3.2c1.1,1.3,1.1,2.8,1.1,4.4
			c0,9.3,0.1,18.6,0,27.9c0,5-0.8,5.7-5.8,5.8c-3.2,0.1-6.4,0-9.5,0C775.4,318.5,773.9,318.5,772.6,317.4z"/>
		<path id="XMLID_204_" fill="#FA8150" d="M772.6,317.4c5.2,0,10.4-0.2,15.5,0c2.3,0.1,3-0.7,3-3c-0.1-11.3,0-22.6,0.1-33.9
			c6.4,0,12.7,0,19.1,0c8.4,0.2,8.5,0.2,8.4,8.6c-0.1,11.8-0.3,23.6-0.5,35.4c-10.8,0.1-21.6,0.2-32.5,0.2c-2,0-4,0-6,0
			C772.6,324.6,772.6,324.6,772.6,317.4z"/>
		<path id="XMLID_203_" fill="#050505" d="M798.8,212.8c-17,0-34.1,0-51.1,0c-0.9,0-1.9,0.1-2.8,0c-1.6-0.2-2.6-1.3-2.6-2.9
			c0-1.4,0.9-2.4,2.3-2.7c1-0.2,2.1-0.2,3.2-0.2c34.1,0,68.1,0,102.2,0c0.8,0,1.7-0.1,2.5,0c1.8,0.2,2.9,1.3,2.9,3
			c0,1.7-1.1,2.8-3,2.8c-0.9,0-1.9,0-2.8,0C832.6,212.8,815.7,212.8,798.8,212.8z"/>
		<path id="XMLID_202_" fill="#010101" d="M799,218c16.9,0,33.8,0,50.7,0c1.1,0,2.1,0,3.2,0.1c1.6,0.2,2.6,1.4,2.5,2.9
			c-0.1,1.5-0.9,2.7-2.7,2.7c-0.8,0-1.7,0-2.5,0c-34.3,0-68.6,0-102.8,0c-0.8,0-1.7,0-2.5,0c-1.5-0.1-2.4-1.2-2.5-2.6
			c-0.1-1.5,0.7-2.7,2.3-3.1c1-0.2,2.1-0.1,3.2-0.1C764.9,218,781.9,218,799,218z"/>
		<path id="XMLID_201_" fill="#010101" d="M798.6,245.9c-16.9,0-33.8,0-50.7,0c-0.9,0-1.9,0-2.8-0.1c-1.6-0.2-2.7-1.2-2.7-2.8
			c0-1.7,1.1-2.8,2.9-2.9c0.7,0,1.4,0,2.1,0c34.3,0,68.6,0,102.8,0c0.8,0,1.7,0,2.5,0c1.7,0.1,2.6,1.2,2.7,2.8
			c0,1.5-0.8,2.7-2.5,2.9c-0.9,0.1-1.9,0.1-2.8,0.1C832.9,245.9,815.7,245.9,798.6,245.9z"/>
		<path id="XMLID_200_" fill="#020202" d="M798.8,229.2c17.1,0,34.3,0,51.4,0c0.9,0,1.9,0,2.8,0.1c1.4,0.1,2.1,1.1,2.3,2.3
			c0.2,1.4-0.5,2.5-1.8,3.1c-1.2,0.6-2.6,0.3-3.8,0.3c-33.9,0-67.8,0-101.7,0c-0.6,0-1.2,0-1.8,0c-2,0-3.7-0.8-3.7-2.9
			c-0.1-2.4,1.8-2.9,3.9-2.9C763.8,229.2,781.3,229.2,798.8,229.2z"/>
		<path id="XMLID_199_" fill="#050505" d="M798.2,176.7c-11.3,0-22.7,0-34,0c-0.9,0-1.9,0.1-2.8-0.1c-1.6-0.2-2.6-1.2-2.7-2.8
			c0-1.6,0.9-2.7,2.5-2.9c0.9-0.1,1.9-0.1,2.8-0.1c23,0,46.1,0,69.1,0c0.5,0,0.9,0,1.4,0c2.1,0,4,0.7,3.9,3.1
			c-0.1,2.1-1.7,2.9-3.8,2.8c-1.4,0-2.8,0-4.3,0C819.7,176.7,808.9,176.7,798.2,176.7z"/>
		<path id="XMLID_198_" d="M798.7,189c-11.8,0-23.6,0-35.4,0c-2.1,0-4.4-0.1-4.5-2.8c-0.1-2.9,2.2-3,4.5-3c23.6,0,47.2,0,70.9,0
			c2.2,0,4.3,0.3,4.3,2.9c0,2.6-2.1,2.9-4.4,2.9C822.3,189,810.5,189,798.7,189z"/>
		<path id="XMLID_197_" fill="#020202" d="M780.1,257c-10.9,0-21.7,0-32.6,0c-0.9,0-1.9,0.1-2.8-0.1c-1.5-0.4-2.5-1.5-2.3-3.1
			c0.1-1.4,1-2.4,2.5-2.5c0.8-0.1,1.7-0.1,2.5-0.1c21.9,0,43.7,0,65.6,0c0.2,0,0.5,0,0.7,0c2.2-0.1,4.3,0.2,4.2,2.9
			c-0.1,2.6-2.3,2.9-4.4,2.9c-2.1-0.1-4.3,0-6.4,0C798.1,257,789.1,257,780.1,257z"/>
		<path id="XMLID_196_" fill="#000001" d="M981.1,285.7c39.3,0,70.6,31.9,70.5,71.7c-0.1,38.7-32.6,70.6-72.3,70
			c-38-0.6-69.1-32.5-69-71.9C910.4,317.3,942.6,285.6,981.1,285.7z"/>
		<path id="XMLID_195_" fill="#BDEAFE" d="M689.7,394.1c48.4,0,96.7,0,145.1-0.1c2.9,0,4,0.4,3.9,3.8c-0.1,71.8-0.1,143.5,0,215.3
			c0,2.8-0.6,3.7-3.6,3.7c-97.1-0.1-194.1-0.1-291.2,0c-3.3,0-3.8-1-3.8-4c0.1-71.6,0.1-143.3,0-214.9c0-3.1,0.6-3.9,3.8-3.9
			C592.5,394.1,641.1,394.1,689.7,394.1z"/>
		<path id="XMLID_194_" fill="#F6F6F8" d="M71.2,439.4c0-14.2,0.1-28.3-0.1-42.5c0-2.7,0.7-3.4,3.3-3.3c6.7,0.2,13.5,0.2,20.2,0
			c2.2,0,2.8,0.6,2.8,2.8c-0.1,28.9-0.1,57.9,0,86.8c0,2-0.6,2.6-2.6,2.5c-6.8-0.1-13.7-0.2-20.5,0c-2.9,0.1-3.2-1-3.2-3.5
			C71.3,468,71.2,453.7,71.2,439.4z"/>
		<path id="XMLID_193_" fill="#FEFEFE" d="M96.4,623.9c0,6.5-5.4,12-11.9,12c-6.5,0-12-5.4-12-11.9c0-6.4,5.5-12,11.9-12
			C90.8,611.9,96.4,617.5,96.4,623.9z"/>
		<path id="XMLID_192_" fill="#F8F8F9" d="M129.1,439.9c0-14.3,0.1-28.6-0.1-42.9c0-2.9,0.9-3.5,3.6-3.4c6.6,0.2,13.2,0.1,19.8,0
			c2,0,2.9,0.2,2.9,2.6c-0.1,28.9-0.1,57.9,0,86.8c0,2.4-0.9,2.7-2.9,2.6c-6.8-0.1-13.7-0.2-20.5,0c-2.4,0.1-2.9-0.7-2.8-3
			C129.1,468.4,129.1,454.2,129.1,439.9z"/>
		<path id="XMLID_191_" fill="#FEFEFE" d="M142.2,635.9c-6.5,0-12-5.3-12-11.9c-0.1-6.5,5.4-12,11.8-12.1c6.5,0,12,5.4,12,11.9
			C154.1,630.3,148.7,635.9,142.2,635.9z"/>
		<path id="XMLID_190_" fill="#666569" d="M281,343.7c17.3,0,34.5,0,51.8,0c2.3,0,4.3,0.3,4.8,3c0.4,2.3-1.4,3.9-4.7,3.9
			c-10.8,0-21.5,0-32.3,0c-23.5,0-47.1,0-70.6,0c-1.1,0-2.2,0.1-3.2-0.2c-1.7-0.4-2.6-1.6-2.6-3.4c0-1.8,1.1-2.9,2.7-3.2
			c0.9-0.2,1.9-0.1,2.8-0.1C247,343.7,264,343.7,281,343.7z"/>
		<path id="XMLID_189_" fill="#66656A" d="M281,360.1c-17,0-34,0-51.1,0c-0.8,0-1.7,0-2.5,0c-2-0.1-3-1.3-3.1-3.2
			c-0.1-1.9,1-3.1,2.9-3.4c1-0.2,2.1-0.1,3.2-0.1c33.7,0,67.4,0,101,0c0.6,0,1.2,0,1.8,0c2.4,0,4.4,0.7,4.3,3.5
			c0,2.8-2.1,3.2-4.5,3.2C315.8,360.1,298.4,360.1,281,360.1z"/>
		<path id="XMLID_188_" fill="#66656A" d="M281,374c17,0,34,0,51.1,0c0.8,0,1.7,0,2.5,0c2,0.1,3,1.3,3.1,3.2c0.1,1.9-1,3.1-2.9,3.4
			c-0.9,0.1-1.9,0.1-2.8,0.1c-33.9,0-67.8,0-101.8,0c-1.1,0-2.2,0.1-3.2-0.2c-1.7-0.4-2.6-1.6-2.6-3.3c0-1.7,1-2.9,2.8-3.2
			c0.9-0.2,1.9-0.1,2.8-0.1C247,374,264,374,281,374z"/>
		<path id="XMLID_187_" fill="#66656A" d="M281.2,384.7c17.4,0,34.7,0,52.1,0c2.5,0,4.3,0.7,4.3,3.4c0,2.5-1.9,3.3-4.1,3.3
			c-0.7,0-1.4,0-2.1,0c-13.8,0-27.7,0-41.5,0c-19.7,0-39.5,0-59.2,0c-1.2,0-2.4,0-3.5-0.2c-1.9-0.3-2.9-1.6-2.7-3.5
			c0.1-1.7,1.1-2.8,2.9-3c0.9-0.1,1.9,0,2.8,0C247.2,384.7,264.2,384.7,281.2,384.7z"/>
		<path id="XMLID_186_" fill="#67666B" d="M280.8,370.9c-17.1,0-34.3,0-51.4,0c-2.5,0-5.1-0.1-5-3.5c0.1-3,2.4-3.3,4.8-3.3
			c34.5,0,69,0,103.5,0c2.5,0,4.8,0.4,4.8,3.4c0,3.3-2.5,3.4-5,3.4C315.3,370.9,298.1,370.9,280.8,370.9z"/>
		<path id="XMLID_185_" fill="#020202" d="M281.9,308.8c-14.1,0-28.1,0-42.2,0c-0.9,0-1.9,0.1-2.8-0.1c-1.9-0.3-3-1.4-3-3.3
			c0-2.1,1.2-3.3,3.3-3.5c0.7-0.1,1.4,0,2.1,0c28.5,0,56.9,0,85.4,0c0.8,0,1.7-0.1,2.5,0.1c1.7,0.3,2.8,1.3,2.9,3.1
			c0.1,1.9-1,3.1-2.8,3.6c-0.9,0.2-1.9,0.1-2.8,0.1C310.2,308.8,296.1,308.8,281.9,308.8z"/>
		<path id="XMLID_184_" fill="#020202" d="M282,323.6c-14.2,0-28.4,0-42.5,0c-0.9,0-1.9,0.1-2.8-0.1c-1.8-0.4-2.9-1.6-2.8-3.5
			c0.1-1.7,1.1-2.8,2.8-3.2c0.9-0.2,1.9-0.1,2.8-0.1c28.4,0,56.7,0,85.1,0c0.8,0,1.7-0.1,2.5,0.1c1.8,0.4,3,1.5,3,3.4
			c0,1.9-1.1,3-3,3.3c-0.9,0.1-1.9,0.1-2.8,0.1C310.1,323.6,296,323.6,282,323.6z"/>
		<path id="XMLID_183_" fill="#1B1C20" d="M329.3,435.4c0.1,2.8-0.4,5.5-2,7.7c-1.1,1.6-1.1,2.9,0.2,4.3c1,1.3,1.9,2.7,2.7,4.1
			c1.1,1.9,1,3.7-0.9,4.9c-1.8,1.2-3.8,0.8-4.6-1c-2.1-4.8-5.3-6.4-10.3-4.6c-1.1,0.4-2.8,0.3-3.8-0.3c-3.1-1.6-4.5,0-6,2.4
			c-1.4,2.3-2.8,5.8-6.4,3.3c-3.3-2.3-0.9-4.9,0.7-7c1.9-2.5,2.7-4.4,0.9-7.7c-3.1-5.4-1.5-12.5,2.8-17c4.5-4.7,11.2-6.2,17.2-3.7
			C325.6,423.3,329.3,428.9,329.3,435.4z"/>
		<path id="XMLID_182_" fill="#68676C" d="M268.3,394.2c12.5,0,25,0,37.5,0c0.8,0,1.7,0,2.5,0c2.2,0.2,3.5,1.4,3.4,3.7
			c-0.1,2.1-1.4,3.2-3.5,3.2c-4,0-8,0-12,0c-22,0-43.9,0-65.9,0c-0.6,0-1.2,0-1.8,0c-2.3,0.1-4.1-0.8-4.2-3.3
			c-0.1-2.7,1.8-3.6,4.2-3.6c9.2,0,18.4,0,27.6,0C260.3,394.2,264.3,394.2,268.3,394.2z"/>
		<path id="XMLID_181_" fill="#4FAB24" d="M769.1,307.5c-4.8,0-9.7,0-14.5,0c-2.1,0-3.9-0.6-3.8-3c0.1-2.2,1.8-2.7,3.8-2.7
			c9.7,0,19.3,0.1,29,0c2.1,0,3.6,0.8,3.7,2.9c0,2.1-1.5,2.9-3.6,2.9C778.8,307.5,774,307.5,769.1,307.5z"/>
		<path id="XMLID_180_" fill="#4FAB25" d="M768.3,279.1c4.2,0,8.5,0.1,12.7,0c2.1,0,4,0.4,4.1,2.8c0.1,2.4-1.7,3-3.9,3
			c-8.8-0.1-17.7,0-26.5,0c-2.1,0-4-0.5-3.9-2.9c0.1-2.5,2-2.8,4.1-2.8C759.4,279.1,763.8,279.1,768.3,279.1z"/>
		<path id="XMLID_179_" fill="#4EAB25" d="M763.4,296.2c-3.1,0-6.1,0-9.2,0c-1.9,0-3.3-0.7-3.4-2.8c-0.1-2.1,1.6-2.9,3.3-2.9
			c6.4-0.1,12.8-0.1,19.1,0c2,0,3,1.2,2.9,3.2c-0.1,2.1-1.5,2.4-3.2,2.4C769.8,296.2,766.6,296.2,763.4,296.2z"/>
		<path id="XMLID_178_" fill="#FEFEFE" d="M962.1,417.5c-20.1-6.4-34-19.6-41.1-39.3c-12.9-35.6,7.6-74.1,44.2-83.6
			c36.2-9.4,72.6,14.5,78.9,51.7c5.2,30.5-13.5,61.4-43,71c-0.4,0.1-0.9,0.2-1.4,0.3C987.2,419.1,974.7,419.2,962.1,417.5z"/>
		<path id="XMLID_177_" fill="#BDE8FB" d="M962.1,417.5c12.6,0,25.1,0,37.7,0.1C987.2,421.7,974.7,421.7,962.1,417.5z"/>
		<path id="XMLID_176_" fill="#D5F6FB" d="M713.8,438.1c-2,4.1-4.7,7.8-6.2,12.2c-0.6,1.8-2.4,1.2-3.7,1.2c-23.9,0-47.9,0-71.8,0
			c-1.4,0-2.8-0.5-4.1,0.6c-1.3,2.2-1.2,4.4,0,6.6c1.2,1,2.7,0.6,4.1,0.6c23.1,0,46.3,0.1,69.4,0c2.7,0,4.1,0,3.3,3.6
			c-1.1,4.9-0.7,4.9-5.8,4.9c-22.3,0-44.6,0-66.9,0c-1.4,0-2.9-0.5-4.1,0.6c-1.3,2.2-1.2,4.4,0,6.6c1.3,1,2.7,0.5,4.1,0.5
			c22.9,0,45.9,0.1,68.8-0.1c3.9,0,3.7,1.9,3.8,4.5c0.1,2.8-0.3,4.2-3.8,4.2c-22.9-0.2-45.9-0.1-68.8-0.1c-1.4,0-2.9-0.5-4.1,0.6
			c-1.2,2.2-1.3,4.4,0,6.6c1.2,1.1,2.7,0.6,4.1,0.6c22.9,0,45.9,0.1,68.8-0.1c3.9,0,3.7,1.8,3.8,4.5c0.1,2.8-0.3,4.2-3.8,4.2
			c-22.9-0.2-45.9-0.1-68.8-0.1c-1.4,0-2.9-0.5-4.1,0.6c-1.2,2.2-1.3,4.4,0,6.6c1.2,1.1,2.7,0.6,4.1,0.6c22.9,0,45.8,0.1,68.6,0
			c3.1,0,4.1,0.8,4,3.9c-0.3,6-0.1,12-0.1,18c-1.6,1.6-3.8,1.2-5.7,1.2c-16.4,0-32.8,0-49.3,0c-8.1,0-12.1,5.7-9.7,13.6
			c0.4,1.3,1.2,1.7,2.3,1.8c1.3,0.2,2.6,0.1,3.9,0.1c17.6,0,35.2,0,52.8,0c1.9,0,4.1-0.5,5.7,1.2c0,0.2,0,0.4,0,0.6
			c-1.7,1.4-3.8,1.1-5.8,1.1c-17.8,0-35.7,0-53.5,0c-5.5,0-5.6,0.1-5.6,5.5c0,12.7,0,25.5,0,38.2c0,7.4,2.6,10,10,10
			c20.1,0,40.1,0,60.2,0c1.8,0,3.5,0,5.3,0.4c3.7,4.4,7.7,8.5,13.4,11.9c-1.6,0.1-2.6,0.2-3.6,0.2c-60.1,0-120.1,0-180.2,0.1
			c-3.4,0-4.4-0.8-4.3-4.3c0.1-71,0.1-142.1,0-213.1c0-3.3,1-4.1,4.2-4.1c96.3,0.1,192.7,0.1,289,0c3.1,0,4.4,0.6,4.2,4.1
			c-0.3,5.1-0.3,10.2,0,15.2c0.1,2.9-1,3.7-3.7,3.5c-2.8-0.2-5.7,0-8.5,0c-1.3-1.5-1-3.3-1.2-5.1c-0.7-4.7-2.4-6.6-7.1-6.6
			c-62-0.1-124.1-0.1-186.1,0c-5.4,0-7.2,2-7.3,7.4c-0.1,5.2,0,10.4,0,15.6c0.1,6.2,1.9,8.1,8.1,8.1c25.2,0.1,50.3,0,75.5,0
			C709.8,436.9,712,436.4,713.8,438.1z"/>
		<path id="XMLID_175_" fill="#50C5F8" d="M713.8,438.1c-27.4,0-54.8-0.1-82.2-0.1c-6.5,0-8.7-2.1-8.7-8.7c0-5.9-0.1-11.8,0-17.7
			c0.1-4.3,2.6-6.8,6.8-7c0.7,0,1.4,0,2.1,0c61,0,122,0,182.9,0c9.6,0,10.9,1.4,11,11.1c0,0.6,0,1.2,0.1,1.8c0,4,0,8-0.1,12.1
			c-0.1,5.7-2.8,8.5-8.5,8.5c-33.1,0-66.2,0-99.3,0C716.6,438,715.2,438,713.8,438.1z"/>
		<path id="XMLID_174_" fill="#FEFEFE" d="M715.2,604c-1,1.2-2.4,0.7-3.7,0.7c-21.3,0-42.5,0-63.8,0c-5.6,0-9.1-3.5-9.2-8.9
			c0-14.5,0.1-29.1-0.1-43.6c0-2.8,0.8-3.6,3.6-3.6c20.8,0.1,41.6,0.1,62.4,0.1c0.1,8.5,0.1,8.5-8.4,8.5c-14.6,0-29.2,0-43.8,0
			c-1.2,0-2.6-0.4-3.7,0.5c-1.4,2.2-1.3,4.5,0,6.7c1.1,1,2.5,0.6,3.7,0.6c16.2,0,32.4,0,48.6,0c2.1,0,3.8-0.1,3.8,3
			c0,3.1-1.3,3.4-3.8,3.4c-16.2-0.1-32.4-0.1-48.6,0c-1.2,0-2.6-0.5-3.7,0.6c-1.4,2.2-1.2,4.5,0,6.7c1.1,0.9,2.5,0.5,3.8,0.5
			c16.4,0,32.9,0,49.3,0c2.8,0,5.1,2.9,4.2,5.4c-0.6,1.6-2,0.9-3.1,0.9c-15.8,0-31.7,0-47.5,0.1c-2,0-4-0.6-5.9,0.5
			c-2.2,2.1-1.9,4.4-0.7,6.8c1.2,0.9,2.5,0.5,3.8,0.5c17.7,0,35.4,0.1,53.1,0c2.4,0,3.9,0.5,4.9,2.9
			C711.5,599.1,713.3,601.6,715.2,604z"/>
		<path id="XMLID_173_" fill="#C3C4C8" d="M704.6,548.1c-20.7,0-41.3-0.1-62,0c-3,0-3.9-0.7-4-3.9c-0.3-10.5,1-14.5,14-14.1
			c17.4,0.5,34.7,0.1,52.1,0.1c31.2,0,62.4,0,93.6,0.1c6.6,0,9.3,2.7,9.3,9.1c0,2.8,0.9,6.6-0.5,8.2c-1.3,1.4-5.3,0.4-8.1,0.4
			c-30,0-60,0-90,0C707.4,548,706,548,704.6,548.1z"/>
		<path id="XMLID_172_" fill="#000001" d="M628,491.3c-3-2.7-3-3.8,0-6.6c62.7,0,125.5,0,188.2,0c2.5,0,5.9-0.7,6,3.1
			c0.1,4-3.3,3.6-6,3.6c-61.4,0-122.9,0-184.3,0C630.6,491.4,629.3,491.4,628,491.3z"/>
		<path id="XMLID_171_" d="M628,475c-3-2.8-3-3.9,0-6.6c1.8,0,3.5-0.1,5.3-0.1c60.8,0,121.7,0,182.5,0c0.9,0,1.9,0,2.8,0
			c2.3,0.1,3.6,1.3,3.5,3.5c-0.1,2-1.4,3.2-3.5,3.1c-0.9,0-1.9,0-2.8,0C753.2,475,690.6,475,628,475z"/>
		<path id="XMLID_170_" fill="#010001" d="M628,507.6c-3-2.7-3-3.9,0-6.6c63.1,0,126.2,0,189.3,0c1,0,2.2,0,3.1,0.4
			c1.3,0.5,2,1.7,1.9,3.1c-0.1,1.5-1,2.7-2.5,3c-0.8,0.2-1.6,0.1-2.5,0.1C754.1,507.7,691.1,507.6,628,507.6z"/>
		<path id="XMLID_169_" fill="#000001" d="M628,458.7c-3-2.7-3-3.8,0-6.6c63.2,0,126.4,0,189.6,0c3.3,0,5.1,1.5,4.6,3.9
			c-0.3,1.4-1.1,2.4-2.5,2.7c-0.8,0.2-1.6,0.1-2.5,0.1C754.1,458.7,691,458.7,628,458.7z"/>
		<path id="XMLID_168_" fill="#1A1B1F" d="M648.6,564.5c-3.3-2.6-3.3-4.1,0-6.7c22,0,44,0.1,65.9,0.1c27.1,0,54.1,0,81.2,0
			c3.3,0,5,1.4,4.6,3.8c-0.2,1.4-1,2.4-2.5,2.7c-0.9,0.2-1.9,0.2-2.8,0.2c-48,0-95.9,0-143.9,0C650.2,564.5,649.4,564.5,648.6,564.5
			z"/>
		<path id="XMLID_167_" fill="#191A1E" d="M648.6,578.7c-3.2-2.6-3.2-4.1,0-6.7c48.8,0,97.6,0,146.4,0c0.9,0,1.9-0.1,2.8,0.2
			c1.7,0.4,2.6,1.6,2.5,3.4c-0.1,1.7-1,2.9-2.8,3c-0.9,0.1-1.9,0-2.8,0c-47.4,0-94.8,0-142.1,0C651.2,578.6,649.9,578.7,648.6,578.7
			z"/>
		<path id="XMLID_166_" fill="#191A1E" d="M648.6,592.9c-3.5-2.7-3.3-4.8,0.7-6.8c11.1,0,22.2,0.1,33.3,0.1c24.6,0,49.2,0,73.8,0
			c1.1,0,2.2-0.1,3.2,0.1c1.7,0.4,2.6,1.6,2.5,3.4c-0.1,1.8-1.1,2.8-2.8,3.1c-0.9,0.1-1.9,0-2.8,0
			C720.4,592.9,684.5,592.9,648.6,592.9z"/>
		<path id="XMLID_165_" fill="#020202" d="M81,440.2c0-11.9,0-23.8,0-35.8c0-2.6,0.3-5,3.6-4.9c3.1,0.1,3.3,2.4,3.3,4.8
			c0,23.8,0,47.7,0,71.5c0,2.5-0.4,4.7-3.5,4.7c-3,0-3.4-2.2-3.4-4.7C81,464,81,452.1,81,440.2z"/>
		<path id="XMLID_164_" fill="#020202" d="M144.1,440c0-11.9,0-23.9,0-35.8c0-2.4,0.2-4.7,3.4-4.7c3.1,0,3.5,2.1,3.5,4.6
			c0,23.9,0,47.7,0,71.6c0,2.6-0.3,5-3.6,4.9c-3.1-0.1-3.3-2.3-3.3-4.8C144.1,463.9,144.1,452,144.1,440z"/>
		<path id="XMLID_163_" d="M133.4,439.7c0-11.8,0-23.6,0-35.4c0-2.4,0-4.7,3.2-4.8c3.4,0,3.5,2.4,3.5,4.9c0,23.7,0,47.4,0,71.2
			c0,2.3-0.1,4.8-3.2,5c-2.7,0.2-3.6-1.5-3.6-4.1C133.4,464.3,133.4,452,133.4,439.7z"/>
		<path id="XMLID_162_" fill="#F6AE2C" d="M322.6,435.3c0,4.8-4.1,8.9-8.8,8.9c-4.7,0-8.7-4.1-8.7-8.9c0.1-4.7,3.9-8.5,8.5-8.6
			C318.5,426.6,322.6,430.5,322.6,435.3z"/>
		<path id="XMLID_161_" d="M969.9,391.5c1.8-10.4,3.6-21,5.4-31.6c0.3-1.7,0.6-3.5,0.9-5.2c0.4-2.1,1.7-3.7,3.7-3.8
			c2.2-0.1,3.4-1.3,4.7-2.6c11.2-11,22.5-21.9,33.7-32.9c1.8-1.7,3.7-3,5.8-0.8c2.1,2.2,0.8,4-1,5.7c-11.7,11.5-23.4,23-35.2,34.5
			c-1.4,1.3-2,2.8-2.3,4.6c-1.8,11.2-3.7,22.3-5.7,33.5c-0.6,3.2-2.9,4.9-5.7,4.5C971.5,396.8,969.7,394.5,969.9,391.5z"/>
		<path id="XMLID_160_" fill="#090909" d="M1028.4,332.7c-2.2-0.2-3.4-1.4-3.5-3.6c0-2.2,1.3-3.6,3.5-3.6c2.3,0,3.8,1.4,3.7,3.8
			C1032,331.4,1030.7,332.6,1028.4,332.7z"/>
		<path id="XMLID_159_" fill="#060606" d="M981.1,298c2.3,0.3,3.7,1.5,3.6,3.7c-0.1,2.3-1.5,3.7-3.9,3.5c-2.2-0.2-3.4-1.7-3.3-3.8
			C977.6,299.3,979,298.2,981.1,298z"/>
		<path id="XMLID_158_" fill="#080808" d="M930,356.4c-0.4,2.2-1.4,3.7-3.6,3.7c-2.3,0.1-3.7-1.3-3.8-3.4c-0.1-2.2,1.3-3.8,3.7-3.8
			C928.5,352.9,929.5,354.5,930,356.4z"/>
		<path id="XMLID_157_" fill="#060606" d="M1012,309c-0.1,2.2-1.2,3.5-3.5,3.5c-2.3,0.1-3.6-1.3-3.7-3.4c-0.1-2.3,1.3-3.8,3.7-3.7
			C1010.7,305.5,1011.9,306.8,1012,309z"/>
		<path id="XMLID_156_" fill="#050505" d="M933.3,380.4c2.4,0.2,3.8,1.4,3.8,3.6c0,2.4-1.5,3.8-3.8,3.6c-2.1-0.1-3.4-1.4-3.3-3.7
			C930.1,381.5,931.6,380.7,933.3,380.4z"/>
		<path id="XMLID_155_" fill="#050505" d="M954.3,312.6c-2.7-0.1-4.1-1.1-4.2-3.4c-0.1-2.4,1.3-3.8,3.6-3.8c2.2,0,3.4,1.3,3.5,3.5
			C957.3,311.3,955.8,312.2,954.3,312.6z"/>
		<path id="XMLID_154_" fill="#060606" d="M957.2,404.2c-0.1,2.2-1.4,3.4-3.6,3.4c-2.2,0-3.5-1.3-3.6-3.5c0-2.4,1.4-3.8,3.7-3.7
			C955.9,400.6,957.2,401.9,957.2,404.2z"/>
		<path id="XMLID_153_" fill="#050505" d="M1012,403.7c-0.1,2.5-1.2,3.8-3.4,3.9c-2.3,0.1-3.8-1.3-3.7-3.7c0-2.2,1.4-3.5,3.6-3.5
			C1010.6,400.5,1011.8,401.8,1012,403.7z"/>
		<path id="XMLID_152_" fill="#050505" d="M1039.5,356.1c-0.2,2.4-1.2,3.8-3.5,4c-2.2,0.1-3.6-1.1-3.8-3.2c-0.2-2.3,1.2-3.8,3.5-3.9
			C1038,352.9,1039,354.4,1039.5,356.1z"/>
		<path id="XMLID_151_" fill="#060606" d="M930.1,329.8c0-3,1.3-4.2,3.4-4.3c2.3-0.1,3.8,1.3,3.7,3.7c-0.1,2.2-1.4,3.4-3.6,3.4
			C931.4,332.6,930.2,331.3,930.1,329.8z"/>
		<path id="XMLID_150_" fill="#070707" d="M981.1,415.1c-2.3-0.3-3.7-1.5-3.6-3.7c0-2.3,1.5-3.7,3.9-3.5c2.2,0.1,3.5,1.6,3.3,3.7
			C984.5,413.8,983.1,414.9,981.1,415.1z"/>
		<path id="XMLID_149_" fill="#060606" d="M1032.2,384.1c-0.4,2.1-1.5,3.6-3.7,3.5c-2.4-0.1-3.7-1.6-3.5-3.9
			c0.1-2.2,1.5-3.4,3.8-3.3C1031,380.6,1031.9,382,1032.2,384.1z"/>
		<path id="XMLID_148_" fill="#FEFEFE" d="M614.3,437.8c0,1.4,0.1,2.8,0.1,4.2c0,51.7,0,103.3,0,155c0,1.8,0.1,3.6-0.7,5.2
			c-1.1,2.4-2.7,4-5.6,4c-17.3-0.1-34.5,0-51.8,0c-4.7,0-6.5-2.1-6.5-7.2c0-48.2,0-96.4,0-144.7c0-5.4,0-10.9,0.1-16.3
			c1.3-1.1,2.8-1,4.4-1.1c18.6,0,37.3,0,55.9,0C611.7,436.9,613.1,436.8,614.3,437.8z"/>
		<path id="XMLID_147_" fill="#FEB43D" d="M614.3,437.8c-21.5,0-42.9,0.1-64.4,0.1c0-9.1-0.1-18.2-0.1-27.3c0-3.6,2.3-6.1,6-6.1
			c17.4-0.1,34.7-0.1,52.1,0c4.2,0,6.3,2.7,6.3,7.4C614.3,420.5,614.3,429.2,614.3,437.8z"/>
		<path id="XMLID_146_" fill="#1A1B1F" d="M680.8,543.6c-9.9,0-19.8,0-29.8,0c-2.5,0-4.7-0.4-4.8-3.4c0-2.9,2.2-3.5,4.7-3.5
			c20.1,0,40.1,0,60.2,0c2.6,0,4.6,0.7,4.6,3.6c-0.1,2.7-2.1,3.3-4.5,3.3C701.1,543.6,690.9,543.6,680.8,543.6z"/>
		<path id="XMLID_145_" fill="#1B1C20" d="M794.3,543.6c-0.8,0-1.7,0-2.5,0c-1.9-0.1-3.1-1.1-3.3-3c-0.2-2.1,1-3.4,2.9-3.7
			c1.7-0.3,3.5-0.2,5.3-0.1c2.1,0.2,3.6,1.3,3.5,3.6c-0.1,2.3-1.6,3.3-3.8,3.2C795.7,543.6,795,543.6,794.3,543.6z"/>
		<path id="XMLID_144_" fill="#E8EECA" d="M604.5,553.6c0,9.7,0,19.4,0,29.1c0,5.3-1.9,7.1-7.3,7.2c-9.6,0-19.1-0.2-28.7,0.1
			c-6.3,0.2-9.2-0.8-9.4-9.5c-0.2-15.3-0.1-30.7,0-46.1c0-4-0.3-8,0.6-12c0.7-3.3,2.7-4.8,5.6-4.8c11.2-0.1,22.4-0.1,33.7,0
			c3.6,0,5.5,2.4,5.5,6.4C604.6,533.8,604.5,543.7,604.5,553.6z"/>
		<path id="XMLID_143_" fill="#1B1C20" d="M582.5,474.2c6.8,0,13.7,0,20.5,0c2.6,0,5,0.3,5,3.5c0,3-2.3,3.4-4.8,3.4
			c-14.2,0-28.3,0-42.5,0c-2.5,0-4.7-0.5-4.6-3.5c0.1-3,2.3-3.4,4.8-3.4C568.1,474.3,575.3,474.2,582.5,474.2z"/>
		<path id="XMLID_142_" fill="#1A1B1F" d="M582.1,453.4c-7.2,0-14.4,0-21.6,0c-2.4,0-4.3-0.6-4.3-3.4c0-2.8,2-3.4,4.4-3.4
			c14.4,0,28.8,0,43.2,0c2.4,0,4.3,0.7,4.3,3.5c0,2.8-1.9,3.4-4.4,3.4C596.5,453.4,589.3,453.4,582.1,453.4z"/>
		<path id="XMLID_141_" fill="#1A1B1F" d="M582.1,501.9c7.2,0,14.4,0,21.6,0c2.4,0,4.3,0.7,4.3,3.4c0,2.8-1.9,3.5-4.3,3.5
			c-14.4,0-28.8,0-43.2,0c-2.4,0-4.3-0.7-4.3-3.5c0-2.8,1.9-3.4,4.3-3.4C567.7,501.9,574.9,501.9,582.1,501.9z"/>
		<path id="XMLID_140_" fill="#1C1D20" d="M582,494.8c-7.2,0-14.4,0-21.6,0c-2.3,0-4.1-0.5-4.3-3.1c-0.2-2.8,1.7-3.7,4.1-3.7
			c14.6,0,29.3,0,43.9,0c2.2,0,4,1,3.9,3.5c-0.1,2.5-1.8,3.3-4.1,3.3C596.7,494.8,589.3,494.8,582,494.8z"/>
		<path id="XMLID_139_" fill="#191A1E" d="M582.2,460.5c7.2,0,14.4,0,21.6,0c2.4,0,4.3,0.6,4.3,3.4c0,2.8-2,3.4-4.4,3.3
			c-14.4,0-28.8,0-43.2,0c-2.4,0-4.3-0.6-4.3-3.4c0-2.8,2-3.3,4.4-3.3C567.8,460.5,575,460.5,582.2,460.5z"/>
	</g>
</g>
<rect id="XMLID_271_" x="349.9" y="435.2" fill="#F7D7A6" width="5.7" height="43.8"/>
<rect id="XMLID_273_" x="205.9" y="435.2" fill="#F7D7A6" width="5.7" height="43.8"/>
<rect id="XMLID_274_" x="210.3" y="473.3" fill="#F7D7A6" width="140.7" height="5.7"/>
<rect id="XMLID_272_" x="457.8" y="489" transform="matrix(0.9939 0.1101 -0.1101 0.9939 57.1016 -47.7062)" fill="#FEFEFE" width="5.4" height="8.3"/>
<rect id="XMLID_276_" x="456.4" y="502.8" transform="matrix(0.9939 0.1101 -0.1101 0.9939 58.5131 -47.4813)" fill="#FEFEFE" width="5.4" height="6.4"/>
<rect id="XMLID_277_" x="386.5" y="501.8" transform="matrix(0.9785 -0.2064 0.2064 0.9785 -96.0059 91.2088)" fill="#EB500B" width="5.4" height="8.1"/>
</svg>
