<?xml version="1.0" encoding="utf-8"?>
<!-- Generator: Adobe Illustrator 21.1.0, SVG Export Plug-In . SVG Version: 6.00 Build 0)  -->
<svg version="1.1" id="Layer_1" xmlns="http://www.w3.org/2000/svg" xmlns:xlink="http://www.w3.org/1999/xlink" x="0px" y="0px"
	 viewBox="0 0 1669 1508" style="enable-background:new 0 0 1669 1508;" xml:space="preserve">
<style type="text/css">
	.st0{fill:#3495D1;}
</style>
<rect y="-0.3" class="st0" width="287" height="36"/>
<rect x="251" y="275.8" class="st0" width="1418" height="36"/>
<rect x="371" y="519.8" class="st0" width="1298" height="36"/>
<rect x="113" y="137.8" transform="matrix(-1.836970e-16 1 -1 -1.836970e-16 424.75 -113.25)" class="st0" width="312" height="36"/>
<rect x="194" y="696.8" transform="matrix(-1.836970e-16 1 -1 -1.836970e-16 1103.75 325.75)" class="st0" width="390" height="36"/>
<rect x="815.5" y="1345.3" transform="matrix(-1.836970e-16 1 -1 -1.836970e-16 2323.75 402.75)" class="st0" width="290" height="36"/>
<rect x="1511" y="397.8" transform="matrix(-1.836970e-16 1 -1 -1.836970e-16 2066.75 -1235.25)" class="st0" width="280" height="36"/>
</svg>
