<svg xmlns="http://www.w3.org/2000/svg" viewBox="0 0 1280 800"><path fill="#FEFEFE" d="M640.6 724.7c-183.1 0-366.3 0-549.4.1-2.3 0-2.8-.5-2.8-2.8.1-221.5.1-443 0-664.5 0-2.3.5-2.8 2.8-2.8 366.3.1 732.6.1 1098.9 0 2.3 0 2.8.5 2.8 2.8-.1 221.5-.1 443 0 664.5 0 2.3-.5 2.8-2.8 2.8-183.2-.1-366.3-.1-549.5-.1z"/><path fill="#D3EEF9" d="M1078.1 391c-.2.4-1.3.5.1 1.3 4.9 2.8 8.8 6.6 11.5 11.6 2.4 4.4 4 8.9 3.9 14-.1 8.9-.4 17.9.1 26.8.6 11.8-8.9 24.6-19.7 28.7-3.5 1.3-7 2-10.8 2-29.2-.1-58.4 0-87.6 0-4.2 0-4.2 0-4.3 4.3 0 4.2-.1 8.4 0 12.6 0 1.4-.2 2.6-1.3 3.6-1.7 1-3.4.2-5.1.2h-23.4c-6.5.1-10.3 3.8-10.6 10.3-.1 2.5 0 4.9-.1 7.4-.1 3.1-.8 3.7-3.9 3.9-2.1.1-4.1.1-5.7 1.8-.6.6-.3 1.4-.3 2 .1 23.4 0 46.8 0 70.2 0 5.2-.4 5.6-5.6 5.7h-18.8c-1.7 0-3.6.1-4.5-1.9-.1-4.3.7-8.5.6-12.8-.2-14-9.5-25-23.3-27.2-4.1-.6-4.4-.9-4.5-5v-4.6c-.2-3.3-.8-4-4.1-4-6.6-.1-13.1.1-19.7-.1-6.2-.2-12.5-.3-18.7-.4-5.6-.1-11.4.2-17.2.6-1.6.1-2.4 1-2.5 2.6-.1 1.2-.1 2.5-.1 3.7v71.2c0 1.7.5 3.5-1.1 4.9-1.8-.9-1.4-2.6-1.4-4.1-.1-5.9-.4-11.7 0-17.6 1.2-19.1.3-38.2.6-57.3 0-.3.1-.6.3-.8h-.3v49.1c0 3.3-.4 3.7-3.7 3.8-13.2.5-24.9-11-25.3-25-.2-7.7 0-15.4-.1-23.1 0-4.8-.1-4.9-4.8-4.9h-27.1c-1.2 0-2.5 0-3.7-.2-1.3-.2-2.1-.8-2-2.2v-88.6c-.1.9 0 2 0 3 0 27.6-.5 55.3.2 82.9.5 18.9.2 37.8.5 56.7 0 1.7.8 3.8-1.5 4.9-1.5-1.7-1-3.7-1-5.6V453.8c.1-6.1-3-10-8.1-12.7-1.1-.6-2.4-.8-3.2-1.8-.1-.2.3-.6-.4-.6-2.9.4-5.8.2-8.6.2h-182c-1.7 0-3.5-.3-5.1.6-1.2.5-2.4 1-3.7.8-1.1-.9-3.1-1-3-3.1 1.6-1.1 3.4-.8 5.1-.8h79.6c2 .1 3.1-.7 3-2.9v-10.2c0-1.9-.8-2.9-2.8-2.8H407.7c-2 0-4.4.7-6-1.4-.5-1.9 1.1-2.2 2.2-2.8 4.3-1.9 8.7-3.7 13.1-5.5 3.7-1.5 4.1-2.4 2.4-6.1-3.6-8.1-6.2-16.6-10.6-24.3-8.9-15.2-22.2-23.2-39.9-23.7-15-.4-27.6 5.2-37.5 16.3-7.2 8-11.2 17.6-11.5 28.6-.1 4.9-.1 9.9 1.3 14.7.3.9.5 1.8-.3 2.6-1.1.7-2.4.6-3.6.6-21 0-42 .2-62.9-.1-16-.2-30.5-5.1-42.7-16.1-10.3-9.4-16.6-20.8-19.6-34.3-.5-2.4-.8-4.9-.8-7.3 0-56.5 0-112.9-.1-169.4 0-13.6 4.3-25.6 12.2-36.3 9.6-12.9 22.7-20.8 38.5-23.9 3.2-.6 6.5-.8 9.8-.8 146 0 292 .1 438 0 14.2 0 26.8 4.2 38 12.7 11.6 8.8 18.8 20.6 22.6 34.6.6 2.4 0 2.8-2.2 2.8-4.8-.1-9.6 0-14.4.5h20.1c1.1 0 2.3-.4 3.2.5-1.2 1.3-2.8 1.1-4.3 1.1-5.3.1-10.7.1-16 0-2.5 0-4.4.5-4.7 3.5-.2 1.9-1.6 2.6-3.3 2.6-6.8.2-13.6.1-20.4 0-2.1 0-3.3-1.1-3.4-3.2-.1-2.3-1.5-2.9-3.5-2.9H694c-2.2.1-3.1 1.1-3.2 3.3-.1 3.5 0 7-.1 10.5-.1 3.8-.8 4.6-4.5 4.7-3.8.1-7.6.1-11.4 0-3.7-.1-4.5-.9-4.5-4.6-.1-5 0-10.1 0-15.1 0-6-.1-6.1-6.3-6.1h-7.1c-3.6.1-4.2.7-4.4 4.4-.1 2.8 0 5.6 0 8.3-.1 4.3-.7 5.1-5 5.1-5.8.1-11.5 0-17.3 0-4.3 0-4.8.5-4.8 4.8-.1 8.3 0 16.7 0 25 0 5.1-.9 5.9-5.9 6h-11.1c-2.4 0-3.4 1.1-3.3 3.4v128.9c0 6.9-.2 7.1-7 7.2-2.8 0-5.6-.1-8.3.1-4.6.3-6.7 2.4-6.8 7-.1 2.5-.1 4.9 0 7.4.2 4 2.2 6 6.2 6.3 1.6.2 3.3.1 4.9.1h477.4c2.2-.3 4.6-.9 6.6.8z"/><path d="M321 418.6c-2.8-10.4-3-20.6.6-30.9 6.5-18.3 24.4-31.6 43.7-32.2 20.7-.7 38.3 10.2 46.4 28.8 3.1 7.1 6 14.4 9.1 21.5 1.1 2.6.3 3.9-2.2 4.9-5.7 2.3-11.3 4.8-16.9 7.2-4.4 1.9-5.9 5.9-7.9 9.8-6.4 12-20.7 15.9-32.7 10.2-1.9-.9-3.6-.9-5.6-.1-5.9 2.5-11.9 5-17.9 7.5-3.9 1.6-4.4 1.5-7-1.6-.8-1-1.6-1.1-2.7-.7-2.2.8-4.4 1.6-5.9 3.7-3.8 4.9-8.8 6.8-15 5.9-1.5-.2-2.9-.1-4.2.4-13.6 5.7-27.4 11.3-41 17-10.1 4.1-20.1 8.3-30.2 12.5-3.5 1.5-3.6 1.7-2.8 5.3 5.6 23.8 11.8 47.5 17.6 71.2.5 2.1 1.4 3.7 3.1 5.2 7.8 6.8 7.6 19.9.2 25.7-3.7 2.9-2.9 6.4-2.5 10 .1 1.1.9 1.6 1.9 1.7.9.1 1.8.1 2.8.1 14.7 0 29.4.1 44.1 0 8.5-.1 14.8 3.4 18.9 10.9 1.5 2.7 2.1 5.5 2 8.6-.1 2.3.8 3.3 3.2 3.3h37.8c.9 0 1.9.1 2.2-1.1.1-21.7 0-43.4.1-65.1 0-2.7-.6-5.6 2.3-7.5.8-.5.5-1.8.3-2.6-2.9-10-4.4-20.3-6.9-30.3 0-.1-.1-.2-.3-.4.1 8.4 2.3 16.1 4.9 23.8.7 2 1.3 4.1 2 6.2.6 1.8.3 3.3-1.5 4.2-2 1-3.4 0-4.4-1.7-1.7-3.1-2.6-6.5-3.8-9.8-.7-2.1-1.1-4.4-1.8-6.5-1.5-5.3-2.2-10.7-2.6-16.1-.3-3.4-.1-6.7 3.9-8.1 1.4-.5 1.3-1.7 1.1-2.9-.6-3-1.5-6.1 1.9-8.2.8-.5.3-1.5.2-2.3-.2-1.3-.6-2.6-.5-4 .1-1.5.8-2.6 2.3-2.9 1.4-.3 2.6.2 3.5 1.4.5.8.9 1.7 1 2.6.4 2.1 1.1 3.6 3.4 4.1 1.8.4 2.3 2.2 2.6 3.8.4 2.3.9 4.6 3 6.2 1.3 1 1.3 2.5.5 3.9-.6 1.2-.9 2.5-.6 3.9 2.4 11.1 4.8 22.1 7.1 33.2.1.4.1 1 .8 1.3-.8-8.4-1.6-16.8-2.4-25.1-1.3-12.8-2.6-25.5-3.9-38.3-.3-2.7 1-4.5 3.8-5 2.3-.4 4.7-.6 7-.7 2.6-.1 3.9 1.5 4.2 3.9.9 5.7 1.2 11.4 1.8 17.2 1.4 13.1 2.7 26.1 4.1 39.2.3 2.6.3 5.1.6 7.1 1.3-12.5 2.9-25.4 4.3-38.4.6-5 1.1-10 1.7-15 .8-6 4.2-8.2 10-6.8 3.5.9 5.1 2.7 5.2 6.3.1 5.3-.9 10.4-1.5 15.6-.5 5-1.2 10-1.6 15-.1 1.5 2.7 5.6 4.1 6.1.8.3 1.1-.3 1.5-.7 6.8-6.9 16.8-4.1 19.7 5.4 3.5 21.1 7.2 42.2 10.8 63.2.7 4.3.9 8.6-1.4 12.6-3.1 4.9-8.1 7.4-12.9 10.1-2.3 1.3-5.4.3-6.7-2.1-1-1.7-2-3.2-4-3.8-.9-.3-1.3-1.2-1.5-2.2-.1-1.2.2-2.3 1.3-3 1.8-1.1 2-2.6 1.7-4.5-1.4-12.8-2.8-25.6-4.3-38.4-.6-4.9-.3-9.8-1.1-14.6-.3-.7-.6-1.4-1.4-1.8.6.9 1.5 1.6 1.7 2.7 1.4 23 .3 46 .7 69 .1 1.4.9 1.9 2.3 1.9h77.3c.6 0 1.2.1 2.3-.4-2.5-4-3.1-8.5-2.9-13.1.2-4.8 1.5-6.1 6.4-6.2h.6c5.5-.1 5.5-.1 4.8-5.4 0-48.6.1-97.2 0-145.9 0-5.1 2.2-9.1 6-12.3 1.1-.9 2.3-1.3 3.7-1.3 1-.3 2-.5 3-.8.8-1.1 2-.8 3.1-.8h190.8c.9 0 1.9-.3 2.7.4 9.8 3.2 12.8 7.4 12.8 17.9v144.2c.5 4 .5 4 4.9 4h1.5c4.9.1 6 1.2 6.1 6 .1 4.6.2 9.2-2.6 13.1.9.8 1.5.7 2.1.7h53.9c.8 0 1.7.2 2.4-.3V546c0-4.9 0-4.9 5.1-4.9h10.5c1.2 0 2.4.2 3.4-.9.7-.8 1.9-.9 2.5-.2 1.6 1.5 3.4 1.1 5.2 1.1h33.3c3.6 0 4.2.6 4.2 4.1 0 2.8-.8 5.9.2 8.2 1.2 2.6 4.9 1.3 7.4 2.1 11.7 3.7 19.6 13.6 20.3 25.9.3 4.7 0 9.4-1.3 14 .1 1.7-.5 3.2-1.3 4.7-4.4 8-11.1 12.7-19.9 14.8-1.4.3-3.4 0-4.1 1.7-.8 2.2-.5 4.7-.2 7 .1.7.7.9 1.4 1 .8.1 1.6.1 2.5.1h44.7c4.1 0 4.4-.2 4.3-4.1-.4-15.6.9-31.2.7-46.8-.2-17-.1-33.9 0-50.9 0-1.1-.3-2.3.3-3.3.8-3 3.2-2.8 5.5-2.6 3.1.4 4.4-.6 4-3.9-.3-2.5-.2-5.1 0-7.7.2-5.4 4.1-9.8 9.5-9.9 9-.3 18.1-.1 27.1 0 1.1 0 2.2.4 3.3.7 4.3 2.2 6.5 5.6 6.3 10.6-.1 2.7.1 5.3-.1 8-.1 1.7.4 2.3 2.2 2.3 1.9 0 2.1-.8 2.1-2.4-.1-5.1.1-10.3-.1-15.4-.1-2.7.9-3.9 3.7-3.9 29.7.1 59.4 0 89.1 0 1.4 0 2.6.3 3.6 1.3.5 1.2.3 2.4.3 3.6V622c0 1.2-.3 2.5.3 3.6 10.3.1 20.5.2 30.8.2 9.8 0 13.6 3.8 13.6 13.6v14.5c-.1 6.8-4.4 11.2-11.2 11.3H169c-9 0-12.8-3.8-12.8-12.7v-15.1c0-7.3 4.3-11.6 11.8-11.6 12.2 0 24.5-.1 36.7 0 2.3 0 2.9-.5 2.9-2.8-.1-11.3 5.4-17.9 16.5-20.4 1.4-.5 3.1.5 4.2-.5 1.2-1.1-.5-2.6 0-4 1.1-3.5-.3-5.7-3.1-8.1-3.3-2.8-5-7-5-11.5 0-4.1.5-8.2-.6-12.2-.7-2.6-1.2-5.3-1-8.1.1-.2.1-.4-.1-.5-.9-1.3-1.2-2.8-1.5-4.3-3.6-18.2-7.2-36.4-10.7-54.7-.5-2.7-1.6-4.8-3.7-6.9-4.3-4.3-5.8-9.6-3.8-15.5.4-1.3.9-2.5 2.2-3.2 2.9-3.9 6.8-6.2 11.7-6.4 2-.1 3.7-1.1 5.5-1.9 25.2-10.3 50.4-20.7 75.6-31 1.6-.6 2.7-1.4 3.6-3 2.7-4.9 7.1-7.4 12.7-7.1 4.1.2 7.2-2.1 10.7-3.2 1.2-.5.7-1.3.2-1.9zm757.1-27.6c-1.8 0-3.7-.1-5.5-.1H591.2c-7.1 0-9.1-2-9.1-9.2v-6.2c0-4.6 2.6-7.3 7.2-7.4 4-.1 8-.2 12 0 2.6.2 3-.8 3-3.1-.1-43.9-.1-87.8-.1-131.7 0-4.8.2-5.1 5-5.1 4.4 0 8.8-.1 13.3 0 1.8 0 2.2-.5 2.2-2.3-.1-9.8 0-19.5 0-29.3 0-3.6.5-4.1 4.1-4.1 6.9 0 13.8-.1 20.7 0 2.1 0 2.6-.6 2.5-2.6-.2-3.9 0-7.8-.1-11.7 0-2.4 1-3.6 3.5-3.6h13c2.5 0 3.5 1.2 3.4 3.6-.1 6.6 0 13.2-.1 19.7 0 1.9.3 2.7 2.5 2.6 4.5-.2 9-.2 13.6 0 2.1.1 2.5-.7 2.5-2.6-.1-4.1.1-8.2-.1-12.3-.1-2.9 1.1-3.9 3.8-3.8 2.9.1 5.8.1 8.6 0s4 1.1 3.7 3.9c-.2 2 .4 2.6 2.5 2.6 6.8-.1 13.6-.1 20.4 0 1.9 0 2.4-.5 2.4-2.4-.1-3.5.5-4 4.2-4h21.6c1.5.8 1.7 2.1 1.7 3.6 0 4.8.1 9.6.2 14.4 8.8-.7 17.5-.3 26.3-.3 1.6 0 3 .6 3.8 2.1.6 1.6.4 3.2.4 4.9v77.7c0 25.7.2 51.4.1 77.1 0 1 0 2.1.1 3.1.1 1.2.6 2 1.9 2.1 4.8.1 9.6.7 14.4-.4 1.4-1.3.9-3.1.9-4.7-.1-55.6-.3-111.3 0-166.9.1-9.7.2-19.5.7-29.2.6-1.6 1.7-2 3.4-2h79.1c2.6 0 3.4 1.2 3.4 3.6 0 6.9.1 13.7.1 20.6 1 1.1 1 2.5 1 3.8v130.3c0 .3 0 .6-.1.9.2 12.7 0 25.5.1 38.2v3.1c0 1.9.8 2.8 2.8 2.8h44.4c4.3 0 4.5-.2 4.5-4.5 0-35.9.2-71.7.1-107.6 0-1.7-.2-3.5.3-5.2 4.2-3.4 3.3-8.2 3.3-12.8v-43.4c0-1.7-.4-3.5 1-5 0-7 .2-14 .1-20.9 0-3 1-3.9 4-3.9 21.2.1 42.3.1 63.5 0 3 0 4.3 1.1 3.9 4-.4 2.7.8 3.1 3.2 3.1 5.1-.2 10.3 0 15.4-.1 1.7 0 3.1.3 3.9 1.9.5 3.7.3 7.4.2 11.1-.1 3.1.7 6.1.8 9.2 0 1.2.6 1.9 1.8 2.2 2.6.7 3 2.5 3 4.9-.1 35.6 0 71.1 0 106.7V365c0 .9-.3 1.9.3 2.7 8.3.6 16.6.1 24.9.2 6.8.1 9 2.2 9 9.1v5.5c-.5 5.4-2.1 7.4-7.2 8.5z"/><path fill="#D3EEF9" d="M893.6 323c0-.7-.1-1.4-.1-2.1V190.1c0-.7.1-1.4.1-2.1h53.5c1.3 0 2.7-.1 3.9.6.1 11.7.1 23.3.2 35v21.2c0 1.6.5 3.3-2.2 3.4-.5 0-1.1 1.1-1.6 1.7-.8.9-.4 2-.4 2.9V320c0 3.7-.6 4.6-4.4 4.7-15 .2-30 .1-45 0-1.5-.2-2.9-.5-4-1.7zm157.3 44.9c-.9-.9-.4-1.9-.4-2.9V201.2c0-4.4 0-4.5-4.4-5-1.7-.2-1.3-1.2-1.3-2.1v-21.6c1.1 2 .4 4.2.5 6.3.2 3-1 7 .5 8.6 1.4 1.5 5.5.5 8.5.4 7.4-.2 14.6 1.1 20.9 5.1 10.9 6.9 18.1 16.5 18.3 29.8.2 21.6.2 43.2 0 64.8-.1 13.9-7.1 24-18.9 31-6.2 3.8-13.1 4.3-20.1 5-2.6.3-3-1.2-3-3.4.1-12.2 0-24.5 0-36.7v-85h-.5v165.1c0 1.5-.1 2.9-.1 4.4zM807.7 165.7c0 8.4.1 16.9.1 25.3v174c0 1 .7 2.2-.6 3-1.2-1.4-1-3.1-1-4.7 0-11.8-.1-23.6 0-35.4 0-2.5-.5-3.5-3.2-3.3-3.2.2-6.4.2-9.5 0-3.9-.3-4.5-1-4.5-4.9V205.4c0-1 .7-2.2-.6-3.1-1-1.3-2.4-1.4-3.9-1.4h-22.8c-.9 0-2 .7-2.7-.6 1.4-2.9.5-6 .6-9 0-2.4.5-3.4 3.2-3.4 14.2.1 28.4 0 42.5.2 2 0 1.9-.8 1.9-2.1v-17.3c0-1-.3-2.1.5-3zM201.2 472.9c-4 8.2-2.9 13.6 4.2 19.8.8.7 1 1.5 1.2 2.4l12 61.5c.1.3 0 .6 0 .9-5.7 0-11.4-.3-16.8-2.2-10.9-3.8-19.5-15.7-19.5-27.3v-28c0-12.1 5.9-20.7 15.9-26.9.8-.7 1.9-1.1 3-.2zm876.9 83.5c0-12.2.1-24.5 0-36.7 0-2.7.7-3.3 3.4-2.7 9.7 2.1 18.7 12.6 18.3 23.3-.4 11.2 0 22.4-.1 33.6-.1 10.7-8.9 20.3-19.9 22.2-2 .3-1.6-1-1.6-2.1v-19.7c-.1-5.9-.1-11.9-.1-17.9z"/><path fill="#D3EEF8" d="M218.6 558c1.2 5.8 3.2 11.5 2.4 17.7-.9 6.5 1.8 11.8 7.2 15.6 1.2.8 1.6 1.7 1.4 3-.2 1.2-.3 2.4-.4 3.7-.4 4.6-.4 4.6-5 4.4 1.1-1.2 2.8.1 4-1-5.5-.2-7.8-2.5-9.6-9.3-.8-3.3-1.4-6.6-1.3-10 .1-6.2.1-12.5 0-18.7 0-1.9 0-3.8 1.3-5.4z"/><path fill="#D3EEF9" d="M1077.4 625.4c-1.2-.9-.5-2.1-.5-3.1-.1-42-.1-83.9-.1-125.9.8.6.6 1.5.6 2.3.1 42.2 0 84.4 0 126.7z"/><path fill="#FEFEFE" d="M261.8 469.3c14.1-5.9 28.2-11.7 42.3-17.6.8-.4 1.5-.2 2.4-.1 6.4 1.3 11.6-.6 15.4-5.9 2-2.8 5.3-2.9 8-4.3 1.1-.6 1.2.9 1.4 1.5 1 3.1 2.8 3.3 5.5 2.1 6.6-2.9 13.2-5.5 19.8-8.4 1.6-.7 2.7-.5 4.2.3 13.4 7.2 30.1.6 34.4-13.8 1.1-3.9 4.1-4 6.8-5.1.5 1.6 1.8 1.2 3 1.2h197.9c4 0 4 0 4 4 0 3.7-.1 7.4 0 11.1.1 2.1-.6 2.9-2.8 2.8-6-.1-11.9 0-17.9 0h-64.7c-1.2 0-2.5-.5-3.5.6-.6.8-1.6.9-2.5 1.2-15.5 4.4-24.7 16-24.9 32-.2 12.8-.2 25.7 0 38.6.2 12.4 5.4 22.2 16.1 28.8.9.6 1.9 1.7 3 .9.9-.6.5-1.9.5-2.9v-77.1c0-1.8-.3-3.7 1.1-5.4 1.2 1.1.7 2.4.7 3.5v138.8c0 1.1-.2 2.3.2 3.4.4 2.1 1 4.1 2.4 6.3h-10.2c-2.5 0-3.7 1-3.8 3.6-.2 8.5.1 10 3.7 16-.6.6-1.4.2-2 .2-26.8 0-53.6 0-80.4.1-2.5 0-3.2-.5-2-2.8.4-1.1.2-2.2.2-3.4v-44c0-1.1-.4-2.2.5-3.3 1.5 1.1 1.3 2.7 1.3 4.2.1 9.9.1 19.7.1 29.6 0 2.6.1 5.1.7 7.6.9 2.1 3.4.8 4.3 1.9.9 1.1.7 3.1 2.1 4.2 1.7 1.3 3.6 1.8 5.4.6 4.3-2.7 9-4.9 12-9.2 16.8 3 32.2-12.5 31.2-29-.4-6.3-.1-12.7-.1-19.1 0-1.9-.2-3.7-.6-5.5-2.7-13.3-14-22.6-27.6-22.8-4.1 0-8.2-.1-12.3.4-2.5-7.1-7.4-9.7-14.7-7.7-2.2.6-3.5 2-4.2 4.1-.2.5-.1 1.3-.9 1.3-.7 0-1-.5-1.2-1.1-.4-1.2-1-2.5-2.1-2.9-2.8-.9-2.5-2.7-2.2-5 1.2-9.5 2.2-19 3.3-28.5.5-5-1-6.8-6.2-7.4-4.4-.5-6.7 1.2-7.2 5.9-2.2 18.5-4.2 37-6.4 55.4-.1.7.3 1.7-1 2.3-.5-4.3-.9-8.5-1.3-12.7-1.9-18.2-3.7-36.4-5.5-54.6-.3-2.7-1.4-3.7-4-3.3-2.1.3-4.3.5-6.4.7-2.4.2-3.4 1.4-3.2 3.9 2.2 21.1 4.3 42.1 6.4 63.2.1.9 1 2.5-.6 2.8-1.9.4-1.6-1.4-1.8-2.5-2.5-11.6-5-23.3-7.6-34.9-.3-1.3-.4-2.2.8-3.2 1.5-1.2 1.1-3.2-.5-3.7-2.1-.7-2.2-2-2.5-3.6-.2-1.3-.5-2.6-.9-3.9-.3-1.3-1.1-2.5-2.5-2.2-2.3.5-2.6-.7-2.8-2.4-.1-1.2-.4-2.4-.8-3.6-.4-1.6-1.4-2.5-3.2-2.1-1.6.4-2.1 1.5-1.8 3.1l.6 2.7c.4 1.9 1.5 3.9-1.7 4.5-1 .2-1.3 1.5-1.1 2.6.2 1.1.3 2.3.7 3.3 1 2.7 1.1 4.6-2.7 4.9-2.1.2-2.1 2.2-2.2 3.9-.1 5.6.8 11.1 1.9 16.5.2.8.3 1.6.4 2.4.6 1.5-.5 1.6-1.4 1.6-6.7 0-13.4.1-20-.1-1.9-.1-2.7-1.1-2.6-3 .6-10.8.2-21.6.3-32.4 0-14.5-11.5-27.2-25.9-28.7-12.4-1.3-24.8-.4-37.3-.5-1.3.1-2.7.8-3.3-.9zm539.8 154.8c.1.4.7 1 0 1.3-.4.2-1 .2-1.5.2h-59.4c4.8-4.9 4.3-10.7 4.4-16.4 0-2.5-1.2-3.5-3.5-3.5h-10.1c.7-1.8 1.3-3.4 1.9-5.1 1-1.2.5-2.6.5-3.9V454.5c0-1 0-2 .5-3.1v2.9c0 28.4 0 56.7-.1 85.1 0 2.9.7 3.8 3.7 3.8 10.3-.2 20.6 0 30.8-.1 2.9 0 3.9.6 3.8 3.7-.2 8.3-.1 16.7-.1 25 0 13.8 11 24.5 24.7 24.5 2.4 0 3.1-.7 3.1-3.1-.1-15.9-.1-31.9-.1-47.8v-2.7c.8 1.6.5 2.7.5 3.7 0 24.7 0 49.3.1 74 .2 1.3-.2 2.6.8 3.7z"/><path fill="#000101" d="M428.8 291.5v-83.9c0-4.2.2-4.4 4.3-4.4h50.6c1.7 0 3.1-.2 4.6-1.2 2.6-1.9 5.7-1.9 8.4 0 1.5 1 2.9 1.3 4.6 1.3h50.3c3.9 0 4.3.4 4.3 4.4v168.1c0 4-.5 4.5-4.4 4.5H433.1c-3.9 0-4.2-.3-4.2-4.3-.1-28.2-.1-56.4-.1-84.5z"/><path d="M366.1 269.4c-.1 42.4-34.6 76.7-76.8 76.5-42.5-.2-76.4-34.5-76.3-77.3.1-41.8 34.7-76 76.8-75.9 42.1.1 76.5 34.6 76.3 76.7z"/><path fill="#D3EEF9" d="M512.2 599.4c-.9-1.1-.5-2.4-.5-3.6 0-45.9 0-91.9-.1-137.8 0-1.1 0-2.2-.6-3.4V538c0 3.5-.3 3.7-3.3 2.1-9.9-5.6-16.5-13.7-17.7-25.4-1.5-15.2-.9-30.4-.4-45.6.5-15.7 10.5-27.4 25.1-31.1 1-.2 2-.2 3-.3 1.8-.5 2.4.9 3.2 1.9-6.4 3.5-8.9 8.9-8.9 16.2.2 46.6.1 93.2.1 139.8.2 1.3.1 2.6.1 3.8z"/><path fill="#FEFEFE" d="M920.8 519.3c0 2.3.1 4.5.1 6.8 0 32.1 0 64.3.1 96.4 0 2.2-.3 3.1-2.9 3.1-16.7-.1-33.5-.1-50.2 0-2.2 0-2.7-.3-2.3-2.6.5-2.3.2-4.7.2-7.1 0-1 0-1.7 1.4-1.8 12.4-1 20.6-7.7 25.3-19 .8 1.2 2 1.2 3.2 1.2 7.1 0 14.2-.1 21.3 0 2.6.1 3.3-.8 3.3-3.3-.1-23.9-.1-47.8-.1-71.8v-2.5c0-.1.1-.1.2-.2.1.4.2.6.4.8zm-200.2-80.8c-9.6 0-19.1.1-28.7.1H528.2c-1.4 0-2.9-.1-4.2.3.6-2 2.2-1.1 3.4-1.1 22.6-.1 45.2 0 67.8 0h123.3c.8 0 1.8-.3 2.4.1 1.1.4-.2.4-.3.6z"/><path fill="#A58574" d="M639.1 630.7h470.1c5.6 0 7.6 2 7.6 7.6v14.8c0 4.7-2.2 6.8-6.8 6.9H169.2c-6.3 0-8-1.7-8-8.1v-13.3c0-6.2 1.8-7.9 7.8-7.9h470.1z"/><path fill="#D3EEF9" d="M261.8 469.3c1.6 1.1 3.1-.2 4.7-.2 10.2.1 20.3-.1 30.5.1 16.2.3 28.2 9.6 31.8 25.4 0 .2.2.4.2.6 0 12.1.5 24.2-.3 36.3-.1 1.5-.2 2.4 1.6 2.4 7.1 0 14.2.1 21.2.1.1 0 .3-.5.4-.8 1.7 4.9 3.3 9.9 5 14.8.6 1.7 1.4 3.8 3.8 2.9 2.4-.9 1.7-2.9 1-4.7-3.7-9.3-6.5-18.8-7-28.9-.1-1-.7-2.3.7-2.6 1.6-.4 1.3 1.3 1.4 2.1 2.3 10.8 4.6 21.7 7 32.5.2 1.2.8 2-1.1 2.4-2 .4-1.8 2.2-1.8 3.8v39.4c0 9.4 0 18.9.1 28.3-1.7-.6-1.3-2.1-1.5-3.3-.5-3.8.7-7.5.7-11.3v-51.5c0-1-.3-2.1.3-3.1-.6.7-.3 1.5-.3 2.2v53c0 3.4-.3 3.8-3.6 3.9-13 .1-25.9.1-38.9 0-1.2 0-2.5-.2-3.5-.9-4.5-7.2-10.8-10.3-19.4-10.1-15.2.3-30.4 0-45.6.1-2 0-3.2-.3-2.9-2.6 0-.2 0-.4-.1-.6-.9-4.2-.1-7.2 3.5-10.5 7.1-6.4 6.2-18.2-1.2-24.2-1.6-1.3-2.3-2.7-2.8-4.5L227.4 486c-.4-1.5-.7-2.7 1.2-3.4 11.2-4.2 22.2-8.8 33.2-13.3z"/><path fill="#39373A" d="M324.1 404.4c-.5-21.2 15.5-39.9 36.7-43.2 20.3-3.2 39.4 7.5 47.1 26.6 2.3 5.6 4.5 11.2 7 16.8.7 1.7.3 2.3-1.3 3-23.9 9.9-47.7 19.9-71.6 29.8-6.4 2.7-6.6 2.6-9.2-3.7-3-7.5-6.9-14.7-8.4-22.7-.4-2.6-.1-4.9-.3-6.6z"/><path fill="#504F54" d="M1071.9 562.7c0 19.8 0 39.7.1 59.5 0 2.5-.7 3.3-3.2 3.3-26.7-.1-53.5-.1-80.2 0-2.5 0-3.1-.8-3.1-3.1.1-39.7.1-79.4 0-119.1 0-2.6.7-3.3 3.2-3.3 26.7.1 53.5.1 80.2 0 2.5 0 3.1.7 3.1 3.1-.1 19.9-.1 39.8-.1 59.6zm-101 39.5c-4.8-1.8-9.9-.8-14.9-1-5-.2-10.1 0-15.1 0-.7 0-1.5.1-2.2 0-1.3-.2-2.6 1.8-3.5.4-.6-.9-.2-2.6-.2-3.9V508c0-6.3 1.7-8 8.1-8H965c4.2 0 6.3 2.1 6.3 6.2v93.7c0 .9.2 1.6-.4 2.3z"/><path fill="#E50003" d="M806.6 584.8c0-12 .1-24.1-.1-36.1 0-2.3.5-3.1 2.9-2.9 2.7.2 5.3.1 8 0 1.6-.1 2.1.5 2.1 2.1-.1 8.8 0 17.7 0 26.5 0 1 .2 2-1.4 2.2-3.3.4-7.2 4.6-7.3 7.8-.1 5.1 0 10.3 0 15.4 0 2.1 1.1 3 3.1 3h16.3c2.1 0 3.1-1.2 3.1-3.4-.1-4.9 0-9.9 0-14.8-.1-3.5-3.9-7.7-7.3-8.1-1.3-.2-1.4-.8-1.4-1.8v-27.1c0-1.6.7-1.9 2-1.9h32.1c1.8 0 2.2.7 2.2 2.4v72.8c0 3.5-1.2 4.6-4.7 4.6h-45c-3.6 0-4.5-.9-4.5-4.6-.1-12-.1-24-.1-36.1z"/><path fill="#515054" d="M622.8 605.7h-96.6c-6.3 0-9-2.7-9-9V454.8c0-7.1 3.8-10.9 10.8-10.9h189.7c7 0 10.6 3.6 10.6 10.7v142.5c0 6-2.7 8.6-8.6 8.6h-96.9z"/><path fill="#AEAFB3" d="M623 610.7c37.9 0 75.9 0 113.8-.1 2.7 0 3.5.7 3.3 3.4-.3 7.1-4.6 11.6-11.6 11.6H517.2c-7.6 0-12.6-5.9-11.7-13.4.1-1 .4-1.5 1.5-1.5h116z"/><path fill="#F28E00" d="M414.8 590.2v29.9c0 4.3-1.2 5.5-5.5 5.5h-37.9c-4.1 0-5.4-1.2-5.4-5.3 0-20.3 0-40.5-.1-60.8 0-2.4.7-2.8 2.9-2.8 14.3.1 28.6.1 42.9 0 2.7 0 3.2.8 3.1 3.3-.1 10 0 20.1 0 30.2z"/><path fill="#D3EEF9" d="M437.1 535.2c.6-.4.8-1.2 1.7-1.2 10.6-.3 21.3-.6 29.9 7.3 5.8 5.3 9.3 12 9.6 19.9.3 8.1.1 16.2.1 24.4-.1 11.6-10 23.2-22 26.1-2.5.6-5.1.5-7.6.6-1.1 0-1.7-.5-2.3-1.2 2.1-3.9 2.2-7.9 1.5-12.2-3.7-20.7-7.2-41.5-10.7-62.2-.3-.4-.2-.9-.2-1.5z"/><path fill="#39373A" d="M261.8 625.4c-15.4 0-30.8-.1-46.3.1-2.5 0-3.1-.7-3.1-3.1.1-8.8 6-14.9 14.9-14.9h69.4c9.1 0 15.3 7.1 14.4 16.1-.2 1.9-1.2 1.8-2.5 1.8h-46.8zm718.8-51.8c0 16.2-.1 32.5.1 48.7 0 2.5-.8 3.1-3.1 3.1-16-.1-32.1-.1-48.1 0-2.3 0-3.2-.5-3.2-3 .1-32.6.1-65.2.1-97.8 0-1.4-.4-3 2-2.9 2.4 0 1.8 1.7 1.8 3v89.8c0 4.9.3 5.3 5.2 5.3h36.1c4.7 0 4.9-.2 4.9-4.8v-90.1c0-1.1-.8-2.8 1.3-3.2 2.3-.4 3 .6 3 2.9-.2 16.3-.1 32.7-.1 49z"/><path fill="#D3EEF9" d="M223.5 490.9c5.8 23.4 11.5 46.4 17.3 69.6-5.8-.5-10.9.7-15.3 5.1-1.9-9.7-3.8-19-5.6-28.3-2.6-13.2-5.1-26.4-7.7-39.6-.4-1.8-.6-2.7 1.9-2.7 3.5.2 6.5-1.6 9.4-4.1z"/><path fill="#45A9E1" d="M432.3 615.8c-1.8-15.6-3.5-30.7-5.1-45.8-1.3-11.7-2.6-23.5-4-35.2-.2-1.9.2-2.5 2.1-2.7 4.4-.3 6.1.8 6.8 5.1 3.6 21.1 7.3 42.3 10.9 63.4.9 4.9-.5 8.7-4.9 11.3-1.8 1.2-3.5 2.4-5.8 3.9z"/><path fill="#FEFEFE" d="M222.8 469.9c-2.7-1.5.1-1.6.6-1.8 6.8-2.9 13.6-5.6 20.4-8.4 17.1-7 34.3-14.1 51.7-21.2.5 3.6 1.8 6.8 4.3 9.6-18.6 7.6-36.8 15-55.1 22.5-.6-1.3-1.6-.5-2.4-.5-6.5 0-13 .4-19.5-.2zm91.4 142.5h41.5c4.2 0 4.2 0 4.2-4.1v-54.5h.5v66.1c0 1.2-.4 2.5.5 3.5.4 1.1 1.1 2.2-1.1 2.2-13.9-.1-27.9-.1-41.8 0-1.7 0-2.1-.6-2-2.1.4-3.8-.3-7.5-1.8-11.1z"/><path fill="#D4EEF9" d="M865.7 584.1c0-5.2.1-10.5 0-15.7 0-1.6.4-2.3 2.1-1.8.8.2 1.6.3 2.4.5 8 2.4 11.8 9.1 11.4 19.5-.3 7.4-5.7 13.7-13 15.2-1.9.4-3 .3-2.9-2.2.2-5.2 0-10.3 0-15.5z"/><path fill="#ADAEB2" d="M225.9 577.2c0-6.5 5.3-11.7 11.8-11.7 6.5 0 11.9 5.4 11.8 12-.1 6.4-5.4 11.7-11.8 11.8-6.5 0-11.9-5.5-11.8-12.1z"/><path fill="#383639" d="M953.2 614.8c-5.1 0-10.3-.1-15.4 0-2.5.1-3-1.1-2.8-3.2.4-3.3 2.6-5.4 6-5.4h24.3c2.7 0 4.5 1.1 5.6 3.5 1.6 3.5.5 5.1-3.3 5.1h-14.4z"/><path fill="#ADAEB2" d="M319.1 437.9c0 5.1-4.2 9.2-9.3 9.2-5 0-9.2-4.2-9.2-9.2 0-5.2 4.3-9.4 9.5-9.3 5 0 9.1 4.2 9 9.3zm-106 52.2c-5-.1-9.2-4.3-9.2-9.3 0-5 4.2-9.2 9.2-9.2 5.2 0 9.4 4.3 9.3 9.5 0 5-4.2 9.1-9.3 9z"/><path fill="#D6EFF6" d="M422.7 613.6c-1.7-1.5-1.8-3.5-1.8-5.7.1-10.7 0-21.3 0-32v-3h-.6v3c0 14.6 0 29.1-.1 43.7 0 1.1.4 2.3-.5 3.2 0-22.4-.1-44.7-.1-67.1 0-1.1.1-2.2-.5-3.2.1-.3.2-.7.6-.8 1.5 7.9 1.9 15.9 2.9 23.8 1.3 10.6 2.4 21.2 3.6 31.9.2 1.4.6 2.8-1.7 2.9-1.7.2-1.9 1.7-1.8 3.3z"/><path fill="#FCEB03" d="M815.8 590.7c.4-2.2-.9-5.1 1.2-7.5 1.1-1.2 6.5-2.5 8.5-1.4 1.7.9 2.8 2.6 2.8 4.8-.1 3.1-.1 6.2 0 9.2.1 1.8-.6 2.2-2.3 2.2-2.6-.1-5.1-.2-7.7 0-1.9.1-2.8-.4-2.6-2.5.2-1.5.1-3 .1-4.8z"/><path fill="#1A932B" d="M388.7 549.4c.3 1.7 0 2.4-1.3 2.4s-2.1-.4-2.2-1.9c-.3-3.7-.8-7.3-1.1-11-1.2-12-2.5-24-3.6-36-.1-1.4-1.8-4.2 1.2-4.5 3-.3 2.1 2.6 2.3 4.3 1.5 13.5 2.8 27.1 4.2 40.6.1 2.2-.1 4.5.5 6.1z"/><path fill="#F40205" d="M888.7 584.4c0 13.1-8 22.8-20.3 24.5-.9.1-2.2.9-2.5-.7-.3-1.7 1.2-1.2 2.1-1.3 10.7-1.3 18.5-10.2 18.7-21 .2-7.1-1.1-13.5-6.4-18.6-3.4-3.2-7.4-5.1-12-5.9-.9-.1-2.8.6-2.4-1.3.3-1.4 1.9-.7 2.9-.6 10.9 1.5 19.3 10.8 19.9 21.9v3z"/><path fill="#ED510B" d="M361.5 514.6c-.3-1.2.8-1.2 1.6-1.5 1.5-.5 1.7.5 1.9 1.6 1.5 7.2 3.1 14.5 4.6 21.7.9 4.1 1.8 8.2 2.6 12.4.2.9 1.7 2.4-.5 2.9-1.8.4-2.4-.5-2.8-2.3-1.9-9.4-4-18.7-6-28-.4-2.1-.9-4.3-1.4-6.8z"/><path fill="#F7B22D" d="M407.5 515.9c-1.3 11.3-2.6 22.6-3.8 33.9-.2 1.6-.8 2-2.3 2-1.8 0-1.3-1.2-1.2-2.1l3.9-34.2c.1-1-.4-2.5 1.8-2.4 2.2.2 1.7 1.5 1.6 2.8z"/><path fill="#FAF3AA" d="M364.9 433.2c8.3-3.5 16.3-6.8 24.4-10.2-1.6 8.9-14.8 14.6-24.4 10.2z"/><path fill="#D5EEF8" d="M222.8 469.9c1.4-.9 3-.7 4.5-.7h15.6c1.1 0 1.6.3 1.8 1.4-5.4 2.3-10.7 4.5-16.1 6.9-1.1.5-1.4.2-1.7-.8-.7-2.7-2.4-4.8-4.1-6.8z"/><path fill="#69686D" d="M237.8 602.6c-1.6-.5-4.3.9-3.7-2.3.4-2.1-1.2-5.6 2-6 4.6-.7 5.1.5 5.3 6.1.1 3.6-2.6 1.3-3.6 2.2zm90.4-166.8c-.1 1.6-1.7 1.4-2.7 1.8-1.2.6-1.3-.4-1.4-1.3-.3-3.2-1.5-5.9-3.7-8.3-.4-.5-1.8-1.1-.5-1.8 1.1-.5 2.9-2.3 3.7-.8 2 3.3 3.1 6.9 4.6 10.4z"/><path fill="#4BB7EE" d="M411.3 533.5v16.8c0 1.1-.5 1.4-1.5 1.4s-1.2-.5-1.1-1.4c.7-5.6 1.3-11.3 1.9-16.9.2.1.4.1.7.1z"/><path fill="#97BE06" d="M382.7 490.5c.2 1.5.5 2.9-1.4 2.8-3.2-.2-1.7-2.8-2.1-4.3-.3-1.1-.6-2.6 1.5-2.5 3.2.1 1.2 2.9 2 4z"/><path fill="#F7F7F7" d="M409.7 495.7c-.5.8.9 3.1-1.9 3.2-1.8 0-2.1-.9-1.7-2.3.4-1.3-.8-3.5 2.1-3.4 1.7 0 2 .8 1.5 2.5z"/><path fill="#DD4D0C" d="M363.5 506.8c-.2 1.8-1.8 1.8-2.5 1.6-1.9-.4-1.2-2.5-1.6-3.8-.4-1.5 1.2-1.5 2-1.5 2.6.3 1 2.8 2.1 3.7z"/><path fill="#C1C2C6" d="M408.3 506.5c-.1.2.8 2-1.4 1.7-1.2-.1-2.4-.2-1.9-1.8.3-1-.6-2.9 1.9-2.6 1.4.1 2.2.4 1.4 2.7z"/><path fill="#D1D2D5" d="M416.4 541.1v-1.8c0-.7.2-1.1 1-1.2.7 0 1.1.2 1.2 1 .1 1.1.4 2.2.4 3.3 0 .8 1 2.1-.9 2.3-1.7.2-1.7-.9-1.6-2.1-.1-.5-.1-1-.1-1.5z"/><path fill="#F3FEFE" d="M419.8 551.7c-.2.3-.4.5-.6.8-.2-.2-.5-.4-.7-.5-.7-.5-2.3.1-2.1-1.5.1-.9 1.1-.7 1.7-.7 1.6-.2 2 .6 1.7 1.9z"/><path fill="#A68574" d="M833.5 373.1h241.8c4.6 0 4.6 0 4.5 4.7-.1 9.1 1.3 8-8 8H591.6c-4.7 0-4.7 0-4.7-4.5.1-9.4-1.5-8.2 8.1-8.2h238.5z"/><path fill="#45A9E1" d="M888.5 268.7c0 32.1 0 64.1.1 96.2 0 2.5-.5 3.3-3.2 3.3-9.9-.2-19.7-.1-29.6 0-2 0-2.8-.4-2.8-2.6.1-64.8.1-129.5 0-194.3 0-2.3.8-2.6 2.8-2.6 10 .1 19.9.1 29.9 0 2.4 0 2.8.8 2.8 3v97z"/><path fill="#C3C4C8" d="M848 268.4c0 32.2 0 64.4.1 96.5 0 2.8-.8 3.3-3.4 3.3-9.7-.2-19.3-.1-29 0-2.1 0-3-.3-3-2.8.1-64.7.1-129.3 0-194 0-2.4.7-2.8 2.9-2.8 9.9.1 19.7.2 29.6 0 2.4 0 2.8.8 2.8 2.9v96.9z"/><path fill="#504F54" d="M1045.4 284.4c0 26.6-.1 53.3.1 79.9 0 3.2-.9 3.9-4 3.8-6.3-.2-12.5-.1-18.8 0-2 0-2.6-.6-2.6-2.6V255.1c0-1.3 0-2.2 1.8-2.5 7.1-1.5 10.6-5.3 11.6-12.6 1.4-10.3 2.6-20.5 3.9-30.8.4-3.3 1.8-5.8 5-7.2 2.2-1 3.1-.7 3.1 2-.1 9.7 0 19.3 0 29-.1 17.1-.1 34.3-.1 51.4zm-30.2 26V365c0 2.3-.5 3.2-3 3.2-19-.1-38-.1-57.1 0-2.1 0-2.9-.5-2.8-2.7.1-36.6 0-73.2.1-109.8 0-1.1-.5-2.8 1.4-2.8 2.3 0 1.4 1.9 1.4 3 .1 12.9 0 25.7 0 38.6 0 7.5 3.9 11.5 11.3 11.5h34.9c6.9 0 11.2-4.2 11.2-11.1v-39.2c0-1-.7-2.8 1.4-2.7 1.8.1 1.1 1.7 1.1 2.7.1 18.1.1 36.4.1 54.7z"/><path fill="#F7AE2C" d="M980.7 234.8c0 21.1 0 42.2.1 63.2 0 2.3-.5 3-2.9 2.9-3.8-.2-7.6 0-11.4-.1-4.2 0-6.3-2.1-6.3-6.2v-41.9c0-2.4.4-4.9-3.3-5-1.2 0-.8-1.3-.8-2v-12c0-20.6.1-41.1-.1-61.7 0-2.8.7-3.4 3.4-3.3 6 .2 11.9.3 17.9 0 3-.1 3.4 1 3.4 3.6v62.5z"/><path fill="#50AB25" d="M758.9 308.5c0-18.8.1-37.6-.1-56.4 0-2.6.7-3.3 3.3-3.2 6.3.2 12.5.1 18.8 0 1.9 0 2.7.3 2.7 2.5-.1 38.1-.1 76.3 0 114.4 0 1.9-.6 2.4-2.5 2.4-6.5-.1-13-.1-19.4 0-2.4.1-2.9-.7-2.9-2.9.1-19 .1-37.9.1-56.8z"/><path fill="#FEFEFE" d="M893.6 323c2.8.8 5.7.6 8.6.6h39.5c4.9 0 5-.1 5-5v-66.3c0-.9.1-1.8.1-2.7l.2-.1c.1 0 .2.1.3.1 0 26.4.1 52.8.1 79.3 0 12.2 0 24.5.1 36.7 0 2-.6 2.5-2.5 2.5-16.3-.1-32.7-.1-49 0-1.4 0-2.5.1-2.4-2V323z"/><path fill="#EDEEF0" d="M651.8 296.2c0 23 0 46.1.1 69.1 0 2.5-.7 3-3.1 2.9-5.5-.2-11.1-.1-16.6 0-1.9 0-2.6-.3-2.6-2.4.1-46.7.1-93.3 0-140 0-2.1.6-2.6 2.6-2.5 5.5.1 11.1.2 16.6 0 2.7-.1 3.1.9 3.1 3.3-.2 23.1-.1 46.3-.1 69.6z"/><path fill="#B27A43" d="M656.8 274c0-30.3 0-60.6-.1-90.9 0-2.6.7-3.3 3.2-3.2 6.7.2 6.7 0 6.7 6.8 0 59.3 0 118.6.1 177.9 0 3-.7 3.8-3.7 3.7-6.2-.2-6.2-.1-6.2-6.3v-88z"/><path fill="#346EB6" d="M1012.7 211.7v-33.3c0-2.1.4-2.9 2.7-2.8 7.3.1 14.6.1 21.9 0 2 0 2.7.5 2.6 2.6-.1 5.8-.1 11.5 0 17.3 0 1.4-.3 2.2-1.5 3.1-3.8 2.6-5.5 6.3-6 10.9-1.1 9.9-2.5 19.8-3.8 29.6-.9 6.3-3.8 8.7-10.1 8.7-5.7 0-5.7 0-5.7-5.8-.1-10.2-.1-20.3-.1-30.3z"/><path fill="#A0DFFB" d="M609.1 300.5c0-21.4 0-42.7-.1-64.1 0-2.4.6-3.1 3-3 3.6.2 7.2.1 10.8 0 1.3 0 1.9.4 1.7 1.7-.1.6 0 1.2 0 1.8 0 42.6 0 85.3.1 127.9 0 2.7-.6 3.6-3.3 3.3-3.2-.3-6.4-.2-9.5 0-2.2.1-2.7-.5-2.7-2.7.1-14.7.1-29.4.1-44.1-.1-6.9-.1-13.9-.1-20.8z"/><path fill="#ECEDEE" d="M701.2 278c0 29.1 0 58.2.1 87.2 0 2.4-.6 3-3 3-2.5 0-3.3-.5-3.3-3.2.1-58.3.1-116.5.1-174.8 0-1-.6-2.6.4-2.8 1.6-.4 3.5-.4 5.2-.1 1 .1.5 1.4.5 2.2V278z"/><path fill="#F99405" d="M731.4 280.9c0 28 0 55.9.1 83.9 0 2.5-.4 3.6-3.3 3.4-6.5-.3-12.9-.2-19.4 0-2.1 0-2.6-.6-2.6-2.6.1-13.2 0-26.3 0-39.5 0-43 0-85.9-.1-128.9 0-2.9.5-3.9 3.6-3.8 6.3.3 12.5.2 18.8 0 2.4-.1 2.9.7 2.9 2.9v84.6z"/><path fill="#22A497" d="M690.1 269.4c0 10.8-.1 21.6 0 32.4 0 2.1-.5 2.9-2.7 2.8-4.5-.2-9-.1-13.6 0-1.8 0-2.3-.5-2.3-2.3 0-22.2.1-44.4 0-66.6 0-2 .8-2.4 2.6-2.3 4.4.1 8.8.1 13.2 0 2.1-.1 2.8.5 2.8 2.7-.1 11.1 0 22.2 0 33.3z"/><path fill="#FEFEFE" d="M788.4 202.2c1.6.9.8 2.4.8 3.6V319c0 4.1.3 4.5 4.5 4.6 3.5.1 7 .3 10.5-.1 2.8-.3 3 .8 3 3.1-.1 13.8 0 27.6 0 41.3-5.6 0-11.3 0-16.9.2-2.4.1-1.7-1.5-1.7-2.7V204.5c0-.7-.1-1.5-.2-2.3z"/><path fill="#E84E0B" d="M671.6 338.8c0-8.8.1-17.7-.1-26.5 0-2.4.7-3 2.9-2.9 4.4.2 8.8.1 13.2 0 1.6 0 2.4.2 2.4 2.1-.1 18.2-.1 36.3 0 54.5 0 1.6-.5 2.1-2.1 2.1-4.6-.1-9.2-.1-13.9 0-2.1.1-2.6-.7-2.6-2.6.2-8.9.2-17.8.2-26.7z"/><path fill="#45A9E1" d="M753.8 209.2c0 6.4-.1 12.7 0 19.1 0 1.7-.4 2.3-2.2 2.3-4.3-.1-8.6-.1-12.9 0-1.5 0-2.3-.2-2.2-2 .1-13.2.1-26.3 0-39.5 0-1.8.8-2 2.2-1.9 4.3.1 8.6.1 12.9 0 1.8-.1 2.2.6 2.2 2.3-.1 6.5 0 13.1 0 19.7z"/><path fill="#F7F7F8" d="M736.5 281.1c0-14.3 0-28.6-.1-42.8 0-2.1.5-2.8 2.7-2.8 4.2.2 8.4.1 12.6 0 1.6 0 2.1.5 2.1 2.1v86.6c0 1.6-.4 2.1-2 2.1-4.2-.1-8.4-.2-12.6 0-2.2.1-2.7-.6-2.7-2.7v-42.5z"/><path fill="#F3B02D" d="M985.7 234.5c0-20.9 0-41.7-.1-62.6 0-2.6.6-3.3 3.2-3.2 8.5.2 17.1 0 25.6.1 1 0 2.7-.7 2.8.8 0 2-1.9 1-2.9 1-6.4.1-12.7.1-19.1.1-4.5 0-4.8.3-4.8 4.7v122.4c0 1.3.9 3.1-1.9 3.2-2.4.1-2.9-.7-2.9-3 .2-21.2.1-42.4.1-63.5z"/><path fill="#45A9E0" d="M753.8 349.9c0 5.2-.1 10.5 0 15.7 0 1.9-.3 2.7-2.5 2.6-4.3-.2-8.6-.1-12.9 0-1.5 0-2-.4-2-1.9v-33c0-1.4.3-2.1 1.9-2 4.5.1 9 .1 13.6 0 1.8 0 2 .8 1.9 2.3-.1 5.4 0 10.8 0 16.3z"/><path fill="#F7AF2C" d="M771.1 222.2h10.5c1.4 0 2 .4 2 1.9-.1 6-.1 11.9 0 17.9 0 1.4-.3 2-1.9 2-7-.1-14-.1-20.9 0-1.5 0-2-.4-2-1.9.1-6 .1-11.9 0-17.9 0-1.7.6-2.1 2.1-2 3.4.1 6.8 0 10.2 0z"/><path fill="#50AF25" d="M995.4 237.8v-59.5c0-1.2-.6-2.8 1.7-2.8 1.2 0 2 .3 1.9 1.7v120.5c0 1 .7 2.5-.8 2.9-2.1.6-2.8-.3-2.8-2.5.1-18.7 0-37.4 0-56.1v-4.2z"/><path fill="#356EB8" d="M1004.1 300.5V177c0-1.1.6-1.4 1.6-1.3.9 0 2-.2 2 1.2v2.2c0 38.2-.1 76.4-.1 114.7 0 2.6-.5 4.9-3.5 6.7z"/><path fill="#E84E0B" d="M690.1 217.2c0 3.1-.1 6.2 0 9.2 0 1.4-.4 2-1.9 2-4.8-.1-9.7-.1-14.5 0-1.7 0-2.1-.6-2.1-2.2.1-6.2.1-12.3 0-18.5 0-1.5.5-2 2-2 4.8.1 9.7.1 14.5 0 1.7 0 2.1.6 2.1 2.1-.2 3.2-.1 6.3-.1 9.4z"/><path fill="#50AD25" d="M771.4 205.8c3.4 0 6.8.1 10.2 0 1.5 0 2.1.5 2 2v.3c.5 9 .5 9-8.4 9-4.7 0-9.4-.1-14.2 0-1.6 0-2.1-.5-2.2-2.1-.4-9.2-.5-9.2 8.6-9.2h4z"/><path fill="#98BF01" d="M640.3 218.2h-8.9c-1.2 0-1.9-.3-1.9-1.7.1-1.9.1-3.9 0-5.8 0-1.3.6-1.6 1.7-1.6 6.3 0 12.7 0 19 .1.2 0 .5-.1.6 0 2.1 2.3.4 5 .9 7.4.3 1.5-.8 1.6-1.9 1.6h-9.5z"/><path fill="#EEEFF1" d="M640.9 204.1h-9.2c-1.4 0-2.2-.1-2.2-1.9 0-4.4-.1-4.4 4.3-4.4 5.3 0 10.7.1 16-.1 2.8-.1 2 1.8 1.9 3-.1 1.3 1.2 3.5-1.9 3.4-2.9-.1-5.9 0-8.9 0z"/><path fill="#FEFEFE" d="M433.8 291.5c0-26.8 0-53.7-.1-80.5 0-2.2.4-2.9 2.8-2.9 15.1.1 30.2.1 45.3.1 1.6 0 2.7-.1 3.1 2.2.7 3.8 3.9 5.9 7.6 5.9 3.6-.1 6.5-2.2 7.3-5.9.4-1.8 1.1-2.2 2.9-2.2 15.1.1 30.2.1 45.3 0 2.3 0 2.6.7 2.6 2.8-.1 53.8-.1 107.5 0 161.3 0 2.5-.8 3-3.1 3-37-.1-74-.1-111 0-2.3 0-2.9-.5-2.9-2.9.3-27 .2-53.9.2-80.9z"/><path fill="#C6021E" d="M495.2 208.5c-.3 1.7-1.2 2.7-2.8 2.6-1.6-.1-2.6-1.3-2.6-2.8 0-1.6 1.2-2.6 2.8-2.6 1.6.1 2.5 1.2 2.6 2.8z"/><path fill="#D8D9DB" d="M289.5 340.9c-39.6-.1-71.6-32.3-71.5-72 .1-39.1 32.5-71.3 71.7-71.1 39.3.1 71.3 32.2 71.4 71.5.1 39.3-32.3 71.7-71.6 71.6z"/><path fill="#010102" d="M1028.1 511.8h32.7c3.6 0 4.3.7 4.3 4.3v24c0 3.3-.9 4.3-4.2 4.3h-65c-3.7 0-4.2-.6-4.2-4.3v-24c0-4.2.1-4.3 4.4-4.3h32z"/><path fill="#010101" d="M1039.5 568.5c8.5-.1 7.8-.5 7.8 7.8 0 8.8.9 8.1-8.1 8.1-8 0-8 .3-8-7.9.1-9.3.2-7.9 8.3-8zm-39.4 0c8.3-.1 7.7-.4 7.7 7.6-.1 8.4 1.4 8.4-8.2 8.3-7.8 0-7.7 0-7.8-7.7-.1-9.3-.1-8.1 8.3-8.2zm47.2 25.2c-.1 8 1.5 8.1-8.2 8.1-7.8-.1-7.8 0-7.8-7.7-.1-9.6 0-8.2 8.3-8.3 8.4 0 7.7-.6 7.7 7.9zm-39.5.2c-.1 7.6 1.3 7.9-7.8 7.9-8.6 0-8.2.2-8.2-8.2 0-8.9.3-7.7 7.6-7.7h.3c8.9-.1 8.1-.8 8.1 8zm41.2-17.4c0-8.5-.8-8 8-7.9 7.8 0 8.1-1.2 8.1 7.9 0 8.3.1 8-8.1 8-9.4 0-7.9-.1-8-8z"/><path d="M1022.1 568.5c8.6-.1 7.8-.5 7.8 7.8 0 8.6.7 8.2-8.2 8.2-8.3 0-7.9.3-7.9-7.9.1-8.8-.5-8.1 8.3-8.1zm26.9 25.3c0-8.6-.8-8 7.9-8 8 0 8.2-1.3 8.1 8.2-.1 7.8 0 7.8-7.7 7.8h-.3c-9.4.1-7.9-.2-8-8zm-35.1 0c0-8.7-.6-7.9 8-7.9 8.8 0 8-.6 8 7.9 0 8.4.6 8-8 8.1-9.2-.1-8-.3-8-8.1z"/><path fill="#010101" d="M1039.3 566.8c-8.5 0-7.9.8-8-8-.1-9 .5-7.6 7.8-7.6 9.4 0 8.2-1.1 8.2 8.2 0 8.3.9 7.4-7.4 7.4h-.6zm-.1 51.9c-8.6 0-7.9.8-7.9-8-.1-8.8.4-7.5 7.5-7.6h5.9c2 0 2.7 1.1 2.6 3 0 3.2-.1 6.4 0 9.6.1 2.3-1 3.2-3.2 3.1-1.6-.2-3.2-.1-4.9-.1z"/><path d="M999.8 618.7c-8.6 0-8 .8-8-7.9 0-8.2-.5-7.7 7.7-7.7 9.1 0 8.4-.8 8.4 8.2 0 8.2.9 7.4-7.4 7.4h-.7z"/><path fill="#000001" d="M999.7 566.8c-8.5 0-7.9.8-7.9-8 0-8.1-.6-7.6 7.7-7.6 9.1 0 8.3-.8 8.3 8.2 0 8.6.8 7.3-8.1 7.4z"/><path d="M1056.8 566.8c-8.8-.1-7.7 1-7.7-7.6 0-9-1.2-7.9 8-8 8.5 0 7.9-.7 8 8 0 8.7.2 7.6-8.3 7.6zm-34.9 51.9c-8.6-.1-7.9 1.1-8-7.9 0-8.4-.5-7.7 7.9-7.7 9 0 8.1-.6 8.1 8.1 0 8.2.6 7.5-8 7.5z"/><path fill="#010101" d="M1056.9 618.7c-9-.1-7.8 1-7.8-7.9-.1-8.3-.7-7.8 7.6-7.7 8.5.1 8.5-1.4 8.5 8.5-.1 8.2-.2 7-8.3 7.1z"/><path d="M1021.9 566.8c-8.7 0-8 .7-8-7.9 0-8.3-.5-7.7 7.6-7.7 9.4 0 8.4-.9 8.4 8.4 0 8 .4 7.2-8 7.2zm-399.3 33.9h-95.3c-4.6 0-5-.4-5-4.9V453.6c0-4.4.5-4.8 4.7-4.8h191.5c4.4 0 4.8.3 4.8 4.7v142.2c0 4.8-.2 5-5.1 5h-95.6z"/><path fill="#040508" d="M431.4 541.1c-.3 1.8-1.3 3.1-3.3 3-2-.1-3-1.3-2.9-3.3.1-1.8 1.3-2.8 3-2.8 1.9 0 2.9 1.2 3.2 3.1z"/><path fill="#000001" d="M884.9 211.9v32.4c0 4.2-.4 4.7-4.5 4.7-6.7 0-13.4-.1-20 0-2.7 0-3.6-1.1-3.6-3.7 0-22.2.1-44.4 0-66.6 0-2.8 1.1-3.9 3.9-3.8 6.8.1 13.6.1 20.3 0 2.9 0 4 1.2 4 4.1-.2 11-.1 21.9-.1 32.9z"/><path fill="#010101" d="M884 340.8c-.1 7.4-6.1 13.2-13.5 13.1-7.2-.1-13-6.2-12.9-13.4.1-7.2 6-13.1 13.2-13.1 7.3 0 13.2 6 13.2 13.4z"/><path d="M844.5 211.9v33c0 3.6-.5 4.1-4.1 4.1-6.8 0-13.6-.1-20.3 0-2.6 0-3.7-1-3.7-3.7.1-22.2.1-44.4 0-66.6 0-2.8 1-3.9 3.8-3.9 6.8.1 13.6.1 20.3 0 2.9 0 4 1.1 4 4-.1 11.1 0 22.1 0 33.1z"/><path fill="#010101" d="M843.6 340.5c0 7.5-5.8 13.4-13.2 13.4-7.3 0-13.2-5.8-13.2-13.1-.1-7.4 5.9-13.5 13.2-13.4 7.3 0 13.2 5.9 13.2 13.1z"/><path fill="#020202" d="M1008.3 338.2v20.7c-.1 1.7-.9 3.1-2.8 3-1.7-.1-2.4-1.3-2.5-2.9v-40.6c0-2.1.2-4.3 2.8-4.2 2.3.1 2.6 2.2 2.6 4.2-.2 6.4-.1 13.1-.1 19.8z"/><path d="M992.2 337.5v-20c0-1.8.3-3.5 2.4-3.5 2 0 2.6 1.5 2.6 3.4v41c0 1.9-.5 3.4-2.6 3.4-1.9-.1-2.4-1.6-2.4-3.3.1-7 0-14 0-21zm-27.6.6v20c0 1.8-.2 3.5-2.4 3.6-2.4.1-2.6-1.8-2.6-3.7v-40.4c0-2 .3-3.7 2.6-3.8 2.4 0 2.4 2 2.4 3.8v20.5zm6-.4v-20c0-1.7.1-3.6 2.2-3.7 2.2-.1 2.8 1.7 2.8 3.6v40.7c0 1.8-.4 3.5-2.5 3.5-2.2 0-2.5-1.6-2.5-3.5.1-6.9 0-13.7 0-20.6zm15.6.4v20c0 1.8-.2 3.6-2.3 3.6-2.4.1-2.6-1.9-2.6-3.7v-40.3c0-1.9.4-3.8 2.6-3.8 2.4 0 2.4 2.1 2.4 3.9-.1 6.8-.1 13.6-.1 20.3z"/><path fill="#020301" d="M773.7 309.1v48.7c-.2 1.6-1 2.4-2.6 2.4-1.7 0-2.4-1.1-2.4-2.6-.1-1.4.1-2.9.1-4.3v-90c0-.9 0-1.9.1-2.8.1-1.3 1-2.1 2.2-2.2 1.4-.1 2.3.8 2.6 2.1.2.9.1 1.8.1 2.8 0 15.3-.1 30.6-.1 45.9z"/><path fill="#040404" d="M647.2 288.1v60.5c-.1 1.5-.9 2.6-2.5 2.6-1.7 0-2.6-1.1-2.6-2.7V228.1c.1-1.7.8-2.8 2.6-2.8s2.4 1.2 2.5 2.9v59.9z"/><path fill="#010101" d="M634.3 288.5v-58.6c0-.8-.1-1.7.1-2.5.2-1.3 1-2 2.3-2 1.3 0 2.2.6 2.5 1.9.2.9.1 1.8.1 2.8v116.6c0 .8.1 1.7-.1 2.5-.3 1.3-1.1 2.2-2.6 2.2-1.4-.1-2.3-.9-2.4-2.3-.1-.8 0-1.6 0-2.5.1-19.5.1-38.8.1-58.1zm-15.1 12.6v60.5c-.1 1.3-.9 2-2.2 2.2-1.3.2-2.2-.6-2.5-1.8-.3-1-.2-2-.2-3V242.8c0-.8-.1-1.7.1-2.5.3-1.5 1.2-2.5 2.7-2.3 1.4.1 2.2 1 2.2 2.5v2.2c-.1 19.4-.1 38.9-.1 58.4z"/><path fill="#010000" d="M729.4 288.5v63.8c0 6.9-3.9 11-10.5 10.9-6.5 0-10.3-4.2-10.3-11.1V224.7c0-4.3.4-4.7 4.8-4.7h11.7c3.8 0 4.3.5 4.3 4.2v64.3z"/><path fill="#010101" d="M719 217.6c-2.4 0-4.7-.1-7.1 0-2.3.1-3.5-.9-3.4-3.3.1-1.6 0-3.3 0-4.9.1-6.2 4.4-10.5 10.5-10.4 6.1.1 10.3 4.3 10.3 10.3 0 9.3 1 8.2-8.2 8.2-.6.1-1.4.1-2.1.1z"/><path fill="#010000" d="M678.3 267.2v-22.8c0-2 .5-3.7 2.7-3.6 2.2.1 2.3 1.8 2.3 3.6V291c0 1.7-.4 3.2-2.5 3.1-2 0-2.5-1.4-2.5-3.1v-23.8z"/><path fill="#010101" d="M683.3 340.6v21.6c0 1.9-.1 3.8-2.5 3.8-2.3 0-2.6-1.8-2.6-3.8v-43.1c0-1.9.3-3.7 2.7-3.6 2.2 0 2.4 1.8 2.4 3.6v21.5zm68.3-59.6v37.9c0 1.9.2 4-2.4 4.1-2.6.1-2.6-2-2.6-4v-76.2c0-1.8-.1-3.8 2.3-4 2.3-.2 2.8 1.5 2.8 3.5-.1 13-.1 25.9-.1 38.7z"/><path d="M738.7 281v-37.6c0-.8-.1-1.7.1-2.5.3-1.4 1.3-2.1 2.7-2 1.2.1 2.1.8 2.2 2.2.1.7 0 1.4 0 2.2v77.8c-.2 1.3-1 2-2.3 2.1-1.4.1-2.4-.6-2.7-2-.2-.8-.1-1.6-.1-2.5.1-12.6.1-25.1.1-37.7z"/><path fill="#F8D35E" d="M502.4 316.8c0-2.6.1-5.1 0-7.7 0-1.4.6-2 2-2h36.1c1.5 0 1.9.6 1.9 2 0 11.5-.1 23 0 34.6 0 2.2-1.2 2.2-2.7 2.1-8.9 0-17.9.1-26.8-.1-2.6 0-3.4.7-3.3 3.3.1 2 .6 4.1-.4 6-1.9-2.8-1.1-5.9-.8-8.9.8-8.5.2-16.9.4-25.4 0-2.1-1-2.9-3-2.9-1.2 0-2.5 0-3.4-1z"/><path fill="#B9DF1A" d="M469.7 348.9c-7.1 0-14.2-.2-21.2-.1-2.2 0-2.7-.7-2.7-2.8.1-11 .1-22 0-32.9 0-2.3.7-3 2.9-2.9 11.1.1 22.2.2 33.2 0 3.1-.1 4.4.7 3.8 3.9-.2.9 0 1.8.1 2.8.9 1 .9 2.3.9 3.5 0 8.3.1 16.6 0 24.9 0 3.9-.8 4.6-4.7 4.7-2.9.1-5.7 0-8.6 0-1.3-.1-2.6-.1-3.7-1.1z"/><path fill="#FA804F" d="M469.7 348.9c4.5 0 9-.1 13.5 0 2 0 2.6-.6 2.6-2.6-.1-9.8 0-19.6 0-29.5h16.6c7.3.2 7.4.2 7.3 7.5-.1 10.3-.3 20.5-.5 30.8-9.4.1-18.8.1-28.2.2h-5.2c-6.2-.1-6.2-.1-6.1-6.4z"/><path fill="#050505" d="M492.5 257.9h-44.4c-.8 0-1.7.1-2.5 0-1.4-.2-2.2-1.1-2.2-2.5 0-1.3.8-2.1 2-2.4.9-.2 1.8-.2 2.8-.2h91c1.5.2 2.6 1.1 2.5 2.6 0 1.5-1 2.4-2.6 2.5h-46.6z"/><path fill="#010101" d="M492.5 267.5h-46.9c-1.5-.1-2.3-1.1-2.3-2.4 0-1.3.8-2.3 2.2-2.5.8-.1 1.6-.1 2.5-.1h89.7c1.9-.1 3.8.2 3.8 2.5s-1.8 2.5-3.7 2.5h-45.3zm0 14.2h44.7c.8 0 1.7-.1 2.5.1 1.3.2 2 1.2 2 2.4s-.6 2.2-1.9 2.4c-.9.2-1.8.1-2.8.1h-89.7c-1.9.1-3.8-.1-3.8-2.5 0-2.3 1.8-2.6 3.7-2.6h40.4c1.6.1 3.2.1 4.9.1z"/><path fill="#020202" d="M492.8 272.2h46.6c1.3.1 2.1.9 2.3 2.1.2 1.4-.6 2.4-2 2.7-1 .2-2 .2-3.1.2h-89.4c-1.9.1-3.8-.4-3.8-2.6 0-2.4 1.9-2.5 3.8-2.5 15.2.1 30.4.1 45.6.1z"/><path fill="#050505" d="M492.1 226.5h-30.2c-2 0-4.3.1-4.3-2.6 0-2.5 2.2-2.5 4.1-2.5h62.5c1.5.1 2.6 1 2.7 2.5 0 1.7-1.1 2.6-2.8 2.6h-32z"/><path fill="#010101" d="M492.3 232.3h30.8c1.9 0 3.8.2 3.8 2.5 0 2.2-1.8 2.6-3.7 2.6h-61.9c-1.9 0-3.7-.3-3.7-2.6.1-2.3 2-2.4 3.9-2.4 10.2-.1 20.5-.1 30.8-.1z"/><path fill="#020202" d="M476.1 296.4h-29c-1.8 0-3.6-.3-3.7-2.3-.2-2.6 1.8-2.7 3.8-2.7h58.3c1.8 0 3.5.3 3.6 2.4 0 2.3-1.7 2.7-3.7 2.7-9.8-.1-19.6-.1-29.3-.1z"/><path d="M289.5 330.1c-33.5 0-60.7-27.3-60.6-60.9.1-33.5 27.5-60.8 60.9-60.6 33.5.2 60.5 27.3 60.6 60.7 0 33.4-27.5 60.8-60.9 60.8z"/><path fill="#C7DFEB" d="M1028.1 539.2c-9.6 0-19.1-.1-28.7.1-2.5 0-3-.8-2.9-3.1.2-5.7.1-11.5 0-17.3 0-1.7.5-2.2 2.2-2.2 19.6.1 39.2.1 58.9 0 2 0 2.4.6 2.4 2.4-.1 5.9-.1 11.7 0 17.6 0 2.1-.6 2.6-2.6 2.5-9.8-.1-19.5 0-29.3 0z"/><path fill="#B2B3B7" d="M1039.4 579.2c-2.5.6-3-.6-3-2.9s.5-3 2.9-2.9c2.1.1 3.3.2 3.2 2.9-.2 2.4-.5 3.6-3.1 2.9zm-42.4-2.9c-.8-2.8 1.1-2.6 3-2.8 2.8-.3 2.6 1.2 2.8 3.2.4 3.2-1.6 2.4-3.4 2.6-2.5.4-2.7-1-2.4-3z"/><path fill="#B1B2B6" d="M1042.2 593.4c.6 2.6-.3 3.4-2.8 3.2-1.9-.1-3.3 0-3-2.6.2-1.9-.2-3.7 2.8-3.2 1.8.3 4.1-.4 3 2.6z"/><path fill="#B1B2B5" d="M999.7 596.5c-2.4.7-2.9-.4-2.9-2.7 0-2.3.4-3.2 3-3.1 2.3.1 3.1.6 3.1 3 .1 2.7-.8 3.4-3.2 2.8zm57.2-17.3c-2.6.7-2.8-.7-3-2.9-.2-2.8 1.2-2.7 3.2-2.8 2.4-.1 2.8.7 2.9 2.9.1 2.4-.6 3.4-3.1 2.8z"/><path fill="#A6A7AA" d="M1022.2 573.6c2.6-.7 2.6.8 2.8 2.9.2 2.7-1 2.8-3.2 2.9-2.7.2-2.8-1-3-3.2-.2-2.9 1.3-2.9 3.4-2.6z"/><path fill="#A6A7AB" d="M1057 590.9c2.6-.6 2.9.6 3 2.9.1 2.6-.9 2.9-3.1 2.9-2.4.1-3-.6-3-3 0-2.5.7-3.4 3.1-2.8z"/><path fill="#A7A8AB" d="M1021.8 596.6c-2.2.5-3-.3-3-2.6 0-2.5.7-3.2 3.2-3.2 2.6 0 2.9.9 3 3.1.1 2.7-1 3.1-3.2 2.7z"/><path fill="#B3B3B7" d="M1039.5 561.8c-2.4.6-3.2-.3-3.1-2.8.1-2.1.3-3.1 2.8-2.9 2 .2 3.5-.1 3.2 2.8-.1 2.1-.3 3.6-2.9 2.9z"/><path fill="#B2B3B6" d="M1042.2 610.8c.7 2.8-.6 3.1-2.9 3.1-2.1 0-3.1-.3-3-2.8.1-2.1.3-3.4 2.9-3.1 2.1.2 4.1-.1 3 2.8z"/><path fill="#AEAFB2" d="M999.9 608.1c2.6-.7 3 .5 3.1 2.8.1 2.7-1.1 2.9-3.2 2.9-1.9 0-3.1-.1-2.9-2.5.1-2.1-.2-4.1 3-3.2z"/><path fill="#AEAFB3" d="M999.9 561.8c-2.5.7-3-.5-3-2.9 0-2.3.5-3 2.9-2.9 2 .1 3.4.1 3.2 2.9-.2 2.4-.6 3.6-3.1 2.9z"/><path fill="#AEAFB2" d="M1056.8 556.3c2.7-.7 3.2.5 3.2 2.9 0 2.3-.7 2.9-2.9 2.8-2.1-.1-3.3-.2-3.2-2.9.2-2.3.4-3.7 2.9-2.8z"/><path fill="#A6A7AA" d="M1024.8 611.1c.8 3-1.3 2.6-3.2 2.8-2.9.4-2.6-1.3-2.8-3.3-.2-2.7 1.3-2.5 3.1-2.6 2.6-.2 3.5.6 2.9 3.1z"/><path fill="#B1B2B6" d="M1057 608.1c2.6-.7 2.9.7 3 2.9.1 2.4-.8 2.8-3 2.8s-3.2-.3-3.1-2.9c.1-2.4.7-3.4 3.1-2.8z"/><path fill="#AEAFB2" d="M1021.7 561.8c-2.7.7-2.7-.9-2.9-3-.3-3 1.4-2.6 3.3-2.7 2.5-.2 2.7.8 2.8 3 .2 2.6-.9 3.2-3.2 2.7z"/><path fill="#D3EEF9" d="M622.7 595.7h-92.2c-2.3 0-3.1-.4-3.1-3 .1-45.3.1-90.7 0-136 0-2.4.5-3 3-3 61.6.1 123.2.1 184.8 0 2.7 0 3.1.8 3.1 3.3-.1 45.1-.1 90.3 0 135.4 0 2.7-.6 3.4-3.3 3.4-30.8-.2-61.5-.1-92.3-.1z"/><path fill="#F8F8F9" d="M861.8 211.5c0-9.6.1-19.3-.1-28.9 0-2.2.7-2.8 2.8-2.7 4.3.2 8.6.2 12.9 0 2.1-.1 2.5.6 2.5 2.6-.1 19.6-.1 39.2 0 58.8 0 2.2-.7 2.8-2.8 2.7-4.3-.2-8.6-.2-12.9 0-2.1.1-2.5-.7-2.5-2.6.1-10 .1-19.9.1-29.9z"/><path fill="#FDFDFD" d="M878.9 340.6c0 4.5-3.6 8.3-8.1 8.3-4.4 0-8.2-3.7-8.3-8.1-.1-4.4 3.7-8.3 8.1-8.4 4.5-.1 8.3 3.7 8.3 8.2z"/><path fill="#F6F6F8" d="M839.4 212.3c0 9.7-.1 19.3 0 29 0 2.1-.4 2.9-2.7 2.8-4.3-.2-8.6-.1-12.9 0-1.8 0-2.5-.2-2.5-2.3.1-19.8.1-39.7 0-59.5 0-1.7.4-2.3 2.2-2.3 4.5.1 9 .2 13.6 0 2-.1 2.3.7 2.3 2.5v29.8z"/><path fill="#FDFDFD" d="M830.5 348.9c-4.4 0-8.2-3.7-8.3-8.2 0-4.4 3.8-8.3 8.2-8.3 4.4 0 8.2 3.8 8.2 8.2 0 4.5-3.7 8.3-8.1 8.3z"/><path fill="#F5F5F6" d="M713.6 290c0-20.7.1-41.3-.1-62 0-2.5.7-3.3 3.1-3 2.5.3 5.9-1.1 7.3.6 1.2 1.5.4 4.7.4 7.2v119c0 4.3-1.7 6.3-5.3 6.3-3.6 0-5.5-2-5.5-6.2.1-20.6.1-41.2.1-61.9zm5.2-77.4c-.4 0-.8.1-1.2 0-1.3-.3-3.3.9-3.9-.7-.6-1.6-.4-3.7.5-5.4 1.3-2.3 4.8-3.1 7.4-1.8 2.2 1.1 3.7 5 2.7 7.2-.3.7-.9.7-1.5.7h-4z"/><path fill="#4FAB24" d="M466.7 335.4h12.6c1.9 0 3.1.8 3.1 2.6 0 1.6-1.2 2.4-2.9 2.4h-25.8c-1.7 0-2.9-.7-2.9-2.4 0-1.9 1.3-2.6 3.1-2.5 4.2-.1 8.5-.1 12.8-.1z"/><path fill="#4FAB25" d="M465.7 315.6h11.7c1.8 0 3.2.7 3.2 2.5s-1.3 2.5-3.2 2.5c-7.8-.1-15.6 0-23.4 0-1.7 0-3.2-.4-3.3-2.3-.1-2.1 1.5-2.7 3.3-2.6 3.9-.1 7.8-.1 11.7-.1z"/><path fill="#4EAA25" d="M462 330.5h-8.3c-1.6 0-2.9-.6-3-2.4-.1-1.9 1.3-2.5 2.9-2.5 5.5-.1 11.1-.1 16.6 0 1.7 0 2.6 1.1 2.6 2.8 0 1.8-1.3 2.1-2.8 2.2-2.7-.1-5.3-.1-8-.1z"/><path fill="#FEFEFE" d="M289.9 213.6c30.8.4 55.8 25.7 55.3 56.1-.5 30.9-25.7 55.8-56.1 55.3-31.2-.5-55.8-25.7-55.3-56.7.6-30.3 25.9-55 56.1-54.7z"/><path fill="#020202" d="M622.7 578.7h70c.9 0 1.9-.1 2.8.1 1.2.3 2 1 2 2.4 0 1.3-.7 2.2-1.9 2.4-.9.2-1.8.1-2.8.1-46.6 0-93.1 0-139.7-.1-2.5 0-3.9.3-3.4 3.2.3 1.8-.2 3.5-2.3 3.6-2.3.1-3-1.7-2.7-3.6.5-2.9-.8-3.6-3.4-3.2-.9.1-1.9.1-2.8-.1-1.2-.3-1.9-1.2-1.9-2.5s.8-2 2-2.4c.2-.1.4 0 .6-.1 1.8-.3 4.2 1 5.1-.7.8-1.4.2-3.6.2-5.5v-97.5c.1-1.5.9-2.6 2.5-2.7 1.7 0 2.6 1.1 2.6 2.8v1.9c0 32.8 0 65.6-.1 98.4 0 2.8.8 3.3 3.4 3.3 23.3.1 46.6.2 69.8.2z"/><path fill="#010101" d="M617.7 562.9c.8-1.5-.2-2.5-1.3-3.6-7.9-8.2-15.7-16.5-23.6-24.8-1-1.1-2.1-.9-3.4-1-4.8-.7-6.5 2.9-8.7 5.8-7.8 10.3-15.7 20.6-23.5 30.9-.4.5-.7 1-1.1 1.4-1 1.1-2.3 1.5-3.5.5-1.2-1-1.3-2.3-.4-3.5 1.6-2.1 3.2-4.3 4.8-6.4l22.5-29.7c.9-1.2 1.3-2.2.7-3.8-1.1-3.2-.3-6.1 2.4-8.3 2.4-2 5.6-2.3 8.4-.8 3 1.7 4.5 4.3 3.9 7.7-.3 1.7.3 2.7 1.3 3.8 7.9 8.2 15.8 16.5 23.6 24.8 1.1 1.1 2 1.6 3.4.9.3-.2.9-.4 1.2-.3 3.8 1.4 5.2-1.6 6.9-3.9 10.4-13.7 20.8-27.3 31.2-40.9 1-1.2 1.5-2.2.8-4-1.9-5 2-10.2 7.5-9.9 1.9.1 2.7-.6 3.7-1.9 4.2-5.6 8.5-11.1 12.7-16.7 1.1-1.4 2.2-2.7 4.1-1.4 2 1.4 1.1 3 0 4.5-4.3 5.6-8.6 11.3-12.9 16.9-.9 1.2-1.3 2.1-.7 3.8 1.8 5.2-2.3 10.5-7.8 9.9-1.6-.2-2.2.4-3 1.4-11.3 14.8-22.5 29.6-33.8 44.3-.8 1.1-1 1.9-.6 3.3 1.1 3.3.1 6.1-2.7 8.2-2.5 1.9-5.3 2.2-8.1.7-2.9-1.7-4.2-4.3-4-7.9z"/><path fill="#020303" d="M699.8 590.7c-1.2-.1-2-.5-2.4-1.4-.5-.9-.3-1.8.3-2.6 1.6-2 4.9-3.4 4.8-5.5-.1-1.8-3.1-3.5-4.8-5.3-.9-1.1-.8-2.3.2-3.3s2.2-1.1 3.3-.1c2.4 2.3 4.8 4.7 7.2 7.1.9.9 1.1 2.1.2 3-2.5 2.6-5 5.1-7.6 7.6-.4.3-.9.4-1.2.5z"/><path fill="#010102" d="M556.7 470.1c0 1.1-.5 1.9-1.3 2.4-1 .7-2 .4-2.8-.3-1.2-1-2.4-2-3.3-3.2-1.6-2.1-2.8-1.7-4.2.1-.8 1-1.9 1.9-2.8 2.8-1.2 1.2-2.6 1.3-3.8 0-1.1-1.2-.9-2.4.2-3.5 2.2-2.3 4.5-4.5 6.8-6.7.9-.9 2.1-1.3 3-.4 2.7 2.5 5.2 5.2 7.8 7.8.2.2.3.7.4 1z"/><path d="M864.5 212.1v-24.7c0-1.9.2-3.7 2.6-3.7 2.3.1 2.5 1.9 2.5 3.8v49.3c0 1.9-.2 3.8-2.5 3.9-2.6.1-2.6-2-2.6-4v-24.6zm12.5.2v25c0 1.8-.2 3.5-2.4 3.6-2.3 0-2.7-1.7-2.7-3.7v-49.6c0-1.9.3-3.7 2.6-3.7 2.4 0 2.4 2 2.4 3.8.1 8.1.1 16.3.1 24.6z"/><path fill="#020202" d="M827.9 211.9v-24.3c0-1.9.1-3.8 2.5-3.8 2.3 0 2.6 1.8 2.6 3.7v49.3c0 2-.2 4-2.7 3.9-2.3-.1-2.4-2-2.4-3.9.1-8.3 0-16.6 0-24.9z"/><path fill="#010101" d="M281.7 300.1c1.3-7.8 2.9-15.2 3.7-22.6.7-6.7 3.3-11.6 8.4-16.1 9.7-8.7 18.8-18.1 28.1-27.2 1.3-1.3 2.8-2.6 4.5-1 1.9 1.8.5 3.3-.9 4.7-10.6 10.3-21.2 20.7-31.8 31-1.3 1.3-2 2.6-2.3 4.5-1.4 8.7-2.9 17.4-4.4 26.1-.3 1.7-.9 3.3-3.1 3.1-1.6-.2-2.2-1.4-2.2-2.5z"/><path fill="#020202" d="M265.9 223.9c2.4 0 4.5 2.2 4.4 4.6-.1 2.3-2.1 4.2-4.4 4.2-2.5 0-4.5-2.1-4.4-4.5.1-2.4 2.1-4.4 4.4-4.3z"/><path fill="#030303" d="M270.2 310.5c-.1 2.4-2.3 4.5-4.6 4.3-2.3-.2-4.2-2.2-4.2-4.5 0-2.4 2.2-4.4 4.7-4.2 2.3.1 4.2 2.1 4.1 4.4z"/><path fill="#020202" d="M248.4 250c-2.4-.1-4.3-2-4.3-4.3 0-2.4 2.1-4.5 4.5-4.4 2.3.1 4.3 2.1 4.3 4.4.1 2.3-2.1 4.3-4.5 4.3zm41 62.5c2.6-.1 4.5 1.7 4.5 4.3 0 2.4-1.8 4.3-4.2 4.4-2.4.1-4.5-2-4.5-4.4 0-2.4 1.8-4.3 4.2-4.3z"/><path fill="#030303" d="M336.9 265c2.5 0 4.4 2 4.4 4.5-.1 2.4-1.9 4.2-4.3 4.2-2.5 0-4.5-2-4.4-4.5 0-2.3 2-4.2 4.3-4.2zm-99.1 4.1c.1-2.4 2.3-4.3 4.8-4.1 2.4.2 4 2.1 3.9 4.6-.1 2.5-2.2 4.3-4.7 4.1-2.3-.2-4.2-2.3-4-4.6zm56.1-47.1c0 2.5-2 4.3-4.6 4.2-2.4-.1-4.2-2-4.1-4.4 0-2.3 2-4.3 4.3-4.3 2.5 0 4.4 2 4.4 4.5z"/><path fill="#020202" d="M248.6 297.4c-2.2.1-4.3-1.9-4.5-4.1-.2-2.4 1.9-4.6 4.3-4.7 2.2-.1 4.4 1.9 4.5 4.1.2 2.4-1.9 4.7-4.3 4.7zm64.7-73.6c2.4.1 4.3 2.2 4.2 4.7-.1 2.4-2 4.2-4.4 4.1-2.3-.1-4.3-2.1-4.4-4.3 0-2.3 2.3-4.5 4.6-4.5zm4.2 86.7c-.1 2.3-2 4.3-4.3 4.3s-4.6-2.3-4.5-4.5c.1-2.4 2.3-4.4 4.7-4.2 2.5.1 4.2 1.9 4.1 4.4z"/><path fill="#030303" d="M330.5 241.2c2.3-.1 4.6 2.1 4.6 4.5 0 2.3-2 4.2-4.3 4.3a4.2 4.2 0 0 1-4.4-4.4c-.1-2.4 1.8-4.3 4.1-4.4zm.1 56.3c-2.3 0-4.2-2-4.3-4.3-.1-2.5 1.9-4.6 4.4-4.5 2.2 0 4.3 2.1 4.4 4.3 0 2.2-2.2 4.5-4.5 4.5z"/><path fill="#E10306" d="M627.9 564c-.2 1.5-1.1 2.5-2.5 2.6-1.5.1-2.5-1-2.6-2.4-.1-1.7 1-2.8 2.6-2.7 1.5-.1 2.3 1 2.5 2.5z"/><path fill="#4FA926" d="M590.1 526.1c-.2 1.7-1 2.7-2.5 2.7s-2.5-.9-2.6-2.4c-.1-1.7 1-2.7 2.6-2.7s2.3 1.1 2.5 2.4z"/><path fill="#E98D06" d="M673.2 505.1c-.1 1.6-1 2.6-2.5 2.7-1.7.1-2.8-1-2.7-2.6 0-1.5 1.1-2.5 2.6-2.5s2.4 1 2.6 2.4z"/><path fill="#504F54" d="M988.4 547.6h78.6v73h-78.6z"/><path d="M992.5 552.4h14.8v14.8h-14.8z"/><path fill="#AEAFB3" d="M996.5 556.4h6.8v6.8h-6.8z"/><path d="M992.5 569.5h14.8v14.8h-14.8z"/><path fill="#AEAFB3" d="M996.5 573.5h6.8v6.8h-6.8z"/><path d="M992.5 586.6h14.8v14.8h-14.8z"/><path fill="#AEAFB3" d="M996.5 590.6h6.8v6.8h-6.8z"/><path d="M992.5 603.7h14.8v14.8h-14.8z"/><path fill="#AEAFB3" d="M996.5 607.6h6.8v6.8h-6.8z"/><path d="M1016 552.4h14.8v14.8H1016z"/><path fill="#AEAFB3" d="M1020 556.4h6.8v6.8h-6.8z"/><path d="M1016 569.5h14.8v14.8H1016z"/><path fill="#AEAFB3" d="M1020 573.5h6.8v6.8h-6.8z"/><path d="M1016 586.6h14.8v14.8H1016z"/><path fill="#AEAFB3" d="M1020 590.6h6.8v6.8h-6.8z"/><path d="M1016 603.7h14.8v14.8H1016z"/><path fill="#AEAFB3" d="M1020 607.6h6.8v6.8h-6.8z"/><path d="M1032.9 552.4h14.8v14.8h-14.8z"/><path fill="#AEAFB3" d="M1036.8 556.4h6.8v6.8h-6.8z"/><path d="M1032.9 569.5h14.8v14.8h-14.8z"/><path fill="#AEAFB3" d="M1036.8 573.5h6.8v6.8h-6.8z"/><path d="M1032.9 586.6h14.8v14.8h-14.8z"/><path fill="#AEAFB3" d="M1036.8 590.6h6.8v6.8h-6.8z"/><path d="M1032.9 603.7h14.8v14.8h-14.8z"/><path fill="#AEAFB3" d="M1036.8 607.6h6.8v6.8h-6.8z"/><path d="M1050.1 552.4h14.8v14.8h-14.8z"/><path fill="#AEAFB3" d="M1054.1 556.4h6.8v6.8h-6.8z"/><path d="M1050.1 569.5h14.8v14.8h-14.8z"/><path fill="#AEAFB3" d="M1054.1 573.5h6.8v6.8h-6.8z"/><path d="M1050.1 586.6h14.8v14.8h-14.8z"/><path fill="#AEAFB3" d="M1054.1 590.6h6.8v6.8h-6.8z"/><path d="M1050.1 603.7h14.8v14.8h-14.8z"/><path fill="#AEAFB3" d="M1054.1 607.6h6.8v6.8h-6.8z"/></svg>