<svg xmlns="http://www.w3.org/2000/svg" viewBox="0 0 1280 800"><path fill="#FEFEFE" d="M640.4 721.8c-203.6 0-407.2 0-610.8.1-2.7 0-3.3-.6-3.3-3.3.1-189.9.1-379.8 0-569.7 0-2.7.6-3.3 3.3-3.3 407.5.1 814.9.1 1222.4 0 2.7 0 3.3.6 3.3 3.3-.1 189.9-.1 379.8 0 569.7 0 2.7-.6 3.3-3.3 3.3-203.9-.1-407.8-.1-611.6-.1z"/><path fill="#BDEAFE" d="M523.7 378.3c-1.3-1-2.7-.6-4.1-.6-24.5 0-48.9-.3-73.4.1-20.7.3-37.2-16.5-36.9-36.8.4-24 .4-48 0-72-.3-20.5 16.3-36.9 36.9-36.8 78 .3 156 .1 234.1.1 19.9 0 35.6 15.8 35.6 35.8 0 24.2-.1 48.5 0 72.7.1 12.7-5 22.8-14.9 30.5-1.9 1.8-4.2 1.2-6.4 1.2-49.3 0-98.5.1-147.8 0-7.5 0-14.7.5-20.8 5.4-.6.4-1.4.7-2.3.4zm337.8 39.1h58.8c1.7-.2 2.5 1.1 3.6 2 11.9 10.4 25.4 17.8 41 20.5 27.9 4.8 52.7-1.8 73.8-21.3 1-.9 1.8-2.3 3.5-1.7 1.2.9 2.5.5 3.8.5h42.2c24.7 0 45.6 18.2 49.3 42.7.4 2.8.6 5.6.6 8.4v82.3c-1.9 1.1-2.7-.1-3-1.6-.6-3.9-2.5-6.7-6-8.7-2.1-1.2-2-3.1.1-4.1 6.5-2.9 6.9-8.4 5.9-14-1-6-5.2-9.3-11.2-10.3-29.8-5.1-59.6-10.4-89.5-15.2-7.9-1.3-14.4 1.5-18.9 8.4-1.8 2.8-3.8 5.4-5.4 8.3-2.5 4.4-1.6 7.3 2.9 9.5 1.7.8 3 1.8 3.5 3.7.3 1.2.8 2.3 2.3 2.4 1.2 0 2-.9 2.3-1.9 1-2.7 3-2.9 5.4-2.6 24.5 2.8 49.1 5.6 73.6 8.2 1.4.1 2.8.4 4.1.9 1.8.7 2.1 2.1 2 3.7-.1 1.6-1 2.6-2.6 2.8-1.5.3-3.1.2-4.6.2h-81.2c-1.7 0-3.3-.1-5 .1-4.3.6-6.3 2.5-7 6.7-.7 4.1-1.1 4.5-5.3 4.5-14.5.1-29.1 0-43.6 0H953c-2.8.1-4 1.4-4 4.2v18.4c0 7.8 0 7.8-8 7.8-3.8 0-7.6-.1-11.3 0-3.6.1-4.6 1.2-4.8 4.8-.1 3.3 0 6.6 0 9.9 0 2.7 1.2 4.1 4 4.5 4 .5 4.4 1.1 4.5 4.9.1 6.5.1 13 0 19.5 0 1.4.2 2.9-1.4 3.7-.6-.3-1-.7-1.1-1.3-.3-3.9-2.9-4.1-6-4.1-19.3.1-38.7 0-58 0-2 0-4 .3-5.8-1-1.1-1.6-.9-3.4-.9-5.1V422.6c0-1.7-.4-3.7 1.3-5.2zm-687.6-45.3c1.3 1.1.7 2.7.7 4v98.3c2.3-7.4 5.6-13.1 10.6-17.7 2.2-2 4.7-3.6 7.1-5.2 1.9-1.3 4-2.3 6.3 1.1V277.2c0-1.5-.6-3.1.6-4.4 1.8 1.7 1.3 4 1.3 6V477c0 7.3.1 7.4 7.3 7.4h145.7c7.7 0 7.9-.2 7.9-8v-24.1c0-1.7-.3-3.6 1.2-5h83.3c15.9 0 30.9 12.8 33.7 28.5.5 2.9.7 5.8.7 8.8 0 23.9-.1 47.7 0 71.6 0 12.1-4.7 21.9-14.1 29.4-1.6-1.7-1-3.8-1.1-5.7-.1-2.2 0-4.5 0-6.7 0-2.6-.2-4.9-3.2-6.1-1.8-.7-1.5-2.5-1.3-4 1.5-12.2 2.8-24.4 4.2-36.6 1.3-11 2.6-22.1 3.8-33.1.8-7-1.4-9.4-7.9-9.7-4.7-.2-7 1.7-7.6 6.5-2.9 22.9-5.3 45.8-7.9 68.7-.2 1.8-.5 3.5-.7 5.3-.3 2.5-1.8 3.4-4.1 3.3-2.3-.1-3.4-1.3-3.5-3.6-.1-2.8-.2-5.7.1-8.5.8-9.1.9-18.2 1.3-27.2.6-15.9 1.1-31.9 2-47.8.2-4.1-1.1-5.6-5.2-5.7-2.4-.1-4.7 0-7.1 0-2.3 0-3.5 1.2-3.8 3.4-.1.7-.2 1.4-.1 2.1.2 15.6-1.1 31.2-1.6 46.7-.3 11.8-1.3 23.6-1.3 35.4 0 3.7-1 4.8-4 5.1-4.6.6-6.5-.3-7.5-4-2.1-8-3.6-16.2-5.3-24.2-1.5-6.9-2.9-13.9-4.4-20.8-.4-2-.5-4 .6-5.8.8-1.3 1.3-2.9-.3-3.8-3.1-1.7-3.4-4.6-4-7.5-.5-2.8-1.3-5.3-4.9-5.3-1.7 0-2.1-1.7-2.6-3-.7-1.9-.7-4-1.7-5.8-.5-.9-1.2-1.6-2.3-1.4-1.3.2-1.7 1.2-1.7 2.4 0 2 .6 4 1 5.9.3 1.6.2 3.1-1.5 3.9-2.5 1.2-2.8 3.3-2.2 5.7.2.8.3 1.6.5 2.4.7 3.7 1.4 5.5-3.5 6.9-3.3 1-3.3 4.1-3.1 6.8.9 13.1 3.7 25.7 8.4 38 .5 1.4 1 2.9 1.7 4.3.7 1.3 1.5 2.7 3.2 2 1.7-.7 1.4-2.3 1-3.7-.5-1.7-1.1-3.4-1.8-5-3.8-10-6.3-20.3-7.5-30.9-.2-1.6-.3-3.3.1-4.9.3-1.1.8-2.1 2-2.1 1.2-.1 1.5.9 1.9 1.8.5 1 .7 2 .9 3.1 2.6 13 5.6 25.9 8.3 38.9.6 2.8.8 5.3-2.1 7.2-1.5 1-1.5 2.9-1.5 4.5v16c0 1.6.2 3.4-1.4 4.5-1.6.7-3.2.6-4.9.6h-55.8c-1.6 0-3.3.1-4.9-.5-2.6-2-5.5-2.4-8.7-2.4-25.6.1-51.3 0-76.9 0h-1.8c-5.4.1-5.9.6-6 5.9v32.2c0 1.8.2 3.6-.8 5.2-1.2.9-1.4-.2-1.7-.9-.5-1.3-.4-2.8-.4-4.2v-30.8c0-4.3-.3-4.5-4.7-4.6-4.3 0-8.5.2-12.8 0-14.3-.7-24.8-7.5-31.7-19.9-.9-1.6-1.4-3.2-1.5-4.2.5 1.3.3 3.5.3 5.7 0 29.3 0 58.6-.1 87.9 0 1.8.4 3.8-.9 5.5-.5.2-.9 0-1.2-.4-.9-1.6-.7-3.4-.7-5.2V378.2c.4-2.3 0-4.4 1.6-6.1z"/><path fill="#ECEDEF" d="M174.1 668.5c.2 0 .4 0 .6-.1.7-6.9.2-13.9.3-20.8.1-7.2 0-7.2 7.4-7.2 15.6.1 31.1-.2 46.7.1 3.1 1.2 4.2 4.1 5.3 6.7.9 2.1-1.5 2.3-2.9 2.3-4.8.2-9.7.1-14.5.1-1.5 0-3.1-.1-4.6.1-2.8.4-3.6 2.1-1.9 4.2 3.3 4 6.5 8.1 10.7 11.3 4.1 3.2 9 4.3 14 4.3 26.7.1 53.4.1 80.2 0 7.5 0 13.7-3.2 18.5-9.1 1.6-1.9 3.5-3.6 5-5.5.9-1.1 1.7-2.4 1-3.9-.7-1.4-2.1-1.4-3.4-1.4-5.3-.1-10.6 0-16-.1-1.8 0-4.3.7-5.1-1.4-.6-1.8 1.4-3.3 2.5-4.8.4-.5.9-.8 1.4-1.1 1.2-.5 2.4-1 3.7-1.1 20.3-1.2 40.6-.9 60.9-.8 3.9 0 4.7.9 4.7 5 0 4.5.5 9-.3 13.4 0 .1.1.2.1.3.1.2.3.2.6 0 .2.2.4.3.5.5 2.4 8.1 8.5 9.9 16 9.9 14.8-.1 29.5 0 44.3 0 1.8 0 3.5-.1 5.3-.4 6.5-1.2 9.9-5.1 10.2-11.6.2-3.7 0-7.3.1-11 0-1.5-.2-3.1 1.1-4.3 3.1-1.1 6.3-.7 9.4-.7 6.5-.1 13 .1 19.5-.1 2.4 0 3.2.8 3 3.1-.2 2.3-.1 4.7.7 7 .1.4.1 1.2.6.2.1-.3.1-.7.1-1 1.4.1 1.6 1.3 2 2.2 4.1 11.4 12.8 16.1 24.4 16.6h325.5c6.7 0 12.9-1.3 18.3-5.6 5.3-4.4 8.2-10 8.3-16.9v-8.5c0-1.4 0-2.9 1-4 3.1 1.3 2 4 1.6 6-.4 2.2-.2 4.3-.4 5.9-.1-.4.2-1.4 0-2.4-.3-2.5 1-3.4 3.2-3.5.6 0 1.2-.1 1.8-.1H952c2 0 4 0 5.8 1.2 1 1.5.8 3.2.8 4.8v17.4c.1 4.4 1.1 5.3 5.5 5.6 1.4.1 2.8 0 4.3 0h197.2c3.9 0 7.8-.1 11-2.6.8.1.8.1.8-.4 0-7.1.1-14.2-.1-21.2-.1-2.9.8-3.8 3.7-3.8 23.1.1 46.3.1 69.4 0 2.7 0 3.8.7 3.6 3.6-.5 10.1.3 20.2.7 30.3.1 2.6-.6 5.1-.8 7.7-.1 1.2-.8 2.2-1.7 1.6-2.3-1.5-1.6 1.2-2.6 1.6-1.6-3.7-4.8-3.8-8.3-3.8H36c-2.7 0-5.5.6-8-.9.3-.8 1-.9 1.7-1h1217.4c-1.8-1.1-3.2-.7-4.5-.7H32.4c-4.7 0-5.1 0-4.6-4.8 1-10.3.5-20.5.6-30.8 0-1.9.6-2.8 2.6-2.7 5.8.1 11.6.1 17.4 0 2.3 0 2.8.9 2.7 3-.1 7.6 0 15.1 0 22.7 0 .2.1.5.2.5.2.1.4-.1.6-.2 3.5 2 7.4 2 11.3 2h97.1c4.7.2 9.3.5 13.8-.9z"/><path fill="#010000" d="M1176.3 667c-.8 2.7-2.6 3.5-5.3 3.5-69.5-.1-139 0-208.4 0-4.5 0-5.3-.8-5.3-5.4 0-7.8-.1-15.6-.1-23.4-1.3-1.5-1.1-3.3-1-5 .1-3-1.2-3.9-4-3.8-5 .1-10.1.1-15.1 0-2.2-.1-4.6-.2-4.9-3.3 0-8.2 0-16.3.1-24.5 0-2-.7-2.3-2.5-2.4-5.4-.1-5.8-.6-5.8-5.9 0-3.5.1-7.1 0-10.6-.1-3.3 1.5-4.7 4.7-4.7 5.4.1 10.9-.1 16.3.1 2.2.1 2.8-.6 2.8-2.8-.1-7.6-.1-15.1 0-22.7 0-4.2.8-5 5-5h48.2c2.5 0 3.7-.2 3.7-3.3 0-5.2 3.7-8.1 9.5-8.1 29.4 0 58.9-.1 88.3.1 2.9 0 3.3-1 3.2-3.4-.1-2.1-1.5-1.8-2.6-1.9-14.1-1.6-28.2-3.2-42.2-4.8-11.7-1.3-23.5-2.6-35.2-4-1.9-.2-3.4-.5-3.5 2.2-.1 2.1-1.6 3.2-3.7 3-2-.2-3.3-1.7-3-3.7.3-2-.4-2.5-2.3-2.9-5.4-1.2-7.2-5.8-4.3-10.5 2-3.2 4-6.4 6.1-9.5 4.9-6.9 11.7-9.8 20-8.4 29.9 5.1 59.8 10.3 89.7 15.4 7.9 1.3 12.6 7.5 11.8 15.4-.5 4.9-1.2 9.6-7.2 10.6-.7.1-.9.5-1 1.2-.1.9.5 1.3 1.2 1.5 4.6 1.5 6.4 4.8 6.2 9.5-.1 1.9 1.1 1.7 2.3 1.4 12.3.1 24.6.1 36.8.2 4.9 0 5.7.8 5.7 5.8 0 7.2.1 14.4-.1 21.6-.1 2.6.7 3.2 3.2 3 2.5-.2 5 0 7.4-.1 3 0 4.6 1.3 4.5 4.5-.1 4.4 0 8.7 0 13.1 0 2.2-1 3.8-3.3 3.7-2.2-.1-2.4.9-2.4 2.7.1 7.3 0 14.6.1 22 0 3.2-1.2 4.5-4.4 4.5-3 0-7.1-1.4-8.9.5-1.9 2-.6 6-.6 9.2l.3 25.4z"/><path d="M879.3 634.5c0 3.7.1 7.3.1 11 0 14.1-10.4 24.6-24.5 24.9H527.6c-15.7 0-22.8-5-28.1-19.6 0-.4-.1-.9-.1-1.3-.4-5-.5-9.9.1-14.9 1.1-1.6 2.7-2.1 4.6-2 5.7.1 11.5 0 17.8 0-4.2-5.3-4.5-11.1-4.5-17 0-72.6.1-145.3 0-217.9 0-7.2 1.6-13.7 6.4-19.3 5.7-5.2 12.4-7 20.1-6.9 51.1.1 102.2.1 153.3.1 1.3 0 2.6-.1 3.9-.2 1.3.1 2.6.1 3.9.1h131.8c15.2 0 24.7 9.5 24.7 24.8 0 7.1.1 14.2.1 21.3 0 1.3-.1 2.6-.1 3.9v201.8c1.1 2.9-1.4 5.1-1.8 8.1 4.8.3 9.5 0 14.2.2 2.1 0 4.7-.2 5.4 2.9z"/><path fill="#020202" d="M27.9 681.6c1.4-.1 2.8-.3 4.2-.3H1244c5.1 0 5.6.4 5.4 5-1.2 1.3-2.6 1.9-4.4 1.8H35.3c-.8 0-1.7-.1-2.5 0-3.6.6-5.3-.7-4.7-4.5 0-.6-.2-1.3-.2-2z"/><path d="M174.1 668.5c-1.1 1.5-2.5 1.9-4.3 1.9h-113c-2.3 0-3.8-.8-4.8-2.8.1-10 .2-20.1.2-30.1v-261c0-5.5.3-5.9 5.8-5.9h110.7c1.9 0 3.8-.2 5.2 1.5.1 3.2.2 6.4.2 9.6V665c.1 1.2 0 2.3 0 3.5zm292.1-26.2c-.1 5-.1 9.9-.2 14.9-.1 8.3-5 13.2-13.3 13.2h-49.6c-9.2 0-12.6-2.5-15-11.2-.3-.4-.4-.8-.4-1.3-.7-20.2-1-40.4-.8-60.6 0-1.6 0-3.3 1.2-4.7.1-7.2.2-14.4.2-21.6 0-2.3.2-4.3 3.1-4.7 1.6-.2 1-1.3.9-2.1-3.2-14.9-6.3-29.8-9.5-44.6-.1-.6 0-1.9-1.3-1.8-1.6.1-1.3 1.4-1.3 2.4.5 11.2 3.1 21.9 6.8 32.4.9 2.7 2 5.3 3 7.9.8 2.2.6 4.1-1.8 5-2.1.7-3.6-.2-4.5-2.3-5.7-14.1-9.9-28.5-10.3-43.8-.2-7.1.6-7.4 5.7-8.1 1.6-.2 1.8-.9 1.3-2.4-.6-1.8-.6-3.7-1.2-5.5-1-3.2-.8-5.6 3.1-6.5 1.5-.3 1-1.3.8-2.2-.5-2.1-1-4.1-1.4-6.2-.4-2.1.2-3.9 2.5-4.4 2.2-.5 3.6.7 4.2 2.8.4 1.4.7 2.7.9 4.1.4 2.3.2 4.7 4 3.8 1.7-.4 2.8 1.3 3.2 3.1.4 1.8.9 3.7 1.2 5.5.3 1.9.6 3.4 3 4.1 2.5.7 2.8 3.5.6 5.4-1.3 1.1-1.3 2-1 3.3 3.4 15.7 6.8 31.3 10.1 47.1.5 2.3 1.3 3.3 3.7 2.9 1-.2 2.1-.1 3.2 0 1.8.2 2.4-.5 2.5-2.4.3-10.5.8-21 1.2-31.5.7-18.2 1.5-36.3 2.1-54.5.1-3.5 1.4-5 4.9-4.7 2.9.2 5.9.2 8.9.3 3.1.1 4.3 1.6 4.2 4.7-1.2 27.9-2.3 55.9-3.4 83.9-.1 2.3-.8 4.9 3.3 4.3 1.8-.3 2.3-.7 2.5-2.5 2.5-22.9 5.2-45.8 7.8-68.6.2-2.1.5-4.2.8-6.3.6-4.5 3.9-7 8.4-6.6 7.2.7 9.9 3 9.4 8.3-1.2 12-2.7 23.9-4.1 35.9-1.4 12.6-2.8 25.1-4.3 37.7-.2 1.3-.1 2 1.5 2.1 2.6.2 3.1 2.1 3.1 4.3.1 5 .1 9.9.2 14.9-.1 19-.1 37.9-.1 56.8z"/><path fill="#000101" d="M362.7 447.2c-.1 10.9-.1 21.7-.2 32.6 0 5-.7 5.7-5.7 5.7H205.1c-5.4 0-6-.6-6-6.2V278.7c0-2 .1-4 .2-6 1-1.8 2.5-2.2 4.5-2.2H358c3.7 0 4.5 1.1 4.5 5.4v166.9c0 1.6.1 3 .2 4.4z"/><path fill="#010101" d="M725.6 251.3v-96.1c0-4.8.5-5.4 5.2-5.4H789c2 0 3.7-.3 5.3-1.4 3-2.1 6.2-2.1 9.2 0 1.7 1.2 3.4 1.4 5.3 1.4h57.4c4.9 0 5.5.6 5.5 5.5v192.2c0 5.3-.6 5.9-5.8 5.9H731.1c-5.1 0-5.6-.5-5.6-5.7.1-32.1.1-64.3.1-96.4z"/><path fill="#000001" d="M1042.2 416.9c-11 10.7-23.7 18.8-38.7 22.5-31 7.7-58.3.8-81.9-20.9-.4-.4-.9-.7-1.4-1.1-11.6-12.1-19.5-26.2-23.1-42.6-11-49.6 24.5-98.8 75-103.6 48.9-4.7 90.9 30.7 94.3 79.7 1.9 25.5-6.7 47.4-24.2 66z"/><path fill="#ECEDEF" d="M499.5 634.5c0 5 0 9.9-.1 14.9-1-5-1.1-9.9.1-14.9z"/><path fill="#FEFEFE" d="M879.3 634.5c-1.1-1.7-2.6-2.1-4.5-2-5.7.1-11.5 0-17.6 0 2.1-3 3.4-6.1 4.3-9.4 21.8 0 43.6.1 65.4-.1 3.8 0 5.5.8 4.8 4.8-.1.5.3 1.1.5 1.6.9 1.8 2.3 2.4 4.3 2.3 6.1-.1 12.2 0 18.3-.1 2 0 2.7.5 2.6 2.5-.2 2.5-.1 4.9-.2 7.4h-31.4c-13.7 0-27.3.1-41-.1-3.5-.1-4.7 1-4.2 4.4.2 1.4 0 2.8-.2 4.2-1.1-5.1.3-10.4-1.1-15.5z"/><path d="M319.3 643c-1.3 1.7-2.5 3.4-3.8 5.1.7 1.1 1.7.4 2.5.5 6.5.1 13 0 19.5 0 1.6 0 3.1.4 3.8 2 .6 1.4.3 2.8-.8 3.9-3.2 3.5-6.2 7.1-9.7 10.3-4.1 3.8-9.2 5.6-14.9 5.6-27.3 0-54.6-.1-81.9 0-7.1 0-12.8-2.6-17.6-7.7-2.2-2.3-4.3-4.7-6.4-7.1-1.2-1.4-2.8-2.7-1.8-4.9 1-2.3 3.1-2.1 5.2-2.1h20.8c-1.8-2.7-3.4-5.2-5-7.7-1.9-1.8-2.5-3.9-1.6-6.4v-39.3c0-4.4.8-5.2 5.1-5.2H317c2.4 0 4.2.5 5.2 2.7 1 2.8 3 3.5 5.8 3.3 3.2-.2 6.4 0 9.6 0 9 0 17 8.1 16.1 16.6-.3 3.3.2 6.6-.5 9.9-2.7 11.8-12.4 19.4-24.5 19.6-3.2 0-6.5-1.1-9.4.9z"/><path fill="#FEFEFE" d="M227.6 634.4c.5 2.1 1.1 4.3 1.6 6.4-.1.8-.5 1-1.4 1-16.4-.1-32.8-.1-49.2-.2-2.7 0-3.5.8-3.4 3.4.2 6.7.1 13.4 0 20.2 0 1.1.5 2.4-.6 3.3V565.6c4.6 14 13.1 22.7 26.5 26.2 7.2 1.9 14.6.9 21.8.9 3.2 0 4.2.8 4.2 4.1-.2 11.2-.1 22.4-.1 33.7.1 1.2-.4 2.7.6 3.9z"/><path fill="#FDFDFB" d="M319.3 643c0-2.2 1.7-1.5 2.8-1.6 4.3-.2 8.5.2 12.8-1.1 10.7-3.2 17.9-12.3 17.9-23.4 0-15.4-4.4-19.9-19.9-19.9-2.2 0-4.5-.3-6.7.1-3.9.6-4.7-1.2-4-4.5h66c.1 16.3.1 32.6.2 48.9 0 5.9-.1 11.8-.2 17.7-.1.7-.2 1.4-.2 2.1h-.5c0-5.4-.1-10.7.1-16.1.1-2.7-.6-3.7-3.5-3.7-15.6.1-31.2-.3-46.7.3-6.1.2-12.2-.2-18.1 1.2z"/><path fill="#E84E0B" d="M1093.7 663.6c-23.8 0-47.5-.1-71.3.1-3.3 0-3.9-1-3.8-3.9.2-7.9.2-15.8 0-23.8-.1-3.3.7-4.3 4.2-4.3 45.9.1 91.7.1 137.6.1 2.1 0 4.3.1 6.4 0 1.7-.1 2.6.3 2.5 2.3-.1 9.1-.1 18.2 0 27.3 0 2.8-1.7 2.3-3.3 2.3-24.1-.1-48.2-.1-72.3-.1z"/><path fill="#F7B02D" d="M1066.1 557.8c23.4 0 46.8.1 70.2-.1 3.4 0 4.1 1 3.9 4.1-.2 5.5-.1 11.1 0 16.7 0 2-.2 2.9-2.6 2.9-47.7-.1-95.5-.1-143.2 0-2.3 0-2.7-.8-2.7-2.8.1-5.9.2-11.8 0-17.7-.1-2.6.8-3.1 3.2-3.1h71.2z"/><path fill="#E94E0B" d="M1059.9 596H934.8c-1.3 0-3.3.8-3.8-.8-.5-2-.2-4.2-.1-6.3 0-.6.9-.6 1.5-.7h252.4c1.3 0 3.4-.8 3.8.8.5 2 .3 4.2 0 6.3-.2 1.3-1.8.7-2.8.7h-125.9z"/><path fill="#97BE00" d="M1014.3 517.5c2.4-3.7 4.4-7.1 6.7-10.2 3.1-4.1 7.3-5.8 12.4-4.9l89.7 15.3c5.6 1 8.1 5.8 6.1 11.3-.6 1.7-1.8 1.2-2.9 1.1-13.3-1.5-26.5-3-39.8-4.4-22.5-2.5-45-5-67.6-7.6-1.2-.1-2.6-.3-4.6-.6z"/><path fill="#45A9E1" d="M967.8 602.7c8.9 0 17.7.1 26.6-.1 2.4 0 3.1.6 3 3-.2 5.7-.1 11.3 0 17 0 1.9-.6 2.4-2.4 2.4-17.9-.1-35.7-.1-53.6 0-2 0-2.7-.5-2.6-2.6.1-5.7.1-11.4 0-17-.1-2.2.6-2.8 2.8-2.8 8.7.2 17.4.1 26.2.1zm190.3 22.3c-7.2 0-14.4-.1-21.6.1-2.7.1-3.4-.8-3.3-3.4.2-5.3.1-10.6 0-15.9 0-2.2.4-3.1 2.9-3.1 14.8.1 29.5.1 44.3 0 2 0 3 .4 2.9 2.7-.2 5.7-.2 11.3 0 17 .1 2.3-.8 2.8-2.9 2.7-7.4-.2-14.8-.1-22.3-.1z"/><path fill="#F7AE2C" d="M1011.8 647.7c0 4.4-.1 8.7 0 13.1.1 2-.3 2.9-2.6 2.9-7.4-.2-14.9-.1-22.3 0-1.8 0-2.5-.5-2.4-2.4.1-9.1.1-18.2 0-27.2 0-1.9.7-2.4 2.5-2.3 7.4.1 14.9.1 22.3 0 2 0 2.7.5 2.6 2.5-.2 4.4-.1 8.9-.1 13.4z"/><path fill="#BDE7FA" d="M1004.1 623.8c0-6.4 0-12.7-.1-19.1 0-1.5.5-2.2 2-2 .6.1 1.2 0 1.8 0 38.4 0 76.7 0 115.1-.1 3.1 0 4 .7 3.9 3.8-.3 5.8-.2 11.6-.2 17.3-1.8-.4-1.4-2-1.4-3.1-.2-2.8-.3-5.6 0-8.4.3-2.7-.4-4.1-3.3-3.9-1.9-1.4-4-1.8-6.4-1.8-33.3 0-66.6 0-99.9.1-1.8 0-4.8-.7-4.8 2.1 0 3 3 1.9 4.8 1.9h99.6c1.5 0 3.1-.1 4.5.5 1.3.7.9 1.5 0 2.1-1.5 1.1-3 2.3-4.9 2.8-2.1.5-4.2.3-6.4.3h-93.6c-4.5.2-5.2 1.5-3 5.5.4 1.8-1 1.9-2.1 2-1.9.5-3.8.7-5.6 0z"/><path fill="#BDEAFE" d="M969.5 581.4c-4.2 0-8.5-.1-12.7 0-1.7 0-2.6-.2-2.5-2.2.1-6.4.1-12.7 0-19.1 0-2 .8-2.3 2.5-2.3 8.6.1 17.2.1 25.8 0 2 0 2.3.7 2.3 2.4-.1 6.2-.1 12.5 0 18.7 0 2.1-.7 2.5-2.6 2.5-4.3-.1-8.5 0-12.8 0z"/><path fill="#F6F6F8" d="M1160.2 581.3c-3.8 0-7.5-.1-11.3 0-1.5 0-2.1-.4-2-2 .1-6.6.1-13.2 0-19.8 0-1.4.5-1.8 1.8-1.8 7.8 0 15.6.1 23.3 0 1.6 0 1.7.7 1.7 2 0 6.5-.1 13 0 19.4 0 1.7-.4 2.3-2.2 2.2h-11.3z"/><path fill="#9BC401" d="M1069.6 550.9h-55c-1.4 0-3.6 1-3.5-2 .1-2.7 1.8-2.5 3.7-2.5h110.6c2 0 3.5.1 3.5 2.7-.1 2.8-2 1.8-3.3 1.8-18.7.1-37.4 0-56 0z"/><path fill="#E84E0B" d="M977.7 648c0 4.3-.1 8.5 0 12.8.1 2-.4 3.1-2.7 2.9-3.5-.3-8 1.4-10.3-.6-2.3-2.1-.6-6.7-.7-10.2-.1-6 .1-12-.1-18.1 0-2.2.5-3.2 2.9-3.1 2.7.2 5.4.2 8.1 0 2.3-.2 2.8.7 2.7 2.8 0 4.5.1 9 .1 13.5z"/><path fill="#EEE" d="M1004.1 623.8c2.4-1.5 5.3.3 7.6-1.2 1.7-1.7 4-1.2 6-1.2h95.2c1.5 0 3.1.1 4.6-.1 1.3-.1 2.8-.4 3-2 .2-1.6-1-2.2-2.4-2.6-1-.3-2.1-.4-2.9-1.2 1.4-1.5 3.1-2.6 4.9-3.4.3-1.5 1.1-2.8 2.3-3.7 1.3.1 1.8-1.4 3.2-1.6.8 5.7-.5 11.5.7 17.1 0 1.9-1.5 1.2-2.3 1.2h-117.7c-.7-.2-2.2.6-2.2-1.3z"/><path fill="#C5C9CD" d="M1116.6 539.5c-1.4-.6-5.3 1.4-4-2.6 1.1-3.3 4.5-.4 6.8-.8 1.3-.2 2.6.2 2.3 2.2-.1.9-.5 1.2-1.3 1.2-1.2.1-2.4 0-3.8 0z"/><path fill="#69686D" d="M688.9 632.5h-150c-10.1 0-14.7-4.5-14.7-14.7V396.5c0-12 6.2-18.2 18.1-18.2h294.3c7 0 12.4 2.3 16 8.5 1.5 2.5 1.8 5.3 1.8 8.2v224.5c0 8.4-5 13.1-13.7 13.1-50.6-.1-101.2-.1-151.8-.1z"/><path fill="#AEAFB3" d="M689.7 639.4h176.6c6.4 0 6.4 0 6.3 6.5-.1 8.7-6.1 15.9-14.7 17.4-1.4.2-2.8.2-4.2.2H525.6c-13.1 0-21.3-9.5-19.5-22.5.2-1.1.4-1.8 1.7-1.7h2.5c59.7.1 119.5.1 179.4.1z"/><path fill="#2FBBAA" d="M109.9 520.6c0 46.3 0 92.7.1 139 0 3.3-.9 4.1-4.1 4-14.5-.2-29.1-.1-43.6 0-2.7 0-3.3-.7-3.3-3.3V380.9c0-2.8.7-3.5 3.5-3.5 14.5.1 29.1.2 43.6 0 3.2 0 3.9.8 3.9 3.9-.1 46.4-.1 92.9-.1 139.3zm57.6.1c0 46.3 0 92.7.1 139 0 3.4-1 4-4.1 4-14.4-.2-28.8-.1-43.3 0-2.6 0-3.7-.4-3.6-3.4.1-93.1.1-186.3 0-279.4 0-2.9.9-3.5 3.6-3.5 14.5.1 29.1.2 43.6 0 3.3 0 3.8 1 3.8 4-.2 46.4-.1 92.8-.1 139.3z"/><path fill="#E84E0B" d="M395.2 616.4c0-13.4.1-26.7-.1-40.1 0-2.5.4-3.5 3.2-3.5 19.3.1 38.5.1 57.8 0 2.6 0 3.1.9 3.1 3.2-.1 26.8 0 53.7-.1 80.5 0 5.2-1.8 6.9-7.1 6.9h-50c-5.2 0-6.9-1.8-6.9-7.1.1-13.2.1-26.5.1-39.9z"/><path fill="#1A922A" d="M433.5 502.2c-.9 20.4-1.8 40.7-2.6 61.1-.1 1.8-.1 3.3-2.6 3.1-2.6-.2-1.8-2.1-1.7-3.4.9-21.7 1.8-43.3 2.7-65 0-1.1-.2-2.5 1.8-2.1 1.5.3 2.8.4 2.6 2.4-.2 1.3-.1 2.6-.2 3.9.1 0 0 0 0 0z"/><path fill="#EB500B" d="M401.8 566.3c-1.7.3-2.1-.6-2.4-1.9-3.2-15.2-6.5-30.5-9.8-45.7-.4-1.6-.2-2.5 1.8-3 2.3-.6 2.3.8 2.6 2.2 3.2 15.1 6.5 30.2 9.7 45.3.2 1.6 1 3.6-1.9 3.1z"/><path fill="#F7B22D" d="M450.5 562.5c1.7-15 3.4-29.8 5-44.5.2-1.4 0-2.8 2.3-2.4 2.1.3 2.2 1.3 2 3.1-1.8 15.1-3.5 30.2-5.1 45.3-.2 2.1-1.2 2.5-3 2.4-3.4-.4-.2-3-1.2-3.9z"/><path fill="#9BC205" d="M429.9 484.3v-2.8c0-1.7 1.2-1.4 2.2-1.4 1 0 2.2-.2 2.2 1.5-.1 1.5-.1 3.1-.1 4.6-.1 1.4.3 3.1-2.2 3-2.4-.1-2.2-1.5-2.2-3.1v-1.8h.1z"/><path fill="#B8DEEF" d="M458.5 493.7c.9-1.1-1.6-4.4 2.3-4.5 1.2 0 3.2-.1 2.4 1.9-.8 1.9 1.2 5.1-2.3 5.6-1.4.2-3.3 0-2.4-3z"/><path fill="#E7500C" d="M391.6 507c.3 2.4-1.6 2.2-2.5 2.2-3-.1-1.9-2.9-2.4-4.5-.8-2.4 1.5-2.2 2.6-2.1 2.9.3 1.1 3.3 2.3 4.4z"/><path fill="#C1C6CB" d="M461.3 505.7c-.5 1.1.9 3.5-2.1 3.3-1.6-.1-2.9-.4-2.3-2.4.4-1.3-.9-3.7 2.2-3.3 1.4.1 3 0 2.2 2.4z"/><path fill="#F7D7A6" d="M206 477.7c0-1.3-.1-2.6-.1-3.9 0-64.2 0-128.3-.1-192.5 0-2.9.3-4 3.7-4 47.6.1 95.3.1 142.9.1 2.1 0 3.4-.1 3.3 2.8-.1 56.5-.1 113-.1 169.5 0 .6-.1 1.2-.1 1.8-.8 1.3-.7 2.7-.7 4.1 0 6.3-.1 12.5 0 18.8.1 3-1 3.8-3.9 3.8-9.8-.2-19.6-.1-29.4 0-1.1 0-2.3-.2-3.4.3-.4.2.1.6-.1.2-.1-.1 0-.2.2-.3 2.7-.5 5.4-.2 8.1-.2h26.2c.9 0 1.9-.4 2.7.4-.8.8-1.8.4-2.7.4H208.7c-.9 0-1.9.4-2.7-.4 2.1-1 4.4-.4 6.6-.4 6.4-.1 12.7-.1 19.1 0 .8 0 1.9-.6 2.5.6-.4-1.2-1.4-.6-2-.6-7.5-.1-15.1-.1-22.6 0-2.1 0-2.9-.6-2.8-2.8.2-4.4 0-8.8-.1-13.2-.2-.5-.9.1-.5-.1.2-.1.3 0 .3.1.6 5 .3 10 .1 15 .1.4-.3.4-.6.5z"/><path fill="#BDEAFE" d="M355.3 478.5h-37.2v-.8h3.4c9.8 0 19.6-.1 29.4 0 2.4 0 3.3-.6 3.3-3.2-.2-6.5-.1-13 0-19.5 0-1.4-.4-2.9 1.4-3.7 0 9.2.3 18.2-.3 27.2z"/><path fill="#BEEAFE" d="M206 477.7c1.2-3.9.3-7.9.5-11.9.1-1.4 0-2.8.7-4.2 0 4.3.1 8.6 0 13-.1 2.5.7 3.3 3.2 3.2 8.1-.1 16.3-.1 24.4.7h-28.7c-.1-.2-.2-.3-.2-.5 0-.1 0-.2.1-.3z"/><path fill="#FEFEFE" d="M731.4 251.4c0-30.9 0-61.7-.1-92.6 0-2.5.4-3.4 3.2-3.3 17.4.2 34.8.1 52.1.1 1.8 0 3.1-.1 3.6 2.5.8 4.3 4.5 6.8 8.7 6.7 4.1-.1 7.5-2.5 8.4-6.7.5-2.1 1.3-2.5 3.3-2.5 17.4.1 34.8.1 52.1 0 2.6 0 3 .8 3 3.2-.1 61.8-.1 123.7 0 185.5 0 2.9-.9 3.5-3.6 3.4-42.6-.1-85.1-.1-127.7 0-2.6 0-3.3-.6-3.3-3.3.4-31 .3-62 .3-93z"/><path fill="#C6021E" d="M802 155.8c-.3 2.1-1.4 3.3-3.3 3.2-1.9-.1-3-1.4-3-3.3s1.3-3 3.2-3c2 .1 2.8 1.5 3.1 3.1z"/><path fill="#C9B898" d="M1060 356.5c0 43.3-35.4 79.2-78 79.2-44.4 0-80-35.2-79.9-79.1 0-43.7 35.6-79.2 79.1-79.2 43.4.1 78.8 35.6 78.8 79.1z"/><path fill="#FEFEFE" d="M275 596.8c12.4 0 24.8.1 37.2-.1 2.5 0 3.1.6 3.1 3.1-.1 10.4 0 20.8-.1 31.2 0 10-7.4 17.5-17.4 17.5-15.4.1-30.7.1-46.1 0-9.6 0-17.2-7.3-17.4-16.9-.2-10.9 0-21.7-.1-32.6 0-2.5 1.3-2.2 2.9-2.2H275z"/><path fill="#F6F6F7" d="M330.2 655.6c-3.6 4.7-7.7 8-13.8 8h-83.3c-6 0-10-3.5-13.6-7.9 2.9-.6 104.5-.8 110.7-.1z"/><path fill="#FEFEFE" d="M322.1 619.4c0-4.5.1-9 0-13.4 0-1.5.4-2.1 2-2 4.8.1 9.7-.1 14.5.1 3.8.1 7.1 3.1 7.5 6.7 1.8 15.4-7.1 25.1-22.3 23.9-1.8-.1-1.7-.9-1.7-2.2v-13.1z"/><path fill="#010001" d="M1095.1 644.4h61.3c2.2.2 3.2 1.5 3.2 3.5-.1 1.9-1.3 3-3.2 3.1-.9.1-1.9 0-2.8 0h-117.7c-1.1 0-2.2.1-3.2-.2-1.9-.4-2.8-1.7-2.6-3.6.2-1.8 1.2-2.8 3-2.9.9-.1 1.9 0 2.8 0 19.8.1 39.5.1 59.2.1z"/><path d="M1064.5 566.3h57.1c.9 0 1.9-.1 2.8 0 1.7.2 2.8 1.3 2.9 3 .1 1.9-.9 3.2-2.8 3.5-1 .2-2.1.1-3.2.1h-116c-2.4 0-4-1-3.9-3.5.1-2.5 1.8-3.2 4.2-3.2 19.6.1 39.3.1 58.9.1z"/><path fill="#030403" d="M1121.7 522.9c-.4 2.8-1.7 4.4-4.4 4.4s-4.1-1.6-4.1-4.2 1.6-4.2 4.2-4.2c2.7 0 3.9 1.7 4.3 4z"/><path fill="#020202" d="M1115.3 615.4c1.3.1 2.6.1 3.9.2 1.9.1 3.1 1.3 3.2 3.1.1 1.9-1 3.1-2.8 3.5-1.1.2-2.4.1-3.5.1h-100c-1.4 0-2.8.1-4.3.1-2.2-.7-3.5-2-2.9-4.5.6-2.6 2.8-2.5 4.8-2.4h97.8c1.2.1 2.5 0 3.8-.1z"/><path d="M1122.5 608.3c-.1 1.7-.8 2.9-2.3 3.7-7.8 0-15.6.1-23.4.1h-82.6c-1.1 0-2.1 0-3.2-.2-1.8-.4-2.4-1.6-2.4-3.4 0-1.7 1-2.6 2.5-3 .7-.2 1.4-.1 2.1-.1h104.2c2.5 0 4.3.4 5.1 2.9z"/><path fill="#010202" d="M689.7 387.5h149.7c5.8 0 5.9.1 5.9 5.7v224.5c0 5.6-.1 5.7-5.8 5.7H539.4c-5.5 0-5.8-.3-5.8-5.8V393.1c0-5.1.4-5.5 5.4-5.5 50.2-.1 100.4-.1 150.7-.1z"/><path fill="#000001" d="M104.3 439.7v47.1c0 4.9-.7 5.6-5.8 5.7H69.8c-4.3 0-5.2-.9-5.2-5.2v-95.4c0-4.2.9-5 4.9-5.1h29.8c4.2 0 5 .8 5 5v47.9z"/><path fill="#010101" d="M84.6 605.3c10.4.1 18.6 8.3 18.5 18.8-.1 10.4-8.3 18.6-18.7 18.6-10.2 0-18.7-8.5-18.8-18.7-.1-10.4 8.5-18.8 19-18.7z"/><path d="M122.2 439.5v-47.1c0-4.7.7-5.4 5.2-5.5h29.4c4.2 0 5 .8 5.1 4.9v95.7c0 4-1 5-5.1 5h-29.4c-4.3 0-5.2-.9-5.2-5.2v-47.8z"/><path fill="#010101" d="M123.5 624c0-10.5 8.1-18.7 18.5-18.7s18.7 8.1 18.9 18.5c.1 10.2-8.3 18.9-18.5 19-10.5.1-18.9-8.3-18.9-18.8z"/><path fill="#FEFEFE" d="M344.9 380.2v79.1c0 6.6-2.6 9.2-9.2 9.2H226.8c-6.9 0-10.3-3.2-10.3-10.1V302c0-6.2 2.1-10.3 10.2-10.3 36.2.2 72.3.1 108.5.1 6.9 0 9.6 2.6 9.6 9.6.1 26.3.1 52.5.1 78.8z"/><path fill="#F8D35F" d="M810.3 280.4c0-3 .1-5.9.1-8.9 0-1.6.7-2.3 2.3-2.3h41.5c1.7 0 2.2.7 2.2 2.4 0 13.2-.1 26.5 0 39.7 0 2.6-1.4 2.5-3.1 2.5-10.3 0-20.6.1-30.9-.1-2.9 0-4 .8-3.8 3.7.1 2.3.6 4.7-.4 6.9-2.2-3.2-1.3-6.8-1-10.2.9-9.7.2-19.5.4-29.2.1-2.4-1.1-3.3-3.5-3.3-1.3 0-2.8.1-3.8-1.2z"/><path fill="#B9DF1B" d="M772.6 317.4c-8.1 0-16.3-.2-24.4-.1-2.5 0-3.1-.8-3.1-3.2.1-12.6.1-25.3 0-37.9 0-2.7.8-3.4 3.4-3.4 12.7.1 25.5.2 38.2 0 3.5-.1 5 .8 4.4 4.4-.2 1 0 2.1.1 3.2 1.1 1.3 1.1 2.8 1.1 4.4 0 9.3.1 18.6 0 27.9 0 5-.8 5.7-5.8 5.8-3.2.1-6.4 0-9.5 0-1.6 0-3.1 0-4.4-1.1z"/><path fill="#FA8150" d="M772.6 317.4c5.2 0 10.4-.2 15.5 0 2.3.1 3-.7 3-3-.1-11.3 0-22.6.1-33.9h19.1c8.4.2 8.5.2 8.4 8.6-.1 11.8-.3 23.6-.5 35.4-10.8.1-21.6.2-32.5.2h-6c-7.1-.1-7.1-.1-7.1-7.3z"/><path fill="#050505" d="M798.8 212.8h-51.1c-.9 0-1.9.1-2.8 0-1.6-.2-2.6-1.3-2.6-2.9 0-1.4.9-2.4 2.3-2.7 1-.2 2.1-.2 3.2-.2H850c.8 0 1.7-.1 2.5 0 1.8.2 2.9 1.3 2.9 3s-1.1 2.8-3 2.8h-53.6z"/><path fill="#010101" d="M799 218h50.7c1.1 0 2.1 0 3.2.1 1.6.2 2.6 1.4 2.5 2.9-.1 1.5-.9 2.7-2.7 2.7H744.9c-1.5-.1-2.4-1.2-2.5-2.6-.1-1.5.7-2.7 2.3-3.1 1-.2 2.1-.1 3.2-.1 17 .1 34 .1 51.1.1zm-.4 27.9h-50.7c-.9 0-1.9 0-2.8-.1-1.6-.2-2.7-1.2-2.7-2.8 0-1.7 1.1-2.8 2.9-2.9h107.4c1.7.1 2.6 1.2 2.7 2.8 0 1.5-.8 2.7-2.5 2.9-.9.1-1.9.1-2.8.1h-51.5z"/><path fill="#020202" d="M798.8 229.2h51.4c.9 0 1.9 0 2.8.1 1.4.1 2.1 1.1 2.3 2.3.2 1.4-.5 2.5-1.8 3.1-1.2.6-2.6.3-3.8.3H746.2c-2 0-3.7-.8-3.7-2.9-.1-2.4 1.8-2.9 3.9-2.9h52.4z"/><path fill="#050505" d="M798.2 176.7h-34c-.9 0-1.9.1-2.8-.1-1.6-.2-2.6-1.2-2.7-2.8 0-1.6.9-2.7 2.5-2.9.9-.1 1.9-.1 2.8-.1h70.5c2.1 0 4 .7 3.9 3.1-.1 2.1-1.7 2.9-3.8 2.8h-36.4z"/><path d="M798.7 189h-35.4c-2.1 0-4.4-.1-4.5-2.8-.1-2.9 2.2-3 4.5-3h70.9c2.2 0 4.3.3 4.3 2.9s-2.1 2.9-4.4 2.9h-35.4z"/><path fill="#020202" d="M780.1 257h-32.6c-.9 0-1.9.1-2.8-.1-1.5-.4-2.5-1.5-2.3-3.1.1-1.4 1-2.4 2.5-2.5.8-.1 1.7-.1 2.5-.1h66.3c2.2-.1 4.3.2 4.2 2.9-.1 2.6-2.3 2.9-4.4 2.9-2.1-.1-4.3 0-6.4 0h-27z"/><path fill="#000001" d="M981.1 285.7c39.3 0 70.6 31.9 70.5 71.7-.1 38.7-32.6 70.6-72.3 70-38-.6-69.1-32.5-69-71.9.1-38.2 32.3-69.9 70.8-69.8z"/><path fill="#BDEAFE" d="M689.7 394.1c48.4 0 96.7 0 145.1-.1 2.9 0 4 .4 3.9 3.8-.1 71.8-.1 143.5 0 215.3 0 2.8-.6 3.7-3.6 3.7-97.1-.1-194.1-.1-291.2 0-3.3 0-3.8-1-3.8-4 .1-71.6.1-143.3 0-214.9 0-3.1.6-3.9 3.8-3.9 48.6.1 97.2.1 145.8.1z"/><path fill="#F6F6F8" d="M71.2 439.4c0-14.2.1-28.3-.1-42.5 0-2.7.7-3.4 3.3-3.3 6.7.2 13.5.2 20.2 0 2.2 0 2.8.6 2.8 2.8-.1 28.9-.1 57.9 0 86.8 0 2-.6 2.6-2.6 2.5-6.8-.1-13.7-.2-20.5 0-2.9.1-3.2-1-3.2-3.5.2-14.2.1-28.5.1-42.8z"/><path fill="#FEFEFE" d="M96.4 623.9c0 6.5-5.4 12-11.9 12s-12-5.4-12-11.9c0-6.4 5.5-12 11.9-12 6.4-.1 12 5.5 12 11.9z"/><path fill="#F8F8F9" d="M129.1 439.9c0-14.3.1-28.6-.1-42.9 0-2.9.9-3.5 3.6-3.4 6.6.2 13.2.1 19.8 0 2 0 2.9.2 2.9 2.6-.1 28.9-.1 57.9 0 86.8 0 2.4-.9 2.7-2.9 2.6-6.8-.1-13.7-.2-20.5 0-2.4.1-2.9-.7-2.8-3v-42.7z"/><path fill="#FEFEFE" d="M142.2 635.9c-6.5 0-12-5.3-12-11.9-.1-6.5 5.4-12 11.8-12.1 6.5 0 12 5.4 12 11.9.1 6.5-5.3 12.1-11.8 12.1z"/><path fill="#666569" d="M281 343.7h51.8c2.3 0 4.3.3 4.8 3 .4 2.3-1.4 3.9-4.7 3.9H230c-1.1 0-2.2.1-3.2-.2-1.7-.4-2.6-1.6-2.6-3.4 0-1.8 1.1-2.9 2.7-3.2.9-.2 1.9-.1 2.8-.1H281z"/><path fill="#66656A" d="M281 360.1h-53.6c-2-.1-3-1.3-3.1-3.2-.1-1.9 1-3.1 2.9-3.4 1-.2 2.1-.1 3.2-.1h102.8c2.4 0 4.4.7 4.3 3.5 0 2.8-2.1 3.2-4.5 3.2h-52zm0 13.9h53.6c2 .1 3 1.3 3.1 3.2.1 1.9-1 3.1-2.9 3.4-.9.1-1.9.1-2.8.1H230.2c-1.1 0-2.2.1-3.2-.2-1.7-.4-2.6-1.6-2.6-3.3 0-1.7 1-2.9 2.8-3.2.9-.2 1.9-.1 2.8-.1 17 .1 34 .1 51 .1zm.2 10.7h52.1c2.5 0 4.3.7 4.3 3.4 0 2.5-1.9 3.3-4.1 3.3H230.7c-1.2 0-2.4 0-3.5-.2-1.9-.3-2.9-1.6-2.7-3.5.1-1.7 1.1-2.8 2.9-3 .9-.1 1.9 0 2.8 0h51z"/><path fill="#67666B" d="M280.8 370.9h-51.4c-2.5 0-5.1-.1-5-3.5.1-3 2.4-3.3 4.8-3.3h103.5c2.5 0 4.8.4 4.8 3.4 0 3.3-2.5 3.4-5 3.4h-51.7z"/><path fill="#020202" d="M281.9 308.8h-42.2c-.9 0-1.9.1-2.8-.1-1.9-.3-3-1.4-3-3.3 0-2.1 1.2-3.3 3.3-3.5.7-.1 1.4 0 2.1 0h85.4c.8 0 1.7-.1 2.5.1 1.7.3 2.8 1.3 2.9 3.1.1 1.9-1 3.1-2.8 3.6-.9.2-1.9.1-2.8.1h-42.6zm.1 14.8h-42.5c-.9 0-1.9.1-2.8-.1-1.8-.4-2.9-1.6-2.8-3.5.1-1.7 1.1-2.8 2.8-3.2.9-.2 1.9-.1 2.8-.1h85.1c.8 0 1.7-.1 2.5.1 1.8.4 3 1.5 3 3.4s-1.1 3-3 3.3c-.9.1-1.9.1-2.8.1H282z"/><path fill="#1B1C20" d="M329.3 435.4c.1 2.8-.4 5.5-2 7.7-1.1 1.6-1.1 2.9.2 4.3 1 1.3 1.9 2.7 2.7 4.1 1.1 1.9 1 3.7-.9 4.9-1.8 1.2-3.8.8-4.6-1-2.1-4.8-5.3-6.4-10.3-4.6-1.1.4-2.8.3-3.8-.3-3.1-1.6-4.5 0-6 2.4-1.4 2.3-2.8 5.8-6.4 3.3-3.3-2.3-.9-4.9.7-7 1.9-2.5 2.7-4.4.9-7.7-3.1-5.4-1.5-12.5 2.8-17 4.5-4.7 11.2-6.2 17.2-3.7 5.8 2.5 9.5 8.1 9.5 14.6z"/><path fill="#68676C" d="M268.3 394.2h40c2.2.2 3.5 1.4 3.4 3.7-.1 2.1-1.4 3.2-3.5 3.2h-79.7c-2.3.1-4.1-.8-4.2-3.3-.1-2.7 1.8-3.6 4.2-3.6h39.8z"/><path fill="#4FAB24" d="M769.1 307.5h-14.5c-2.1 0-3.9-.6-3.8-3 .1-2.2 1.8-2.7 3.8-2.7 9.7 0 19.3.1 29 0 2.1 0 3.6.8 3.7 2.9 0 2.1-1.5 2.9-3.6 2.9-4.9-.1-9.7-.1-14.6-.1z"/><path fill="#4FAB25" d="M768.3 279.1c4.2 0 8.5.1 12.7 0 2.1 0 4 .4 4.1 2.8.1 2.4-1.7 3-3.9 3-8.8-.1-17.7 0-26.5 0-2.1 0-4-.5-3.9-2.9.1-2.5 2-2.8 4.1-2.8 4.5-.1 8.9-.1 13.4-.1z"/><path fill="#4EAB25" d="M763.4 296.2h-9.2c-1.9 0-3.3-.7-3.4-2.8-.1-2.1 1.6-2.9 3.3-2.9 6.4-.1 12.8-.1 19.1 0 2 0 3 1.2 2.9 3.2-.1 2.1-1.5 2.4-3.2 2.4-3.1.1-6.3.1-9.5.1z"/><path fill="#FEFEFE" d="M962.1 417.5c-20.1-6.4-34-19.6-41.1-39.3-12.9-35.6 7.6-74.1 44.2-83.6 36.2-9.4 72.6 14.5 78.9 51.7 5.2 30.5-13.5 61.4-43 71-.4.1-.9.2-1.4.3-12.5 1.5-25 1.6-37.6-.1z"/><path fill="#BDE8FB" d="M962.1 417.5c12.6 0 25.1 0 37.7.1-12.6 4.1-25.1 4.1-37.7-.1z"/><path fill="#D5F6FB" d="M713.8 438.1c-2 4.1-4.7 7.8-6.2 12.2-.6 1.8-2.4 1.2-3.7 1.2h-71.8c-1.4 0-2.8-.5-4.1.6-1.3 2.2-1.2 4.4 0 6.6 1.2 1 2.7.6 4.1.6 23.1 0 46.3.1 69.4 0 2.7 0 4.1 0 3.3 3.6-1.1 4.9-.7 4.9-5.8 4.9h-66.9c-1.4 0-2.9-.5-4.1.6-1.3 2.2-1.2 4.4 0 6.6 1.3 1 2.7.5 4.1.5 22.9 0 45.9.1 68.8-.1 3.9 0 3.7 1.9 3.8 4.5.1 2.8-.3 4.2-3.8 4.2-22.9-.2-45.9-.1-68.8-.1-1.4 0-2.9-.5-4.1.6-1.2 2.2-1.3 4.4 0 6.6 1.2 1.1 2.7.6 4.1.6 22.9 0 45.9.1 68.8-.1 3.9 0 3.7 1.8 3.8 4.5.1 2.8-.3 4.2-3.8 4.2-22.9-.2-45.9-.1-68.8-.1-1.4 0-2.9-.5-4.1.6-1.2 2.2-1.3 4.4 0 6.6 1.2 1.1 2.7.6 4.1.6 22.9 0 45.8.1 68.6 0 3.1 0 4.1.8 4 3.9-.3 6-.1 12-.1 18-1.6 1.6-3.8 1.2-5.7 1.2h-49.3c-8.1 0-12.1 5.7-9.7 13.6.4 1.3 1.2 1.7 2.3 1.8 1.3.2 2.6.1 3.9.1h52.8c1.9 0 4.1-.5 5.7 1.2v.6c-1.7 1.4-3.8 1.1-5.8 1.1h-53.5c-5.5 0-5.6.1-5.6 5.5v38.2c0 7.4 2.6 10 10 10h60.2c1.8 0 3.5 0 5.3.4 3.7 4.4 7.7 8.5 13.4 11.9-1.6.1-2.6.2-3.6.2-60.1 0-120.1 0-180.2.1-3.4 0-4.4-.8-4.3-4.3.1-71 .1-142.1 0-213.1 0-3.3 1-4.1 4.2-4.1 96.3.1 192.7.1 289 0 3.1 0 4.4.6 4.2 4.1-.3 5.1-.3 10.2 0 15.2.1 2.9-1 3.7-3.7 3.5-2.8-.2-5.7 0-8.5 0-1.3-1.5-1-3.3-1.2-5.1-.7-4.7-2.4-6.6-7.1-6.6-62-.1-124.1-.1-186.1 0-5.4 0-7.2 2-7.3 7.4-.1 5.2 0 10.4 0 15.6.1 6.2 1.9 8.1 8.1 8.1 25.2.1 50.3 0 75.5 0 2.2.3 4.4-.2 6.2 1.5z"/><path fill="#50C5F8" d="M713.8 438.1c-27.4 0-54.8-.1-82.2-.1-6.5 0-8.7-2.1-8.7-8.7 0-5.9-.1-11.8 0-17.7.1-4.3 2.6-6.8 6.8-7h185c9.6 0 10.9 1.4 11 11.1 0 .6 0 1.2.1 1.8 0 4 0 8-.1 12.1-.1 5.7-2.8 8.5-8.5 8.5h-99.3c-1.3-.1-2.7-.1-4.1 0z"/><path fill="#FEFEFE" d="M715.2 604c-1 1.2-2.4.7-3.7.7h-63.8c-5.6 0-9.1-3.5-9.2-8.9 0-14.5.1-29.1-.1-43.6 0-2.8.8-3.6 3.6-3.6 20.8.1 41.6.1 62.4.1.1 8.5.1 8.5-8.4 8.5h-43.8c-1.2 0-2.6-.4-3.7.5-1.4 2.2-1.3 4.5 0 6.7 1.1 1 2.5.6 3.7.6h48.6c2.1 0 3.8-.1 3.8 3s-1.3 3.4-3.8 3.4c-16.2-.1-32.4-.1-48.6 0-1.2 0-2.6-.5-3.7.6-1.4 2.2-1.2 4.5 0 6.7 1.1.9 2.5.5 3.8.5h49.3c2.8 0 5.1 2.9 4.2 5.4-.6 1.6-2 .9-3.1.9-15.8 0-31.7 0-47.5.1-2 0-4-.6-5.9.5-2.2 2.1-1.9 4.4-.7 6.8 1.2.9 2.5.5 3.8.5 17.7 0 35.4.1 53.1 0 2.4 0 3.9.5 4.9 2.9 1.1 2.8 2.9 5.3 4.8 7.7z"/><path fill="#C3C4C8" d="M704.6 548.1c-20.7 0-41.3-.1-62 0-3 0-3.9-.7-4-3.9-.3-10.5 1-14.5 14-14.1 17.4.5 34.7.1 52.1.1 31.2 0 62.4 0 93.6.1 6.6 0 9.3 2.7 9.3 9.1 0 2.8.9 6.6-.5 8.2-1.3 1.4-5.3.4-8.1.4h-90c-1.6 0-3 0-4.4.1z"/><path fill="#000001" d="M628 491.3c-3-2.7-3-3.8 0-6.6h188.2c2.5 0 5.9-.7 6 3.1.1 4-3.3 3.6-6 3.6H631.9c-1.3 0-2.6 0-3.9-.1z"/><path d="M628 475c-3-2.8-3-3.9 0-6.6 1.8 0 3.5-.1 5.3-.1h185.3c2.3.1 3.6 1.3 3.5 3.5-.1 2-1.4 3.2-3.5 3.1h-2.8c-62.6.1-125.2.1-187.8.1z"/><path fill="#010001" d="M628 507.6c-3-2.7-3-3.9 0-6.6h189.3c1 0 2.2 0 3.1.4 1.3.5 2 1.7 1.9 3.1-.1 1.5-1 2.7-2.5 3-.8.2-1.6.1-2.5.1-63.2.1-126.2 0-189.3 0z"/><path fill="#000001" d="M628 458.7c-3-2.7-3-3.8 0-6.6h189.6c3.3 0 5.1 1.5 4.6 3.9-.3 1.4-1.1 2.4-2.5 2.7-.8.2-1.6.1-2.5.1-63.1-.1-126.2-.1-189.2-.1z"/><path fill="#1A1B1F" d="M648.6 564.5c-3.3-2.6-3.3-4.1 0-6.7 22 0 44 .1 65.9.1h81.2c3.3 0 5 1.4 4.6 3.8-.2 1.4-1 2.4-2.5 2.7-.9.2-1.9.2-2.8.2H651.1c-.9-.1-1.7-.1-2.5-.1z"/><path fill="#191A1E" d="M648.6 578.7c-3.2-2.6-3.2-4.1 0-6.7H795c.9 0 1.9-.1 2.8.2 1.7.4 2.6 1.6 2.5 3.4-.1 1.7-1 2.9-2.8 3-.9.1-1.9 0-2.8 0H652.6c-1.4 0-2.7.1-4 .1zm0 14.2c-3.5-2.7-3.3-4.8.7-6.8 11.1 0 22.2.1 33.3.1h73.8c1.1 0 2.2-.1 3.2.1 1.7.4 2.6 1.6 2.5 3.4-.1 1.8-1.1 2.8-2.8 3.1-.9.1-1.9 0-2.8 0-36.1.1-72 .1-107.9.1z"/><path fill="#020202" d="M81 440.2v-35.8c0-2.6.3-5 3.6-4.9 3.1.1 3.3 2.4 3.3 4.8v71.5c0 2.5-.4 4.7-3.5 4.7-3 0-3.4-2.2-3.4-4.7v-35.6zm63.1-.2v-35.8c0-2.4.2-4.7 3.4-4.7 3.1 0 3.5 2.1 3.5 4.6v71.6c0 2.6-.3 5-3.6 4.9-3.1-.1-3.3-2.3-3.3-4.8V440z"/><path d="M133.4 439.7v-35.4c0-2.4 0-4.7 3.2-4.8 3.4 0 3.5 2.4 3.5 4.9v71.2c0 2.3-.1 4.8-3.2 5-2.7.2-3.6-1.5-3.6-4.1.1-12.2.1-24.5.1-36.8z"/><path fill="#F6AE2C" d="M322.6 435.3c0 4.8-4.1 8.9-8.8 8.9-4.7 0-8.7-4.1-8.7-8.9.1-4.7 3.9-8.5 8.5-8.6 4.9-.1 9 3.8 9 8.6z"/><path d="M969.9 391.5c1.8-10.4 3.6-21 5.4-31.6.3-1.7.6-3.5.9-5.2.4-2.1 1.7-3.7 3.7-3.8 2.2-.1 3.4-1.3 4.7-2.6 11.2-11 22.5-21.9 33.7-32.9 1.8-1.7 3.7-3 5.8-.8 2.1 2.2.8 4-1 5.7-11.7 11.5-23.4 23-35.2 34.5-1.4 1.3-2 2.8-2.3 4.6-1.8 11.2-3.7 22.3-5.7 33.5-.6 3.2-2.9 4.9-5.7 4.5-2.7-.6-4.5-2.9-4.3-5.9z"/><path fill="#090909" d="M1028.4 332.7c-2.2-.2-3.4-1.4-3.5-3.6 0-2.2 1.3-3.6 3.5-3.6 2.3 0 3.8 1.4 3.7 3.8-.1 2.1-1.4 3.3-3.7 3.4z"/><path fill="#060606" d="M981.1 298c2.3.3 3.7 1.5 3.6 3.7-.1 2.3-1.5 3.7-3.9 3.5-2.2-.2-3.4-1.7-3.3-3.8.1-2.1 1.5-3.2 3.6-3.4z"/><path fill="#080808" d="M930 356.4c-.4 2.2-1.4 3.7-3.6 3.7-2.3.1-3.7-1.3-3.8-3.4-.1-2.2 1.3-3.8 3.7-3.8 2.2 0 3.2 1.6 3.7 3.5z"/><path fill="#060606" d="M1012 309c-.1 2.2-1.2 3.5-3.5 3.5-2.3.1-3.6-1.3-3.7-3.4-.1-2.3 1.3-3.8 3.7-3.7 2.2.1 3.4 1.4 3.5 3.6z"/><path fill="#050505" d="M933.3 380.4c2.4.2 3.8 1.4 3.8 3.6 0 2.4-1.5 3.8-3.8 3.6-2.1-.1-3.4-1.4-3.3-3.7.1-2.4 1.6-3.2 3.3-3.5zm21-67.8c-2.7-.1-4.1-1.1-4.2-3.4-.1-2.4 1.3-3.8 3.6-3.8 2.2 0 3.4 1.3 3.5 3.5.1 2.4-1.4 3.3-2.9 3.7z"/><path fill="#060606" d="M957.2 404.2c-.1 2.2-1.4 3.4-3.6 3.4s-3.5-1.3-3.6-3.5c0-2.4 1.4-3.8 3.7-3.7 2.2.2 3.5 1.5 3.5 3.8z"/><path fill="#050505" d="M1012 403.7c-.1 2.5-1.2 3.8-3.4 3.9-2.3.1-3.8-1.3-3.7-3.7 0-2.2 1.4-3.5 3.6-3.5 2.1.1 3.3 1.4 3.5 3.3zm27.5-47.6c-.2 2.4-1.2 3.8-3.5 4-2.2.1-3.6-1.1-3.8-3.2-.2-2.3 1.2-3.8 3.5-3.9 2.3-.1 3.3 1.4 3.8 3.1z"/><path fill="#060606" d="M930.1 329.8c0-3 1.3-4.2 3.4-4.3 2.3-.1 3.8 1.3 3.7 3.7-.1 2.2-1.4 3.4-3.6 3.4s-3.4-1.3-3.5-2.8z"/><path fill="#070707" d="M981.1 415.1c-2.3-.3-3.7-1.5-3.6-3.7 0-2.3 1.5-3.7 3.9-3.5 2.2.1 3.5 1.6 3.3 3.7-.2 2.2-1.6 3.3-3.6 3.5z"/><path fill="#060606" d="M1032.2 384.1c-.4 2.1-1.5 3.6-3.7 3.5-2.4-.1-3.7-1.6-3.5-3.9.1-2.2 1.5-3.4 3.8-3.3 2.2.2 3.1 1.6 3.4 3.7z"/><path fill="#FEFEFE" d="M614.3 437.8c0 1.4.1 2.8.1 4.2v155c0 1.8.1 3.6-.7 5.2-1.1 2.4-2.7 4-5.6 4-17.3-.1-34.5 0-51.8 0-4.7 0-6.5-2.1-6.5-7.2V454.3c0-5.4 0-10.9.1-16.3 1.3-1.1 2.8-1 4.4-1.1h55.9c1.5 0 2.9-.1 4.1.9z"/><path fill="#FEB43D" d="M614.3 437.8c-21.5 0-42.9.1-64.4.1 0-9.1-.1-18.2-.1-27.3 0-3.6 2.3-6.1 6-6.1 17.4-.1 34.7-.1 52.1 0 4.2 0 6.3 2.7 6.3 7.4.1 8.6.1 17.3.1 25.9z"/><path fill="#1A1B1F" d="M680.8 543.6H651c-2.5 0-4.7-.4-4.8-3.4 0-2.9 2.2-3.5 4.7-3.5h60.2c2.6 0 4.6.7 4.6 3.6-.1 2.7-2.1 3.3-4.5 3.3h-30.4z"/><path fill="#1B1C20" d="M794.3 543.6h-2.5c-1.9-.1-3.1-1.1-3.3-3-.2-2.1 1-3.4 2.9-3.7 1.7-.3 3.5-.2 5.3-.1 2.1.2 3.6 1.3 3.5 3.6-.1 2.3-1.6 3.3-3.8 3.2h-2.1z"/><path fill="#E8EECA" d="M604.5 553.6v29.1c0 5.3-1.9 7.1-7.3 7.2-9.6 0-19.1-.2-28.7.1-6.3.2-9.2-.8-9.4-9.5-.2-15.3-.1-30.7 0-46.1 0-4-.3-8 .6-12 .7-3.3 2.7-4.8 5.6-4.8 11.2-.1 22.4-.1 33.7 0 3.6 0 5.5 2.4 5.5 6.4.1 9.8 0 19.7 0 29.6z"/><path fill="#1B1C20" d="M582.5 474.2H603c2.6 0 5 .3 5 3.5 0 3-2.3 3.4-4.8 3.4h-42.5c-2.5 0-4.7-.5-4.6-3.5.1-3 2.3-3.4 4.8-3.4 7.2.1 14.4 0 21.6 0z"/><path fill="#1A1B1F" d="M582.1 453.4h-21.6c-2.4 0-4.3-.6-4.3-3.4s2-3.4 4.4-3.4h43.2c2.4 0 4.3.7 4.3 3.5s-1.9 3.4-4.4 3.4c-7.2-.1-14.4-.1-21.6-.1zm0 48.5h21.6c2.4 0 4.3.7 4.3 3.4 0 2.8-1.9 3.5-4.3 3.5h-43.2c-2.4 0-4.3-.7-4.3-3.5s1.9-3.4 4.3-3.4h21.6z"/><path fill="#1C1D20" d="M582 494.8h-21.6c-2.3 0-4.1-.5-4.3-3.1-.2-2.8 1.7-3.7 4.1-3.7h43.9c2.2 0 4 1 3.9 3.5-.1 2.5-1.8 3.3-4.1 3.3H582z"/><path fill="#191A1E" d="M582.2 460.5h21.6c2.4 0 4.3.6 4.3 3.4s-2 3.4-4.4 3.3h-43.2c-2.4 0-4.3-.6-4.3-3.4s2-3.3 4.4-3.3h21.6z"/><path fill="#F7D7A6" d="M349.9 435.2h5.7V479h-5.7zm-144 0h5.7V479h-5.7z"/><path fill="#F7D7A6" d="M210.3 473.3H351v5.7H210.3z"/><path fill="#FEFEFE" d="M458.27 488.715l5.367.594-.914 8.25-5.367-.595zm-1.5 13.786l5.368.595-.705 6.36-5.367-.594z"/><path fill="#EB500B" d="M385.756 502.447l5.284-1.115 1.672 7.926-5.284 1.114z"/></svg>