<?xml version="1.0" encoding="utf-8"?>
<!-- Generator: Adobe Illustrator 21.0.2, SVG Export Plug-In . SVG Version: 6.00 Build 0)  -->
<svg version="1.1" class="anim06" xmlns="http://www.w3.org/2000/svg" xmlns:xlink="http://www.w3.org/1999/xlink" x="0px" y="0px" viewBox="0 0 892 412" style="enable-background:new 0 0 892 412;" xml:space="preserve">
<style type="text/css">
	.anim06 .st0{fill:none;stroke:#1C3E58;stroke-width:3;stroke-linecap:round;stroke-linejoin:round;stroke-miterlimit:10;}
	.anim06 .st1{fill:#25CE9E;stroke:#1C3E58;stroke-width:3;stroke-linecap:round;stroke-linejoin:round;stroke-miterlimit:10;}
	.anim06 .st2{fill:none;stroke:#1C3E58;stroke-width:4;stroke-linecap:round;stroke-linejoin:round;stroke-miterlimit:10;}
	.anim06 .st3{fill:#4088DA;stroke:#1C3E58;stroke-width:3;stroke-linecap:round;stroke-linejoin:round;stroke-miterlimit:10;}
	.anim06 .st4{fill:#FABF62;stroke:#1C3E58;stroke-width:3;stroke-linecap:round;stroke-linejoin:round;stroke-miterlimit:10;}
	.anim06 .st5{fill:#4088DA;}
	.anim06 .st6{fill:#FABF62;}
	.anim06 .st7{fill:#F6F8FD;stroke:#1C3E58;stroke-width:3;stroke-linecap:round;stroke-linejoin:round;stroke-miterlimit:10;}
	.anim06 .st8{fill:#FEFFFE;stroke:#1C3E58;stroke-width:3;stroke-linecap:round;stroke-linejoin:round;stroke-miterlimit:10;}
	.anim06 .st9{fill:none;stroke:#1C3E58;stroke-width:2;stroke-linecap:round;stroke-linejoin:round;stroke-miterlimit:10;}
	.anim06 .st10{fill:none;stroke:#1C3E58;stroke-width:3;stroke-miterlimit:10;}
	.anim06 .st11{fill:#FFFFFF;stroke:#1C3E58;stroke-width:3;stroke-miterlimit:10;}
	.anim06 .st12{fill:#EBF0F6;}
	.anim06 .st13{fill:#20D2A1;}
	.anim06 .st14{fill:#FFFFFD;stroke:#1C3E58;stroke-width:3;stroke-linecap:round;stroke-linejoin:round;stroke-miterlimit:10;}
	.anim06 .st15{fill:none;}
	.anim06 .st16{fill:#231F20;}
	.anim06 .st17{fill:#FFFFFF;stroke:#1C3E58;stroke-width:3;stroke-linecap:round;stroke-linejoin:round;stroke-miterlimit:10;}
	.anim06 .st18{fill:none;stroke:#4088DA;stroke-width:8;stroke-miterlimit:10;}
</style>
<g id="bottom-left" data-bottom="opacity: 0" data-center="opacity: 1" style="opacity: 1;" class="skrollable skrollable-after">
	<path id="XMLID_43_" class="st0" d="M370.7,241.6c-4.1-2.6-10.6-6.2-19.4-8.1c-4.7-1-18-3.7-31.5,2.1c-16.1,6.9-28,23.7-29.3,42.6
		c-0.1,1.2-1.4,29,21.5,44.9c17.3,12,38.8,10.5,53.7,2.3c9.8-5.4,15.5-13,18.4-17.5"></path>
	<path id="XMLID_45_" class="st0" d="M372.5,231c-4.9-3-14.6-8-27.7-9.2c-4.1-0.4-16.8-1.3-30.2,4.7c-17.8,8.1-32.7,26.9-34.3,49.9
		c-2.2,31.7,22.2,50.8,23.9,52.1c23.3,17.6,49.8,10.7,53.2,9.7c19.1-5.3,29.8-18.4,33.3-23"></path>
	<path id="XMLID_44_" class="st0" d="M291.7,331c3.8,3.6,10,8.6,18.5,12.6c2.8,1.3,12.9,5.9,27,6.8c12.9,0.8,23.3-1.8,29.8-4"></path>
	<rect id="XMLID_46_" x="324.3" y="196.3" class="st1" width="31.2" height="19"></rect>
	<line id="XMLID_47_" class="st2" x1="331.8" y1="215.3" x2="331.8" y2="220.2"></line>
	<circle id="XMLID_417_" class="st3" cx="135.5" cy="195.2" r="5.3"></circle>
	<circle id="XMLID_480_" class="st4" cx="339.8" cy="281.8" r="8.5"></circle>
	<path id="XMLID_270_" class="st0" d="M176.2,158.8c-1.3-1-4.9-3.2-9.7-3.1c-2.2,0-3.9,0.6-5.2,1"></path>
	<path id="XMLID_271_" class="st0" d="M161.2,160c-0.1-2.3-0.6-6.2-2.8-10.4c-3.4-6.6-8.9-9.8-11.1-10.9c-0.5,1-1.2,2.5-2.1,4.3
		c-2,4-3.4,6-4.2,7.5c-1.3,2.5-2.6,6.4-1.9,12.6c-2.3,0.9-5.5,2.5-8.5,5.4c-7.4,7.1-7.9,16.6-8,19.1c0,0.7-0.1,1.7-0.5,2.9
		c-0.3,0.8-0.6,1.5-1.3,2.2c-1.2,1.1-2.9,1-3.5,1c0-1.2,0-2.5,0-3.7c-0.2-0.4-0.7-0.9-1.3-1.3c-1.2-0.8-3.2-1.2-4.8-0.3
		c-1,0.6-1.5,1.4-1.7,1.9c0,10.4,0,20.9,0,31.3c0.1,0.3,0.5,1.8,2,2.7c0.2,0.1,2.1,1.2,4,0.2c1.5-0.8,1.9-2.3,2-2.6
		c0.3-0.4,0.7-1,1.4-1.2c1.1-0.2,2.2,1.1,2.8,1.8c3,3.7,4.5,5.5,5.6,8c1.4,3.2,5.3,7,16.2,9.9"></path>
	<path id="XMLID_272_" class="st0" d="M146.3,235.7c-0.7,3.3-1.5,5.9-2.2,7.7c-1,2.6-1.6,3.7-1.4,5.5c0.4,2.5,2.5,4.1,3.1,4.6
		c3.7,2.8,8.4,1.9,9.3,1.7c6.7-1.4,9.7-7.8,10.1-8.6"></path>
	<path id="XMLID_402_" class="st5" d="M202.4,336.9c1.9-1.5,4.9-3.6,8.8-5.2c1.7-0.7,7.9-3.1,16.5-2.6c5.8,0.3,6.2,1.6,14.6,3.4
		c6.8,1.5,14.1,3,22.4,1.7c3.8-0.6,9.9-2.2,16.8-6.8c0.3,1.9,0.6,4.8,0.4,8.2c-0.2,2.5-1.1,15-11.4,23.5c-6.4,5.3-13.4,6.5-16.9,6.9
		c-10.3,0-20.6,0-30.9,0c-3.1-2.3-5.6-4.4-7.4-6.1c-5.5-5.1-9.6-9-11.6-15.1C202.5,341.7,202.3,338.9,202.4,336.9z"></path>
	<path id="XMLID_399_" class="st0" d="M251.1,264.1h-21.7c-2.9,0-5.2-2.4-5.2-5.2c0-2.9,2.4-5.2,5.2-5.2h21.7c2.9,0,5.2,2.4,5.2,5.2
		C256.3,261.7,254,264.1,251.1,264.1z"></path>
	<path id="XMLID_406_" class="st0" d="M206.4,283.4h-21.7c-2.9,0-5.2-2.4-5.2-5.2c0-2.9,2.4-5.2,5.2-5.2h21.7c2.9,0,5.2,2.4,5.2,5.2
		C211.7,281,209.3,283.4,206.4,283.4z"></path>
	<polyline id="XMLID_422_" class="st0" points="24.4,354.2 38.5,347.4 51.6,356 68.9,338.9 89.3,358.4 116,332 137.3,358.4
		156.2,328.5 	"></polyline>
	<path id="XMLID_408_" class="st6" d="M199.5,334.6c-10.6,0.1-21.3,0.1-31.9,0.2c-2.5,2.7-4.5,5.4-6.2,7.8
		c-3.4,4.9-5.1,7.4-5.2,10.7c0,0.9-0.1,5,2.9,8.1c2.5,2.5,5.6,3,6.6,3.1c17.6,0,35.2,0,52.8,0c-3.5-2.5-9.4-7.4-13.9-15.4
		C201.6,343.6,200.2,338.3,199.5,334.6z"></path>
	<path id="XMLID_400_" class="st0" d="M229.8,265.7c0,11,0,22.1,0,33.1c-3.4,0.7-11.9,3-19.1,10.5c-1.7,1.8-10.9,11.7-10.1,26.4
		c1.1,20,19.9,29.9,20.7,30.3c12.4,0,24.7,0,37.1,0c3-0.9,8.2-3,13.2-7.7c2.9-2.7,7.3-7.7,9.6-15.2c4-13.2-1.6-24.3-2.5-25.9
		c-8.1-15.4-24.9-18-26.6-18.2c0-11.7,0-23.3,0-35"></path>
	<path id="XMLID_401_" class="st0" d="M200.9,326.9c2.5-1.7,6.6-4.1,12-5.6c8.6-2.4,15.8-1.2,21.2-0.3c9.3,1.6,10.7,3.8,16.8,4.9
		c6.3,1.2,15.7,0.9,28.7-6.5"></path>
	<circle id="XMLID_404_" class="st7" cx="229" cy="346.1" r="5"></circle>
	<circle id="XMLID_405_" class="st7" cx="255.3" cy="347.4" r="6.6"></circle>
	<path id="XMLID_403_" class="st0" d="M186.9,285.8c0,7,0,14.1,0,21.1c-8.8,12.2-17.7,24.5-26.5,36.7c-0.8,1.3-1.9,3.3-2.8,5.9
		c-1,3.1-2,5.9-1.2,8.8c1.3,4.9,6.5,7.2,7.6,7.6c19.1,0,38.1,0,57.2,0"></path>
	<path id="XMLID_407_" class="st0" d="M203.4,285.1c0,7.1,0,14.2,0,21.3c1.3,1,2.7,2.1,4,3.1"></path>
	<line id="XMLID_409_" class="st0" x1="179.5" y1="328.5" x2="193.5" y2="328.5"></line>
	<circle id="XMLID_411_" class="st7" cx="193.5" cy="351.1" r="5"></circle>
	<circle id="XMLID_412_" class="st7" cx="176.5" cy="348.1" r="4.3"></circle>
	<circle id="XMLID_413_" class="st3" cx="38.5" cy="347.4" r="4.3"></circle>
	<circle id="XMLID_414_" class="st1" cx="68.9" cy="338.9" r="4.3"></circle>
	<circle id="XMLID_415_" class="st3" cx="116" cy="331.2" r="4.3"></circle>
	<circle id="XMLID_416_" class="st1" cx="156.2" cy="328.5" r="4.3"></circle>
	<circle id="XMLID_439_" class="st1" cx="78.9" cy="276.7" r="4.3"></circle>
	<path id="XMLID_410_" class="st0" d="M140,175.4c1.8,0.2,5.1,0.8,8.2,3.3c6.8,5.5,5.7,14.9,5.7,15.7"></path>
	<path id="XMLID_418_" class="st0" d="M148.8,148.9c1.1,1,2.3,2.3,3.5,4.2c1.7,2.8,2.4,5.5,2.7,7.2"></path>
	<path id="XMLID_443_" class="st0" d="M133.6,267.3c-0.7-0.5-2.8-2-5.7-1.9c-0.8,0-3.3,0.1-5.3,1.9c-0.5,0.5-2.6,2.4-2.2,4.7
		c0.4,2.3,3,3.4,4.2,3.9c2.2,0.9,2.8,0.3,5.3,1.2c1.7,0.6,4.1,1.4,5.1,3.5c1,2.2,0.2,5.2-1.6,6.9c-3.2,3-8.4,1-9.2,0.6
		c-1.7-0.7-2.9-1.6-3.6-2.3"></path>
	<line id="XMLID_442_" class="st0" x1="127.8" y1="260.3" x2="127.8" y2="293"></line>
	<path id="XMLID_424_" class="st0" d="M35.4,267.7c0-23.4,0-46.8,0-70.2c-0.1-0.4-1-4.8-4.6-6.4c-3.7-1.6-8.9,0.5-11.2,5.3
		c0.2-0.9,1-5.1,4.8-7.9c2.5-1.8,5.1-2.2,6.3-2.3c13.6,0,27.1,0,40.7,0c1.6-0.1,6.8-0.2,11.8,3.4c4.2,3,6,6.9,6.6,8.5
		c0,16.1,0,32.1,0,48.2"></path>
	<line id="XMLID_425_" class="st0" x1="19.5" y1="196.5" x2="34.7" y2="196.5"></line>
	<line id="XMLID_426_" class="st0" x1="42.1" y1="193.3" x2="71.4" y2="193.3"></line>
	<line id="XMLID_427_" class="st0" x1="42.1" y1="200.2" x2="78.9" y2="200.2"></line>
	<line id="XMLID_428_" class="st0" x1="42.1" y1="206.9" x2="78.9" y2="206.9"></line>
	<line id="XMLID_429_" class="st0" x1="42.1" y1="213.8" x2="66.2" y2="213.8"></line>
	<line id="XMLID_430_" class="st0" x1="42.1" y1="220.6" x2="57.9" y2="220.6"></line>
	<line id="XMLID_431_" class="st0" x1="42.1" y1="227" x2="78.9" y2="227"></line>
	<line id="XMLID_432_" class="st0" x1="42.1" y1="234.3" x2="78.9" y2="234.3"></line>
	<path id="XMLID_433_" class="st0" d="M20.7,213.9c0,30.2,0,60.3,0,90.5c0.2,2.5,0.9,7.7,4.5,12.8c6,8.5,15.4,10.1,17.3,10.4
		c14.3,0,28.7,0,43,0"></path>
	<path id="XMLID_434_" class="st0" d="M35.3,314c0-10.9,0-21.7,0-32.6"></path>
	<path id="XMLID_435_" class="st0" d="M51.6,267.6c0,15.3,0,30.5,0,45.8c37.3,0,74.6,0,111.9,0"></path>
	<path id="XMLID_436_" class="st0" d="M170.4,304.3c-36.8,0-73.7,0-110.5,0c0-18.4,0-36.9,0-55.3c21.8,0,43.7,0,65.5,0"></path>
	<path id="XMLID_437_" class="st0" d="M125.6,255.3c-15.6,0-31.2,0-46.8,0c0,0.9-0.1,3.7-2.1,6.2c-3.1,3.9-7.9,3.8-8.5,3.8
		c0,7.8,0,15.6,0,23.4c0.8-0.2,3.5-0.7,6.1,0.9c2.9,1.7,4.5,5.3,4,9c30.9,0,61.8,0,92.7,0"></path>
	<path id="XMLID_440_" class="st0" d="M120.3,259.3c-1.3-0.1-7.4-0.3-12.5,4.3c-4.1,3.7-5,8.4-5.3,9.9c-0.2,1.3-1.2,7.7,3,13.7
		c5,7,13,7.5,14,7.5"></path>
	<path id="XMLID_445_" class="st0" d="M134.2,259.3c1.3-0.1,7.4-0.3,12.5,4.3c4.1,3.7,5,8.4,5.3,9.9c0.2,1.3,1.2,7.7-3,13.7
		c-5,7-13,7.5-14,7.5"></path>
	<path id="XMLID_444_" class="st0" d="M99.7,268.1c-0.8-0.1-3.4-0.5-6,1c-1.6,1-2.5,2.2-2.9,2.9c0,3.4,0,6.8,0,10.2
		c0.5,0.7,1.3,1.7,2.5,2.6c2.5,1.7,5.1,1.7,6,1.7"></path>
	<path id="XMLID_447_" class="st0" d="M154,268.1c0.8-0.1,3.4-0.5,6,1c1.6,1,2.5,2.2,2.9,2.9c0,3.4,0,6.8,0,10.2
		c-0.5,0.7-1.3,1.7-2.5,2.6c-2.5,1.7-5.1,1.7-6,1.7"></path>
	<path id="XMLID_470_" class="st5" d="M63.6,130.4c19.6,0,39.3,0,58.9,0c0.1-1.9,0.1-6.9-3.1-11.6c-4.7-6.9-12.4-8-14.4-8.3
		c-10.4-1.5-18.1,5.2-19.2,6.2c-1.4-1.1-5-3.6-9.5-3.1C69.8,114.3,64,121.2,63.6,130.4z"></path>
	<path id="XMLID_469_" class="st0" d="M35.6,149.9c3.1-3.1,6.2-6.2,9.2-9.2c3,3,5.9,5.9,8.9,8.9"></path>
	<path id="XMLID_472_" class="st0" d="M61.4,172.2c3.1-3.1,6.2-6.2,9.2-9.2c3,3,5.9,5.9,8.9,8.9"></path>
	<line id="XMLID_473_" class="st0" x1="70.6" y1="162.9" x2="70.6" y2="184.9"></line>
	<line id="XMLID_471_" class="st0" x1="44.9" y1="140.7" x2="44.9" y2="186.3"></line>
	<line id="XMLID_479_" class="st0" x1="339.3" y1="264.1" x2="339.3" y2="242.6"></line>
	<path id="XMLID_482_" class="st0" d="M321.9,247.8c-2.4,1.2-5.4,3.1-8.3,5.9c-6,5.6-8.6,12-9.7,15.6"></path>
	<path id="XMLID_484_" class="st0" d="M302.1,281.4c0,1.7,0,3.5,0,5.2l0,0c0.6,1.3,1.2,2.5,1.7,3.8"></path>
	<line id="XMLID_48_" class="st0" x1="347.6" y1="215.3" x2="347.6" y2="221.6"></line>
	<line id="XMLID_481_" class="st0" x1="350.3" y1="293" x2="361.7" y2="304.3"></line>
</g>
<g id="center" data-bottom="transform:translateY(50%); opacity: 0" data-center="transform:translateY(0%); opacity: 1" style="transform: translateY(0%); opacity: 1;" class="skrollable skrollable-after">&gt;
	<path id="XMLID_11_" class="st4" d="M350.3,141.4c2.6-1.8,6.3-4.7,9.7-9c7.6-9.8,8.2-20.1,9.4-26.7c3.2-18.6,16-40.1,32.6-48.2
		c4.1-2,18.8-8.2,42.6,1.4c4.8-2.9,12.3-6.3,21.5-6.2c20.7,0.1,36.9,18.5,43.7,32.2c3.4,6.8,7,17.9,9.4,26.3
		c2.2,8,3.3,14.2,8.3,20.8c3.7,4.9,8,7.9,11.1,9.7c-3.6,4.4-8.9,10.3-16.3,16.3c-25.8,21.1-54.6,25.9-70,27
		c-10.7,0.8-36.3,2.2-64.1-12.1C368.8,163,356.7,149.7,350.3,141.4z"></path>
	<path id="XMLID_12_" class="st8" d="M415.3,109c0.1,8,0.2,16.1,0.3,24.1c0.6,2.4,1.7,5.6,4,9c0.6,0.8,9.3,13.5,23.9,13.3
		c11.7-0.1,22.6-8.5,26.7-20.8c0-11,0-21.9,0-32.9c-9.2-9.2-18.4-18.4-27.7-27.7C433.4,85.7,424.4,97.4,415.3,109z"></path>
	<path id="XMLID_14_" class="st8" d="M431.6,167.1c-3.8,3.5-7.2,6-9.5,7.6c-9.7,6.6-19.8,10.3-24.8,12.1c-5.1,1.8-5.5,1.6-7.3,2.8
		c-6.6,4.2-9.4,11.7-10.7,17.5c-0.1,20.7-0.2,41.5-0.3,62.2c0.1,1.7,0.6,4.2,2.1,6.6c3.6,5.7,10.7,7.3,13.5,7.5
		c13.8,0.7,30-28.4,37.1-52.2c4.6-15.3,5.6-29.1,17.3-47.3c2.4-3.7,4.6-6.6,6.1-8.5"></path>
	<path id="XMLID_15_" class="st8" d="M460.8,166.4c1.3,2.7,3.6,6.5,7.5,9.9c5.7,5,10.9,5.6,15.9,8c5.3,2.5,11.9,7.7,17.3,19.6
		c-0.2,12.7-0.3,25.4-0.5,38.1c-0.6,11.4-2,20.7-3.3,27.4c0,0-1.8,9.5-6.8,18.2c-0.6,1.1-1.6,2.7-3.3,4.2c0,0-2.2,2-5.2,3.1
		c-17.2,6.6-46.3,5.9-46.3,5.9c-14.7-0.4-25.9-0.7-31.5-0.9c-1.7,1-4.6,2.2-8.3,2.4c-8.1,0.4-13.7-4.6-14.9-5.7
		c0.5-5.9,1-11.8,1.6-17.7"></path>
	<path id="XMLID_25_" class="st0" d="M420.8,176.4c1.5,5.2,4.5,13,10.4,21.1c5.4,7.4,11.3,12.4,15.6,15.4c3.3-3.1,7-7.1,10.6-12
		c6.3-8.7,10-17.1,12.1-23.6"></path>
	<path id="XMLID_36_" class="st6" d="M487.3,106.4c-1.4,3.3-21.4-1.9-31-7.8c-4.5-2.7-8-6.2-8-6.2c-2.6-2.6-4.5-5.2-5.7-7.1
		c-0.5-0.3-1-0.7-1.6-1c-1.6,3.3-4.7,8.3-10,12.6c-7.7,6.2-19.6,10.3-22.2,7.1c-3.6-4.5,11.9-21.8,15.9-26.3
		c8-9,16.8-18.8,23.6-16.6c4.7,1.5,4.4,7.5,8.7,16.1C467.4,98,488.8,103,487.3,106.4z"></path>
	<path id="XMLID_13_" class="st8" d="M431,177.1c1.5-1.6,3.1-4,3.3-6.9c0.2-3.3-1.7-4-2.8-8.3c-1.4-5.8,1.5-6.6,0.2-13.3
		c-0.6-3-1.5-5-0.3-6.6c0.8-1.1,2.4-1.6,3.6-1.4c2.8,0.5,5.1,4.8,5.4,10.9c0.9-2,1.7-4,2.6-6.1c0.1-0.1,1.2-1.8,3.1-1.7
		c1.6,0,3,1.2,3.5,2.9c0.1-0.1,1.7-1.9,4.2-1.4c2.4,0.5,3.2,2.6,3.3,2.8c0.7-0.2,2.3-0.6,3.8,0.2c2,1,2.6,3.3,2.9,4.7
		c0.2,0.9,1.2,5.4-1.9,11.4c-2.5,4.8-4.9,5.4-11.1,13.3c-1.3,1.7-2.3,3.1-2.9,4c-5.6,17.2-10.8,31.3-14.9,41.8
		c-1.1,2.7-4.8,12.3-10.6,24.4c-0.9,1.9-6.6,13.6-16.8,26.5c-4.6,5.8-7.3,8.3-11.1,8.7c-5.1,0.5-10.9-2.8-13.2-7.6
		c-1-2.2-1.1-4.3-1-5c0.2-14.8,13.3-34.8,13.3-34.8s2.7-4.1,22.7-34.8C422.7,190.9,427.7,182.6,431,177.1z"></path>
	<path id="XMLID_16_" class="st0" d="M476.4,206.8c-1.7,7.7-3.2,16.8-3.8,26.9c-0.9,14.3,0.1,26.8,1.6,36.9
		c-10.5,0.7-21.9,1.9-34,3.8c-12.6,2-24.1,4.4-34.7,7.1c-0.1-0.5-0.4-1.6-1.4-2.6c-0.5-0.5-1-0.7-1.4-0.9"></path>
	<path id="XMLID_21_" class="st0" d="M468.3,250.3c-4.4,2.9-7.8,3.2-9.9,3.1c-2.7-0.2-5.1-1.2-10-3.3s-5.4-2.8-7.5-2.8
		c-1.1,0-3.4,1-7.8,2.9c-3.5,1.5-4.4,2-6.1,2.3c-2.3,0.4-4.4,0-5.7-0.3"></path>
	<path id="XMLID_22_" class="st0" d="M419.6,231.2c-3,5.8-6.4,11.9-10,18c-4.7,8-9.5,15.4-14.2,22.2"></path>
	<path id="XMLID_23_" class="st0" d="M422.4,226.5c0.5-0.9,1-1.7,1.6-2.6"></path>
	<path id="XMLID_24_" class="st0" d="M405,199c0.7,9.1,1.1,13.7,1.2,13.7s0.1-1.7,0-5"></path>
	<path id="XMLID_27_" class="st0" d="M491.2,204c0.9,5.9,1.6,12.6,1.7,19.8c0.4,14.9-1.5,27.8-3.8,38.1"></path>
	<path id="XMLID_28_" class="st0" d="M487.1,267.8c-0.3,1-0.6,2-0.9,2.9"></path>
	<path id="XMLID_29_" class="st0" d="M426.8,60.5c-4.3,0.5-11.2,1.9-18.5,6c-11.1,6.3-16.7,15.3-19,19.5"></path>
	<path id="XMLID_30_" class="st0" d="M474.9,70.1c9.6,5.1,15,11.5,17.7,15.3c5.5,7.8,7.9,16.3,8.6,19c1.9,7,1.4,9.9,3.9,15.6
		s6.1,9.6,8.6,12"></path>
	<path id="XMLID_31_" class="st0" d="M511,153.1c-3.4,2.9-7.6,6.1-12.7,9.1c-7.8,4.5-15.1,7.1-20.8,8.6"></path>
	<path id="XMLID_32_" class="st0" d="M362.1,141.6c3.8,3.6,8.4,7.4,14,11.2c9.3,6.2,18.2,9.9,25.2,12.2"></path>
	<path id="XMLID_33_" class="st0" d="M409.9,166.8c1.6,0.3,3.3,0.5,4.9,0.8"></path>
	<path id="XMLID_34_" class="st0" d="M447.6,66.8c-3.2,16.2-9.9,24.5-15.3,29.1c-8.5,7.1-17.3,8-23.7,17.7c-3.9,6-4.9,12.2-5.2,16.4
		"></path>
	<path id="XMLID_35_" class="st0" d="M484.7,107.6c-5.3-0.1-17.6-1-29.6-9.4c-6.6-4.6-10.9-9.9-13.5-13.8"></path>
	<path id="XMLID_37_" class="st4" d="M432.3,176.4c1.9,1.3,4.3,2.7,7.2,4c2.7,1.2,5.1,2,7.3,2.6"></path>
	<path id="XMLID_39_" class="st4" d="M424.4,190c2.4,1.6,5.3,3.3,8.8,4.9c3.2,1.5,6.3,2.5,8.9,3.2"></path>
	<path id="XMLID_38_" class="st8" d="M386.2,369.3c-0.3-5.2-0.1-12.8,2.3-21.3c2.1-7.3,4.7-11.4,7.5-17.2c3.3-6.8,7.2-16.8,9.4-30.4
		"></path>
	<path id="XMLID_41_" class="st8" d="M495.8,366.8c0.3-5.2,0.1-12.8-2.3-21.3c-2.1-7.3-4.7-11.4-7.5-17.2
		c-3.3-6.8-7.2-16.8-9.4-30.4"></path>
	<path id="XMLID_40_" class="st8" d="M403.1,318.2c9,2.6,20.6,5.1,34.1,5.9c17.8,1.1,32.9-1.1,43.8-3.6"></path>
	<path id="XMLID_42_" class="st0" d="M394.5,341.2c10.3,3.7,19.1,5.6,25.3,6.8c13.3,2.4,32.9,5.7,54.9-1.2c6-1.9,10.7-4,13.7-5.5"></path>
	<line id="XMLID_1_" class="st0" x1="407.5" y1="326.3" x2="405" y2="337.6"></line>
	<line id="XMLID_4_" class="st0" x1="418.3" y1="327.3" x2="416.9" y2="341.4"></line>
	<line id="XMLID_5_" class="st0" x1="428.8" y1="329" x2="428.5" y2="342.5"></line>
	<line id="XMLID_10_" class="st0" x1="442.1" y1="329" x2="442.1" y2="344.7"></line>
	<line id="XMLID_17_" class="st0" x1="453.2" y1="329" x2="455.7" y2="344.7"></line>
	<line id="XMLID_18_" class="st0" x1="465.8" y1="329" x2="468.8" y2="340.8"></line>
	<line id="XMLID_20_" class="st0" x1="476.6" y1="327.3" x2="480.7" y2="338.9"></line>
</g>
<g id="top-right" data-bottom="opacity: 0" data-center="opacity: 1" style="opacity: 1;" class="skrollable skrollable-after">
	<path id="XMLID_206_" class="st0" d="M511,71.4c2.1-4.6,6.8-7.5,11.7-7.3c5.4,0.3,10.1,4.4,11.2,9.9c2.5-1.8,7.1-4.7,13.5-6
		c4.2-0.8,11.5-2.2,18.2,2.1c7.3,4.6,9,12.7,9.4,14.6"></path>
	<path id="XMLID_208_" class="st0" d="M581.7,87.3c0.4-0.5,4.8-5.4,11.4-4.7c5.4,0.6,9.9,4.6,11.4,10.1c1.9,0.1,4.8,0.4,8.1,1.3
		c3.9,1.1,7.6,2.1,10.1,4.9c4.6,5.1,2.7,13.2,2.3,14.6"></path>
	<path id="XMLID_209_" class="st0" d="M630.3,118.2c1.3,0.2,5.9,1.1,9.1,5.2c3.4,4.2,3.9,10.3,1.6,15.6c2.2,0.9,5,2.4,7.5,5.2
		c6.2,6.9,5.1,15.7,4.9,16.9c-0.3,2.3-1,4.2-1.6,5.5c1.2,0.8,2.9,2.2,4.2,4.4c2.6,4.7,2.1,11.2-1.6,15.3c-1.7,1.9-3.7,2.9-4.9,3.4"></path>
	<circle id="XMLID_220_" class="st0" cx="523" cy="188.9" r="9.4"></circle>
	<circle id="XMLID_221_" class="st0" cx="618.1" cy="175.9" r="16.1"></circle>
	<circle id="XMLID_222_" class="st0" cx="645.8" cy="94.2" r="9.5"></circle>
	<circle id="XMLID_249_" class="st0" cx="547.1" cy="94.2" r="9.5"></circle>
	<circle id="XMLID_223_" class="st0" cx="659.6" cy="114.8" r="4.4"></circle>
	<path id="XMLID_231_" class="st0" d="M590.1,104.5c1.6-0.3,13.4-1.9,23,6.6c11.1,9.8,9.2,24.2,9,25.3"></path>
	<path id="XMLID_232_" class="st0" d="M580.4,188.9h-24.1c-0.7,0-1.3-0.6-1.3-1.3v-2.9c0-0.7,0.6-1.3,1.3-1.3h24.1
		c0.7,0,1.3,0.6,1.3,1.3v2.9C581.7,188.3,581.1,188.9,580.4,188.9z"></path>
	<path id="XMLID_234_" class="st0" d="M578.5,194.5h-20.4c-0.7,0-1.3-0.6-1.3-1.3v-2.9c0-0.7,0.6-1.3,1.3-1.3h20.4
		c0.7,0,1.3,0.6,1.3,1.3v2.9C579.8,193.9,579.2,194.5,578.5,194.5z"></path>
	<path id="XMLID_233_" class="st4" d="M558.3,183.7c0-2.3,0-4.5,0-6.8c-0.3-1.1-0.8-2.8-1.9-4.5c-1.4-2.5-2.9-3.6-4.2-5.2
		c0,0-2.8-3.3-4.4-8.4c-1.9-6.3-0.1-15.6,6.5-21.2c5.5-4.6,11.9-4.6,13.8-4.6c2.5,0,9.3,0.5,14.8,5.8c7,6.8,7.5,17.1,5.3,22.2
		c-1.5,3.6-3.6,6.2-3.6,6.2c-1.2,1.4-2,2.1-3.1,3.7c-1.4,2-2.2,3.8-2.6,5c0,2.5,0,5,0,7.5C572.1,183.5,565.2,183.6,558.3,183.7z"></path>
	<path id="XMLID_236_" class="st9" d="M565.5,182.3c0-6.7,0-13.3,0-20c0.1-0.3,0.7-3.8-1.5-5.5c-0.2-0.1-1.8-1.4-3-0.7
		c-1.2,0.6-1.1,2.4-1.1,2.7c0.1,2.3,2.2,3.7,2.6,4c1.9,1.3,3.8,1.3,6.2,1.2c2.7,0,4.9-0.1,6.5-1.7c0.1-0.1,2-2,1.6-4.3
		c0-0.3-0.3-1.7-1.3-2.2c-1.1-0.5-2.3,0.3-2.5,0.5c-2.3,1.6-1.9,5.5-1.9,5.8c0,6.7,0,13.3,0,20"></path>
	<line id="XMLID_237_" class="st9" x1="569.7" y1="127.9" x2="569.7" y2="118.2"></line>
	<line id="XMLID_238_" class="st9" x1="582.6" y1="131.6" x2="587.8" y2="123.8"></line>
	<line id="XMLID_239_" class="st9" x1="555.4" y1="131.9" x2="550.2" y2="123.8"></line>
	<line id="XMLID_240_" class="st9" x1="545.7" y1="142.5" x2="537.9" y2="136.9"></line>
	<line id="XMLID_241_" class="st9" x1="593.8" y1="141.4" x2="601.5" y2="136.9"></line>
	<line id="XMLID_242_" class="st9" x1="595.8" y1="155.7" x2="606.2" y2="155.7"></line>
	<line id="XMLID_243_" class="st9" x1="542.7" y1="155.7" x2="533.3" y2="155.7"></line>
	<line id="XMLID_244_" class="st9" x1="618.1" y1="175.9" x2="611" y2="188.9"></line>
	<line id="XMLID_245_" class="st9" x1="618.1" y1="175.9" x2="625.3" y2="189.7"></line>
	<line id="XMLID_246_" class="st9" x1="618.1" y1="175.9" x2="634" y2="173.6"></line>
	<line id="XMLID_247_" class="st9" x1="618.1" y1="175.9" x2="610.3" y2="162.6"></line>
	<path id="XMLID_248_" class="st0" d="M553.7,80.5c1.6-0.2,5.5-0.3,9.4,2.1c4.7,2.9,7.3,8.5,6.9,14.6"></path>
	<circle id="XMLID_460_" class="st10" cx="815.7" cy="187.9" r="59.4"></circle>
	<path id="XMLID_214_" class="st0" d="M580.9,228.2c1.7,1.3,6.5,4.5,13.3,4.4c10.6-0.1,16.9-8.3,17.7-9.4c1.6,0.4,3.8,0.7,6.2,0.3
		c8-1.6,11.4-10.1,11.7-10.9"></path>
	<path id="XMLID_215_" class="st0" d="M571,240.1c-0.1,1.7-0.6,6.7-4.4,10.1c-5.1,4.7-14.1,4.9-21.6-0.3c-1,1.8-2.7,4.4-5.7,6.8
		c-5.8,4.5-12.1,4.7-14.6,4.7c-10.2,0.1-17.1-5.9-19-7.5"></path>
	<path id="XMLID_216_" class="st0" d="M511.8,244.5c0.3,0.4,4.9,7.1,13,6.8c6.4-0.2,10.3-4.7,10.9-5.5"></path>
	<path id="XMLID_217_" class="st0" d="M511.8,229.7c4.9-6,9.7-12,14.6-17.9c3,6.8,6.1,13.5,9.1,20.3c6.5-5.9,13-11.8,19.5-17.7"></path>
	<path id="XMLID_219_" class="st0" d="M579.4,215.9c0.8,0.7,6.6,5.6,14.6,4.4c6.4-0.9,11.9-5.4,14.3-11.7"></path>
	<circle id="XMLID_467_" class="st0" cx="869.6" cy="132.8" r="4.4"></circle>
	<circle id="XMLID_224_" class="st0" cx="736.3" cy="98.5" r="6.8"></circle>
	<circle id="XMLID_468_" class="st0" cx="844.8" cy="113.5" r="11"></circle>
	<path id="XMLID_464_" class="st0" d="M831.5,132.4c0.2,0.3,0.4,0.9,0.4,1.6c0,0.6,0.1,1.4-0.3,1.8c-0.7,0.7-2.2-0.6-4.5-0.5
		c-0.2,0-3.3,0.1-4.3,2c-1,1.8,0.8,3.5-0.2,5.1c-1,1.8-4.2,1.6-4.6,1.6c-4.6-0.3-7.2-5.4-7.5-5.9c-2.5,1-4.6,1.9-6.2,2.6
		c-4.8,2.1-6,2.8-6.8,4.3c-0.1,0.2-0.9,1.9-0.4,3.8c0.8,3.2,4.3,4.5,5.1,4.8c2.7,1,5.2,0.3,6.2,0c-0.1,0.9-0.3,2.3-1,3.7
		c-1.2,2.5-3.8,5.4-7.1,5.9c-2.5,0.4-3.5-0.8-5,0.2c-1.7,1.1-2.2,3.8-2.3,4.3c-0.2,1.4,0,2.1-0.6,3.5c-0.5,1-1.1,1.5-1.3,1.8
		c-0.9,1.1-0.2,4.2,6.2,12.7c0.8-1.1,5.4-7.1,12.7-7.4c3.3-0.1,5.9,1,7.5,1.6c1.6,0.7,7.1,3.1,9.8,9.2c2.2,4.9,1.4,9.4,1,11.1
		c0.9,1.1,2.5,2.6,4.7,3.5c3,1.2,5.4,0.7,5.7,1.7c0.5,1.4-3.6,2.7-3.6,5.4c0,2,2.3,2.1,3.6,4.9c0.8,1.9,0,2.5,0,8.8
		c0,3.8,0.3,4.8,0.7,5.5c1.1,2,3,3.1,4.2,3.6c-1.2,0.3-3.6,0.8-6.2-0.1c-3.6-1.2-5.6-4.1-6.1-4.9c-2.1-3.3-1.3-5.5-3.3-6.6
		c-1.8-1-4.3-0.1-4.7,0c-1.6,0.6-2.1,1.5-3.8,2c-1.3,0.3-2.4,0.2-3.2,0.1c0-0.6,0-2.1-1-3.6c-0.3-0.4-1.5-2-3.3-2.1
		c-1.1,0-1.9,0.5-2.9,1.2c-2.5,1.8-2.5,3.3-4.2,3.8c-1.3,0.4-2.9-0.1-3.9-1c-2.1-1.9-0.4-4.7-2.7-6.9c-0.7-0.6-1.8-1.3-3-1.6
		c-1-0.2-1.6,0-3.1-0.2c-1.1-0.1-2-0.3-2.6-0.5"></path>
	<path id="XMLID_465_" class="st0" d="M857.1,147.1c-1.2-0.1-4.8-0.4-8.2,1.9c-1.1,0.8-3.8,2.6-4,5.3c-0.3,3.6,3.9,7.4,7.9,8.6
		c4.4,1.3,7-0.9,9.6,1.3c1.6,1.3,2.3,3.5,2.6,4.5c0.8,2.5,0.6,3.6,1,5.1c0.6,1.9,2.3,4.3,7.9,6.2"></path>
	<path id="XMLID_218_" class="st0" d="M545,214.6c3.7-0.7,7.5-1.4,11.2-2.1c-0.6,3.8-1.2,7.6-1.8,11.4"></path>
	<path id="XMLID_235_" class="st0" d="M576.5,200h-16.3c-0.7,0-1.3-0.6-1.3-1.3v-2.9c0-0.7,0.6-1.3,1.3-1.3h16.3
		c0.7,0,1.3,0.6,1.3,1.3v2.9C577.8,199.4,577.2,200,576.5,200z"></path>
</g>
<g id="bottom-right" data-bottom="opacity: 0" data-center="opacity: 1" style="opacity: 1;" class="skrollable skrollable-after">
	<path id="XMLID_49_" class="st0" d="M520.1,364.6c0-25.4,0-50.8,0-76.2c0-1.2-0.1-6,3.5-10.4c3.7-4.5,8.6-5.4,9.7-5.5
		c38.1,0,76.2,0,114.4,0c1.6,0.2,4.8,0.8,8,3.1c4.5,3.3,5.9,7.9,6.2,9.4c0,26.9,0,53.9,0,80.8"></path>
	<path id="XMLID_50_" class="st0" d="M534.8,367c0-20,0-40.1,0-60.1c0-1.1,0.1-4.2,2.4-7.3c2.1-2.7,4.7-3.8,5.7-4.2
		c31.7,0,63.3,0,95,0c1.2,0.2,3.5,0.7,5.7,2.4c3.6,2.7,4.6,6.5,4.9,7.6c0,20.2,0,40.5,0,60.7"></path>
	<path id="XMLID_51_" class="st0" d="M541.2,309.9c2.6,2.5,5.2,5.1,7.8,7.6c4.3-4.6,8.5-9.2,12.8-13.9"></path>
	<path id="XMLID_53_" class="st0" d="M541.2,332.5c2.6,2.5,5.2,5.1,7.8,7.6c4.3-4.6,8.5-9.2,12.8-13.9"></path>
	<path id="XMLID_54_" class="st0" d="M541.2,355.2c2.6,2.5,5.2,5.1,7.8,7.6c4.3-4.6,8.5-9.2,12.8-13.9"></path>
	<line id="XMLID_52_" class="st0" x1="574.3" y1="309.7" x2="626.3" y2="309.7"></line>
	<line id="XMLID_55_" class="st0" x1="574.3" y1="315.6" x2="626.3" y2="315.6"></line>
	<line id="XMLID_58_" class="st0" x1="574.3" y1="331.3" x2="626.3" y2="331.3"></line>
	<line id="XMLID_57_" class="st0" x1="574.3" y1="337.2" x2="626.3" y2="337.2"></line>
	<line id="XMLID_59_" class="st0" x1="574.3" y1="354" x2="626.3" y2="354"></line>
	<path id="XMLID_56_" class="st0" d="M512.6,285.6c0,15.6,0,31.2,0,46.8"></path>
	<path id="XMLID_60_" class="st0" d="M512.6,337.6c0,1.3,0,2.5,0,3.8"></path>
	<path id="XMLID_250_" class="st11" d="M661.5,156.4c39.5,0,79,0,118.5,0c1,0.2,3.8,1,6,3.6c2.8,3.3,2.7,7.2,2.6,8.1
		c0,39,0,78,0,117c-41.4,0-82.8,0-124.2,0"></path>
	<rect id="XMLID_210_" x="636.3" y="199.6" class="st0" width="12.2" height="55.1"></rect>
	<rect id="XMLID_211_" x="661.8" y="175.4" class="st1" width="12.6" height="79.3"></rect>
	<rect id="XMLID_212_" x="609" y="234.3" class="st1" width="12.2" height="20.3"></rect>
	<rect id="XMLID_213_" x="585.3" y="241.4" class="st0" width="11.2" height="13.3"></rect>
	<circle id="XMLID_461_" class="st9" cx="752.9" cy="278.5" r="2.5"></circle>
	<circle id="XMLID_462_" class="st9" cx="764.9" cy="278.5" r="2.5"></circle>
	<circle id="XMLID_463_" class="st9" cx="777" cy="278.5" r="2.5"></circle>
	<path id="XMLID_251_" class="st0" d="M662.5,272.1c39,0,78,0,117,0c0-33.3,0-66.6,0-99.8c-0.1-0.8-0.5-2.5-1.8-4.1
		s-2.9-2.3-3.6-2.6c-37.3,0-74.7,0-112,0"></path>
	<line id="XMLID_252_" class="st0" x1="679.2" y1="177" x2="762.5" y2="177"></line>
	<line id="XMLID_253_" class="st0" x1="679.2" y1="185.9" x2="733.1" y2="185.9"></line>
	<line id="XMLID_254_" class="st0" x1="679.2" y1="195" x2="733.1" y2="195"></line>
	<line id="XMLID_255_" class="st0" x1="679.2" y1="203.7" x2="762.5" y2="204.3"></line>
	<line id="XMLID_256_" class="st0" x1="683.7" y1="237.6" x2="701" y2="237.6"></line>
	<line id="XMLID_257_" class="st0" x1="683.7" y1="245.1" x2="701" y2="245.1"></line>
	<line id="XMLID_258_" class="st0" x1="683.7" y1="253.2" x2="701" y2="253.2"></line>
	<line id="XMLID_262_" class="st0" x1="715.8" y1="237.6" x2="733.1" y2="237.6"></line>
	<line id="XMLID_261_" class="st0" x1="715.8" y1="245.1" x2="733.1" y2="245.1"></line>
	<line id="XMLID_260_" class="st0" x1="715.8" y1="253.2" x2="733.1" y2="253.2"></line>
	<line id="XMLID_265_" class="st0" x1="745.1" y1="237.6" x2="762.5" y2="237.6"></line>
	<line id="XMLID_264_" class="st0" x1="745.1" y1="245.1" x2="762.5" y2="245.1"></line>
	<line id="XMLID_263_" class="st0" x1="745.1" y1="253.2" x2="762.5" y2="253.2"></line>
	<path id="XMLID_259_" class="st12" d="M700.2,231.7h-15.8c-0.4,0-0.8-0.3-0.8-0.8v-16c0-0.4,0.3-0.8,0.8-0.8h15.8
		c0.4,0,0.8,0.3,0.8,0.8v16C701,231.4,700.7,231.7,700.2,231.7z"></path>
	<path id="XMLID_267_" class="st6" d="M732.3,231.7h-15.8c-0.4,0-0.8-0.3-0.8-0.8v-16c0-0.4,0.3-0.8,0.8-0.8h15.8
		c0.4,0,0.8,0.3,0.8,0.8v16C733.1,231.4,732.8,231.7,732.3,231.7z"></path>
	<path id="XMLID_268_" class="st13" d="M761.7,231.7h-15.8c-0.4,0-0.8-0.3-0.8-0.8v-16c0-0.4,0.3-0.8,0.8-0.8h15.8
		c0.4,0,0.8,0.3,0.8,0.8v16C762.5,231.4,762.1,231.7,761.7,231.7z"></path>
	<rect id="XMLID_457_" x="754.4" y="297.6" class="st6" width="62.9" height="11"></rect>
	<rect id="XMLID_448_" x="661.5" y="308.6" class="st0" width="156.6" height="6.9"></rect>
	<line id="XMLID_449_" class="st0" x1="671.7" y1="323.9" x2="754.4" y2="323.9"></line>
	<line id="XMLID_450_" class="st0" x1="801.4" y1="346.7" x2="664.8" y2="346.7"></line>
	<line id="XMLID_451_" class="st0" x1="798.4" y1="315.6" x2="798.4" y2="367"></line>
	<line id="XMLID_452_" class="st0" x1="808.9" y1="315.6" x2="808.9" y2="367"></line>
	<line id="XMLID_453_" class="st0" x1="671" y1="307.3" x2="671" y2="300"></line>
	<line id="XMLID_454_" class="st0" x1="671" y1="300" x2="730.1" y2="300"></line>
	<line id="XMLID_455_" class="st0" x1="730.1" y1="300" x2="730.1" y2="307.3"></line>
	<path id="XMLID_456_" class="st0" d="M693.4,286.3c0.1,1.3,0.1,3.6-0.9,6.2c-1.3,3.4-3.4,5.4-4.5,6.2"></path>
	<path id="XMLID_458_" class="st0" d="M708.5,286.3c-0.1,1.3-0.1,3.6,0.9,6.2c1.3,3.4,3.4,5.4,4.5,6.2"></path>
	<path id="XMLID_459_" class="st4" d="M558.6,273.4c0,2.7,0,5.5,0,8.2c-0.1,0.5-0.4,3.1,1.4,5.5c1.3,1.6,3,2.2,3.6,2.3
		c18.2,0,36.3,0,54.5,0c0.7-0.1,2.8-0.5,4.4-2.3c2.3-2.6,1.9-5.8,1.8-6.2c0-2.6,0-5.1,0-7.7"></path>
	<path id="XMLID_466_" class="st5" d="M761.1,116.1c19.6,0,39.3,0,58.9,0c0.1-1.9,0.1-6.9-3.1-11.6c-4.7-6.9-12.4-8-14.4-8.3
		c-10.4-1.5-18.1,5.2-19.2,6.2c-1.4-1.1-5-3.6-9.5-3.1C767.3,100.1,761.6,106.9,761.1,116.1z"></path>
	<path id="XMLID_477_" class="st3" d="M881.5,268.5c-19.9,0-40,0-60,0c0,7,0,18,0,18c2,0,11,0,11,0c0.9,1,3-0.1,4.6,1.8
		c2.4,2.7,2.3,6.8,1.1,9.6c-1.2,2.7-3.3,4.6-4.3,4.6c-3.5,0-12.4,0-12.4,0c0,6,0,19,0,19c9,0,26,0,26,0c0,4,0,9.8,0,9.8
		c0,0.8,1.9,2.4,3.4,3.8c0.5,0.5,2.5,2.7,5.5,2.4c2.9-0.3,5.1-2.8,6.1-6.4c0-3.7,0-9.6,0-9.6c6,0,13,0,19,0
		C881.5,303.5,881.5,286.5,881.5,268.5z"></path>
	<circle id="XMLID_475_" class="st14" cx="874.8" cy="346" r="5.2"></circle>
	<rect id="XMLID_95_" x="817.5" y="304.1" class="st15" width="45" height="36.8"></rect>
	<rect id="XMLID_93_" x="837.1" y="331.3" class="st16" width="4.5" height="6.8"></rect>
	<rect id="XMLID_92_" x="837.1" y="319.1" class="st16" width="4.5" height="6.8"></rect>
	<rect id="XMLID_91_" x="837.1" y="306.9" class="st16" width="4.5" height="6.8"></rect>
	<rect id="XMLID_88_" x="817.5" y="340.8" class="st15" width="45" height="36.8"></rect>
	<rect id="XMLID_86_" x="837.1" y="368.1" class="st16" width="4.5" height="6.8"></rect>
	<rect id="XMLID_85_" x="837.1" y="355.8" class="st16" width="4.5" height="6.8"></rect>
	<rect id="XMLID_84_" x="837.1" y="343.6" class="st16" width="4.5" height="6.8"></rect>
	<path id="XMLID_476_" class="st0" d="M690.8,154.6c0-4,0-8.1,0-12.1c-5.7,0-11.4,0-17.2,0c-0.4-0.2-0.9-0.7-1.1-1.4
		c0,0-0.3-1,0.5-2.4c1.6-2.7,32.2-32.3,35.2-35.2c0.7-0.5,2-1.3,3.4-1.2c0.4,0,1.3,0.2,2.3,1.1c2,1.7,16.1,16.2,35.2,36
		c0.6,1,0.7,2.1,0.2,2.8c-0.3,0.4-0.7,0.6-0.8,0.7c-0.6,0.3-1.1,0.3-1.4,0.3c-5.5,0-11,0-16.5,0c0,4.1,0,8.1,0,12.2"></path>
	<path id="XMLID_478_" class="st0" d="M704.1,116c-6,6.2-12,12.4-17.9,18.5"></path>
</g>
<g id="top-left" data-bottom="opacity: 0" data-center="opacity: 1" style="opacity: 1;" class="skrollable skrollable-after">
	<circle id="XMLID_446_" class="st6" cx="196.7" cy="145.5" r="20.5"></circle>
	<path id="XMLID_141_" class="st0" d="M343.5,139.9c-7.7,0-15.4,0-23,0c0,16.5,0,33,0,49.6c13.3,0,26.5,0,39.8,0
		c0-7.9,0-15.7,0-23.6"></path>
	<line id="XMLID_142_" class="st0" x1="326.2" y1="148.2" x2="346" y2="148.2"></line>
	<line id="XMLID_143_" class="st0" x1="326.2" y1="158.7" x2="352.4" y2="158.7"></line>
	<line id="XMLID_144_" class="st0" x1="326.2" y1="169.2" x2="352.4" y2="169.2"></line>
	<line id="XMLID_145_" class="st0" x1="326.2" y1="179.7" x2="352.4" y2="179.7"></line>
	<path id="XMLID_146_" class="st0" d="M370.9,73.8c-0.6-0.9-5.6-8.4-14.8-9.1c-7.6-0.6-14.9,3.6-18.7,10.7"></path>
	<path id="XMLID_147_" class="st0" d="M323.9,75.6c-1.2-1.2-8.1-7.6-18.5-7c-13.4,0.7-20.1,12.5-20.5,13.3c-2-0.9-7.6-3.1-14.3-1.6
		c-6.7,1.6-14.1,6.8-15.9,15.3c-1.6,8,2.7,14.3,3.6,15.6"></path>
	<path id="XMLID_195_" class="st17" d="M239.1,111.2c-1,0.1-6.8,0.9-10.1,5.7c-3.5,5.1-2.9,12.6,1.8,18.2c-1.9-0.1-7.6-0.3-13,3.4
		c-6.5,4.5-8,11.5-8.3,13.3c-2,9.7,3.4,20.4,13.3,27.6"></path>
	<path id="XMLID_196_" class="st0" d="M245.4,158.3c0.3,3,1.3,10,6.5,16.6c7,9,16.6,11.2,19.2,11.7"></path>
	<path id="XMLID_197_" class="st0" d="M295,195.2c0,1.5,0.3,5.7,3.4,9.6c4.4,5.7,11.1,6.2,12.2,6.2"></path>
	<path id="XMLID_198_" class="st0" d="M236.8,185.8c-0.7,1.6-2.6,6.9-0.3,12c3.1,6.7,12.6,10.5,22.6,7.5c-0.6,1.7-2,6.6,0,11.7
		c2.6,6.6,10,10.9,18.5,10.7"></path>
	<path id="XMLID_199_" class="st0" d="M229,149.4c-0.9,0.8-3.8,3.3-4.7,7.5c-1.3,6.4,2.9,11.2,3.4,11.7"></path>
	<path id="XMLID_200_" class="st0" d="M293.2,64.4c2.4-1.2,7.8-3.5,14.8-3.1c5.8,0.3,10.2,2.4,12.5,3.6"></path>
	<rect id="XMLID_201_" x="343.1" y="89.9" class="st3" width="4.5" height="33.8"></rect>
	<rect id="XMLID_203_" x="331.5" y="98.3" class="st0" width="4.5" height="25.3"></rect>
	<rect id="XMLID_204_" x="319.9" y="105.7" class="st3" width="4.5" height="17.9"></rect>
	<rect id="XMLID_205_" x="308.3" y="111" class="st0" width="4.5" height="12.7"></rect>
	<path id="XMLID_202_" class="st0" d="M286.2,103.1c-3.8,3.8-7.6,7.6-11.3,11.3c1.8,1.8,3.6,3.6,5.4,5.4c3.5-3.5,7-7,10.4-10.4
		c1.5,1.5,3.1,3.1,4.6,4.6c1.7-6.4,3.5-12.8,5.2-19.2c-6.4,1.4-12.8,2.8-19.2,4.2C282.9,100.4,284.5,101.8,286.2,103.1z"></path>
	<circle id="XMLID_225_" class="st0" cx="210.9" cy="106.9" r="9.7"></circle>
	<circle id="XMLID_226_" class="st0" cx="240.4" cy="91" r="5"></circle>
	<circle id="XMLID_227_" class="st0" cx="154.3" cy="113.9" r="9.7"></circle>
	<circle id="XMLID_228_" class="st0" cx="191.6" cy="201.7" r="10.1"></circle>
	<circle id="XMLID_229_" class="st0" cx="114.1" cy="152.5" r="8.8"></circle>
	<circle id="XMLID_230_" class="st0" cx="87.7" cy="150.6" r="5.3"></circle>
	<circle id="XMLID_266_" class="st18" cx="283.9" cy="153.4" r="21.5"></circle>
	<circle id="XMLID_269_" class="st0" cx="283.9" cy="153.4" r="8.5"></circle>
	<path id="XMLID_397_" class="st0" d="M190.9,217.2c-0.1,0.8-0.2,3.3,1.5,5.8c1.2,1.7,2.6,2.5,3.4,2.9c5.3,0,10.6,0,15.9,0
		c2.3,0.1,4.2,1.6,4.8,3.6c0.8,2.5-0.5,5.4-3.1,6.6c-12.4,0-24.8,0-37.3,0c-3.4-0.1-6,2.8-5.8,5.7c0.2,2.5,2.3,4.8,5.2,5
		c9.9,0,19.8,0,29.6,0c2.5,0.5,4.3,2.6,4.5,5c0.2,2.3-1.1,4.5-3.2,5.5c-6.7,0-13.4,0-20.1,0c-2.8,1-4.4,3.9-3.9,6.5
		c0.4,2.1,2.1,3.8,4.3,4.3c6,0,11.9,0,17.9,0"></path>
	<path id="XMLID_398_" class="st0" d="M236.9,206.3c0,6.5,0,12.9,0,19.4c0,0.1-0.4,1.2,0.3,2.2c0.5,0.8,1.6,1.2,2.6,1
		c4.2,0,8.3,0,12.5,0c1.1,0.2,2.1,1,2.4,2.1c0.4,1.4-0.3,2.9-1.7,3.6c-7.2,0-14.4,0-21.7,0c-2.1,1.1-3.3,3.2-3.3,5.5
		c0.1,2.5,1.7,4.7,4.1,5.5c7.7,0,15.3,0,23,0"></path>
	<path id="XMLID_419_" class="st0" d="M171.4,166.1c1.6,2.2,4.4,5.2,8.5,7.7c7.6,4.6,15.2,4.5,18.3,4.2"></path>
	<path id="XMLID_420_" class="st0" d="M204.3,177.6c0.8-0.1,1.5-0.1,2.3-0.2"></path>
	<path id="XMLID_421_" class="st0" d="M202.5,136.2c-0.7-0.5-2.8-2-5.7-1.9c-0.8,0-3.3,0.1-5.3,1.9c-0.5,0.5-2.6,2.4-2.2,4.7
		c0.4,2.3,3,3.4,4.2,3.9c2.2,0.9,2.8,0.3,5.3,1.2c1.7,0.6,4.1,1.4,5.1,3.5c1,2.2,0.2,5.2-1.6,6.9c-3.2,3-8.4,1-9.2,0.6
		c-1.7-0.7-2.9-1.6-3.6-2.3"></path>
	<line id="XMLID_423_" class="st0" x1="196.7" y1="129.1" x2="196.7" y2="161.9"></line>
</g>
</svg>