<?xml version="1.0" encoding="utf-8"?>
<!-- Generator: Adobe Illustrator 21.1.0, SVG Export Plug-In . SVG Version: 6.00 Build 0)  -->
<svg version="1.1" id="Layer_1" xmlns="http://www.w3.org/2000/svg" xmlns:xlink="http://www.w3.org/1999/xlink" x="0px" y="0px"
	 viewBox="0 0 690.8 639.8" style="enable-background:new 0 0 690.8 639.8;" xml:space="preserve">
<style type="text/css">
	.st0{fill:#353535;}
</style>
<g>
	<path class="st0" d="M28.1,161.3L5.6,144.8l4.2-9.6l27.4,5.3l-2.2,5.1l-4.9-1l-3.8,8.7l4.1,3L28.1,161.3z M11.5,142.7l10.7,7.7
		l3-6.8l-12.9-2.6L11.5,142.7z"/>
	<path class="st0" d="M38.6,137.6l-24-12.8l4.4-8.2l22.9,4.7L42,121l-19.8-10.5l2.6-4.9l24,12.8l-4.3,8l-23-4.5l-0.2,0.4l19.8,10.5
		L38.6,137.6z"/>
	<path class="st0" d="M50.4,115.7L30.7,95.9l5.6-8.8l26.2,9.4l-3,4.7l-4.7-1.7l-5.1,8l3.6,3.6L50.4,115.7z M36.9,94.8l9.4,9.3l4-6.3
		l-12.4-4.6L36.9,94.8z"/>
	<path class="st0" d="M73.6,81.5L64.5,94l-22-16l3.3-4.5l18,13.2l5.9-8L73.6,81.5z"/>
	<path class="st0" d="M80.4,73.2l-3.5,4.3l-8.5-6.9l-17.9-3.7l3.9-4.8l11.6,2.9l-5.3-10.7l3.9-4.8l7.3,16.7L80.4,73.2z"/>
	<path class="st0" d="M70,50.7l-3.5-3.3l12.2-13.2l3.5,3.3l4.7,19.8l0.5,0.5l7.7-8.3l3.5,3.3L86.4,65.9L83,62.6l-4.7-19.8l-0.5-0.5
		L70,50.7z"/>
	<path class="st0" d="M101.6,49.7L82.9,30l12.7-12.1l3.3,3.5l-8.7,8.3l4.4,4.6l7-6.7l3.3,3.4l-7,6.7l4.5,4.7l8.7-8.3l3.3,3.5
		L101.6,49.7z"/>
	<path class="st0" d="M539.3,25c-3.3-2.6-4.8-5.3-4.8-8.1c0.1-2.8,1.6-6.1,4.6-9.8s5.9-6,8.7-6.8c2.8-0.8,5.8,0.1,9,2.7
		c3.2,2.6,4.8,5.3,4.7,8.2c-0.1,2.9-1.7,6.2-4.7,10c-3.7,4.6-7.3,6.9-10.7,6.7l-0.7,6.3l-5.4-1.3l0.8-6.8
		C540.5,25.9,540,25.6,539.3,25z M540.2,16.9c-0.2,1.6,0.5,3,2.2,4.4c1.7,1.3,3.3,1.7,4.8,1.1c1.5-0.6,3.2-2.2,5.3-4.8
		c2.1-2.6,3.2-4.7,3.5-6.4c0.3-1.7-0.4-3.2-2.1-4.5c-1.7-1.3-3.3-1.7-4.8-1c-1.6,0.7-3.4,2.3-5.4,4.9
		C541.6,13.2,540.4,15.3,540.2,16.9z"/>
	<path class="st0" d="M561.7,31.4c-2.2,2.3-2.1,4.6,0.3,6.8c2.4,2.2,4.6,2.1,6.8-0.2l12.3-13.3l4,3.8l-12.3,13.2
		c-2.3,2.4-4.6,3.6-6.9,3.6c-2.3,0-4.8-1.2-7.3-3.6c-2.5-2.4-3.9-4.7-4.1-7c-0.2-2.3,0.8-4.7,3.1-7.1L570,14.3l4,3.8L561.7,31.4z"/>
	<path class="st0" d="M585.1,63.9c-2.8,0.3-5.6-1.1-8.4-4.1c-2.8-3-3.9-5.9-3.4-8.7c0.5-2.8,2.5-5.8,6.1-9s6.7-5,9.6-5.4
		c2.9-0.3,5.7,1,8.5,4.1c2.8,3,3.9,6,3.3,8.8c-0.6,2.8-2.6,5.9-6.1,9.1C591.1,61.9,587.9,63.6,585.1,63.9z M578.8,51.9
		c-0.5,1.5,0,3.1,1.5,4.7s3,2.2,4.5,1.8c1.6-0.4,3.6-1.7,6-3.9c2.4-2.2,3.9-4.1,4.5-5.7c0.6-1.6,0.1-3.2-1.3-4.8
		c-1.4-1.6-3-2.1-4.6-1.7c-1.6,0.4-3.7,1.8-6.1,4C580.8,48.4,579.3,50.3,578.8,51.9z"/>
	<path class="st0" d="M603.1,55l3.8-3.1l12.5,15.6l-3.8,3.1l-4.5-5.6l-17.4,14l-3.5-4.3l17.4-14L603.1,55z"/>
	<path class="st0" d="M600,87l22.3-15.6l10.1,14.4l-3.9,2.8l-6.9-9.9l-5.2,3.7l5.6,7.9L618,93l-5.6-7.9l-5.3,3.7l6.9,9.9l-3.9,2.8
		L600,87z"/>
	<path class="st0" d="M627.6,112.5l-7.9,4.5l-2.7-4.8l23.7-13.4l5.2,9.2c3.2,5.6,2.1,9.8-3.1,12.8c-3.1,1.7-6,1.9-8.8,0.4l-7.1,8.5
		l-3-5.3l6.4-7.2L627.6,112.5z M636.7,116.6c1,0.2,2.1-0.1,3.2-0.7c1.1-0.6,1.9-1.5,2.2-2.4c0.3-1,0.2-2-0.4-3.1l-2.5-4.4l-7.5,4.3
		l2.5,4.5C634.8,115.8,635.7,116.4,636.7,116.6z"/>
	<path class="st0" d="M628.7,133.5l24.5-11.7l7.6,15.9l-4.3,2.1l-5.2-10.9l-5.7,2.7l4.2,8.7l-4.3,2l-4.2-8.7l-5.9,2.8l5.2,10.9
		l-4.3,2.1L628.7,133.5z"/>
	<path class="st0" d="M641.1,162.4c-1.5-3.9-1.5-7-0.1-9.4c1.5-2.4,4.4-4.5,8.9-6.2c4.5-1.8,8.1-2.3,10.9-1.6c2.8,0.7,4.9,3,6.5,6.9
		c1.5,3.8,1.5,7-0.1,9.4c-1.6,2.4-4.6,4.5-9.1,6.3c-5.5,2.2-9.7,2.3-12.7,0.5l-3.8,5l-4-3.8l4.2-5.5
		C641.7,163.8,641.4,163.3,641.1,162.4z M645.9,155.8c-1,1.2-1.1,2.9-0.3,4.9c0.8,2,2,3.1,3.6,3.4c1.6,0.2,3.9-0.3,7-1.5
		s5.2-2.5,6.3-3.8c1.1-1.3,1.3-2.9,0.5-4.9c-0.8-2-2-3.1-3.7-3.3c-1.7-0.2-4.1,0.3-7.1,1.5C648.9,153.3,646.9,154.6,645.9,155.8z"/>
	<path class="st0" d="M657.2,179.1c-3,0.9-4.1,2.9-3.1,6c0.9,3.1,2.9,4.2,6,3.2l17.3-5.3l1.6,5.3l-17.2,5.3c-3.2,1-5.8,0.9-7.8-0.3
		s-3.5-3.4-4.5-6.8c-1-3.3-1-6,0-8.1c1-2.1,3.1-3.6,6.3-4.6l17.2-5.3l1.6,5.3L657.2,179.1z"/>
	<path class="st0" d="M654.2,201.4l26.5-6l3.9,17.2l-4.7,1.1l-2.7-11.8l-6.2,1.4l2.1,9.4l-4.6,1l-2.1-9.4l-6.4,1.4l2.7,11.8
		l-4.7,1.1L654.2,201.4z"/>
	<path class="st0" d="M682.8,227.2c-0.5-2.9-1.6-4.2-3.5-3.9c-0.8,0.1-1.4,0.6-1.8,1.4c-0.3,0.8-0.7,2.6-1.1,5.3s-1.1,4.7-2,6
		c-0.9,1.2-2.5,2-4.7,2.4c-2.8,0.4-5.1-0.1-6.8-1.5c-1.7-1.5-2.8-3.6-3.2-6.4c-0.3-2.1-0.4-4.6-0.3-7.7l0-1.5l4.3-0.1
		c0.1,3.6,0.3,6.3,0.6,8.2c0.4,2.8,1.8,4,4.1,3.6c0.8-0.1,1.4-0.6,1.8-1.3c0.4-0.7,0.7-2.1,0.9-4.1c0.4-3.2,1.1-5.5,2.1-7
		c1-1.4,2.6-2.3,4.7-2.7c2.7-0.4,4.8,0.1,6.4,1.5c1.6,1.4,2.6,3.6,3,6.4c0.3,1.9,0.4,4.5,0.4,7.6l0,1.5l-4.4,0.3
		C683.2,231.4,683,228.7,682.8,227.2z"/>
	<path class="st0" d="M684,239.1l4.9-0.5l1.9,19.9l-4.9,0.5l-0.7-7.2L663,254l-0.5-5.5l22.2-2.1L684,239.1z"/>
	<path class="st0" d="M636.4,415.5l24.6,11.6l-7.4,15.7l-4.3-2l5-10.7l-7.2-3.4l-4.1,8.8l-4.3-2l4.1-8.8l-8.7-4.1L636.4,415.5z"/>
	<path class="st0" d="M620.9,452.1c-1.1-2.6-0.7-5.7,1.3-9.3c2-3.6,4.4-5.6,7.2-6c2.8-0.4,6.3,0.6,10.5,2.9c4.2,2.3,6.9,4.8,8.1,7.4
		c1.2,2.6,0.8,5.7-1.2,9.3c-2,3.6-4.5,5.6-7.3,5.9s-6.4-0.7-10.6-3C624.7,457.2,622,454.7,620.9,452.1z M630.4,442.4
		c-1.6,0-2.9,0.9-4,2.8c-1.1,1.9-1.2,3.5-0.3,4.9s2.7,2.9,5.6,4.5c2.9,1.6,5.2,2.4,6.9,2.5c1.7,0,3.1-0.9,4.1-2.8
		c1-1.9,1.1-3.5,0.2-4.9c-0.9-1.4-2.8-2.9-5.7-4.5C634.2,443.2,632,442.4,630.4,442.4z"/>
	<path class="st0" d="M619.4,466.1l-7.6-5l3-4.6l22.7,15l-5.8,8.8c-3.5,5.3-7.8,6.4-12.8,3.1c-3-2-4.4-4.5-4.3-7.7l-10.8-2.5l3.3-5
		l9.3,2.4L619.4,466.1z M619.9,476.1c0.3,1,1,1.8,2.1,2.5c1.1,0.7,2.1,1,3.2,0.9c1-0.1,1.9-0.7,2.6-1.8l2.8-4.2l-7.2-4.8l-2.8,4.3
		C619.8,474.1,619.6,475.1,619.9,476.1z"/>
	<path class="st0" d="M624.1,492l-3.6,4.5l-19.6-11.5l-0.4,0.5l14.5,17.9l-4,5l-20.6-10.3l-0.4,0.5l15.4,16.7l-3.6,4.5l-17.9-21.1
		l5.2-6.5l18.8,9.6l-13.4-16.3l5.2-6.5L624.1,492z"/>
	<path class="st0" d="M580.3,502.7l15.4,23.3l-7.3,7.6l-23.9-14.4l3.8-4l4.3,2.6l6.6-6.9l-2.8-4.2L580.3,502.7z M589.4,525.9
		l-7.4-10.9l-5.2,5.4l11.2,7L589.4,525.9z"/>
	<path class="st0" d="M564.2,531.7l-6.1-6.8l4.1-3.7l18.2,20.2l-7.8,7.1c-4.8,4.3-9.1,4.2-13.1-0.2c-2.4-2.6-3.1-5.5-2.3-8.5
		l-9.8-5.1l4.5-4l8.5,4.7L564.2,531.7z M562.2,541.5c0.1,1,0.5,2,1.4,3c0.9,1,1.8,1.5,2.8,1.6c1,0.1,2-0.3,3-1.1l3.7-3.4l-5.8-6.4
		l-3.8,3.4C562.6,539.5,562.2,540.5,562.2,541.5z"/>
	<path class="st0" d="M536.8,543l7.2-5.6l16.7,21.5l-7.2,5.6c-1.9,1.4-3.5,2.4-5,3c-1.5,0.5-2.9,0.6-4.3,0.2
		c-1.4-0.4-2.6-1.1-3.8-2.1c-1.2-1-2.5-2.5-4-4.4c-1.5-1.9-2.6-3.6-3.4-5.1s-1.2-2.9-1.3-4.4c-0.1-1.5,0.2-2.9,1.1-4.3
		S534.9,544.4,536.8,543z M538.8,555.1c0.5,0.7,1.2,1.7,2.1,2.8c0.9,1.2,1.7,2.1,2.3,2.8c0.6,0.7,1.3,1.1,2.1,1.5s1.6,0.4,2.4,0.1
		c0.8-0.3,1.7-0.8,2.8-1.6l2.9-2.2l-10.8-13.9l-2.9,2.2c-1.6,1.2-2.4,2.5-2.5,3.9C537.1,551.8,537.7,553.2,538.8,555.1z"/>
	<path class="st0" d="M524.1,552.5l15.1,22.6l-14.6,9.8l-2.7-4l10-6.7l-3.5-5.3l-8.1,5.4l-2.6-3.9l8.1-5.4l-3.6-5.4l-10,6.7l-2.7-4
		L524.1,552.5z"/>
	<path class="st0" d="M505.7,575.1l-4.5-7.9l4.8-2.7l13.5,23.6l-9.2,5.2c-5.6,3.2-9.8,2.2-12.8-3c-1.8-3.1-1.9-6-0.4-8.8l-8.5-7.1
		l5.2-3l7.3,6.4L505.7,575.1z M501.7,584.2c-0.2,1,0.1,2.1,0.7,3.2s1.5,1.9,2.4,2.2s2,0.2,3.1-0.4l4.4-2.5l-4.3-7.5l-4.4,2.5
		C502.5,582.3,501.8,583.2,501.7,584.2z"/>
	<path class="st0" d="M475.7,590.7l-3.7-8.3l5-2.2l11,24.9l-9.6,4.3c-5.8,2.6-10,1.2-12.4-4.3c-1.4-3.2-1.3-6.2,0.5-8.8l-7.8-7.9
		l5.5-2.5l6.6,7L475.7,590.7z M470.8,599.3c-0.3,1-0.1,2.1,0.4,3.3c0.5,1.2,1.3,2,2.2,2.4c0.9,0.4,2,0.4,3.2-0.1l4.6-2l-3.5-7.9
		l-4.7,2.1C471.8,597.6,471,598.3,470.8,599.3z"/>
	<path class="st0" d="M454.7,589.8l9.3,25.6l-16.5,6l-1.6-4.5l11.4-4.1l-2.2-6l-9.1,3.3l-1.6-4.4l9.1-3.3l-2.2-6.1l-11.4,4.1
		l-1.6-4.5L454.7,589.8z"/>
	<path class="st0" d="M432.6,621.3c2.8-0.8,3.9-2.1,3.4-4c-0.2-0.8-0.8-1.3-1.6-1.6c-0.8-0.2-2.6-0.4-5.4-0.5
		c-2.8-0.1-4.8-0.5-6.2-1.2s-2.3-2.2-2.9-4.3c-0.8-2.7-0.6-5.1,0.7-6.9c1.3-1.9,3.2-3.2,5.9-4c2-0.6,4.5-1,7.6-1.2l1.5-0.1l0.7,4.3
		c-3.6,0.5-6.3,1.1-8.1,1.6c-2.7,0.8-3.7,2.3-3.1,4.6c0.2,0.8,0.7,1.4,1.5,1.6s2.2,0.4,4.2,0.4c3.2,0,5.6,0.4,7.2,1.2
		c1.6,0.8,2.6,2.3,3.2,4.3c0.8,2.6,0.5,4.8-0.7,6.5c-1.2,1.7-3.2,3-6,3.8c-1.9,0.5-4.4,1-7.4,1.3l-1.5,0.1l-0.8-4.3
		C428.5,622.3,431.1,621.7,432.6,621.3z"/>
	<path class="st0" d="M405.7,612.6l4.4-1l-1.7-7.7l5.4-1.2l5.8,26.6l-9.8,2.1c-6.3,1.4-10.1-1-11.5-7.2c-0.7-3.1-0.4-5.7,0.9-7.7
		C400.4,614.6,402.6,613.3,405.7,612.6z M411.1,616.3l-4.3,0.9c-2.7,0.6-3.7,2.5-2.9,5.9c0.4,1.6,0.9,2.7,1.7,3.3
		c0.8,0.6,1.9,0.7,3.3,0.4l4.3-0.9L411.1,616.3z"/>
	<path class="st0" d="M373,613c1.4-2.5,4.1-4,8.2-4.6c4.1-0.6,7.1,0.1,9.1,2.1c2,2,3.3,5.4,4,10.1c0.7,4.8,0.3,8.4-1,11
		c-1.4,2.5-4.1,4.1-8.2,4.7c-4.1,0.6-7.1-0.2-9.1-2.2c-2-2.1-3.3-5.5-4-10.2C371.2,619.1,371.6,615.5,373,613z M386.5,614.7
		c-1-1.3-2.5-1.8-4.7-1.5s-3.5,1.2-4.1,2.7c-0.6,1.5-0.6,3.9-0.2,7.1c0.5,3.3,1.2,5.6,2.2,6.9s2.6,1.9,4.7,1.6
		c2.1-0.3,3.5-1.2,4-2.8c0.6-1.6,0.6-4,0.2-7.3C388.2,618.2,387.5,615.9,386.5,614.7z"/>
	<path class="st0" d="M365.9,610.9l1.6,27.1l-9.3,0.6l-7.9-22l-0.4,0l1.4,22.4l-5.5,0.3l-1.6-27.2l9.1-0.5l8.1,21.9l0.4,0l-1.4-22.4
		L365.9,610.9z"/>
	<path class="st0" d="M330,635c2.9,0,4.4-0.9,4.4-2.8c0-0.9-0.3-1.5-1-2c-0.7-0.5-2.4-1.1-5-2c-2.6-0.9-4.5-1.9-5.5-3
		c-1-1.1-1.6-2.8-1.5-5c0-2.9,0.9-5,2.7-6.4c1.8-1.4,4-2.1,6.8-2.1c2.1,0,4.6,0.4,7.6,1.1l1.4,0.3l-0.6,4.3
		c-3.6-0.5-6.3-0.8-8.2-0.9c-2.8,0-4.3,1.1-4.3,3.5c0,0.9,0.3,1.5,0.9,2c0.6,0.5,1.9,1,3.9,1.6c3.1,0.9,5.2,2,6.5,3.2
		c1.2,1.2,1.9,2.9,1.8,5.1c0,2.7-0.9,4.7-2.6,6c-1.7,1.3-4,1.9-6.8,1.9c-2,0-4.5-0.3-7.5-0.9l-1.4-0.3l0.5-4.4
		C325.8,634.8,328.4,635,330,635z"/>
	<path class="st0" d="M317.4,611.8l-2.1,27.1l-17.5-1.3l0.4-4.8l12,0.9l0.5-6.3l-9.7-0.7l0.4-4.7l9.7,0.7l0.5-6.5l-12-0.9l0.4-4.8
		L317.4,611.8z"/>
	<path class="st0" d="M137.4,546.8l-17,21.2l-7.3-5.8l8.9-21.6l-0.3-0.3l-14,17.5l-4.3-3.5l17-21.2l7.1,5.7l-8.7,21.7l0.3,0.3
		l14-17.5L137.4,546.8z"/>
	<path class="st0" d="M116.3,529.6l-18.5,19.9l-12.9-12l3.3-3.5l8.8,8.2l4.3-4.7l-7.1-6.6l3.2-3.5l7.1,6.6l4.4-4.8l-8.8-8.2l3.3-3.5
		L116.3,529.6z"/>
	<path class="st0" d="M85.9,513.3l-3.5,3.3l-5.4-5.8l10.3-9.7c3.1,2.4,5.4,4.4,7,6.1c2.9,3.1,4.1,6,3.5,8.7
		c-0.6,2.7-2.6,5.8-6.2,9.1c-3.6,3.4-6.8,5.2-9.5,5.5c-2.7,0.3-5.4-1-8.2-3.9c-1.7-1.8-3.3-4-4.9-6.4l-0.8-1.2l3.2-2.8
		c1.9,2.6,3.6,4.6,5,6.1c1.4,1.5,2.6,2.4,3.5,2.6c0.9,0.3,2,0.1,3.2-0.5c1.2-0.6,3-2,5.2-4.1c2.3-2.1,3.6-3.9,4-5.3
		c0.4-1.4-0.3-3-1.9-4.8l-2.4-2.3l-3.9,3.6L85.9,513.3z"/>
	<path class="st0" d="M70.4,484.4c2.8-0.1,5.5,1.5,8.1,4.7c2.6,3.2,3.5,6.2,2.9,8.9c-0.7,2.7-2.9,5.6-6.6,8.6c-3.7,3-7,4.6-9.9,4.7
		c-2.9,0.1-5.6-1.4-8.2-4.6c-2.6-3.2-3.5-6.2-2.8-9c0.8-2.8,3-5.7,6.7-8.7C64.3,486.1,67.6,484.5,70.4,484.4z M75.9,496.9
		c0.6-1.5,0.2-3.1-1.1-4.8c-1.4-1.7-2.8-2.4-4.4-2.1c-1.6,0.3-3.7,1.4-6.2,3.5c-2.6,2.1-4.2,3.9-4.8,5.4c-0.7,1.6-0.3,3.2,1,4.8
		c1.3,1.7,2.8,2.3,4.5,2c1.7-0.3,3.8-1.5,6.3-3.6C73.7,500.2,75.3,498.4,75.9,496.9z"/>
	<path class="st0" d="M51.9,492.2l-4,2.8l-11.5-16.4l4-2.8l4.1,5.9l18.3-12.8l3.2,4.5l-18.3,12.8L51.9,492.2z"/>
	<path class="st0" d="M57.1,460.3l-23,14.5l-2.9-4.7l23-14.5L57.1,460.3z"/>
	<path class="st0" d="M52.3,452.9l-26.7,7.9l-5.1-9.2L41.2,433l2.7,4.8l-3.8,3.3l4.6,8.3l4.8-1.5L52.3,452.9z M27.5,454.8l12.6-3.9
		l-3.6-6.5l-9.9,8.7L27.5,454.8z"/>
	<path class="st0" d="M21.5,443.3l-4.4,2.1l-8.6-18l4.4-2.1l3.1,6.5l20.1-9.6l2.4,5l-20.1,9.6L21.5,443.3z"/>
	<path class="st0" d="M31.8,412.8L6.6,422.9L0,406.6l4.5-1.8L9,416l5.9-2.4l-3.6-9l4.4-1.8l3.6,9l6.1-2.4l-4.5-11.2l4.5-1.8
		L31.8,412.8z"/>
</g>
</svg>
